<svg width="1440" height="139" viewBox="0 0 1440 139" fill="none" xmlns="http://www.w3.org/2000/svg">
<g opacity="0.3">
<path d="M544.028 139C538.475 139 533.071 138.887 527.878 138.66C516.986 138.185 506.923 137.209 497.968 135.759C488.343 134.201 479.902 132.078 472.876 129.449C458.756 124.166 451.691 117.839 444.859 111.719C443.517 110.518 442.129 109.276 440.72 108.07C431.106 99.8537 418.919 92.6566 403.465 86.0675C372.636 72.9235 329.28 61.706 278.083 53.6278C218.874 44.286 155.214 39.6324 98.8296 40.5247C65.6896 41.0494 21.9024 46.0386 2.33287 54.5592C-9.28085 59.6161 -10.2173 65.2279 -0.373486 70.7872L-0.568953 70.8106C-5.73036 67.8951 -7.97922 64.9723 -7.25108 62.1233C-6.58308 59.5098 -3.42136 56.9551 2.14815 54.5301C11.0061 50.6731 25.614 47.2547 44.3931 44.644C61.746 42.2319 81.0729 40.749 98.8167 40.4682C128.325 40.0016 159.708 41.0371 192.094 43.5465C221.451 45.8215 250.42 49.1969 278.195 53.5792C329.422 61.6618 372.803 72.8854 403.649 86.0373C419.112 92.6308 431.306 99.8319 440.926 108.053C442.337 109.258 443.725 110.501 445.065 111.703C451.891 117.817 458.951 124.14 473.052 129.416C486.689 134.519 505.148 137.61 527.914 138.603C559.441 139.979 597.725 137.101 630.322 130.904C677.296 121.973 709.897 108.974 741.426 96.4033C746.953 94.1999 752.666 91.9215 758.324 89.7214C773.011 84.0084 792.903 76.6054 816.543 70.0102C840.707 63.2689 865.262 58.3161 891.612 54.868C907.741 52.7574 924.834 51.3355 942.416 50.6418C958.657 50.0007 975.846 49.961 993.509 50.5227C1023.8 51.4865 1056.44 54.209 1093.29 58.8453C1165.85 67.9751 1238.33 79.0566 1308.72 91.7828C1375.62 103.878 1441.23 117.566 1503.73 132.463L1503.59 132.504C1374.02 101.623 1235.95 76.8577 1093.2 58.8956C1012.55 48.7477 948.525 47.4835 891.709 54.9178C833.907 62.4808 793.528 76.1293 758.502 89.7522C752.847 91.9517 747.133 94.2301 741.607 96.4336C710.069 109.009 677.458 122.012 630.451 130.949C615.261 133.837 598.172 136.089 581.034 137.463C571.98 138.188 562.981 138.663 554.282 138.873C550.815 138.958 547.393 139 544.028 139Z" fill="#A1A1A1"/>
<path d="M549.457 135.865C535.298 135.865 522.183 135.163 510.461 133.777C497.391 132.232 486.113 129.838 476.937 126.662C476.125 126.38 475.32 126.089 474.542 125.796C460.572 120.536 453.194 114.291 446.061 108.251C444.617 107.03 443.127 105.768 441.615 104.543C432.609 97.2483 421.764 90.8192 408.458 84.8891C406.819 84.1591 405.122 83.4274 403.41 82.7147C372.128 69.6837 328.42 58.6083 277.012 50.6857C217.376 41.5033 153.536 37.0421 97.2521 38.1245C64.3526 38.7639 20.7673 43.8348 1.11403 52.29C-10.6543 57.3531 -11.986 62.9761 -2.74145 68.5515L-2.93906 68.5739C-7.78473 65.6516 -9.77582 62.7232 -8.85437 59.8709C-8.0081 57.2512 -4.71752 54.6909 0.929315 52.2609C9.87748 48.4106 24.4424 44.9883 43.0454 42.3642C60.2394 39.9386 79.4825 38.4132 97.2327 38.0686C126.704 37.5019 158.121 38.4384 190.611 40.8516C220.039 43.0377 249.145 46.3303 277.12 50.6376C328.558 58.5647 372.289 69.6468 403.59 82.6851C405.302 83.3983 407.001 84.1306 408.64 84.8611C421.955 90.7951 432.806 97.2276 441.817 104.526C443.331 105.751 444.822 107.014 446.265 108.235C453.396 114.271 460.768 120.511 474.718 125.764C475.494 126.056 476.299 126.347 477.109 126.628C496.071 133.194 522.125 135.865 549.523 135.865C549.674 135.865 549.822 135.865 549.972 135.865C549.8 135.864 549.628 135.865 549.457 135.865ZM555.301 135.826C580.773 135.485 607.057 132.936 629.606 129.144C678.245 120.93 713.202 108.244 747.01 95.9762C748.402 95.4705 749.794 94.966 751.186 94.4614C754.242 93.3538 757.866 92.0426 761.564 90.7207C778.157 84.7929 798.238 77.8956 821.364 71.6875C845.97 65.0816 870.553 60.1797 896.515 56.7008C912.467 54.5656 929.326 53.0614 946.623 52.2301C962.649 51.4599 979.585 51.2423 996.955 51.5829C1026.96 52.172 1059.23 54.4051 1095.6 58.4103C1131.06 62.3093 1160.2 65.9794 1187.32 69.9606C1225.75 75.606 1262.34 82.1106 1293.08 87.7286C1364.53 100.827 1434.64 115.701 1501.45 131.937L1501.31 131.978C1434.5 115.744 1364.4 100.871 1292.96 87.7744C1262.23 82.157 1225.63 75.6535 1187.22 70.0098C1160.11 66.0298 1130.97 62.3607 1095.52 58.4629C1016.29 49.7375 953.086 49.1932 896.614 56.7512C838.002 64.6039 796.261 78.4203 761.738 90.7543C758.037 92.0761 754.416 93.3868 751.36 94.495C749.968 94.999 748.576 95.5041 747.184 96.0098C713.365 108.282 678.395 120.972 629.722 129.192C617.653 131.221 604.81 132.833 591.549 133.983C579.205 135.052 567.037 135.67 555.301 135.826Z" fill="#A1A1A1"/>
<path d="M555.441 132.807C553.738 132.807 552.045 132.798 550.366 132.778C536.22 132.615 523.128 131.77 511.456 130.265C498.691 128.619 487.632 126.18 478.587 123.017C477.784 122.735 476.983 122.443 476.209 122.15C462.396 116.915 454.711 110.754 447.281 104.796C445.733 103.554 444.13 102.27 442.507 101.023C433.056 93.7533 421.925 87.3757 408.475 81.5256C406.811 80.8023 405.088 80.0768 403.35 79.3697C371.615 66.4523 327.555 55.519 275.937 47.7518C215.875 38.7288 151.855 34.4596 95.6697 35.7322C64.0354 36.46 20.5768 41.2416 -0.0859985 50.0196C-12.024 55.091 -13.7617 60.7291 -5.1121 66.3242L-5.31184 66.3449C-9.84391 63.4136 -11.573 60.4785 -10.4561 57.6212C-9.42938 54.9931 -6.00132 52.4261 -0.268565 49.9905C8.77411 46.1492 23.2918 42.7257 41.7165 40.0893C58.7494 37.652 77.9044 36.0852 95.6503 35.6768C125.087 35.0106 156.539 35.8474 189.129 38.1644C218.631 40.2621 247.872 43.4714 276.044 47.7037C327.693 55.4759 371.776 66.4153 403.531 79.3401C405.268 80.0477 406.993 80.7732 408.658 81.4976C422.114 87.3511 433.251 93.7326 442.706 101.006C444.33 102.253 445.933 103.538 447.481 104.779C454.909 110.734 462.587 116.891 476.383 122.12C477.157 122.413 477.953 122.704 478.757 122.985C515.51 135.839 580.643 134.459 628.887 127.39C679.556 119.9 717.211 107.452 753.626 95.4136L754 95.29C757.527 94.1231 761.174 92.9171 764.804 91.7261C803.107 79.1622 845.208 66.2503 901.419 58.5391C917.2 56.3788 933.827 54.7923 950.834 53.824C966.653 52.9234 983.331 52.5279 1000.41 52.6487C1030.17 52.8591 1062.06 54.6032 1097.9 57.9808C1135.57 61.5179 1163.91 64.7691 1189.81 68.5231C1226.7 73.8827 1262.44 80.6552 1293.97 86.6306C1364.18 100.006 1433.22 115.074 1499.18 131.414L1499.03 131.455C1433.08 115.116 1364.04 100.05 1293.85 86.6754C1262.32 80.7011 1226.59 73.9296 1189.7 68.5718C1163.82 64.8188 1135.48 61.5688 1097.83 58.0329C1020.14 50.7116 957.765 50.8878 901.518 58.5878C845.344 66.294 803.26 79.2002 764.971 91.7597C761.341 92.9506 757.694 94.1572 754.167 95.3236L753.794 95.4472C735.646 101.446 716.882 107.649 696.619 113.19C673.847 119.417 651.725 124.077 628.99 127.437C605.204 130.922 579.294 132.807 555.441 132.807Z" fill="#A1A1A1"/>
<path d="M1496.75 130.921C1431.66 114.477 1363.69 99.2178 1294.75 85.5664C1291.83 84.9924 1288.9 84.4157 1285.96 83.8373C1256.1 77.9514 1225.22 71.8652 1192.2 67.1238C1160.16 62.5368 1127.69 59.732 1100.16 57.5935C1024.15 51.6539 962.593 52.5506 906.432 60.4145C848.78 68.5111 804.108 81.9538 768.214 92.7557C766.06 93.404 763.91 94.0535 761.755 94.7035C760.166 95.1834 758.574 95.6634 756.983 96.1428C736.545 102.299 717.955 107.804 697.415 112.827C673.949 118.564 651.332 122.766 628.265 125.674C606.649 128.398 583.557 129.84 562.078 129.841C558.164 129.841 554.309 129.793 550.52 129.696C536.687 129.343 523.881 128.351 512.459 126.748C499.995 124.999 489.154 122.514 480.234 119.363C479.437 119.08 478.642 118.788 477.873 118.494C464.223 113.287 456.24 107.212 448.52 101.337C446.858 100.072 445.137 98.763 443.397 97.4926C433.496 90.2457 422.077 83.919 408.494 78.1505C406.803 77.4328 405.053 76.714 403.292 76.0131C371.101 63.2092 326.691 52.418 274.864 44.8058C214.377 35.9422 150.178 31.866 94.0924 33.3271C55.7502 34.3457 16.5424 40.2674 -1.25514 47.7269C-13.3801 52.809 -15.5301 58.465 -7.47763 64.0835L-7.67952 64.1031C-11.8959 61.1613 -13.365 58.2172 -12.0462 55.3526C-10.8327 52.715 -7.26284 50.1396 -1.43773 47.6973C7.69945 43.8671 22.1699 40.4437 40.4099 37.7977C57.2795 35.3504 76.3357 33.7427 94.0709 33.2717C123.474 32.5053 154.958 33.2432 187.649 35.464C217.221 37.4733 246.602 40.5997 274.972 44.7566C326.831 52.3732 371.264 63.1706 403.474 75.9823C405.238 76.6838 406.988 77.4032 408.679 78.1209C422.271 83.8927 433.693 90.2228 443.601 97.473C445.341 98.744 447.062 100.052 448.724 101.318C456.439 107.19 464.419 113.261 478.052 118.462C478.821 118.755 479.613 119.047 480.408 119.328C518.776 132.885 583.988 131.191 628.173 125.623C680.889 118.978 721.229 106.827 756.822 96.1059C758.413 95.6259 760.003 95.146 761.594 94.6666C763.746 94.0165 765.899 93.3671 768.053 92.7188C788.542 86.5532 808.775 80.5615 831.019 75.0403C856.598 68.6907 881.235 63.8905 906.333 60.3653C921.948 58.1786 938.339 56.5099 955.052 55.4063C970.671 54.3742 987.094 53.8014 1003.86 53.7029C1033.44 53.5295 1064.96 54.7848 1100.22 57.5398C1127.77 59.6794 1160.25 62.4853 1192.3 67.0751C1225.34 71.8182 1256.23 77.9061 1286.1 83.7931C1289.03 84.3715 1291.96 84.9483 1294.88 85.5222C1363.83 99.1747 1431.8 114.436 1496.91 130.882L1496.75 130.921Z" fill="#A1A1A1"/>
<path d="M1494.48 130.398C1429.01 113.534 1362.12 98.0807 1295.64 84.4668C1291.66 83.6523 1287.6 82.8126 1283.66 82.001C1255.48 76.1878 1226.34 70.1766 1194.69 65.6852C1163.08 61.2162 1130.34 58.869 1102.48 57.1629C1028.32 52.5776 967.585 54.1942 911.342 62.2505C857.696 69.9629 815.668 81.5602 775.023 92.7754L770.56 94.0066C767.035 94.9794 763.39 95.9846 759.797 96.9708C719.111 108.122 678.383 118.573 627.54 123.918C615.202 125.216 602.534 126.115 589.883 126.592C576.297 127.104 563.1 127.111 550.658 126.613C537.143 126.072 524.627 124.936 513.458 123.236C501.303 121.386 490.679 118.856 481.886 115.717C481.093 115.432 480.305 115.14 479.543 114.847C466.06 109.67 457.789 103.685 449.79 97.8961C448.005 96.6044 446.158 95.2686 444.293 93.9714C433.932 86.7468 422.23 80.471 408.518 74.7854C406.804 74.075 405.028 73.3617 403.238 72.6664C370.595 59.9761 325.834 49.3269 273.795 41.8697C212.88 33.1667 148.501 29.2823 92.5119 30.933C54.5198 32.077 15.4902 38.0401 -2.39749 45.4347C-14.7243 50.5296 -17.2996 56.2074 -9.8464 61.8545L-10.0505 61.873C-13.9511 58.9183 -15.156 55.963 -13.6332 53.09C-12.2284 50.4412 -8.51042 47.8557 -2.5822 45.4056C6.65378 41.5883 21.0727 38.1682 39.1193 35.5144C55.8214 33.0582 74.7745 31.4119 92.4861 30.8782C121.854 30.0123 153.371 30.6505 186.165 32.7751C215.81 34.6961 245.327 37.7391 273.896 41.821C325.965 49.2822 370.751 59.938 403.414 72.6356C405.204 73.3315 406.982 74.0453 408.696 74.7557C422.417 80.4442 434.125 86.7233 444.491 93.9518C446.355 95.249 448.203 96.5854 449.987 97.8771C457.982 103.662 466.249 109.645 479.717 114.815C480.477 115.107 481.265 115.399 482.056 115.684C519.5 129.051 581.716 128.676 627.456 123.867C678.258 118.526 718.969 108.079 759.638 96.9328C763.231 95.9466 766.876 94.9414 770.401 93.9686L774.864 92.7374C794.816 87.2324 815.445 81.5395 837.849 76.2437C863.225 70.2459 887.23 65.6528 911.235 62.2013C926.691 59.9873 942.85 58.2364 959.26 56.9979C974.688 55.8332 990.855 55.0825 1007.31 54.7665C1036.76 54.2009 1067.9 54.9673 1102.53 57.1081C1130.4 58.8153 1163.16 61.1631 1194.79 65.636C1226.45 70.129 1255.6 76.1419 1283.79 81.9568C1287.73 82.7684 1291.8 83.6075 1295.77 84.4226C1362.25 98.0376 1429.16 113.492 1494.63 130.358L1494.48 130.398Z" fill="#A1A1A1"/>
<path d="M1492.2 129.872C1427.3 112.821 1361.47 97.1741 1296.54 83.3656C1291.66 82.3279 1286.66 81.2488 1281.82 80.2056C1255.16 74.455 1227.59 68.5087 1197.17 64.2456C1165.72 59.8532 1132.83 57.9821 1104.8 56.7313C1032.7 53.4639 972.785 55.801 916.25 64.0856C866.913 71.3459 826.405 81.6354 787.23 91.5858C783.108 92.633 778.844 93.7154 774.69 94.7643C769.812 95.996 766.086 96.9319 762.608 97.7978C743.984 102.433 721.809 107.77 698.539 112.209C673.878 116.913 650.417 120.169 626.811 122.163C614.399 123.211 601.784 123.872 589.315 124.127C575.928 124.401 562.965 124.2 550.791 123.528C537.6 122.8 525.377 121.52 514.455 119.723C502.611 117.774 492.209 115.198 483.536 112.069C482.754 111.785 481.97 111.492 481.209 111.198C467.905 106.056 459.357 100.163 451.087 94.4639C449.169 93.142 447.187 91.7754 445.187 90.448C434.359 83.2436 422.372 77.0193 408.537 71.4181C406.797 70.7138 404.995 70.0073 403.18 69.3176C370.083 56.7408 324.971 46.2337 272.721 38.9315C211.383 30.3884 146.824 26.697 90.9331 28.5363C59.1313 29.6058 17.5951 34.533 -3.51016 43.1286C-16.0582 48.2392 -19.0696 53.9427 -12.2156 59.6222L-12.4197 59.639C-16.0045 56.6692 -16.941 53.7011 -15.2055 50.8168C-13.6032 48.1547 -9.73051 45.558 -3.69061 43.0984C5.64418 39.2967 20.0094 35.8822 37.8563 33.2229C54.3909 30.7593 73.2301 29.0755 90.9074 28.4809C120.241 27.5154 151.792 28.0541 184.685 30.0824C214.401 31.915 244.055 34.8753 272.822 38.8822C325.102 46.1884 370.24 56.7016 403.356 69.2857C405.171 69.9754 406.976 70.683 408.715 71.3879C422.557 76.9919 434.55 83.2196 445.384 90.4273C447.386 91.7553 449.369 93.1219 451.287 94.4437C459.55 100.14 468.096 106.03 481.385 111.166C482.146 111.46 482.928 111.752 483.71 112.035C514.861 123.276 568.333 127.042 626.745 122.108C679.643 117.641 722.795 107.629 762.46 97.7564C765.938 96.8905 769.662 95.9547 774.54 94.7229C778.694 93.674 782.958 92.5916 787.079 91.5444C806.365 86.6458 826.307 81.5805 847.577 76.8375C871.63 71.4735 894.06 67.2859 916.147 64.0358C931.455 61.7926 947.377 59.9595 963.476 58.5879C978.724 57.2884 994.636 56.3604 1010.77 55.8284C1040.14 54.8607 1070.91 55.1376 1104.84 56.6748C1132.88 57.9267 1165.79 59.7984 1197.28 64.1947C1227.71 68.4606 1255.28 74.4086 1281.95 80.1608C1286.79 81.2041 1291.79 82.2831 1296.67 83.3208C1361.61 97.131 1427.44 112.779 1492.35 129.831L1492.2 129.872Z" fill="#A1A1A1"/>
<path d="M1489.92 129.346C1425.58 112.107 1360.82 96.2656 1297.43 82.2635C1292.04 81.0725 1286.5 79.8223 1281.14 78.6134C1255.63 72.8551 1229.24 66.9009 1199.66 62.8045C1168.18 58.4647 1135.22 57.0802 1107.12 56.2982C1038.29 54.3308 977.457 57.478 921.157 65.9192C876.328 72.671 837.9 81.7035 800.737 90.439C793.23 92.2033 785.469 94.028 777.924 95.7672C773.308 96.8317 769.218 97.7664 765.417 98.6245C747.737 102.611 724.22 107.722 699.089 111.899C673.839 116.095 649.956 118.878 626.078 120.406C600.034 122.073 574.043 122.085 550.914 120.442C538.055 119.529 526.121 118.105 515.444 116.209C503.916 114.162 493.735 111.542 485.18 108.422C484.404 108.138 483.627 107.844 482.871 107.55C469.756 102.447 460.941 96.651 452.418 91.0459C450.356 89.69 448.225 88.2881 446.075 86.926C434.773 79.7406 422.5 73.5666 408.553 68.0521C406.788 67.354 404.96 66.6537 403.119 65.9701C369.569 53.5069 324.106 43.1413 271.646 35.9951C209.885 27.6126 145.145 24.1137 89.3512 26.1414C51.5395 27.5455 13.7858 33.4415 -4.59163 40.812C-17.3802 45.9411 -20.8362 51.6743 -14.5858 57.3918L-14.792 57.4069C-18.059 54.4192 -18.7248 51.4354 -16.7724 48.5389C-14.9682 45.8617 -10.9301 43.2515 -4.77205 40.7813C4.66154 36.9975 18.9709 33.5909 36.6094 30.9293C52.97 28.4607 71.6911 26.74 89.3211 26.0855C118.621 25.0204 150.206 25.4601 183.2 27.3917C212.989 29.1359 242.78 32.0134 271.745 35.9448C324.235 43.0955 369.723 53.4666 403.295 65.9376C405.136 66.6212 406.964 67.3221 408.731 68.0208C422.684 73.5387 434.964 79.7155 446.273 86.9042C448.423 88.2663 450.553 89.6687 452.615 91.0247C461.134 96.627 469.945 102.421 483.047 107.518C483.803 107.813 484.578 108.105 485.354 108.389C515.97 119.557 568.557 124.029 626.026 120.352C678.418 116.999 723.915 107.908 765.275 98.5826C769.074 97.7245 773.166 96.7903 777.78 95.7258C785.323 93.9866 793.086 92.1625 800.591 90.3981C837.762 81.661 876.197 72.6263 921.047 65.8716C936.22 63.5966 951.91 61.6818 967.682 60.1793C982.767 58.7428 998.423 57.6368 1014.21 56.8923C1043.58 55.5078 1073.98 55.2958 1107.14 56.2434C1135.26 57.026 1168.25 58.411 1199.76 62.7558C1229.36 66.855 1255.76 72.8114 1281.28 78.5721C1286.64 79.7809 1292.18 81.0306 1297.57 82.2215C1360.96 96.2248 1425.73 112.067 1490.08 129.308L1489.92 129.346Z" fill="#A1A1A1"/>
<path d="M1487.65 128.816C1423.88 111.387 1360.18 95.3525 1298.33 81.158C1292.64 79.8535 1286.79 78.4723 1281.14 77.1365C1256.56 71.3294 1231.14 65.3244 1202.15 61.36C1170.54 57.0571 1137.55 56.166 1109.44 55.8617C1043.21 55.092 983.225 58.9803 926.065 67.7493C885.979 73.9284 850.244 81.7487 815.684 89.3111C803.802 91.9117 792.577 94.368 781.161 96.7661C776.517 97.7422 772.288 98.6193 768.229 99.4467C742.035 104.78 720.242 108.637 699.644 111.583C673.802 115.279 649.501 117.589 625.35 118.645C615.981 119.054 606.646 119.259 597.481 119.259C581.234 119.259 565.514 118.619 551.041 117.351C524.85 115.057 503.246 110.824 486.83 104.77C486.056 104.483 485.285 104.189 484.538 103.896C471.622 98.8375 462.56 93.144 453.797 87.6374C451.576 86.2423 449.282 84.8001 446.969 83.3978C435.183 76.2292 422.622 70.1066 408.575 64.68C406.784 63.988 404.93 63.2938 403.063 62.6164C369.06 50.2667 323.245 40.0433 270.574 33.052C208.39 24.8306 143.472 21.5235 87.7747 23.7398C49.8063 25.282 13.1415 31.0661 -5.629 38.4758C-18.6775 43.6262 -22.591 49.3935 -16.9506 55.1547L-17.1589 55.1686C-20.1037 52.1602 -20.4946 49.1585 -18.3188 46.2469C-16.3041 43.5518 -12.0963 40.9271 -5.80727 38.4451C3.72513 34.6821 17.9722 31.2866 35.396 28.625C51.5804 26.1525 70.1705 24.3982 87.7425 23.6844C117.008 22.5198 148.627 22.8599 181.72 24.6952C211.582 26.3516 241.509 29.1463 270.673 33.0016C323.374 39.9974 369.215 50.2264 403.24 62.5834C405.106 63.2613 406.96 63.9556 408.753 64.6481C422.809 70.0775 435.376 76.2034 447.166 83.3748C449.48 84.7772 451.776 86.2199 453.995 87.615C462.754 93.1189 471.811 98.8101 484.716 103.864C485.463 104.157 486.232 104.45 487.006 104.737C517.661 116.043 568.072 121.092 625.314 118.589C679.804 116.206 728.067 107.553 768.095 99.4019C772.153 98.5746 776.382 97.698 781.026 96.7219C792.44 94.3238 803.665 91.8681 815.547 89.2674C850.111 81.7034 885.854 73.882 925.956 67.7007C941.015 65.3904 956.471 63.3934 971.897 61.7644C986.838 60.1869 1002.24 58.9031 1017.67 57.9494C1047.1 56.1308 1077.12 55.4293 1109.45 55.8052C1137.58 56.1095 1170.6 57.0018 1202.25 61.3096C1231.26 65.2768 1256.69 71.2847 1281.28 77.094C1286.94 78.4298 1292.79 79.8109 1298.47 81.1149C1360.33 95.3106 1424.03 111.347 1487.8 128.777L1487.65 128.816Z" fill="#A1A1A1"/>
<path d="M1485.37 128.289C1421.29 110.419 1360.4 94.6417 1299.22 80.0539C1293.38 78.6622 1287.64 77.2408 1281.55 75.736C1257.77 69.8535 1233.18 63.7712 1204.64 59.9175C1172.63 55.6164 1138.19 55.2584 1111.76 55.4273C1048.55 55.7786 989.409 60.4087 930.973 69.5821C895.913 75.1128 863.542 81.7545 832.236 88.178C815.783 91.5539 800.243 94.7419 784.396 97.7676C779.692 98.6666 775.321 99.4855 771.038 100.271C744.488 105.136 721.978 108.63 700.194 111.268C673.753 114.47 649.033 116.308 624.62 116.886C612.076 117.183 599.618 117.127 587.592 116.72C574.859 116.288 562.603 115.461 551.166 114.261C525.814 111.601 504.724 107.18 488.479 101.121C487.712 100.833 486.948 100.539 486.205 100.246C473.506 95.2392 464.217 89.6542 455.232 84.2533C452.835 82.8123 450.356 81.3221 447.862 79.8733C435.583 72.7203 422.738 66.6487 408.594 61.3116C406.775 60.6257 404.896 59.9377 403.008 59.2664C368.551 47.0303 322.386 36.9489 269.505 30.1126C220.696 23.829 170.362 20.5504 124.206 20.5504C111.157 20.5504 98.4523 20.8122 86.1985 21.3419C48.6876 22.9955 12.2527 28.8003 -6.62738 36.1306C-19.953 41.3049 -24.3412 47.1114 -19.3172 52.9218L-19.5277 52.9341C-22.1503 49.9022 -22.2598 46.8798 -19.8542 43.9514C-17.6247 41.2367 -13.2344 38.5947 -6.80783 36.0992C2.82337 32.3597 17.0038 28.9782 34.2043 26.3194C50.4402 23.8094 68.4074 22.0691 86.1599 21.2871C115.391 20.0229 147.044 20.264 180.238 22.0026C210.171 23.57 240.238 26.2814 269.599 30.0617C322.511 36.902 368.704 46.9889 403.182 59.2323C405.072 59.9036 406.953 60.5922 408.773 61.2785C422.923 66.6185 435.774 72.6929 448.06 79.8492C450.554 81.298 453.035 82.7882 455.432 84.2298C464.412 89.6285 473.697 95.2112 486.385 100.214C487.128 100.506 487.893 100.801 488.658 101.088C519.035 112.419 568.583 118.156 624.603 116.829C681.288 115.486 732.571 107.25 770.918 100.224C775.201 99.4385 779.57 98.6196 784.273 97.7212C800.119 94.6966 815.656 91.508 832.107 88.1327C863.417 81.7086 895.793 75.0653 930.866 69.5329C960.951 64.81 990.474 61.368 1021.12 59.0097C1050.68 56.7352 1080.33 55.5448 1111.76 55.3703C1129.69 55.2556 1144.32 55.4547 1157.8 55.9962C1175.21 56.6955 1190.56 57.9614 1204.74 59.8666C1233.31 63.7236 1257.91 69.8093 1281.71 75.6946C1287.79 77.1994 1293.54 78.6202 1299.37 80.012C1360.55 94.6003 1421.44 110.379 1485.53 128.249L1485.37 128.289Z" fill="#A1A1A1"/>
<path d="M1483.09 127.766C1419.59 109.701 1359.74 93.7354 1300.12 78.9552C1294.22 77.493 1288.4 75.9865 1282.24 74.3917C1259.17 68.4163 1235.31 62.2367 1207.12 58.4798C1174.85 54.1988 1140.45 54.37 1114.09 54.9971C1054.43 56.367 996.136 61.7388 935.881 71.4185C906.193 76.2108 877.926 81.6951 850.59 86.9993C828.98 91.1919 808.57 95.1524 787.633 98.7722C782.901 99.5911 778.261 100.374 773.847 101.099C747.246 105.465 723.333 108.689 700.744 110.955C673.695 113.669 648.556 115.035 623.889 115.13C611.339 115.179 598.931 114.883 587.016 114.252C574.526 113.589 562.507 112.554 551.29 111.173C526.809 108.16 506.229 103.551 490.127 97.4744C489.371 97.1874 488.61 96.8926 487.869 96.5978C475.409 91.6523 465.918 86.1853 456.737 80.8985C454.141 79.4027 451.454 77.8554 448.754 76.3512C435.972 69.2117 422.841 63.1916 408.614 57.9456C406.769 57.2659 404.863 56.584 402.95 55.9189C368.04 43.7964 321.523 33.8571 268.431 27.1757C205.403 19.2771 140.122 16.3549 84.6176 18.9471C47.592 20.7064 11.3999 26.5263 -7.58544 33.7732C-21.2117 38.975 -26.0875 44.8251 -21.6886 50.692L-21.8991 50.7026C-24.193 47.6444 -24.0169 44.5985 -21.3728 41.65C-18.9178 38.9129 -14.3406 36.2519 -7.76371 33.7413C1.962 30.0286 16.0716 26.6639 33.04 24.0107C49.0891 21.5013 66.9103 19.7314 84.5789 18.8917C113.778 17.5285 145.463 17.6694 178.756 19.3118C208.762 20.792 238.964 23.4205 268.523 27.1248C321.647 33.8096 368.19 43.755 403.119 55.8848C405.035 56.5499 406.943 57.2324 408.788 57.9126C423.024 63.1614 436.158 69.1843 448.947 76.3266C451.649 77.8308 454.334 79.3781 456.933 80.8745C466.109 86.1591 475.596 91.6237 488.047 96.566C488.788 96.8602 489.549 97.155 490.303 97.4414C521.001 109.025 568.441 115.288 623.885 115.073C668.873 114.9 716.488 110.444 773.731 101.051C778.143 100.326 782.781 99.543 787.512 98.7241C808.444 95.1048 828.853 91.1455 850.459 86.9528C877.799 81.6481 906.07 76.1627 935.767 71.3693C966.147 66.4886 995.195 62.7944 1024.57 60.0741C1054.33 57.3185 1083.61 55.6387 1114.07 54.9394C1140.46 54.3112 1174.9 54.1406 1207.22 58.4284C1235.44 62.1897 1259.31 68.3721 1282.4 74.3503C1288.55 75.9451 1294.37 77.451 1300.26 78.9127C1359.89 93.6935 1419.75 109.66 1483.25 127.726L1483.09 127.766Z" fill="#A1A1A1"/>
<path d="M1476.26 126.184C1414.55 107.524 1357.82 90.9929 1302.81 75.6454C1297.04 74.0361 1291.33 72.3361 1285.28 70.536C1264.05 64.2126 1242.09 57.6739 1214.59 54.1536C1180.94 49.8625 1145.09 51.8355 1121.06 53.6933C1061.69 58.2417 1008.74 66.9022 950.612 76.9169C940.128 78.7299 929.524 80.6011 919.268 82.4113C879.824 89.3723 839.039 96.57 797.346 101.777C792.281 102.41 787.212 103.015 782.283 103.574C754.489 106.725 727.614 108.887 702.404 110.002C673.846 111.265 646.696 111.215 621.703 109.855C596.599 108.488 573.038 105.811 551.675 101.896C530.057 97.9344 511.013 92.7639 495.076 86.5284C494.339 86.2386 493.596 85.9421 492.868 85.6479C481.336 80.9764 471.492 75.9548 461.973 71.0987C458.542 69.3489 454.996 67.5399 451.433 65.7795C436.87 58.5695 423.282 52.8698 408.672 47.842C406.754 47.1819 404.77 46.5185 402.776 45.8707C366.509 34.0872 318.941 24.5742 265.214 18.3588C200.925 10.9463 135.107 8.60074 79.8798 11.7546C22.2258 15.083 -35.454 27.5126 -28.7934 43.9934L-29.006 43.999C-30.6062 40.0402 -28.5184 36.148 -22.8028 32.4302C-17.5469 29.0124 -9.32906 25.7964 1.62095 22.8708C21.8241 17.4738 50.3311 13.402 79.8326 11.6992C108.93 10.0378 140.717 9.88119 174.31 11.2338C204.536 12.451 235.147 14.8307 265.3 18.3073C319.057 24.526 366.653 34.0452 402.944 45.8344C404.939 46.4827 406.924 47.1461 408.844 47.8068C423.461 52.8374 437.055 58.5393 451.622 65.752C455.185 67.513 458.733 69.3221 462.164 71.0719C471.681 75.9268 481.523 80.9473 493.048 85.6166C493.774 85.9108 494.518 86.2067 495.254 86.4965C527.14 98.972 570.88 107.03 621.744 109.8C668.844 112.364 722.825 110.252 782.193 103.523C787.12 102.963 792.185 102.359 797.247 101.726C838.925 96.5214 879.705 89.3248 919.141 82.3648C929.397 80.5546 940.001 78.6835 950.487 76.8705C975.934 72.4866 1005.54 67.4582 1034.93 63.26C1065.67 58.8687 1093.82 55.7222 1120.99 53.6401C1138.1 52.3183 1153.14 51.6325 1166.98 51.5441C1184.44 51.4322 1200.48 52.2937 1214.68 54.1038C1227 55.6808 1239.4 58.0341 1252.58 61.2987C1264.23 64.1813 1275.01 67.3933 1285.44 70.499C1291.48 72.2986 1297.19 73.9986 1302.96 75.6074C1357.97 90.9554 1414.71 107.487 1476.42 126.148L1476.26 126.184Z" fill="#A1A1A1"/>
<path d="M1473.98 125.654C1412.88 106.793 1357.18 90.0731 1303.7 74.54C1298.04 72.8954 1292.43 71.1439 1286.49 69.2901C1265.8 62.8353 1244.42 56.1606 1217.08 52.7097C1191.53 49.4949 1160.88 49.6739 1123.38 53.2568C1070.94 58.2382 1024.07 66.5703 974.445 75.3925C968.266 76.4911 961.878 77.6267 955.52 78.7483C953.031 79.1885 950.539 79.6299 948.05 80.0707C900.766 88.4442 851.873 97.103 800.583 102.776C795.398 103.35 790.187 103.896 785.095 104.397C756.691 107.19 729.058 108.968 702.965 109.68C673.747 110.478 646.162 109.944 620.98 108.094C596.266 106.278 572.996 103.151 551.815 98.7996C531.286 94.5824 512.753 89.2257 496.732 82.8771C496.002 82.5868 495.265 82.2898 494.541 81.995C483.447 77.4701 473.636 72.6509 464.144 67.9906C460.302 66.1032 456.326 64.1515 452.333 62.2518C437.207 55.0469 423.345 49.3965 408.7 44.4705C406.754 43.816 404.746 43.1593 402.727 42.5176C366 30.8482 318.08 21.4767 264.142 15.4168C199.437 8.16712 133.436 6.01346 78.3013 9.35414C21.7062 12.8117 -35.892 25.3432 -31.1602 41.758L-31.375 41.7625C-32.5155 37.8031 -30.1228 33.9153 -24.259 30.2071C-18.8484 26.7853 -10.5833 23.5655 0.308743 20.6376C20.426 15.2294 48.8342 11.0972 78.2519 9.29988C107.317 7.53892 139.136 7.28272 172.828 8.53911C203.127 9.66796 233.878 11.9648 264.228 15.3654C318.196 21.4292 366.146 30.8057 402.888 42.4813C404.907 43.1229 406.92 43.7807 408.866 44.4352C423.517 49.364 437.388 55.0161 452.518 62.2239C456.513 64.1236 460.486 66.0758 464.331 67.9632C473.818 72.6224 483.63 77.4404 494.72 81.9636C495.443 82.2584 496.178 82.5549 496.908 82.8452C529.486 95.7538 572.407 104.465 621.036 108.039C669.039 111.566 724.21 110.323 785.017 104.343C790.106 103.842 795.314 103.297 800.497 102.724C851.77 97.0527 900.654 88.3955 947.927 80.0231C950.419 79.5818 952.908 79.141 955.398 78.7007C961.755 77.5791 968.143 76.4436 974.323 75.3455C1023.96 66.5217 1070.84 58.1873 1123.3 53.2037C1140.24 51.5848 1155.29 50.6769 1169.28 50.4269C1186.8 50.1142 1202.92 50.8654 1217.17 52.6588C1229.42 54.2044 1241.66 56.5684 1254.6 59.8862C1266.02 62.8135 1276.51 66.0876 1286.65 69.2537C1292.59 71.107 1298.2 72.8579 1303.86 74.5019C1357.35 90.0357 1413.05 106.756 1474.15 125.618L1473.98 125.654Z" fill="#A1A1A1"/>
<path d="M1471.7 125.128C1415.94 107.552 1359.72 90.1601 1304.6 73.4371C1298.98 71.7443 1293.42 69.9258 1287.53 68.0009C1268.39 61.7391 1246.68 54.6421 1219.57 51.2684C1193.72 48.0592 1163.01 48.5677 1125.7 52.8224C1081.33 57.8647 1042.06 65.2789 1000.49 73.1283C987.468 75.5862 974.005 78.1287 960.426 80.581C936.724 84.871 911.085 89.4105 884.208 93.5449C855.424 97.9731 829.127 101.32 803.814 103.778C798.496 104.294 793.143 104.78 787.9 105.222C758.895 107.662 730.51 109.051 703.535 109.35C673.672 109.68 645.651 108.666 620.245 106.335C573.331 101.976 532.328 92.8563 498.376 79.2284C497.652 78.9376 496.921 78.64 496.202 78.3452C485.671 74.02 476.031 69.457 466.709 65.044C462.321 62.9669 457.785 60.8189 453.22 58.7284C437.519 51.5252 423.377 45.9245 408.716 41.1031C406.742 40.4543 404.708 39.8037 402.665 39.1688C365.491 27.6117 317.219 18.3829 263.071 12.478C197.946 5.3905 131.767 3.42983 76.7228 6.95679C19.7841 10.6258 -36.3707 22.9912 -33.529 39.5257L-33.7438 39.5279C-34.4247 35.5674 -31.7226 31.6841 -25.715 27.9854C-20.1476 24.5592 -11.8352 21.3359 -1.00549 18.4059C9.19705 15.6453 21.2897 13.2315 34.9354 11.2311C48.1836 9.28946 62.2245 7.8328 76.6691 6.90197C105.702 5.042 137.556 4.68623 171.347 5.84584C201.718 6.88799 232.605 9.1015 263.152 12.426C317.333 18.3342 365.633 27.5687 402.828 39.1313C404.871 39.7668 406.909 40.4179 408.883 41.0668C423.551 45.891 437.699 51.4938 453.407 58.6993C457.971 60.7903 462.508 62.9384 466.896 65.016C476.218 69.4285 485.855 73.9909 496.382 78.3144C497.1 78.6097 497.832 78.9068 498.554 79.1977C532.48 92.8149 573.447 101.927 620.316 106.282C668.595 110.712 726.522 110.327 787.833 105.168C793.072 104.727 798.425 104.241 803.739 103.725C860.334 98.2304 912.116 89.2561 960.302 80.5346C973.881 78.0822 987.342 75.5404 1000.36 73.0824C1041.94 65.2314 1081.22 57.8155 1125.61 52.7709C1162.98 48.5095 1193.75 48.001 1219.66 51.2175C1231.8 52.7284 1243.86 55.0969 1256.52 58.4571C1267.69 61.4202 1277.86 64.748 1287.7 67.9657C1293.59 69.8905 1299.15 71.7085 1304.76 73.4001C1359.88 90.1237 1416.1 107.515 1471.87 125.092L1471.7 125.128Z" fill="#A1A1A1"/>
<path d="M1469.43 124.603C1414.51 106.929 1359.36 89.3444 1305.49 72.3361C1300.05 70.6249 1294.66 68.7744 1288.95 66.8155C1270.27 60.4076 1249.1 53.1445 1222.05 49.8279C1195.9 46.6242 1165.14 47.4622 1128.02 52.3888C1089.12 57.543 1053.39 64.8207 1018.84 71.8595C1001.51 75.3887 983.591 79.0381 965.334 82.4152C936.518 87.7507 912.272 91.8208 889.03 95.2247C860.37 99.4218 833.553 102.548 807.051 104.781C801.61 105.239 796.111 105.666 790.709 106.048C762.563 108.038 734.924 109.044 708.483 109.045C707.014 109.045 705.554 109.042 704.093 109.035C673.524 108.906 645.069 107.405 619.517 104.577C607.184 103.204 595.106 101.462 583.621 99.3977C572.826 97.4578 562.218 95.1727 552.09 92.6062C533.87 87.989 516.837 82.4197 500.023 75.5811C499.301 75.2869 498.582 74.9921 497.866 74.6962C488.111 70.6613 478.881 66.4435 469.957 62.3644C464.804 60.0099 459.477 57.5749 454.111 55.2047C437.592 47.9024 423.598 42.5144 408.733 37.7355C406.733 37.0928 404.673 36.4483 402.605 35.8196C364.98 24.3772 316.358 15.2905 261.999 9.54052C196.458 2.61582 130.098 0.847586 75.1441 4.56082C19.2728 8.34678 -36.8089 20.8061 -35.8961 37.2941L-36.1109 37.2947C-36.5361 29.6148 -24.8494 22.312 -2.31577 16.176C7.86959 13.4026 19.8979 10.9714 33.4382 8.94869C46.6135 6.98075 60.6264 5.48606 75.0904 4.506C104.089 2.54646 135.977 2.09167 169.867 3.15451C200.311 4.10939 231.335 6.24011 262.078 9.48794C316.472 15.2418 365.122 24.3342 402.77 35.7832C404.839 36.4125 406.903 37.0575 408.902 37.7003C423.774 42.4819 437.775 47.8717 454.298 55.1768C459.664 57.5475 464.993 59.9825 470.143 62.337C479.068 66.4155 488.295 70.6327 498.049 74.6665C498.764 74.9624 499.482 75.2572 500.203 75.5509C535.932 90.0828 574.987 99.5605 619.601 104.526C681.394 111.366 746.727 109.1 790.653 105.994C796.051 105.612 801.545 105.186 806.984 104.728C867.939 99.5913 923.561 90.0811 965.209 82.3699C983.464 78.994 1001.38 75.3445 1018.7 71.8158C1053.27 64.7759 1089.01 57.496 1127.92 52.3395C1144.53 50.135 1159.56 48.7812 1173.88 48.2017C1191.53 47.4868 1207.77 48.0171 1222.14 49.7781C1234.26 51.2633 1246.2 53.6507 1258.65 57.0765C1269.63 60.0949 1279.54 63.4943 1289.12 66.7824C1294.83 68.7409 1300.22 70.5908 1305.66 72.3008C1359.52 89.3091 1414.68 106.894 1469.59 124.568L1469.43 124.603Z" fill="#A1A1A1"/>
<path d="M1467.15 124.075L1306.39 71.2323C1301.14 69.5065 1295.92 67.6287 1290.4 65.6411C1272.19 59.0817 1251.54 51.6474 1224.54 48.3856C1198.44 45.2318 1166.74 46.4322 1130.34 51.954C1095.34 57.262 1063.42 64.321 1032.55 71.1478C1012.43 75.5977 991.623 80.1987 970.245 84.2482C905.99 96.4194 849.836 103.608 793.524 106.872C770.163 108.226 747.118 108.907 724.77 108.907C717.995 108.907 711.289 108.845 704.654 108.719C673.364 108.129 644.474 106.143 618.792 102.818C594.989 99.7355 573.213 95.3845 552.228 89.5154C535.471 84.8288 519.406 79.2416 501.675 71.9321C492.317 68.0745 483.255 64.0665 474.491 60.1904C454.658 51.4192 434.15 42.3492 408.759 34.3667C369.813 22.1233 318.693 12.5219 260.925 6.60021C194.97 -0.161146 128.43 -1.73751 73.5659 2.16201C20.4482 5.93734 -37.2036 17.8423 -38.2647 35.0604L-38.4795 35.0592C-38.0048 27.3631 -25.9529 20.0614 -3.62761 13.9433C16.5584 8.41152 43.9528 4.20826 73.5101 2.10774C102.477 0.0491851 134.399 -0.505172 168.385 0.460897C198.903 1.32795 230.064 3.37644 261.005 6.54819C289.589 9.47828 316.737 13.3353 341.695 18.0124C366.862 22.7286 389.482 28.2184 408.922 34.3298C434.324 42.3151 454.838 51.3873 474.676 60.1608C483.44 64.0363 492.502 68.0437 501.858 71.9007C527.727 82.5661 564.409 95.7123 618.889 102.766C681.367 110.856 748.315 109.434 793.477 106.816C849.76 103.554 905.889 96.3685 970.118 84.2017C991.488 80.154 1012.29 75.553 1032.41 71.1042C1063.29 64.2762 1095.22 57.2156 1130.23 51.9047C1166.7 46.3735 1198.46 45.1719 1224.63 48.3341C1236.72 49.7947 1248.55 52.2029 1260.81 55.6974C1271.6 58.7735 1281.25 62.2479 1290.58 65.6076C1296.1 67.5951 1301.31 69.4719 1306.56 71.197L1467.32 124.039L1467.15 124.075Z" fill="#A1A1A1"/>
<path d="M1465.86 120.01C1424.92 105.297 1389.79 93.3581 1355.32 82.4382C1338.59 77.1335 1321.49 71.9121 1304.52 66.919C1299.39 65.4086 1294.3 63.8021 1288.92 62.101C1275.39 57.8255 1261.39 53.4047 1245.29 50.1238C1236.64 48.359 1228.32 47.0953 1219.85 46.2607C1193.83 43.6735 1163.3 45.3841 1129.12 51.3456C1111.43 54.4261 1095.32 57.9318 1081.89 60.9548C1067.68 64.1551 1053.66 67.6842 1040.1 71.0971C1020.61 76.0029 1000.46 81.0755 978.797 85.432C965.615 88.0908 952.253 90.4666 939.08 92.4938C912.725 96.5494 884.437 99.8912 855.002 102.426C836.816 103.975 818.542 105.146 800.69 105.906C785.305 106.558 769.892 106.934 754.876 107.025C732.402 107.16 710.506 106.644 689.796 105.488C667.776 104.26 646.937 102.299 627.859 99.6602C610.848 97.3068 594.779 94.3437 578.737 90.6008C548.842 83.6319 524.998 75.5739 507.566 69.3322C499.002 66.2516 490.641 63.1101 482.554 60.0721C459.268 51.3226 437.274 43.0587 409.75 35.6977C387.303 29.7335 361.691 24.5865 333.62 20.3989C312.049 17.1807 288.587 14.5488 263.888 12.5758C258.005 12.1065 252.011 11.6691 246.076 11.2769C220.524 9.59149 191.76 8.49396 160.583 8.01456C129.151 7.52006 101.956 7.948 77.4505 9.3241C63.5965 10.0961 50.1742 11.3071 37.551 12.9232C-7.01368 18.629 -35.6302 28.2075 -38.9981 38.5461L-39.2666 38.54C-38.3688 35.7839 -35.7333 33.0691 -31.4353 30.4702C-27.3522 28.0016 -21.744 25.6208 -14.7676 23.3939C-1.58592 19.1873 16.4651 15.5445 37.4329 12.86C50.0754 11.2411 63.5192 10.0284 77.3946 9.25529C101.926 7.87807 129.142 7.44958 160.6 7.94464C191.794 8.42404 220.574 9.52268 246.143 11.2092C252.084 11.6019 258.081 12.0394 263.968 12.5093C288.686 14.4834 312.167 17.1175 333.755 20.3385C361.846 24.5289 387.479 29.6803 409.937 35.6485C437.478 43.014 459.477 51.2801 482.771 60.0318C490.855 63.0698 499.217 66.2108 507.779 69.2908C525.202 75.5297 549.036 83.5838 578.913 90.5482C594.938 94.2872 610.99 97.2475 627.982 99.5981C665.319 104.763 708.008 107.238 754.867 106.955C769.87 106.865 785.273 106.488 800.645 105.836C818.484 105.077 836.745 103.907 854.916 102.359C884.334 99.8257 912.605 96.4862 938.942 92.4328C952.107 90.4073 965.46 88.0327 978.631 85.3761C1000.28 81.0218 1020.43 75.9504 1039.91 71.0462C1053.47 67.6328 1067.49 64.1025 1081.71 60.9011C1095.14 57.8764 1111.26 54.3696 1128.97 51.2868C1144.19 48.6325 1158.92 46.7988 1172.77 45.8361C1189.78 44.6536 1205.65 44.7744 1219.94 46.1952C1228.44 47.0326 1236.79 48.2997 1245.45 50.0685C1261.58 53.3543 1275.58 57.778 1289.13 62.0562C1294.51 63.7568 1299.59 65.3633 1304.72 66.8726C1321.7 71.8662 1338.79 77.0882 1355.53 82.394C1390.01 93.315 1425.13 105.255 1466.07 119.969L1465.86 120.01Z" fill="#A1A1A1"/>
<path d="M1464.56 115.947C1426.6 100.985 1390.98 88.4645 1355.65 77.671C1338.43 72.3988 1320.6 67.3307 1302.66 62.6078C1297.9 61.3547 1293.2 60.0525 1288.23 58.6741C1273.33 54.5464 1257.92 50.2782 1240.67 47.3252C1231.96 45.8277 1223.61 44.785 1215.15 44.1372C1182.73 41.6558 1149.81 46.3569 1127.9 50.7375C1112.37 53.832 1098.19 57.331 1083.83 60.943C1071.25 64.1047 1059.43 67.5058 1046.9 71.106C1028.32 76.4505 1009.1 81.9767 987.349 86.6168C974.442 89.3853 960.972 91.7789 947.314 93.7312C921.872 97.3683 894.011 100.193 862.141 102.366C844.305 103.583 826.039 104.449 807.85 104.941C792.504 105.351 777.185 105.497 762.317 105.375C740.198 105.195 718.577 104.385 698.052 102.968C676.495 101.479 655.927 99.3044 636.92 96.5035C620.268 94.05 604.188 91.0058 587.763 87.1975C557.933 80.2907 532.38 72.6337 513.452 66.7344C506.446 64.5505 499.551 62.3532 492.882 60.2276C466.323 51.7628 441.238 43.7669 410.742 37.0307C387.95 31.9962 362.362 27.7392 334.693 24.3784C313.758 21.8354 291.568 19.9301 266.858 18.5535C261.155 18.2363 255.354 17.9504 249.617 17.7038C224.418 16.6258 197.524 16.218 164.985 15.7962C141.53 15.4768 110.826 15.2665 81.3286 16.4871C67.3586 17.0543 53.8548 18.0394 41.1886 19.4138C-3.4062 24.2542 -33.6573 32.71 -39.7358 42.0339L-40.0537 42.0199C-38.4428 39.5474 -35.178 37.1225 -30.3559 34.8116C-25.7594 32.6099 -19.7195 30.4987 -12.4059 28.5352C1.49318 24.8052 19.9823 21.624 41.064 19.3361C53.7538 17.9588 67.2834 16.9721 81.277 16.4037C110.802 15.1815 141.53 15.3924 165 15.7118C197.549 16.1335 224.452 16.5413 249.668 17.6198C255.41 17.8671 261.215 18.1529 266.925 18.4701C291.658 19.8485 313.869 21.7554 334.828 24.3012C362.526 27.6654 388.135 31.9257 410.95 36.9653C441.468 43.7065 466.564 51.7047 493.131 60.1727C499.798 62.2979 506.693 64.4951 513.699 66.6784C532.622 72.5756 558.165 80.2297 587.978 87.1331C604.384 90.9376 620.446 93.9784 637.079 96.4291C674.453 101.936 716.595 104.917 762.328 105.29C777.183 105.412 792.487 105.266 807.818 104.856C825.99 104.365 844.24 103.499 862.059 102.284C893.904 100.112 921.741 97.29 947.161 93.6562C960.803 91.7062 974.255 89.3159 987.147 86.5503C1008.88 81.914 1028.09 76.39 1046.67 71.0484C1059.19 67.4465 1071.02 64.0448 1083.6 60.8815C1097.97 57.2673 1112.16 53.7671 1127.7 50.6692C1141.91 47.8292 1155.92 45.7863 1169.35 44.5959C1185.64 43.1527 1201.08 42.9709 1215.24 44.055C1223.74 44.7056 1232.11 45.7516 1240.85 47.2536C1258.13 50.2122 1273.55 54.4843 1288.46 58.6154C1293.44 59.9932 1298.14 61.2949 1302.89 62.5473C1320.83 67.272 1338.67 72.3417 1355.9 77.6157C1391.24 88.4119 1426.87 100.934 1464.83 115.9L1464.56 115.947Z" fill="#A1A1A1"/>
<path d="M1463.26 111.888C1427.74 96.4741 1392.65 83.7239 1355.99 72.9092C1338.26 67.6694 1319.69 62.7552 1300.8 58.3018C1296.76 57.3498 1292.6 56.3395 1288.58 55.3628C1271.97 51.3274 1254.8 47.1549 1236.06 44.5319C1227.26 43.2923 1218.88 42.47 1210.46 42.0185C1178.11 40.285 1147.05 45.475 1126.68 50.1336C1112.88 53.2785 1100.26 56.8429 1088.05 60.2905L1085.77 60.936C1074.69 64.0636 1064.29 67.4938 1053.29 71.1259C1035.76 76.9094 1017.64 82.8893 995.902 87.8064C983.253 90.6884 969.677 93.0999 955.548 94.9739C930.913 98.2413 903.498 100.573 869.275 102.311C851.578 103.21 833.321 103.772 815.008 103.98C799.7 104.147 784.476 104.063 769.754 103.729C725.185 102.723 683.542 99.2314 645.979 93.3516C629.741 90.8097 613.651 87.6855 596.792 83.7989C568.261 77.2356 542.886 70.4893 519.343 64.1419C516.185 63.2911 513.062 62.4458 509.963 61.6073C477.807 52.9093 447.435 44.6935 411.742 38.3702C388.439 34.2419 362.877 30.8755 335.768 28.3638C315.866 26.52 294.296 25.2681 269.832 24.5364C264.318 24.3725 258.71 24.2377 253.162 24.1359C239.205 23.8842 224.401 23.8433 208.728 23.8003C196.139 23.7656 183.123 23.7298 169.387 23.5838C142.858 23.2778 112.792 22.9315 85.2044 23.6565C70.9702 24.0307 57.3848 24.7893 44.8238 25.9114C0.246231 29.8943 -31.6416 37.2285 -40.4759 45.5304L-40.8389 45.5041C-38.5105 43.3152 -34.6185 41.18 -29.2724 39.1578C-24.1604 37.224 -17.6909 35.3814 -10.0444 33.6814C4.58069 30.4302 23.5123 27.7115 44.6992 25.8186C57.2881 24.6936 70.9015 23.9334 85.1636 23.5586C112.779 22.8331 142.861 23.1799 169.4 23.4859C183.127 23.6313 196.144 23.6677 208.728 23.7024C224.408 23.7455 239.216 23.7863 253.185 24.0386C258.738 24.1409 264.352 24.2758 269.87 24.4397C294.365 25.1719 315.96 26.4255 335.89 28.272C363.031 30.7865 388.622 34.1568 411.95 38.2896C447.676 44.6186 478.062 52.8383 510.232 61.5402C513.331 62.3787 516.456 63.2234 519.611 64.0748C543.15 70.4211 568.517 77.1656 597.039 83.7267C613.881 87.6089 629.953 90.7303 646.172 93.2688C683.685 99.1413 725.275 102.628 769.786 103.633C784.491 103.967 799.7 104.051 814.991 103.883C833.285 103.675 851.525 103.114 869.202 102.216C903.39 100.479 930.774 98.1506 955.376 94.8877C969.475 93.0177 983.026 90.6106 995.653 87.7337C1017.36 82.8228 1035.47 76.8462 1052.99 71.066C1064 67.4322 1074.4 64.0004 1085.49 60.8706L1087.77 60.225C1099.98 56.7758 1112.61 53.2091 1126.43 50.0609C1146.86 45.3872 1178.04 40.182 1210.53 41.9234C1218.99 42.3771 1227.4 43.2022 1236.23 44.4468C1255.02 47.0754 1272.21 51.2524 1288.83 55.2923C1292.85 56.269 1297.01 57.2793 1301.05 58.2308C1319.95 62.6864 1338.53 67.6034 1356.27 72.846C1392.94 83.6652 1428.05 96.4199 1463.58 111.839L1463.26 111.888Z" fill="#A1A1A1"/>
<path d="M1461.96 107.822C1429.35 92.1755 1393.81 78.8245 1356.33 68.1412C1338.1 62.9344 1318.8 58.1734 1298.94 53.9903C1296.07 53.3862 1293.14 52.7591 1290.3 52.1527C1271.53 48.1469 1252.12 44.004 1231.45 41.7329C1222.58 40.7478 1214.18 40.1465 1205.77 39.8936C1173.52 38.9248 1144.3 44.5953 1125.47 49.523C1113.77 52.5672 1103.21 55.9526 1093 59.2268C1091.24 59.7934 1089.47 60.359 1087.71 60.9223C1077.99 64.0168 1068.92 67.4739 1059.3 71.1334C1042.96 77.3549 1026.06 83.7879 1004.46 88.9903C991.767 92.0451 978.463 94.4069 963.78 96.2115C933.069 99.9857 902.378 101.382 876.408 102.252C858.842 102.839 840.594 103.096 822.164 103.015C806.904 102.939 791.772 102.624 777.192 102.079C733.961 100.468 692.863 96.4693 655.04 90.1946C639.303 87.5845 623.204 84.3792 605.821 80.3958C588.262 76.3816 571.899 72.519 556.074 68.7834C545.319 66.2443 535.159 63.8462 525.238 61.5454C487.736 52.848 453.384 45.2011 412.748 39.7046C388.945 36.4853 363.409 34.0083 336.848 32.343C317.811 31.1492 297.462 30.568 272.81 30.5126C267.492 30.5026 262.075 30.5188 256.712 30.5613C248.565 30.6301 240.136 30.7739 231.216 30.9266C214.097 31.2192 194.691 31.5509 173.788 31.3652C165.827 31.2941 157.706 31.194 149.851 31.0967C129.648 30.8466 108.758 30.5882 89.0765 30.8192C74.6232 30.9893 60.954 31.5218 48.4532 32.4023C3.95077 35.5377 -29.5716 41.7508 -41.2218 49.0223L-41.6191 48.9793C-38.5691 47.0751 -34.0499 45.2302 -28.1883 43.4956C-22.5586 41.8297 -15.6596 40.2561 -7.68657 38.819C7.67738 36.0501 27.0493 33.794 48.3372 32.2943C60.8681 31.4116 74.5674 30.8774 89.0529 30.7073C108.756 30.4757 129.655 30.7347 149.869 30.9848C157.721 31.0821 165.843 31.1822 173.801 31.2533C194.685 31.439 214.076 31.1078 231.186 30.8153C240.111 30.6626 248.541 30.5188 256.697 30.45C262.066 30.4075 267.488 30.3913 272.812 30.4013C297.498 30.4562 317.878 31.039 336.947 32.2345C363.54 33.902 389.111 36.3818 412.944 39.6056C431.3 42.0881 449.901 45.2336 469.81 49.2209C487.633 52.7904 504.971 56.6961 525.522 61.4621C535.443 63.7634 545.603 66.1615 556.359 68.7006C572.183 72.4357 588.546 76.2983 606.1 80.3119C623.466 84.2914 639.548 87.4933 655.266 90.1007C693.037 96.367 734.077 100.36 777.247 101.969C791.81 102.514 806.923 102.828 822.167 102.903C840.574 102.985 858.803 102.728 876.348 102.141C902.286 101.273 932.936 99.8783 963.593 96.1108C978.235 94.3112 991.505 91.9556 1004.16 88.9086C1025.73 83.7152 1042.62 77.2873 1058.94 71.0707C1068.56 67.409 1077.65 63.9503 1087.37 60.8523C1089.14 60.289 1090.9 59.7235 1092.66 59.1574C1102.88 55.881 1113.44 52.4934 1125.15 49.4452C1137.41 46.2394 1149.98 43.773 1162.52 42.115C1177.37 40.151 1191.94 39.3667 1205.81 39.784C1214.26 40.038 1222.7 40.6421 1231.61 41.6311C1252.34 43.9084 1271.77 48.0563 1290.56 52.0671C1293.4 52.6735 1296.34 53.3006 1299.2 53.9041C1319.07 58.0906 1338.39 62.8561 1356.63 68.0668C1376.53 73.7396 1396.03 80.2028 1414.56 87.2769C1430.95 93.5292 1447.02 100.424 1462.33 107.77L1461.96 107.822Z" fill="#A1A1A1"/>
<path d="M1460.67 103.756C1430.48 87.6608 1395.49 74.0743 1356.66 63.3737C1337.94 58.1999 1317.9 53.5927 1297.09 49.6792C1296.1 49.4929 1295.11 49.3067 1294.12 49.1198C1272.48 45.0452 1250.1 40.8319 1226.86 38.935C1217.85 38.2 1209.43 37.819 1201.1 37.7698C1168.98 37.5807 1141.58 43.7251 1124.26 48.9123C1114.07 51.947 1105.02 55.2731 1096.27 58.4896C1094.1 59.2851 1091.86 60.1074 1089.66 60.9084C1081.24 63.9594 1073.42 67.4281 1065.14 71.1011C1050.09 77.7819 1034.52 84.6898 1013.02 90.1741C1000.58 93.347 987.172 95.7266 972.018 97.4496C942.164 100.843 911.851 101.734 883.542 102.192C866.086 102.474 847.843 102.426 829.322 102.049C814.111 101.731 799.075 101.185 784.631 100.429C742.871 98.2472 702.319 93.7419 664.105 87.0376C648.802 84.3531 633.152 81.1612 614.858 76.9926C580.09 69.0918 554.272 63.527 531.148 58.9495C485.155 49.8454 450.052 44.4892 413.776 41.04C389.489 38.7308 363.979 37.1438 337.948 36.3226C319.889 35.7532 300.723 35.8041 275.807 36.4893C270.702 36.6314 265.478 36.7987 260.28 36.9872C255.37 37.1679 250.383 37.3749 245.101 37.5936C225.6 38.4019 203.496 39.3182 178.198 39.147C164.864 39.0569 151.244 38.8103 138.073 38.572C123.104 38.3012 107.627 38.021 92.9521 37.9829C78.239 37.9449 64.4859 38.2514 52.0861 38.8947C7.73188 41.1944 -27.4293 46.2876 -41.9685 52.5187L-42.3809 52.4532C-38.6048 50.8344 -33.4585 49.2798 -27.0856 47.8327C-20.934 46.4353 -13.6097 45.1314 -5.31448 43.9561C10.7991 41.6727 30.6156 39.8793 51.9916 38.7711C64.4258 38.1267 78.2089 37.819 92.9564 37.8571C107.644 37.8951 123.13 38.1753 138.105 38.4467C151.272 38.685 164.885 38.9316 178.209 39.0217C203.462 39.1923 225.542 38.2772 245.022 37.47C250.305 37.2507 255.297 37.0443 260.209 36.863C265.414 36.6745 270.642 36.5072 275.752 36.3646C300.706 35.6788 319.904 35.6273 338.002 36.1985C364.069 37.0208 389.616 38.61 413.937 40.9225C450.262 44.3762 485.402 49.738 531.436 58.8499C554.569 63.4291 580.395 68.9956 615.172 76.8986C633.453 81.0639 649.085 84.2524 664.372 86.9341C702.534 93.6289 743.026 98.1281 784.723 100.306C799.148 101.062 814.166 101.606 829.356 101.925C847.856 102.301 866.075 102.349 883.509 102.067C911.776 101.61 942.038 100.721 971.823 97.3354C986.92 95.6192 1000.28 93.2474 1012.68 90.0857C1034.13 84.6132 1049.68 77.7126 1064.72 71.039C1073.01 67.3638 1080.83 63.8922 1089.26 60.8368C1091.47 60.0364 1093.71 59.2141 1095.87 58.4186C1104.63 55.1993 1113.68 51.8709 1123.89 48.8312C1135.2 45.4458 1147.05 42.7679 1159.12 40.8716C1173.26 38.6503 1187.39 37.5656 1201.11 37.6456C1209.48 37.6948 1217.95 38.078 1227 38.8164C1250.32 40.72 1272.73 44.9389 1294.4 49.0197C1295.39 49.2065 1296.38 49.3934 1297.37 49.5791C1318.2 53.4971 1338.27 58.1098 1357.01 63.2892C1395.87 73.9993 1430.89 87.5964 1461.1 103.703L1460.67 103.756Z" fill="#A1A1A1"/>
<path d="M894.228 102.135C893.023 102.135 891.836 102.135 890.667 102.133C873.301 102.114 855.066 101.762 836.471 101.085C821.316 100.523 806.375 99.7469 792.063 98.7797C771.615 97.4002 751.094 95.4178 731.065 92.8876C711.723 90.4442 692.244 87.4145 673.166 83.882C654.473 80.421 637.013 76.5646 623.889 73.5914C593.183 66.6539 563.967 60.8552 537.054 56.356C493.464 49.0694 454.619 44.6273 414.804 42.3769C390.784 41.0192 365.013 40.3032 340.201 40.3032C339.816 40.3032 339.434 40.3032 339.049 40.3038C317.733 40.3228 297.496 41.3543 278.805 42.4664C273.94 42.7578 268.907 43.0761 263.847 43.4134C261.074 43.6002 258.297 43.7927 255.358 43.9963C234.633 45.4345 211.142 47.064 182.602 46.9303C165.222 46.8486 147.469 46.3799 130.301 45.9262C119.216 45.6331 107.754 45.3304 96.8216 45.1475C81.7927 44.8964 67.9624 44.9769 55.7108 45.3881C11.5928 46.8671 -25.2072 50.841 -42.7319 56.0187L-43.1357 55.9264C-34.1468 53.271 -20.6257 50.9719 -2.94846 49.0923C13.9341 47.2978 34.1952 45.9687 55.642 45.2499C67.9259 44.8382 81.7928 44.7565 96.856 45.0088C107.8 45.1917 119.267 45.4949 130.357 45.788C147.514 46.2417 165.256 46.7105 182.613 46.7916C211.079 46.9253 234.53 45.298 255.221 43.8626C258.161 43.6584 260.939 43.466 263.714 43.2792C268.778 42.9418 273.815 42.623 278.685 42.3315C297.408 41.2178 317.68 40.1846 339.047 40.165C364.255 40.1421 390.487 40.8603 414.917 42.2415C435.466 43.4033 455.388 45.1134 475.817 47.4696C495.492 49.739 515.618 52.6076 537.341 56.2397C564.276 60.7422 593.513 66.5453 624.239 73.4874C637.352 76.4589 654.8 80.3125 673.473 83.7696C712.185 90.9376 752.13 95.9425 792.197 98.646C806.489 99.6121 821.41 100.387 836.544 100.948C855.115 101.624 873.325 101.977 890.667 101.995C917.804 102.024 949.314 101.786 980.046 98.561C995.601 96.9287 1009.06 94.5417 1021.19 91.2643C1042.49 85.5081 1056.61 78.1203 1070.27 70.9752C1077.29 67.3 1083.93 63.8284 1091.14 60.8233C1093.45 59.8606 1095.79 58.8688 1098.04 57.9095C1105.66 54.6684 1113.54 51.3176 1122.62 48.2203C1132.99 44.6569 1144.12 41.7666 1155.7 39.6297C1169.13 37.1521 1182.82 35.766 1196.38 35.5098C1204.76 35.3515 1213.26 35.5131 1222.37 36.0043C1246.73 37.3166 1270.87 41.1294 1295.52 45.256C1317.02 48.854 1338.41 53.4383 1357.38 58.5136C1378.46 64.1349 1398.27 70.7296 1416.25 78.1141C1432.27 84.6931 1446.94 91.935 1459.86 99.6389L1459.37 99.6949C1431.62 83.1503 1397.18 69.3278 1357 58.6115C1338.05 53.5434 1316.69 48.9659 1295.23 45.3741C1270.63 41.2547 1246.53 37.4492 1222.26 36.1413C1213.2 35.653 1204.75 35.4924 1196.42 35.6496C1171.49 36.1212 1145.43 40.6153 1123.04 48.3053C1113.98 51.397 1106.11 54.745 1098.5 57.9827C1096.24 58.9427 1093.91 59.935 1091.6 60.8977C1084.4 63.8972 1077.76 67.366 1070.75 71.0378C1064.05 74.5435 1057.12 78.1689 1049.17 81.6539C1040.15 85.6049 1031.13 88.78 1021.58 91.3616C1009.39 94.6536 995.876 97.0512 980.248 98.6913C966.465 100.138 951.65 101.094 934.959 101.615C920.824 102.054 906.626 102.135 894.228 102.135Z" fill="#A1A1A1"/>
<path d="M928.674 102.413C917.721 102.413 907.201 102.243 897.789 102.071C880.483 101.755 862.256 101.097 843.617 100.117C828.525 99.3122 813.679 98.3064 799.49 97.1267C760.637 93.9029 722.277 88.5367 682.221 80.7225C664.752 77.3153 648.284 73.649 632.918 70.1864C602.581 63.3702 572.317 57.8434 542.962 53.7588C499.789 47.7515 459.395 44.5579 415.84 43.7088C391.023 43.2249 364.853 43.4223 340.156 44.2793C319.485 44.9965 299.997 46.7272 281.804 48.4378C277.253 48.868 272.412 49.3379 267.418 49.8341C266.17 49.9588 264.911 50.0858 263.635 50.2139C242.682 52.3239 218.974 54.7114 188.547 54.7114C188.033 54.7114 187.522 54.7109 187.005 54.7092C166.419 54.6549 145.402 53.8897 125.074 53.149C117.015 52.8554 108.681 52.5522 100.685 52.3066C85.065 51.8278 71.5375 51.6862 59.3267 51.8753C14.9145 52.5634 -22.5729 55.3469 -43.5192 59.5138L-43.8779 59.3913C-33.5229 57.3316 -18.5498 55.5432 -0.582623 54.2197C17.0903 52.918 37.794 52.0543 59.2902 51.7215C71.5354 51.5318 85.0972 51.6734 100.751 52.1533C108.756 52.3989 117.092 52.7026 125.154 52.9958C145.462 53.7353 166.46 54.5 187.007 54.5542C218.068 54.637 242.163 52.2098 263.418 50.069C264.692 49.9409 265.953 49.8139 267.201 49.6886C272.199 49.1919 277.043 48.722 281.598 48.2918C299.821 46.5779 319.345 44.8449 340.073 44.1255C364.808 43.2674 391.021 43.0694 415.879 43.5538C437.463 43.9745 458.042 44.9679 478.791 46.5902C500.16 48.2611 521.24 50.5607 543.234 53.6217C572.626 57.712 602.929 63.2455 633.298 70.0684C648.658 73.5299 665.115 77.1939 682.569 80.5978C722.571 88.4013 760.873 93.7597 799.664 96.9784C813.832 98.156 828.658 99.1606 843.728 99.9645C862.342 100.943 880.543 101.6 897.823 101.916C926.902 102.447 957.836 102.72 988.267 99.7793C1004.28 98.2315 1017.83 95.8295 1029.69 92.4356C1050.82 86.3903 1063.97 78.1443 1075.58 70.8689C1081.42 67.2082 1086.93 63.7506 1093.02 60.8032C1095.21 59.7398 1097.42 58.6406 1099.56 57.5777C1106.24 54.2522 1113.16 50.8136 1121.34 47.6021C1130.8 43.8609 1141.22 40.758 1152.29 38.3794C1165 35.6479 1178.25 33.9608 1191.65 33.3662C1200.03 32.9942 1208.56 32.9349 1217.73 33.1832C1243.35 33.8786 1269.37 37.3144 1293.67 40.9241C1316.12 44.257 1338.27 48.6851 1357.75 53.7297C1379.42 59.3247 1399.38 65.9854 1417.08 73.5254C1432.91 80.2683 1446.89 87.6836 1458.61 95.5665L1458.07 95.6219C1433.13 78.8659 1398.3 64.4174 1357.33 53.8382C1337.9 48.8031 1315.78 44.3834 1293.38 41.0572C1269.14 37.4559 1243.18 34.0285 1217.67 33.336C1208.56 33.0887 1200.08 33.148 1191.76 33.5172C1167 34.6153 1142.17 39.647 1121.83 47.686C1113.67 50.8908 1106.76 54.326 1100.09 57.6482C1097.95 58.7116 1095.74 59.8108 1093.54 60.8753C1087.47 63.8161 1081.96 67.2703 1076.13 70.927C1064.5 78.2137 1051.33 86.4731 1030.13 92.5386C1018.2 95.9508 1004.58 98.3663 988.473 99.9231C974.499 101.273 959.425 102.055 942.386 102.312C937.778 102.385 933.191 102.413 928.674 102.413Z" fill="#A1A1A1"/>
<path d="M950.292 103.019C950.135 103.019 949.981 103.019 949.824 103.019C934.346 103.009 919.15 102.516 904.909 102.011C887.629 101.399 869.413 100.437 850.762 99.1513C835.74 98.1047 820.988 96.8679 806.919 95.4761C769.619 91.7914 732.875 86.1007 691.281 77.5661C676.301 74.4933 661.56 71.1845 647.302 67.9854C645.52 67.5849 643.735 67.1849 641.95 66.7849C611.456 59.9704 580.142 54.7149 548.879 51.1651C506.069 46.3045 462.894 44.3019 416.886 45.0431C391.659 45.4498 365.512 46.5613 341.273 48.2573C322.148 49.596 305.107 51.7435 284.814 54.4118C280.7 54.9549 276.308 55.5412 270.994 56.2572L270.698 56.2975C260.446 57.6881 248.825 59.2639 235.792 60.4621C220.823 61.8382 206.301 62.5006 191.41 62.4927C168.189 62.4776 144.491 61.3521 121.575 60.263C115.96 59.9962 110.153 59.7204 104.546 59.4709C88.4695 58.7565 74.8603 58.3957 62.9416 58.3683C19.0556 58.2676 -20.0405 59.9615 -44.3204 63.0146L-44.5996 62.8636C-32.7067 61.3678 -16.664 60.1539 1.79295 59.3529C20.2842 58.5501 41.4325 58.1518 62.9481 58.2011C74.9011 58.2285 88.5446 58.5899 104.656 59.3059C110.266 59.5554 116.074 59.8311 121.691 60.098C144.579 61.1854 168.247 62.3098 191.412 62.3249C191.515 62.3249 191.62 62.3249 191.723 62.3249C224.859 62.3249 250.103 58.9014 270.401 56.1487L270.7 56.1084C276.016 55.3918 280.408 54.8056 284.524 54.2624C304.851 51.5896 321.923 49.4382 341.108 48.0957C365.388 46.3962 391.577 45.2831 416.847 44.8758C439.362 44.5133 460.598 44.7897 481.774 45.7216C504.594 46.7257 526.629 48.4559 549.137 51.0118C580.46 54.5684 611.828 59.8323 642.371 66.6579C644.156 67.0579 645.941 67.4584 647.723 67.859C661.975 71.057 676.711 74.3647 691.678 77.4352C733.219 85.9592 769.909 91.642 807.147 95.3206C821.197 96.7107 835.927 97.9452 850.928 98.9907C869.552 100.275 887.743 101.236 904.995 101.846C935.897 102.942 966.15 103.701 996.5 101.007C1012.97 99.5451 1026.61 97.128 1038.21 93.6172C1059.15 87.2754 1070.59 78.4879 1080.68 70.7342C1085.41 67.1043 1089.87 63.6753 1094.91 60.7939C1096.84 59.6851 1098.79 58.5384 1100.67 57.4291C1106.54 53.9609 1112.62 50.3752 1120.07 46.9942C1128.65 43.0735 1138.34 39.7574 1148.88 37.1383C1160.89 34.1534 1173.69 32.1665 1186.93 31.2334C1195.14 30.655 1203.51 30.373 1212.51 30.373C1212.71 30.373 1212.9 30.373 1213.1 30.3736C1241.08 30.4116 1269.87 33.7221 1291.83 36.6019C1315.22 39.6701 1338.15 43.9416 1358.13 48.9549C1380.38 54.5242 1400.5 61.2503 1417.92 68.947C1433.56 75.8538 1446.84 83.443 1457.38 91.505L1456.77 91.5592C1441.08 79.5637 1411.15 62.4564 1357.68 49.0763C1337.75 44.0742 1314.88 39.8128 1291.54 36.7518C1269.64 33.8799 1240.94 30.5789 1213.1 30.5414C1203.93 30.5274 1195.43 30.8083 1187.1 31.3956C1162.58 33.1247 1138.97 38.694 1120.63 47.0776C1113.2 50.4507 1107.13 54.0325 1101.26 57.4968C1099.38 58.6066 1097.43 59.7539 1095.49 60.8632C1090.47 63.7374 1086.01 67.162 1081.29 70.7879C1071.18 78.5556 1059.72 87.3599 1038.7 93.7263C1027.03 97.2606 1013.29 99.6939 996.708 101.166C982.654 102.413 967.464 103.019 950.292 103.019Z" fill="#A1A1A1"/>
<path d="M967.481 103.804C964.148 103.804 960.741 103.776 957.253 103.721C941.986 103.476 927.148 102.743 912.027 101.948C894.498 101.028 876.795 99.7959 857.906 98.1826C842.961 96.8949 828.306 95.4281 814.347 93.8221C778.934 89.7542 743.773 83.766 700.34 74.4062C689.553 72.082 678.771 69.6441 668.343 67.2863C662.666 66.0031 656.798 64.6756 650.984 63.3795C620.127 56.5191 587.766 51.5361 554.8 48.568C511.243 44.6461 466.476 43.9278 417.938 46.3723C392.294 47.664 366.172 49.6895 342.396 52.2297C323.297 54.2704 306.66 57.1361 289.045 60.1703L287.827 60.3801C285.075 60.8555 282.294 61.3377 279.478 61.8255C277.856 62.1069 276.224 62.3899 274.576 62.6752C264.305 64.4636 253.211 66.3292 240.489 67.7651C225.718 69.4321 211.108 70.2522 195.819 70.2723C170.366 70.3048 144.405 68.7642 119.3 67.2729C115.717 67.0597 112.01 66.8399 108.412 66.6313C91.5449 65.6523 78.2472 65.089 66.5583 64.8574C23.4241 64.0032 -17.2829 64.6051 -45.1283 66.5093L-45.3066 66.3337C-17.3882 64.4244 23.4027 63.8203 66.612 64.6762C78.3331 64.9083 91.6652 65.4733 108.565 66.4539C112.165 66.6631 115.872 66.883 119.457 67.0961C144.254 68.569 169.888 70.0911 195.003 70.0911C195.274 70.0911 195.544 70.0911 195.817 70.0905C228.302 70.048 251.426 66.4869 274.192 62.5242C275.839 62.2389 277.472 61.9559 279.093 61.6745C281.909 61.1861 284.689 60.7045 287.442 60.2285L288.66 60.0187C306.305 56.9795 322.971 54.1087 342.132 52.0613C365.95 49.5161 392.118 47.4872 417.807 46.1933C466.468 43.7426 511.355 44.4631 555.03 48.3957C588.078 51.3716 620.513 56.3659 651.439 63.2413C657.253 64.538 663.123 65.8649 668.8 67.1487C679.224 69.506 690.005 71.9432 700.785 74.2658C744.166 83.6149 779.278 89.5948 814.628 93.656C828.568 95.2592 843.202 96.7243 858.125 98.0097C876.986 99.6208 894.663 100.851 912.166 101.77C938.736 103.166 971.803 104.903 1004.73 102.227C1021.66 100.851 1035.4 98.4192 1046.72 94.791C1067.46 88.1454 1077.07 78.7986 1085.56 70.5526C1089.25 66.9702 1092.73 63.5865 1096.79 60.7783C1098.37 59.6842 1099.96 58.5525 1101.5 57.4578C1106.64 53.7865 1111.96 49.9905 1118.8 46.3802C1126.51 42.277 1135.48 38.7478 1145.47 35.8905C1156.78 32.6527 1169.14 30.3665 1182.2 29.095C1190.58 28.2788 1199.17 27.7759 1208.46 27.5572C1220.9 27.2641 1234.14 27.5774 1248.94 28.5127C1261.46 29.3048 1274.89 30.5343 1289.98 32.2723C1314.33 35.0754 1338.02 39.1909 1358.5 44.1734C1381.35 49.7164 1401.62 56.5091 1418.76 64.3618C1434.2 71.4331 1446.78 79.1963 1456.14 87.4367L1455.47 87.4881C1435.7 70.0911 1401.09 54.7554 1358.02 44.3065C1337.6 39.3374 1313.97 35.2337 1289.7 32.439C1257.18 28.6945 1231.38 27.2003 1208.52 27.7385C1199.29 27.9555 1190.76 28.455 1182.44 29.265C1151.37 32.2897 1131.02 40.2856 1119.42 46.4602C1112.61 50.0615 1107.29 53.8531 1102.15 57.5199C1100.61 58.6152 1099.03 59.7474 1097.44 60.8421C1093.39 63.6419 1089.92 67.0217 1086.23 70.5996C1077.73 78.8635 1068.09 88.2299 1047.26 94.9057C1035.85 98.5624 1022 101.014 1004.94 102.401C993.372 103.341 981.037 103.804 967.481 103.804Z" fill="#A1A1A1"/>
<path d="M982.375 104.708C959.661 104.708 937.824 103.188 919.141 101.888C901.565 100.666 883.87 99.1373 865.046 97.2169C850.185 95.6898 835.624 93.9926 821.77 92.1718C780.24 86.72 743.217 78.8947 709.396 71.25C702.491 69.6893 695.514 68.0805 688.77 66.5248C679.405 64.3645 669.72 62.1308 660.016 59.9783C628.697 53.0502 595.291 48.3385 560.727 45.9739C516.014 42.9157 469.651 43.4813 418.991 47.7036C392.907 49.8774 366.81 52.817 343.52 56.2046C325.557 58.817 310.359 62.1152 294.269 65.6069C293.128 65.8541 291.986 66.1025 290.836 66.3509L290.214 66.4862C286.302 67.336 282.258 68.2142 278.157 69.0958C268.333 71.2176 257.514 73.4121 245 75.0886C230.474 77.0347 215.829 78.0052 200.225 78.0556C172.835 78.1445 144.919 76.1391 117.924 74.1997C116.031 74.0638 114.148 73.9284 112.273 73.7947C94.4707 72.5226 81.4845 71.7686 70.1694 71.349C28.1177 69.7906 -14.2046 69.3005 -45.9463 70.0048L-46.0107 69.8096C-14.2175 69.1036 28.1671 69.5942 70.2746 71.1549C81.622 71.5756 94.6361 72.3313 112.47 73.6056C114.345 73.7393 116.229 73.8747 118.123 74.0112C145.067 75.9467 172.929 77.947 200.214 77.8598C234.102 77.7501 257.967 73.2006 277.676 68.9448C281.777 68.0632 285.821 67.1849 289.732 66.3358L290.355 66.2004C291.504 65.9515 292.647 65.7037 293.788 65.4564C309.905 61.9585 325.13 58.6548 343.153 56.0335C366.486 52.6396 392.632 49.695 418.761 47.5173C442.779 45.5158 465.339 44.3601 487.726 43.9842C512.7 43.5652 537.323 44.171 560.916 45.7849C595.59 48.1567 629.095 52.8819 660.501 59.8289C670.212 61.9826 679.899 64.2168 689.266 66.3777C696.01 67.9334 702.983 69.5416 709.886 71.1018C743.672 78.738 780.651 86.5549 822.105 91.9967C835.94 93.8147 850.479 95.5097 865.319 97.0346C884.115 98.9522 901.782 100.478 919.332 101.699C946.28 103.574 979.817 105.908 1012.96 103.452C1030.34 102.164 1044.17 99.7163 1055.22 95.9706C1075.74 89.0124 1083.43 79.0904 1090.2 70.336C1092.93 66.8185 1095.5 63.4963 1098.67 60.7681C1099.84 59.759 1101.02 58.7163 1102.16 57.7077C1106.61 53.7629 1111.22 49.6833 1117.52 45.7714C1124.37 41.4826 1132.62 37.7391 1142.04 34.6463C1152.66 31.1562 1164.58 28.5707 1177.46 26.9614C1185.82 25.9164 1194.44 25.192 1203.81 24.7462C1216.43 24.1459 1230.43 24.1661 1245.43 24.806C1258.57 25.3665 1272.93 26.4232 1288.12 27.9476C1313.41 30.4855 1337.87 34.4443 1358.86 39.3961C1382.3 44.9133 1402.74 51.7715 1419.6 59.7808C1434.83 67.0165 1446.71 74.9543 1454.9 83.3731L1454.17 83.4212C1436.82 65.5823 1402.79 49.9988 1358.36 39.5415C1337.44 34.606 1313.06 30.66 1287.85 28.1305C1255.18 24.8519 1227.73 23.8075 1203.94 24.9392C1194.64 25.3816 1186.08 26.101 1177.78 27.1381C1147.14 30.9672 1128.47 39.4251 1118.21 45.847C1111.93 49.7487 1107.33 53.8228 1102.88 57.7625C1101.74 58.7711 1100.56 59.8144 1099.39 60.8246C1096.23 63.5438 1093.66 66.8616 1090.94 70.3746C1087.68 74.5862 1083.98 79.3595 1078.62 83.8346C1072.48 88.962 1065.02 92.9706 1055.82 96.0898C1050.5 97.8932 1044.38 99.4282 1037.65 100.652C1030.4 101.968 1022.16 102.974 1013.16 103.641C1002.86 104.405 992.531 104.708 982.375 104.708Z" fill="#A1A1A1"/>
<path d="M995.8 105.699C988.291 105.699 980.423 105.509 972.113 105.129C955.746 104.381 940.079 103.024 926.255 101.828C908.831 100.319 890.638 98.4424 872.186 96.2501C857.419 94.4858 842.953 92.5581 829.193 90.5197C789.7 84.6757 755.675 76.9052 718.452 68.0926C715.144 67.3095 711.785 66.5106 708.537 65.7376C695.746 62.695 682.522 59.549 669.048 56.5764C637.21 49.5672 602.759 45.1274 566.653 43.3798C521.109 41.1753 471.78 43.0772 420.044 49.0336C393.496 52.0901 367.422 55.9432 344.644 60.1772C327.493 63.3652 313.374 67.1237 298.427 71.1032C296.909 71.5077 295.384 71.9132 293.85 72.3205C290.033 73.3352 285.922 74.4243 281.74 75.5146C272.97 77.8087 262.282 80.4227 249.513 82.4102C235.219 84.6355 220.538 85.757 204.635 85.8382C175.522 85.9875 145.887 83.477 117.228 81.0492L116.137 80.9569C102.105 79.7688 87.2604 78.5683 73.7845 77.8394C32.708 75.6181 -10.1019 74.0758 -46.7559 73.4969L-46.7065 73.2877C-10.0138 73.8672 32.8347 75.4105 73.9477 77.6341C87.4623 78.3653 102.332 79.5674 116.386 80.7572L117.477 80.8495C146.074 83.2717 175.649 85.7761 204.62 85.6278C238.078 85.4566 261.185 80.5944 281.171 75.3652C285.353 74.2755 289.46 73.1864 293.277 72.1722C294.81 71.7656 296.335 71.3594 297.854 70.9556C312.827 66.9693 326.971 63.2041 344.178 60.0055C366.999 55.7631 393.122 51.9027 419.719 48.8406C443.993 46.0464 467.88 44.121 490.712 43.1186C516.8 41.9735 542.401 41.9914 566.803 43.1723C603.047 44.9265 637.624 49.3821 669.57 56.4153C683.054 59.3907 696.285 62.5378 709.083 65.5821C712.33 66.3546 715.69 67.1534 718.997 67.9365C756.184 76.7408 790.172 84.5029 829.595 90.3368C843.335 92.3718 857.78 94.2967 872.525 96.0588C890.952 98.2477 909.115 100.122 926.513 101.628C953.785 103.99 987.726 106.928 1021.19 104.677C1039.05 103.476 1052.96 101.014 1063.73 97.1496C1084.03 89.8691 1089.91 78.8956 1094.63 70.0779C1096.47 66.6432 1098.2 63.3993 1100.56 60.759C1101.3 59.9266 1102.05 59.0691 1102.77 58.2395C1106.53 53.9299 1110.42 49.4733 1116.25 45.1637C1125.26 38.4572 1142.37 29.4857 1172.73 24.8299C1181.11 23.5444 1189.76 22.5979 1199.17 21.9367C1223.78 20.1819 1253.09 20.7497 1286.27 23.6232C1312.52 25.8961 1337.75 29.6982 1359.23 34.6192C1383.27 40.1102 1403.86 47.0343 1420.44 55.2009C1428.05 58.9466 1434.77 62.9473 1440.42 67.0918C1445.82 71.0507 1450.28 75.1616 1453.66 79.3106L1452.88 79.3543C1437.95 61.0722 1404.51 45.2409 1358.7 34.7764C1337.29 29.8739 1312.16 26.0862 1286.02 23.8218C1252.99 20.9611 1223.84 20.395 1199.38 22.1386C1190.04 22.7948 1181.46 23.734 1173.14 25.01C1142.98 29.6333 1125.97 38.559 1117.01 45.2325C1111.19 49.5309 1107.31 53.9814 1103.56 58.2854C1102.83 59.1149 1102.08 59.973 1101.34 60.806C1099 63.4373 1097.26 66.6768 1095.43 70.1064C1093.05 74.5435 1090.36 79.5724 1085.76 84.3188C1080.47 89.7729 1073.48 94.0103 1064.38 97.2727C1059.2 99.1338 1053.13 100.703 1046.35 101.937C1039.04 103.267 1030.65 104.257 1021.39 104.879C1013.27 105.426 1004.79 105.699 995.8 105.699Z" fill="#A1A1A1"/>
<path d="M1008.17 106.746C999.171 106.746 989.679 106.443 979.541 105.833C963.114 104.847 947.31 103.21 933.366 101.766C915.811 99.9481 897.629 97.767 879.324 95.2827C864.654 93.2829 850.285 91.1248 836.615 88.8676C799.001 82.6612 766.74 74.6619 732.584 66.1939C730.893 65.7749 729.203 65.3553 727.508 64.9358C711.625 61.0021 695.202 56.9342 678.081 53.1751C645.688 46.077 610.194 41.9084 572.584 40.7852C525.343 39.3738 474.376 42.5965 421.095 50.3625C394.444 54.2469 367.692 59.1433 345.766 64.1493C329.21 67.9291 315.931 72.1821 301.873 76.6852C300.209 77.2183 298.54 77.7531 296.858 78.289C293.499 79.3614 289.501 80.6329 285.317 81.9334C277.568 84.3483 267.009 87.4171 254.022 89.7257C239.956 92.2268 225.243 93.5016 209.041 93.6219C195.724 93.7086 181.028 93.1733 164.111 91.9846C149.587 90.9642 135.538 89.6307 119.991 88.1203C105.8 86.7246 90.8226 85.2831 77.3853 84.331C37.5825 81.5105 -4.46053 79.0408 -47.5732 76.989L-47.4186 76.7691C-4.28011 78.8215 37.7866 81.2935 77.6108 84.1151C91.0846 85.0699 106.083 86.5137 120.292 87.9105C146.35 90.4429 178.781 93.5956 209.017 93.3982C243.586 93.1408 265.802 87.6666 284.658 81.7891C288.84 80.4896 292.835 79.2187 296.192 78.1469C297.874 77.611 299.543 77.0762 301.205 76.5437C315.287 72.0333 328.589 67.773 345.199 63.9809C367.17 58.9648 393.973 54.059 420.676 50.1673C474.118 42.3778 525.262 39.1467 572.683 40.5631C590.865 41.1063 608.725 42.3677 625.762 44.3122C644.043 46.3981 661.832 49.3232 678.635 53.0045C695.775 56.7676 712.209 60.8377 728.101 64.7741C729.796 65.1942 731.488 65.6132 733.179 66.0322C767.303 74.493 799.536 82.4844 837.077 88.6791C850.727 90.9329 865.075 93.0882 879.724 95.0847C898.002 97.5651 916.157 99.7433 933.686 101.559C961.235 104.411 995.521 107.962 1029.42 105.903C1047.79 104.787 1061.8 102.31 1072.24 98.3309C1092.36 90.7299 1095.94 79.1186 1098.82 69.7891C1099.85 66.4523 1100.82 63.3007 1102.44 60.7521C1102.77 60.2263 1103.1 59.6976 1103.44 59.1662C1106.45 54.3661 1109.56 49.4021 1114.98 44.5577C1122.71 37.59 1138.17 28.1418 1167.99 22.7001C1176.3 21.1819 1184.98 20.0139 1194.52 19.1289C1207.77 17.8876 1222.54 17.3042 1238.42 17.3937C1252.91 17.4754 1268.39 18.117 1284.41 19.3001C1311.6 21.3066 1337.6 24.9522 1359.6 29.8424C1384.23 35.3065 1404.98 42.2978 1421.28 50.621C1428.76 54.4399 1435.23 58.5229 1440.52 62.7564C1445.59 66.8109 1449.6 71.0141 1452.42 75.2493L1451.57 75.2873C1439.27 56.8324 1405.55 40.3304 1359.04 30.0124C1337.14 25.1435 1311.25 21.5131 1284.18 19.5144C1250.8 17.0497 1219.89 16.9893 1194.8 19.3387C1185.34 20.2169 1176.73 21.376 1168.48 22.8824C1138.87 28.2867 1123.49 37.6862 1115.8 44.6193C1110.4 49.4507 1107.29 54.4075 1104.28 59.2015C1103.95 59.7329 1103.62 60.2621 1103.28 60.7879C1101.68 63.327 1100.7 66.4747 1099.68 69.8064C1096.79 79.1628 1093.19 90.8076 1072.94 98.4573C1067.91 100.375 1061.89 101.981 1055.05 103.228C1047.7 104.569 1039.14 105.543 1029.62 106.121C1022.75 106.537 1015.63 106.746 1008.17 106.746Z" fill="#A1A1A1"/>
<path d="M1019.8 107.834C1009.54 107.834 998.678 107.402 986.97 106.535C970.405 105.308 954.502 103.392 940.474 101.702C922.745 99.5663 904.572 97.0798 886.458 94.3131C871.893 92.0811 857.621 89.6919 844.033 87.2133C810.575 81.1114 781.98 73.6363 751.705 65.722C746.757 64.4282 741.638 63.0907 736.56 61.7755C718.711 57.155 703.47 53.345 687.109 49.771C654.139 42.5789 617.603 38.6816 578.513 38.1871C529.395 37.5657 476.782 42.1079 422.14 51.6875C394.994 56.4468 368.266 62.2812 346.879 68.1168C330.768 72.513 318.173 77.2986 304.838 82.365C303.187 82.9927 301.528 83.6226 299.859 84.253C296.887 85.3779 292.952 86.8603 288.89 88.3466C271.797 94.6163 249.465 101.071 213.443 101.401C212.32 101.411 211.192 101.415 210.066 101.415C181.937 101.415 153.22 98.5158 123.841 95.2786L122.007 95.075C107.455 93.4572 93.708 91.9295 80.9839 90.8174C33.0319 86.6265 -13.3435 83.0889 -48.3887 80.4754L-48.1374 80.2466C-13.0836 82.8612 33.3047 86.3994 81.2738 90.592C94.0324 91.7069 107.794 93.2368 122.365 94.8562L124.198 95.0599C154.653 98.4156 184.395 101.409 213.411 101.164C249.034 100.837 271.179 94.4322 288.145 88.2096C292.204 86.7244 296.135 85.2431 299.108 84.1187C300.777 83.4877 302.433 82.8584 304.084 82.2308C317.44 77.1566 330.055 72.3631 346.218 67.9529C367.647 62.105 394.43 56.2588 421.628 51.49C446.873 47.0641 472.126 43.6658 496.685 41.3885C524.863 38.7756 552.41 37.6188 578.556 37.9494C617.848 38.4461 654.569 42.3624 687.694 49.5881C704.078 53.1676 719.334 56.9816 737.201 61.606C742.28 62.9212 747.399 64.2592 752.35 65.5531C782.594 73.4595 811.162 80.9274 844.555 87.0169C858.123 89.4928 872.375 91.878 886.918 94.1067C905.005 96.87 923.151 99.3526 940.854 101.485C968.644 104.833 1003.23 108.999 1037.65 107.124C1056.47 106.098 1070.56 103.607 1080.74 99.507C1100.6 91.5597 1101.8 79.2951 1102.76 69.4403C1103.07 66.2249 1103.37 63.1874 1104.32 60.7401L1104.34 60.6842C1106.46 55.2038 1108.66 49.5372 1113.7 43.9461C1118.06 39.0693 1124.13 34.6848 1131.75 30.9134C1140.34 26.6614 1150.94 23.1798 1163.24 20.5646C1171.47 18.8149 1180.18 17.4248 1189.86 16.3155C1216.02 13.3009 1248.07 12.8355 1282.55 14.9707C1296.43 15.83 1310.12 17.1317 1323.24 18.8389C1336.44 20.5562 1348.79 22.6501 1359.96 25.061C1385.19 30.4989 1406.1 37.5561 1422.11 46.0371C1436.51 53.6599 1446.56 62.3556 1451.18 71.1834L1450.27 71.2153C1440.39 52.3213 1407.26 35.5653 1359.38 25.2439C1336.99 20.4097 1310.35 16.937 1282.34 15.2034C1248.05 13.0805 1216.2 13.5409 1190.23 16.5348C1180.63 17.6357 1171.99 19.0146 1163.82 20.7504C1140.85 25.6333 1123.83 33.6734 1114.59 44.0014C1109.56 49.578 1107.37 55.2368 1105.25 60.7093L1105.23 60.7653C1104.28 63.2037 1103.99 66.2367 1103.67 69.4476C1102.71 79.3326 1101.51 91.6341 1081.5 99.6374C1076.6 101.614 1070.62 103.254 1063.74 104.512C1056.33 105.868 1047.61 106.825 1037.84 107.358C1032.02 107.675 1026.02 107.834 1019.8 107.834Z" fill="#A1A1A1"/>
<path d="M214.111 109.209C201.533 109.209 187.836 108.571 172.378 107.267C157.018 105.972 141.828 104.184 127.699 102.446C125.141 102.129 122.602 101.813 120.08 101.499C107.528 99.9369 95.6716 98.4613 84.5905 97.3117C40.406 92.7297 -1.71004 88.6115 -42.4407 84.6297L-49.1895 83.9697L-48.8501 83.7342L-42.1014 84.3942C-1.36853 88.3771 40.754 92.4953 84.9471 97.0784C96.0582 98.2308 107.93 99.7081 120.497 101.273C123.017 101.587 125.555 101.903 128.111 102.219C157.115 105.788 187.928 109.246 217.814 108.938C254.552 108.54 276.568 101.086 291.642 94.6384C295.504 92.9893 299.224 91.3458 302.034 90.0984C303.584 89.4109 305.124 88.7239 306.66 88.0387C319.397 82.3581 331.428 76.9924 347.249 71.9332C368.133 65.2564 394.89 58.4687 422.593 52.8216C448.295 47.5824 474.231 43.4429 499.684 40.5184C528.878 37.1637 557.393 35.4229 584.438 35.344C625.132 35.1863 662.929 38.8324 696.762 46.18C715.518 50.258 732.334 54.6693 746.312 58.4469C753.918 60.5027 761.524 62.6099 768.88 64.6477C794.919 71.8622 821.846 79.3217 852.043 85.3637C865.532 88.0633 879.691 90.679 894.122 93.1375C911.982 96.1733 930.119 98.9602 948.033 101.42C976.033 105.266 1010.88 110.051 1045.89 108.353C1065.16 107.418 1079.34 104.912 1089.25 100.692C1108.85 92.384 1107.53 79.4475 1106.46 69.0529C1106.15 65.9791 1105.85 63.0753 1106.21 60.7376C1107.01 55.4676 1108.23 49.3428 1112.43 43.3439C1115.97 38.2607 1121.32 33.6619 1128.33 29.6757C1136.25 25.1665 1146.41 21.3861 1158.51 18.4392C1166.53 16.4864 1175.51 14.8289 1185.21 13.5121C1199.06 11.627 1214.6 10.4416 1231.39 9.98964C1247.13 9.56618 1263.71 9.78882 1280.69 10.6508C1295.01 11.3781 1309.13 12.574 1322.64 14.2063C1336.24 15.8487 1348.92 17.895 1360.33 20.288C1373.48 23.0436 1385.57 26.2976 1396.26 29.9599C1406.4 33.4298 1415.38 37.2997 1422.96 41.4615C1437.14 49.2477 1446.47 58.123 1449.94 67.1264L1448.98 67.1516C1441.52 47.8173 1408.99 30.8079 1359.72 20.4844C1337.16 15.7508 1309.03 12.3464 1280.51 10.8981C1245.24 9.10748 1212.44 10.0887 1185.66 13.7353C1176.04 15.0415 1167.12 16.6861 1159.17 18.6233C1136.37 24.1758 1120.96 32.5079 1113.38 43.3892C1109.18 49.3719 1107.97 55.486 1107.17 60.7477C1106.81 63.077 1107.11 65.9763 1107.43 69.0462C1107.95 74.1742 1108.55 79.9868 1106.55 85.6059C1104.24 92.1261 1098.85 97.1036 1090.07 100.823C1085.29 102.858 1079.36 104.533 1072.44 105.802C1064.97 107.173 1056.09 108.114 1046.07 108.6C1041.01 108.846 1035.95 108.957 1030.93 108.957C1000.84 108.957 971.69 104.953 947.584 101.643C929.644 99.1784 911.48 96.3876 893.596 93.3473C879.143 90.8854 864.965 88.2658 851.456 85.5622C821.197 79.508 794.243 72.0407 768.178 64.8195C760.824 62.7822 753.22 60.6755 745.619 58.6209C731.659 54.8478 714.867 50.4426 696.146 46.3724C662.495 39.064 624.919 35.4391 584.453 35.5946C520.903 35.7804 461.681 45.172 423.19 53.0186C395.543 58.6544 368.84 65.4275 348.001 72.091C332.227 77.135 320.213 82.4923 307.496 88.164C305.96 88.8492 304.418 89.5362 302.867 90.2242C300.055 91.4722 296.333 93.1168 292.469 94.7676C286.141 97.4745 276.207 101.415 263.049 104.368C256.659 105.803 249.859 106.93 242.837 107.719C235.008 108.599 226.601 109.094 217.855 109.188C216.616 109.202 215.368 109.209 214.111 109.209Z" fill="#A1A1A1"/>
<path d="M218.15 116.993C205.556 116.993 191.887 116.306 176.51 114.903C160.59 113.451 144.85 111.409 131.555 109.603C127.469 109.046 123.393 108.483 119.449 107.937C108.426 106.413 98.013 104.972 88.1949 103.797C52.9371 99.5732 17.9091 95.4499 -15.9676 91.462C-27.1732 90.143 -38.759 88.7792 -49.9883 87.4545L-49.5673 87.2123C-38.3381 88.537 -26.7523 89.9008 -15.5467 91.2198C18.3301 95.2077 53.3624 99.3315 88.6224 103.555C98.4662 104.735 108.892 106.176 119.928 107.703C123.869 108.248 127.946 108.812 132.027 109.368C159.602 113.112 191.586 117.076 222.213 116.703C259.817 116.234 280.937 108.096 295.139 101.058C298.78 99.2549 302.3 97.4447 304.959 96.0692C306.325 95.3632 307.683 94.6578 309.038 93.9541C321.221 87.6246 332.727 81.6464 348.282 75.9053C368.514 68.4386 395.248 60.7106 423.558 54.145C462.983 45.041 523.916 33.9359 590.317 32.7315C632.544 31.945 671.411 35.3204 705.831 42.7648C721.296 46.1111 736.589 49.9709 755.422 55.2812C764.939 57.9646 774.383 60.7458 783.516 63.4348C807.279 70.4311 831.846 77.6657 859.531 83.7044C872.942 86.6305 887.005 89.4762 901.327 92.1624C918.669 95.4119 936.799 98.5031 955.211 101.35C983.493 105.697 1018.69 111.108 1054.12 109.577C1073.55 108.754 1088.22 106.162 1097.75 101.871C1117.08 93.1877 1112.94 78.9814 1109.91 68.6087C1109.05 65.6976 1108.25 62.9482 1108.09 60.7302C1107.74 55.8008 1107.77 49.3013 1111.16 42.7368C1117.01 31.3616 1131.34 22.4695 1153.77 16.3089C1161.64 14.1385 1170.65 12.2528 1180.57 10.7038C1194.68 8.49761 1210.59 7.01354 1227.88 6.29361C1244.17 5.61562 1261.31 5.62625 1278.83 6.32549C1293.62 6.92852 1308.15 8.02157 1322.04 9.57332C1336.06 11.1407 1349.07 13.1378 1360.7 15.509C1374.14 18.2489 1386.42 21.5141 1397.2 25.2144C1407.41 28.7213 1416.36 32.646 1423.8 36.8805C1437.76 44.8306 1446.37 53.8849 1448.7 63.0645L1447.68 63.0819C1442.67 43.3063 1410.73 26.0429 1360.07 15.7188C1337.1 11.035 1308.2 7.79222 1278.68 6.58841C1242.29 5.13679 1208.55 6.63875 1181.1 10.9321C1171.26 12.4682 1162.32 14.3388 1154.52 16.4919C1132.24 22.6116 1117.99 31.4533 1112.17 42.7726C1108.79 49.3192 1108.77 55.8059 1109.12 60.7257C1109.28 62.9359 1110.08 65.6819 1110.93 68.5891C1112.49 73.9508 1114.27 80.0286 1113.25 85.9621C1112.07 92.8711 1107.29 98.1188 1098.64 102.005C1093.98 104.101 1088.1 105.813 1081.14 107.093C1073.6 108.48 1064.57 109.404 1054.29 109.84C1038.35 110.528 1021.2 109.91 1001.85 107.948C985.028 106.242 968.913 103.765 954.696 101.58C936.256 98.7291 918.102 95.6334 900.734 92.3794C886.39 89.6893 872.309 86.8398 858.878 83.9097C831.135 77.8587 806.54 70.6163 782.754 63.6127C773.625 60.9243 764.183 58.1447 754.674 55.4635C735.874 50.1627 720.609 46.3102 705.18 42.9718C670.964 35.5699 632.345 32.2147 590.386 32.9961C524.271 34.196 463.539 45.2669 424.232 54.3436C395.979 60.8958 369.3 68.6075 349.112 76.0586C333.599 81.7834 322.11 87.7533 309.947 94.0732C308.591 94.7775 307.234 95.4829 305.868 96.1889C303.207 97.5655 299.684 99.3774 296.039 101.182C281.712 108.282 260.379 116.494 222.258 116.969C220.903 116.985 219.531 116.993 218.15 116.993Z" fill="#A1A1A1"/>
<path d="M222.268 124.783C187.859 124.783 151.755 119.279 119.749 114.399C109.914 112.9 100.624 111.484 91.7962 110.286L-50.7881 90.9441L-50.2919 90.6963L92.2923 110.038C101.144 111.239 110.444 112.657 120.292 114.158C153.536 119.226 191.216 124.971 226.611 124.473C265.044 123.933 285.29 115.109 298.635 107.483C303 104.989 307.214 102.451 311.29 99.9962C322.44 93.2835 333.968 86.342 349.31 79.8816C361.493 74.752 376.627 69.3723 393.076 64.3249C411.121 58.7875 430.441 53.7071 450.496 49.2253C472.609 44.2842 495.093 40.1967 517.322 37.077C541.909 33.6266 566.13 31.374 589.319 30.3811C635.772 28.3924 678.021 31.4103 714.89 39.352C745.53 45.9512 771.571 54.1115 796.755 62.0034C818.677 68.8728 841.344 75.9753 867.011 82.047C896.658 89.0595 928.746 95.5311 962.384 101.281C990.726 106.126 1026 112.156 1062.35 110.801C1093.05 109.656 1110.81 104.306 1116.62 94.4442C1121.56 86.0556 1116.86 76.1046 1113.08 68.1092C1111.79 65.3844 1110.58 62.8106 1109.98 60.7235C1106.68 49.218 1108.79 39.7201 1116.4 31.6878C1121.15 26.6762 1128.16 22.2089 1137.24 18.4101C1147.37 14.1666 1160.39 10.629 1175.92 7.89578C1189.35 5.53123 1204.49 3.8139 1220.92 2.79134C1236.56 1.818 1253.03 1.49187 1269.86 1.82191C1302.97 2.47081 1335.36 5.63472 1361.06 10.7302C1374.79 13.4539 1387.27 16.7308 1398.13 20.4692C1408.42 24.0124 1417.34 27.9925 1424.63 32.2998C1438.37 40.4137 1446.26 49.6476 1447.45 59.0023L1446.38 59.0118C1443.85 39.0908 1411.71 21.1248 1360.4 10.9534C1305.92 0.15157 1228.59 -1.03713 1176.51 8.12793C1124.93 17.2068 1103.51 34.4042 1111.05 60.7029C1111.64 62.7832 1112.86 65.3536 1114.14 68.0751C1117.93 76.0878 1122.65 86.06 1117.68 94.4867C1114.97 99.0765 1109.53 102.765 1101.51 105.451C1097 106.961 1091.57 108.195 1085.35 109.118C1078.74 110.1 1071.05 110.759 1062.5 111.078C1059.01 111.209 1055.45 111.274 1051.84 111.274C1038.66 111.274 1024.63 110.406 1009.26 108.649C991.937 106.669 975.222 103.811 961.791 101.515C928.108 95.7571 895.975 89.2771 866.285 82.2545C840.56 76.17 817.869 69.059 795.924 62.1824C770.772 54.3006 744.763 46.1503 714.201 39.5679C677.579 31.6805 635.62 28.6822 589.487 30.6574C496.169 34.6526 400.042 59.051 350.217 80.0293C334.915 86.4718 323.402 93.4037 312.268 100.107C308.189 102.563 303.973 105.103 299.604 107.599C290.744 112.662 281.993 116.288 272.065 119.008C265.869 120.705 259.146 122.043 252.083 122.984C244.231 124.031 235.678 124.626 226.661 124.753C225.205 124.773 223.738 124.783 222.268 124.783Z" fill="#A1A1A1"/>
</g>
</svg>
