<svg width="1440" height="370" viewBox="0 0 1440 370" fill="none" xmlns="http://www.w3.org/2000/svg">
<g opacity="0.3">
<path d="M541.555 370C536.033 370 530.659 369.697 525.494 369.094C514.661 367.829 504.654 365.23 495.748 361.371C486.176 357.224 477.781 351.573 470.794 344.576C456.751 330.512 449.725 313.67 442.93 297.381C441.595 294.183 440.215 290.876 438.814 287.667C429.253 265.796 417.132 246.638 401.763 229.099C371.103 194.111 327.985 164.252 277.069 142.749C218.184 117.882 154.874 105.495 98.798 107.87C65.8397 109.266 22.2926 122.547 2.83037 145.228C-8.71967 158.689 -9.65102 173.627 0.138856 188.425L-0.0555387 188.487C-5.18865 180.726 -7.42518 172.946 -6.70103 165.362C-6.03669 158.406 -2.89231 151.605 2.64667 145.15C11.4561 134.884 25.9839 125.784 44.66 118.835C61.9178 112.414 81.1387 108.467 98.7852 107.719C128.131 106.477 159.342 109.234 191.551 115.913C220.747 121.969 249.557 130.954 277.18 142.619C328.126 164.134 371.27 194.01 401.947 229.018C417.325 246.57 429.451 265.738 439.019 287.621C440.422 290.829 441.802 294.138 443.135 297.336C449.924 313.613 456.945 330.444 470.969 344.487C484.531 358.069 502.889 366.298 525.53 368.942C556.884 372.605 594.958 364.944 627.376 348.447C674.094 324.675 706.516 290.073 737.872 256.612C743.368 250.746 749.05 244.682 754.677 238.825C769.284 223.618 789.066 203.912 812.576 186.356C836.608 168.412 861.028 155.228 887.234 146.05C903.274 140.432 920.274 136.647 937.76 134.8C953.911 133.094 971.007 132.988 988.572 134.483C1018.7 137.049 1051.16 144.296 1087.81 156.637C1159.97 180.939 1232.05 210.437 1302.05 244.312C1368.58 276.509 1433.84 312.943 1496 352.597L1495.86 352.707C1367 270.506 1229.68 204.583 1087.72 156.771C1007.51 129.758 943.835 126.393 887.33 146.182C829.845 166.314 789.688 202.645 754.854 238.907C749.23 244.762 743.547 250.827 738.051 256.692C706.686 290.165 674.254 324.778 627.505 348.566C612.398 356.254 595.403 362.251 578.359 365.906C569.355 367.837 560.404 369.1 551.753 369.66C548.305 369.888 544.903 370 541.555 370Z" fill="#A1A1A1"/>
<path d="M546.954 361.662C532.873 361.662 519.829 359.793 508.173 356.105C495.174 351.992 483.958 345.619 474.832 337.164C474.025 336.415 473.223 335.641 472.45 334.861C458.557 320.858 451.219 304.234 444.125 288.157C442.69 284.908 441.207 281.548 439.703 278.287C430.747 258.87 419.961 241.756 406.728 225.971C405.098 224.028 403.411 222.08 401.708 220.183C370.598 185.496 327.129 156.015 276.003 134.926C216.694 110.484 153.204 98.6087 97.2287 101.49C64.5096 103.192 21.1633 116.69 1.61775 139.197C-10.0861 152.674 -11.4105 167.641 -2.21659 182.483L-2.41312 182.542C-7.23223 174.763 -9.2124 166.968 -8.296 159.376C-7.45437 152.403 -4.18183 145.587 1.43405 139.119C10.3332 128.87 24.8182 119.76 43.3192 112.775C60.4189 106.319 79.5565 102.258 97.2095 101.341C126.519 99.8326 157.764 102.325 190.075 108.749C219.343 114.568 248.289 123.332 276.11 134.798C327.266 155.899 370.758 185.398 401.888 220.104C403.59 222.003 405.28 223.952 406.91 225.897C420.151 241.692 430.943 258.815 439.904 278.242C441.41 281.503 442.893 284.864 444.328 288.114C451.42 304.181 458.751 320.792 472.625 334.776C473.396 335.553 474.198 336.327 475.003 337.075C493.861 354.552 519.772 361.662 547.02 361.662C547.17 361.662 547.317 361.662 547.467 361.662C547.296 361.66 547.125 361.662 546.954 361.662ZM552.766 361.558C578.099 360.651 604.239 353.865 626.664 343.771C675.036 321.908 709.802 288.14 743.424 255.484C744.809 254.138 746.193 252.794 747.577 251.451C750.617 248.503 754.22 245.013 757.899 241.494C774.4 225.715 794.371 207.355 817.371 190.83C841.842 173.246 866.29 160.198 892.11 150.938C907.975 145.254 924.741 141.25 941.943 139.037C957.881 136.987 974.724 136.408 991.999 137.314C1021.84 138.882 1053.93 144.827 1090.1 155.488C1125.36 165.867 1154.35 175.636 1181.32 186.233C1219.54 201.261 1255.93 218.575 1286.5 233.529C1357.56 268.397 1427.28 307.988 1493.73 351.206L1493.59 351.314C1427.15 308.103 1357.43 268.514 1286.38 233.652C1255.82 218.699 1219.42 201.387 1181.22 186.365C1154.26 175.77 1125.28 166.004 1090.02 155.628C1011.23 132.402 948.371 130.953 892.208 151.072C833.917 171.975 792.406 208.752 758.072 241.584C754.391 245.102 750.79 248.591 747.75 251.541C746.366 252.882 744.982 254.227 743.597 255.573C709.964 288.239 675.186 322.019 626.779 343.899C614.776 349.301 602.004 353.593 588.816 356.653C576.539 359.498 564.438 361.144 552.766 361.558Z" fill="#A1A1A1"/>
<path d="M552.907 353.512C551.213 353.512 549.53 353.487 547.86 353.435C533.791 353.001 520.771 350.751 509.164 346.744C496.469 342.362 485.47 335.871 476.474 327.451C475.676 326.701 474.879 325.925 474.11 325.145C460.372 311.21 452.729 294.809 445.34 278.949C443.8 275.643 442.207 272.225 440.592 268.907C431.193 249.556 420.123 232.579 406.747 217.007C405.092 215.082 403.378 213.15 401.65 211.268C370.089 176.884 326.271 147.781 274.935 127.105C215.203 103.087 151.533 91.7231 95.6564 95.1107C64.1955 97.0479 20.9752 109.776 0.425656 133.142C-11.4469 146.641 -13.1751 161.649 -4.57289 176.543L-4.77153 176.598C-9.27876 168.795 -10.9984 160.982 -9.88757 153.376C-8.8665 146.381 -5.45723 139.548 0.244091 133.064C9.23719 122.839 23.6753 113.726 41.999 106.709C58.9385 100.221 77.9884 96.0503 95.6371 94.9633C124.913 93.1898 156.192 95.4174 188.604 101.585C217.943 107.169 247.024 115.711 275.042 126.977C326.407 147.666 370.249 176.785 401.83 211.189C403.558 213.073 405.273 215.004 406.929 216.932C420.311 232.514 431.387 249.5 440.79 268.862C442.405 272.181 443.999 275.6 445.539 278.906C452.926 294.756 460.562 311.146 474.283 325.064C475.052 325.844 475.844 326.619 476.643 327.366C513.195 361.581 577.97 357.908 625.95 339.091C676.341 319.154 713.79 286.019 750.006 253.975L750.377 253.646C753.885 250.54 757.512 247.329 761.122 244.159C799.216 210.716 841.086 176.346 896.988 155.82C912.682 150.069 929.218 145.846 946.132 143.269C961.865 140.871 978.452 139.819 995.432 140.14C1025.04 140.7 1056.75 145.343 1092.4 154.334C1129.86 163.749 1158.04 172.403 1183.8 182.396C1220.49 196.662 1256.03 214.69 1287.39 230.596C1357.21 266.2 1425.87 306.308 1491.47 349.804L1491.32 349.912C1425.73 306.42 1357.08 266.316 1287.27 230.715C1255.91 214.812 1220.37 196.787 1183.69 182.526C1157.95 172.536 1129.77 163.884 1092.32 154.472C1015.06 134.984 953.025 135.453 897.087 155.949C841.22 176.462 799.367 210.817 761.289 244.249C757.679 247.419 754.051 250.631 750.544 253.735L750.172 254.064C732.124 270.033 713.463 286.544 693.311 301.293C670.663 317.868 648.663 330.273 626.053 339.217C602.397 348.494 576.629 353.512 552.907 353.512Z" fill="#A1A1A1"/>
<path d="M1489.06 348.506C1424.32 304.735 1356.73 264.115 1288.16 227.777C1285.25 226.249 1282.34 224.714 1279.42 223.175C1249.72 207.507 1219.01 191.306 1186.17 178.685C1154.31 166.475 1122.02 159.009 1094.64 153.317C1019.05 137.506 957.826 139.893 901.973 160.826C844.637 182.378 800.21 218.161 764.513 246.914C762.37 248.64 760.232 250.369 758.089 252.099C756.509 253.376 754.926 254.654 753.343 255.93C733.018 272.318 714.53 286.97 694.102 300.34C670.765 315.613 648.271 326.799 625.331 334.537C603.833 341.79 580.868 345.628 559.506 345.629C555.614 345.629 551.78 345.503 548.012 345.245C534.255 344.305 521.52 341.665 510.16 337.398C497.764 332.742 486.983 326.127 478.111 317.738C477.319 316.986 476.529 316.209 475.764 315.427C462.189 301.566 454.249 285.395 446.572 269.757C444.918 266.389 443.207 262.905 441.477 259.523C431.629 240.233 420.274 223.392 406.765 208.037C405.084 206.127 403.343 204.213 401.591 202.347C369.577 168.265 325.41 139.54 273.868 119.278C213.712 95.684 149.866 84.8334 94.0871 88.7228C55.9551 91.4343 16.9622 107.197 -0.737764 127.053C-12.7962 140.581 -14.9345 155.637 -6.92615 170.592L-7.12693 170.645C-11.3201 162.814 -12.7813 154.977 -11.4697 147.352C-10.2628 140.331 -6.71253 133.475 -0.919356 126.974C8.16773 116.779 22.5588 107.666 40.6988 100.623C57.476 94.1086 76.4277 89.8291 94.0657 88.5754C123.307 86.5354 154.618 88.4994 187.13 94.4109C216.541 99.7594 245.761 108.082 273.975 119.147C325.549 139.421 369.739 168.162 401.773 202.266C403.526 204.133 405.267 206.048 406.949 207.958C420.466 223.322 431.826 240.172 441.68 259.471C443.41 262.854 445.121 266.337 446.775 269.707C454.447 285.335 462.383 301.496 475.941 315.341C476.706 316.121 477.494 316.897 478.285 317.647C516.442 353.732 581.297 349.225 625.239 334.402C677.666 316.715 717.785 284.371 753.183 255.832C754.766 254.554 756.346 253.277 757.929 252.001C760.07 250.27 762.21 248.542 764.353 246.816C784.729 230.404 804.851 214.455 826.973 199.758C852.412 182.856 876.914 170.079 901.874 160.695C917.404 154.874 933.705 150.433 950.326 147.495C965.86 144.747 982.193 143.223 998.872 142.961C1028.29 142.499 1059.63 145.84 1094.7 153.174C1122.09 158.869 1154.4 166.338 1186.28 178.556C1219.13 191.181 1249.85 207.386 1279.56 223.057C1282.47 224.597 1285.39 226.132 1288.29 227.659C1356.87 264.001 1424.47 304.624 1489.21 348.4L1489.06 348.506Z" fill="#A1A1A1"/>
<path d="M1486.79 347.104C1421.69 302.216 1355.16 261.08 1289.05 224.841C1285.09 222.673 1281.05 220.438 1277.13 218.278C1249.11 202.804 1220.12 186.803 1188.65 174.847C1157.21 162.951 1124.65 156.704 1096.94 152.162C1023.19 139.956 962.79 144.26 906.855 165.705C853.503 186.234 811.706 217.104 771.284 246.958L766.845 250.235C763.34 252.825 759.715 255.501 756.141 258.126C715.678 287.808 675.173 315.627 624.609 329.857C612.339 333.31 599.74 335.702 587.158 336.973C573.647 338.335 560.523 338.354 548.148 337.029C534.708 335.589 522.26 332.565 511.153 328.04C499.064 323.116 488.499 316.381 479.754 308.024C478.965 307.268 478.181 306.489 477.423 305.709C464.015 291.93 455.788 275.997 447.834 260.589C446.058 257.15 444.221 253.595 442.367 250.142C432.063 230.911 420.425 214.205 406.788 199.071C405.083 197.18 403.317 195.281 401.537 193.43C369.072 159.65 324.558 131.304 272.804 111.453C212.223 88.2872 148.197 77.9474 92.5144 82.3415C54.7305 85.3866 15.915 101.26 -1.87469 120.943C-14.1339 134.505 -16.6951 149.619 -9.28277 164.65L-9.48572 164.7C-13.3649 156.835 -14.5633 148.968 -13.0488 141.32C-11.6517 134.27 -7.95411 127.388 -2.0584 120.866C7.12695 110.705 21.4668 101.601 39.4145 94.5366C56.0251 87.9983 74.8742 83.6161 92.4887 82.1956C121.696 79.8906 153.039 81.5895 185.654 87.2449C215.137 92.3582 244.491 100.458 272.904 111.324C324.688 131.185 369.228 159.549 401.712 193.348C403.492 195.201 405.261 197.101 406.965 198.992C420.611 214.134 432.255 230.848 442.564 250.089C444.418 253.542 446.255 257.1 448.03 260.538C455.981 275.937 464.203 291.863 477.596 305.626C478.352 306.403 479.136 307.18 479.922 307.937C517.162 343.52 579.037 342.521 624.526 329.72C675.049 315.502 715.537 287.693 755.983 258.024C759.557 255.399 763.182 252.723 766.687 250.134L771.126 246.857C790.968 232.203 811.484 217.049 833.766 202.953C859.002 186.987 882.875 174.761 906.749 165.574C922.12 159.68 938.19 155.019 954.51 151.723C969.854 148.623 985.933 146.624 1002.3 145.783C1031.59 144.278 1062.56 146.318 1096.99 152.016C1124.71 156.561 1157.29 162.81 1188.75 174.716C1220.24 186.676 1249.23 202.682 1277.26 218.16C1281.18 220.321 1285.22 222.554 1289.18 224.724C1355.29 260.965 1421.83 302.104 1486.94 346.997L1486.79 347.104Z" fill="#A1A1A1"/>
<path d="M1484.53 345.701C1419.98 300.314 1354.51 258.663 1289.94 221.907C1285.09 219.145 1280.11 216.272 1275.3 213.495C1248.78 198.188 1221.36 182.36 1191.12 171.012C1159.83 159.32 1127.13 154.339 1099.25 151.01C1027.55 142.312 967.96 148.533 911.735 170.586C862.669 189.912 822.383 217.301 783.422 243.788C779.323 246.575 775.083 249.457 770.952 252.249C766.101 255.527 762.394 258.019 758.936 260.324C740.414 272.662 718.36 286.869 695.217 298.685C670.693 311.207 647.36 319.873 623.884 325.18C611.539 327.97 598.993 329.73 586.593 330.409C573.279 331.139 560.387 330.603 548.28 328.814C535.162 326.877 523.005 323.469 512.143 318.685C500.364 313.497 490.019 306.641 481.393 298.312C480.616 297.557 479.836 296.776 479.08 295.993C465.849 282.306 457.347 266.619 449.123 251.449C447.215 247.93 445.244 244.293 443.255 240.759C432.487 221.582 420.565 205.014 406.806 190.104C405.076 188.229 403.284 186.349 401.479 184.513C368.563 151.035 323.698 123.067 271.734 103.629C210.733 80.8884 146.527 71.0623 90.9433 75.9582C59.3158 78.8052 18.0073 91.9206 -2.98224 114.801C-15.4615 128.405 -18.4564 143.587 -11.64 158.705L-11.8429 158.75C-15.4081 150.844 -16.3395 142.944 -14.6135 135.266C-13.0199 128.18 -9.16849 121.268 -3.1617 114.721C6.12191 104.601 20.4083 95.5121 38.1574 88.4333C54.6013 81.8756 73.3373 77.3936 90.9176 75.8108C120.091 73.2407 151.468 74.6747 184.181 80.0739C213.734 84.9519 243.226 92.8319 271.835 103.498C323.828 122.946 368.719 150.931 401.654 184.428C403.459 186.264 405.253 188.147 406.983 190.024C420.749 204.941 432.677 221.518 443.451 240.704C445.442 244.239 447.414 247.877 449.321 251.395C457.539 266.558 466.039 282.236 479.255 295.908C480.011 296.69 480.789 297.469 481.566 298.222C512.547 328.143 565.725 338.167 623.817 325.035C676.426 313.144 719.341 286.492 758.789 260.213C762.247 257.908 765.951 255.417 770.802 252.138C774.934 249.347 779.174 246.465 783.273 243.678C802.453 230.638 822.285 217.155 843.439 204.53C867.359 190.251 889.667 179.105 911.633 170.453C926.857 164.482 942.692 159.603 958.702 155.952C973.867 152.493 989.691 150.022 1005.74 148.606C1034.95 146.03 1065.55 146.767 1099.29 150.859C1127.18 154.192 1159.91 159.174 1191.22 170.876C1221.48 182.232 1248.91 198.064 1275.43 213.376C1280.25 216.153 1285.22 219.025 1290.07 221.788C1354.65 258.549 1420.13 300.203 1484.68 345.593L1484.53 345.701Z" fill="#A1A1A1"/>
<path d="M1482.26 344.299C1418.28 298.411 1353.87 256.243 1290.83 218.971C1285.46 215.801 1279.96 212.473 1274.63 209.255C1249.25 193.927 1223.01 178.078 1193.59 167.174C1162.29 155.622 1129.5 151.936 1101.56 149.855C1033.11 144.618 972.608 152.995 916.616 175.464C872.033 193.437 833.815 217.48 796.856 240.733C789.39 245.429 781.673 250.287 774.168 254.916C769.578 257.75 765.511 260.238 761.73 262.522C744.147 273.133 720.759 286.738 695.766 297.857C670.654 309.027 646.902 316.435 623.155 320.502C597.254 324.938 571.405 324.97 548.403 320.599C535.614 318.167 523.746 314.376 513.127 309.33C501.663 303.881 491.537 296.907 483.029 288.602C482.258 287.846 481.485 287.064 480.733 286.281C467.69 272.698 458.923 257.269 450.447 242.349C448.396 238.739 446.277 235.008 444.139 231.382C432.899 212.255 420.693 195.821 406.823 181.142C405.067 179.284 403.249 177.42 401.418 175.6C368.052 142.424 322.839 114.833 270.666 95.8105C209.244 73.4974 144.859 64.1835 89.3708 69.5812C51.7664 73.3187 14.2197 89.0131 -4.05698 108.632C-16.7755 122.285 -20.2125 137.546 -13.9964 152.766L-14.2014 152.806C-17.4505 144.853 -18.1127 136.911 -16.171 129.2C-14.3766 122.074 -10.3607 115.126 -4.23641 108.551C5.14546 98.4788 19.3763 89.4106 36.9182 82.3258C53.1891 75.7547 71.8076 71.1745 89.3409 69.4323C118.48 66.5972 149.892 67.7676 182.705 72.9092C212.331 77.552 241.959 85.2116 270.764 95.6764C322.967 114.711 368.206 142.317 401.594 175.514C403.424 177.333 405.242 179.199 407 181.059C420.876 195.747 433.089 212.188 444.335 231.324C446.474 234.95 448.593 238.683 450.643 242.292C459.115 257.205 467.878 272.627 480.908 286.196C481.66 286.979 482.431 287.758 483.202 288.514C513.651 318.241 565.949 330.145 623.104 320.357C675.208 311.434 720.455 287.232 761.589 262.41C765.368 260.126 769.437 257.639 774.025 254.806C781.527 250.176 789.247 245.321 796.711 240.624C833.679 217.367 871.903 193.318 916.507 175.338C931.597 169.282 947.201 164.185 962.887 160.186C977.889 156.362 993.459 153.418 1009.16 151.436C1038.37 147.751 1068.6 147.186 1101.58 149.709C1129.54 151.792 1162.35 155.479 1193.69 167.044C1223.13 177.956 1249.38 193.811 1274.77 209.145C1280.1 212.363 1285.6 215.689 1290.97 218.859C1354.01 256.134 1418.43 298.305 1482.42 344.197L1482.26 344.299Z" fill="#A1A1A1"/>
<path d="M1480 342.896C1416.58 296.501 1353.24 253.819 1291.72 216.035C1286.07 212.563 1280.25 208.886 1274.63 205.331C1250.18 189.873 1224.9 173.888 1196.07 163.336C1164.63 151.882 1131.82 149.51 1103.87 148.7C1038 146.651 978.346 157.001 921.499 180.343C881.632 196.791 846.094 217.608 811.723 237.738C799.906 244.66 788.743 251.199 777.389 257.582C772.771 260.18 768.565 262.515 764.528 264.718C738.478 278.915 716.805 289.181 696.319 297.022C670.619 306.86 646.451 313.01 622.433 315.821C613.115 316.911 603.831 317.454 594.716 317.454C578.559 317.454 562.924 315.751 548.531 312.377C522.483 306.27 500.998 295.003 484.672 278.887C483.903 278.123 483.136 277.342 482.392 276.561C469.548 263.096 460.535 247.941 451.82 233.283C449.611 229.569 447.33 225.73 445.029 221.997C433.308 202.915 420.816 186.618 406.846 172.173C405.064 170.331 403.221 168.483 401.365 166.68C367.548 133.807 321.984 106.593 269.602 87.9834C207.759 66.0991 143.197 57.296 87.8046 63.1955C50.0443 67.3008 13.5806 82.6973 -5.08702 102.421C-18.064 116.13 -21.956 131.482 -16.3465 146.818L-16.5537 146.855C-19.4824 138.847 -19.8712 130.857 -17.7073 123.107C-15.7036 115.932 -11.5189 108.946 -5.26431 102.339C4.21582 92.3224 18.3848 83.284 35.713 76.1992C51.8087 69.6177 70.2969 64.9481 87.7726 63.0481C116.877 59.948 148.323 60.8533 181.235 65.7388C210.933 70.1478 240.696 77.587 269.7 87.8494C322.112 106.471 367.701 133.7 401.54 166.592C403.396 168.397 405.24 170.245 407.023 172.088C421.002 186.541 433.501 202.847 445.226 221.936C447.526 225.669 449.81 229.509 452.017 233.223C460.728 247.874 469.736 263.023 482.57 276.476C483.313 277.255 484.078 278.037 484.847 278.799C515.334 308.895 565.469 322.335 622.396 315.672C676.588 309.329 724.586 286.295 764.395 264.598C768.431 262.396 772.637 260.063 777.255 257.464C788.606 251.081 799.77 244.544 811.587 237.622C845.961 217.487 881.509 196.667 921.39 180.214C936.366 174.064 951.738 168.748 967.08 164.412C981.939 160.213 997.255 156.796 1012.6 154.257C1041.87 149.416 1071.73 147.549 1103.88 148.55C1131.85 149.36 1164.69 151.735 1196.17 163.202C1225.02 173.762 1250.31 189.754 1274.77 205.217C1280.39 208.773 1286.21 212.45 1291.86 215.921C1353.38 253.708 1416.73 296.394 1480.15 342.792L1480 342.896Z" fill="#A1A1A1"/>
<path d="M1477.74 341.493C1414 293.928 1353.45 251.93 1292.61 213.099C1286.8 209.394 1281.09 205.611 1275.04 201.605C1251.39 185.946 1226.93 169.756 1198.54 159.498C1166.71 148.049 1132.46 147.096 1106.18 147.546C1043.31 148.481 984.495 160.806 926.38 185.224C891.512 199.946 859.318 217.625 828.184 234.724C811.822 243.71 796.367 252.196 780.606 260.25C775.928 262.643 771.581 264.823 767.322 266.915C740.917 279.864 718.53 289.164 696.866 296.187C670.57 304.71 645.985 309.601 621.706 311.141C609.231 311.931 596.842 311.783 584.881 310.699C572.219 309.551 560.03 307.348 548.655 304.154C523.442 297.074 502.468 285.306 486.312 269.176C485.549 268.41 484.789 267.627 484.05 266.847C471.421 253.52 462.182 238.654 453.247 224.277C450.863 220.441 448.398 216.474 445.918 212.618C433.706 193.578 420.932 177.416 406.865 163.209C405.056 161.383 403.187 159.552 401.309 157.765C367.041 125.194 321.129 98.3588 268.538 80.1614C219.997 63.4352 169.939 54.708 124.035 54.708C111.058 54.708 98.4232 55.4049 86.2366 56.815C48.9313 61.2166 12.6961 76.6682 -6.08045 96.1804C-19.333 109.954 -23.6971 125.41 -18.7007 140.877L-18.91 140.909C-21.5183 132.839 -21.6272 124.794 -19.2347 116.998C-17.0174 109.772 -12.6512 102.74 -6.2599 96.097C3.31849 86.1429 17.4212 77.1417 34.5273 70.0644C50.6743 63.3831 68.543 58.7507 86.1981 56.6691C115.269 53.3039 146.749 53.9456 179.761 58.5735C209.53 62.7458 239.431 69.9631 268.632 80.0259C321.253 98.2338 367.193 125.084 401.482 157.674C403.362 159.461 405.233 161.294 407.042 163.121C421.115 177.335 433.896 193.505 446.114 212.554C448.594 216.41 451.062 220.377 453.445 224.214C462.377 238.585 471.611 253.446 484.229 266.762C484.968 267.541 485.729 268.324 486.489 269.088C516.701 299.251 565.977 314.522 621.689 310.99C678.064 307.415 729.066 285.491 767.202 266.79C771.462 264.698 775.806 262.518 780.485 260.127C796.243 252.076 811.696 243.588 828.056 234.603C859.195 217.503 891.392 199.82 926.273 185.093C956.194 172.521 985.555 163.359 1016.04 157.082C1045.43 151.027 1074.92 147.859 1106.18 147.394C1124.01 147.089 1138.56 147.619 1151.97 149.06C1169.28 150.922 1184.54 154.291 1198.64 159.363C1227.05 169.63 1251.52 185.829 1275.19 201.495C1281.24 205.5 1286.96 209.282 1292.76 212.987C1353.6 251.819 1414.16 293.82 1477.89 341.389L1477.74 341.493Z" fill="#A1A1A1"/>
<path d="M1475.47 340.091C1412.32 292.004 1352.8 249.506 1293.5 210.163C1287.63 206.271 1281.85 202.261 1275.72 198.016C1252.78 182.11 1229.05 165.66 1201.02 155.66C1168.92 144.265 1134.71 144.72 1108.49 146.389C1049.16 150.036 991.186 164.335 931.261 190.101C901.735 202.858 873.624 217.456 846.437 231.575C824.946 242.736 804.648 253.278 783.825 262.913C779.12 265.093 774.505 267.178 770.116 269.108C743.66 280.728 719.878 289.309 697.413 295.343C670.512 302.568 645.511 306.204 620.98 306.457C608.499 306.585 596.158 305.799 584.309 304.118C571.887 302.355 559.934 299.598 548.779 295.924C524.431 287.902 503.965 275.634 487.95 259.459C487.199 258.695 486.442 257.91 485.705 257.125C473.314 243.961 463.874 229.409 454.744 215.336C452.162 211.354 449.489 207.236 446.804 203.232C434.092 184.227 421.034 168.202 406.884 154.238C405.049 152.429 403.155 150.614 401.251 148.843C366.533 116.575 320.271 90.1176 267.47 72.3327C204.788 51.3076 139.864 43.5289 84.6645 50.4291C47.8419 55.1121 11.8482 70.6039 -7.03303 89.8943C-20.5846 103.741 -25.4336 119.313 -21.0588 134.93L-21.2682 134.958C-23.5496 126.818 -23.3744 118.71 -20.7448 110.861C-18.3032 103.575 -13.7511 96.4921 -7.21031 89.8094C2.46207 79.9267 16.4943 70.9702 33.3697 63.9078C49.3308 57.228 67.0543 52.5167 84.6261 50.2817C113.665 46.6529 145.177 47.0281 178.287 51.3999C208.128 55.3399 238.165 62.3368 267.562 72.1972C320.395 89.9911 366.682 116.464 401.42 148.753C403.326 150.523 405.222 152.34 407.057 154.15C421.216 168.122 434.278 184.154 446.997 203.166C449.684 207.17 452.354 211.289 454.939 215.272C464.064 229.339 473.5 243.885 485.883 257.041C486.62 257.824 487.376 258.609 488.126 259.371C518.655 290.206 565.836 306.877 620.976 306.305C665.717 305.843 713.07 293.982 770 268.978C774.388 267.048 779 264.965 783.706 262.785C804.522 253.151 824.82 242.612 846.307 231.452C873.498 217.331 901.614 202.73 931.148 189.97C961.361 176.979 990.25 167.145 1019.47 159.904C1049.06 152.569 1078.18 148.097 1108.47 146.236C1134.72 144.564 1168.97 144.11 1201.11 155.523C1229.18 165.535 1252.92 181.992 1275.88 197.905C1282 202.151 1287.78 206.159 1293.65 210.05C1352.95 249.394 1412.47 291.896 1475.63 339.985L1475.47 340.091Z" fill="#A1A1A1"/>
<path d="M1473.21 338.688C1410.65 290.079 1352.16 247.077 1294.39 207.228C1288.53 203.182 1282.74 198.978 1276.61 194.528C1254.31 178.337 1231.25 161.596 1203.49 151.822C1171.09 140.469 1136.94 142.337 1110.8 145.233C1054.98 151.301 999.48 167.109 936.144 194.98C912.391 205.481 889.177 217 866.729 228.139C839.463 241.669 813.71 254.449 787.045 265.58C782.24 267.587 777.485 269.514 772.912 271.303C745.982 281.837 721.466 289.425 697.962 294.499C684.797 297.342 671.801 299.401 659.334 300.621C646.037 301.921 632.889 302.309 620.256 301.776C594.624 300.694 570.619 295.956 548.907 287.695C525.459 278.772 505.503 266.005 489.595 249.745C488.848 248.975 488.098 248.189 487.365 247.409C475.238 234.438 465.63 220.231 456.34 206.493C453.527 202.335 450.619 198.034 447.695 193.85C434.47 174.877 421.128 158.988 406.906 145.272C405.045 143.478 403.123 141.679 401.196 139.927C366.027 107.959 319.416 81.8798 266.406 64.5103C203.305 43.9155 138.204 36.6491 83.0965 44.048C24.0903 52.0933 -33.4079 86.8546 -23.4108 128.987L-23.6223 129.01C-26.1237 118.471 -24.6583 108.088 -19.2689 98.1474C-14.3472 89.0688 -6.27051 80.5247 4.73695 72.755C14.9711 65.5302 27.2496 59.2927 41.2284 54.2151C54.5237 49.3862 68.9874 45.8185 83.0538 43.9006C112.058 40.0068 143.604 40.1185 176.815 44.2342C206.729 47.9404 236.902 54.7169 266.496 64.3762C319.536 81.7577 366.174 107.851 401.365 139.837C403.294 141.591 405.216 143.39 407.079 145.186C421.307 158.907 434.656 174.805 447.887 193.786C450.812 197.97 453.719 202.271 456.532 206.431C465.82 220.164 475.424 234.365 487.545 247.329C488.275 248.109 489.023 248.895 489.77 249.663C520.345 280.912 566.69 299.366 620.269 301.629C665.627 303.542 715.523 293.582 772.807 271.175C777.379 269.386 782.132 267.46 786.936 265.453C813.595 254.326 839.343 241.547 866.605 228.019C889.055 216.878 912.271 205.357 936.029 194.855C999.391 166.972 1054.91 151.158 1110.77 145.086C1128.33 143.14 1142.87 142.517 1156.53 143.129C1173.99 143.911 1189.38 146.711 1203.59 151.688C1231.38 161.473 1254.45 178.224 1276.76 194.423C1282.89 198.873 1288.68 203.076 1294.54 207.12C1352.31 246.973 1410.8 289.976 1473.36 338.588L1473.21 338.688Z" fill="#A1A1A1"/>
<path d="M1470.94 337.285C1408.98 288.145 1351.52 244.643 1295.28 204.291C1289.46 200.116 1283.71 195.742 1277.63 191.11C1255.93 174.61 1233.5 157.547 1205.97 147.983C1172.86 136.534 1137.12 140.27 1113.11 144.076C1047.95 154.279 989.553 177.999 941.027 199.859C923.586 207.748 906.189 216.105 889.363 224.186C855.61 240.397 823.73 255.708 790.265 268.246C785.344 270.091 780.448 271.858 775.71 273.501C748.254 282.999 723.003 289.593 698.514 293.655C670.753 298.26 644.182 299.419 619.533 297.096C594.212 294.709 570.492 288.777 549.037 279.463C526.533 269.695 507.088 256.429 491.237 240.033C490.498 239.264 489.753 238.476 489.024 237.693C477.199 224.96 467.471 211.143 458.061 197.781C454.979 193.402 451.79 188.875 448.585 184.469C434.647 165.257 421.41 149.955 406.929 136.306C405.043 134.528 403.097 132.747 401.142 131.01C365.518 99.3456 318.557 73.645 265.338 56.6864C201.818 36.5235 136.538 29.7678 81.5238 37.6656C22.3061 46.2796 -34.0172 80.569 -25.7675 123.043L-25.9789 123.063C-28.0254 112.525 -26.2545 102.152 -20.7177 92.234C-15.6422 83.1465 -7.51854 74.5935 3.43125 66.8148C13.6419 59.5603 25.8563 53.2766 39.7369 48.135C52.9531 43.239 67.3891 39.5686 81.4811 37.5182C110.453 33.3593 142.032 33.2075 175.34 37.0655C205.327 40.538 235.637 47.0941 265.427 56.551C318.679 73.5184 365.665 99.2339 401.306 130.917C403.261 132.657 405.209 134.439 407.098 136.217C421.587 149.871 434.829 165.183 448.773 184.402C451.978 188.808 455.167 193.336 458.249 197.715C467.657 211.073 477.383 224.885 489.2 237.612C489.928 238.395 490.671 239.182 491.41 239.951C522.222 271.823 567.732 292.064 619.559 296.948C666.041 301.329 717.086 293.615 775.614 273.367C780.35 271.726 785.246 269.96 790.163 268.115C823.619 255.58 855.494 240.272 889.241 224.062C906.067 215.981 923.466 207.623 940.909 199.733C973.541 185.035 1000.69 174.175 1026.33 165.558C1056.53 155.415 1084.89 148.341 1113.06 143.93C1130.23 141.208 1145.2 139.975 1158.81 140.163C1176.35 140.404 1191.8 142.918 1206.06 147.849C1233.63 157.425 1256.08 174.498 1277.78 191.009C1283.87 195.64 1289.62 200.013 1295.43 204.185C1351.67 244.539 1409.13 288.044 1471.1 337.185L1470.94 337.285Z" fill="#A1A1A1"/>
<path d="M1468.68 335.881C1407.31 286.21 1350.88 242.206 1296.17 201.353C1290.44 197.069 1284.76 192.544 1278.75 187.753C1257.63 170.921 1235.79 153.515 1208.44 144.145C1174.98 132.723 1139.33 137.974 1115.42 142.919C1056.38 155.027 1003.72 178.08 945.91 204.738C935.484 209.564 924.938 214.545 914.738 219.363C875.51 237.893 834.949 257.052 793.485 270.912C788.448 272.597 783.407 274.207 778.504 275.696C750.863 284.082 724.135 289.839 699.064 292.806C670.662 296.169 643.661 296.036 618.805 292.415C593.838 288.777 570.407 281.649 549.161 271.229C527.661 260.684 508.722 246.92 492.872 230.322C492.139 229.551 491.4 228.762 490.676 227.979C479.207 215.544 469.417 202.177 459.95 189.25C456.538 184.593 453.012 179.777 449.468 175.091C434.985 155.899 421.472 140.728 406.942 127.344C405.034 125.587 403.06 123.821 401.078 122.097C365.01 90.7305 317.703 65.4081 264.27 48.8635C200.333 29.1324 134.876 22.8889 79.9519 31.284C22.6139 40.1437 -34.7496 73.2299 -28.1255 117.1L-28.337 117.115C-29.9284 106.577 -27.8521 96.216 -22.1678 86.32C-16.9407 77.222 -8.76792 68.6616 2.12206 60.874C22.2145 46.5078 50.5652 35.6692 79.9049 31.1366C108.843 26.7142 140.456 26.2973 173.865 29.8977C203.924 33.1379 234.368 39.4722 264.355 48.7265C317.818 65.28 365.153 90.6188 401.245 122C403.229 123.726 405.203 125.492 407.113 127.25C421.649 140.641 435.169 155.819 449.656 175.018C453.2 179.706 456.729 184.521 460.14 189.179C469.605 202.102 479.393 215.466 490.855 227.895C491.577 228.678 492.316 229.466 493.049 230.237C524.76 263.446 568.26 284.895 618.846 292.267C665.687 299.093 719.372 293.472 778.414 275.559C783.315 274.07 788.352 272.462 793.387 270.778C834.836 256.922 875.392 237.766 914.612 219.239C924.812 214.421 935.358 209.44 945.786 204.614C971.093 192.945 1000.54 179.56 1029.76 168.385C1060.33 156.696 1088.33 148.32 1115.35 142.778C1132.37 139.259 1147.33 137.434 1161.1 137.199C1178.46 136.901 1194.41 139.194 1208.53 144.012C1220.78 148.21 1233.11 154.474 1246.22 163.164C1257.8 170.837 1268.53 179.387 1278.9 187.654C1284.91 192.444 1290.59 196.97 1296.32 201.252C1351.04 242.106 1407.47 286.112 1468.83 335.784L1468.68 335.881Z" fill="#A1A1A1"/>
<path d="M1466.41 334.479C1405.65 284.272 1350.25 239.767 1297.06 198.419C1291.43 194.041 1285.85 189.379 1279.94 184.445C1259.37 167.263 1238.11 149.496 1210.92 140.31C1185.51 131.753 1155.02 132.229 1117.73 141.766C1065.58 155.026 1018.97 177.205 969.612 200.689C963.466 203.613 957.114 206.636 950.791 209.621C948.315 210.793 945.837 211.968 943.361 213.141C896.337 235.43 847.712 258.479 796.703 273.581C791.547 275.109 786.364 276.56 781.3 277.895C753.051 285.329 725.57 290.061 699.621 291.958C670.563 294.082 643.128 292.661 618.084 287.736C593.506 282.901 570.363 274.577 549.299 262.995C528.882 251.77 510.451 237.511 494.518 220.612C493.792 219.839 493.059 219.048 492.339 218.264C481.306 206.219 471.548 193.391 462.109 180.986C458.287 175.962 454.333 170.766 450.362 165.71C435.32 146.531 421.533 131.49 406.969 118.378C405.033 116.636 403.036 114.888 401.028 113.18C364.503 82.1173 316.846 57.1716 263.203 41.0409C198.852 21.7432 133.213 16.0104 78.3811 24.9029C22.0963 34.1065 -35.1862 67.4637 -30.4803 111.158L-30.6939 111.17C-31.8282 100.63 -29.4485 90.2816 -23.6169 80.4108C-18.236 71.3024 -10.0162 62.7316 0.816143 54.938C20.8231 40.5421 49.0756 29.5427 78.332 24.7584C107.238 20.071 138.883 19.389 172.39 22.7334C202.522 25.7382 233.105 31.8522 263.289 40.904C316.961 57.045 364.648 82.0041 401.188 113.083C403.196 114.791 405.198 116.542 407.133 118.284C421.704 131.404 435.499 146.449 450.546 165.635C454.519 170.692 458.471 175.889 462.295 180.913C471.73 193.315 481.488 206.14 492.517 218.18C493.236 218.965 493.967 219.754 494.693 220.527C527.092 254.888 569.778 278.076 618.14 287.588C665.88 296.978 720.749 293.668 781.223 277.752C786.283 276.417 791.463 274.967 796.618 273.441C847.609 258.345 896.225 235.301 943.24 213.015C945.717 211.84 948.193 210.666 950.669 209.495C956.992 206.509 963.345 203.486 969.49 200.563C1018.85 177.076 1065.48 154.89 1117.65 141.625C1134.5 137.315 1149.46 134.899 1163.38 134.233C1180.81 133.401 1196.83 135.401 1211.01 140.174C1223.19 144.289 1235.36 150.581 1248.23 159.413C1259.59 167.205 1270.02 175.92 1280.11 184.348C1286.01 189.281 1291.59 193.942 1297.22 198.318C1350.41 239.667 1405.81 284.174 1466.57 334.382L1466.41 334.479Z" fill="#A1A1A1"/>
<path d="M1464.15 333.075C1408.69 286.29 1352.77 239.996 1297.95 195.481C1292.37 190.976 1286.84 186.135 1280.99 181.011C1261.94 164.343 1240.36 145.452 1213.39 136.471C1187.68 127.929 1157.15 129.282 1120.04 140.608C1075.91 154.03 1036.86 173.765 995.512 194.659C982.565 201.202 969.176 207.97 955.671 214.498C932.099 225.917 906.6 238.001 879.871 249.006C851.245 260.793 825.092 269.702 799.918 276.245C794.629 277.619 789.305 278.913 784.091 280.088C755.245 286.585 727.016 290.282 700.188 291.077C670.49 291.955 642.622 289.257 617.356 283.051C570.698 271.449 529.92 247.173 496.154 210.897C495.434 210.123 494.708 209.331 493.992 208.546C483.519 197.033 473.932 184.887 464.661 173.14C460.297 167.611 455.785 161.893 451.246 156.329C435.631 137.155 421.567 122.247 406.986 109.413C405.023 107.685 403 105.954 400.968 104.264C363.998 73.5003 315.991 48.9344 262.139 33.2162C197.372 14.3502 131.555 9.13118 76.8129 18.5195C20.1863 28.286 -35.6606 61.201 -32.8345 105.214L-33.0481 105.22C-33.7252 94.6773 -31.038 84.3405 -25.0632 74.495C-19.5264 65.3747 -11.2596 56.7949 -0.489254 48.9954C9.65735 41.6471 21.6838 35.2219 35.2546 29.8972C48.4302 24.7287 62.3941 20.8513 76.7595 18.3736C105.634 13.4226 137.312 12.4755 170.918 15.5623C201.123 18.3363 231.84 24.2284 262.22 33.0777C316.104 48.8048 364.139 73.3857 401.131 104.164C403.162 105.855 405.189 107.589 407.152 109.316C421.74 122.157 435.811 137.071 451.432 156.252C455.971 161.818 460.483 167.535 464.847 173.066C474.118 184.811 483.703 196.956 494.172 208.464C494.885 209.25 495.614 210.041 496.331 210.815C530.071 247.063 570.814 271.319 617.426 282.91C665.44 294.703 723.049 293.678 784.025 279.945C789.235 278.77 794.558 277.478 799.843 276.105C856.128 261.478 907.626 237.59 955.548 214.374C969.052 207.846 982.439 201.08 995.386 194.537C1036.74 173.639 1075.8 153.899 1119.95 140.471C1157.12 129.127 1187.71 127.774 1213.48 136.336C1225.56 140.358 1237.55 146.662 1250.14 155.607C1261.25 163.494 1271.37 172.352 1281.15 180.917C1287.01 186.041 1292.54 190.88 1298.12 195.383C1352.94 239.899 1408.85 286.193 1464.31 332.98L1464.15 333.075Z" fill="#A1A1A1"/>
<path d="M1461.88 331.672C1407.27 284.628 1352.42 237.819 1298.84 192.545C1293.44 187.99 1288.07 183.065 1282.39 177.85C1263.82 160.793 1242.76 141.46 1215.86 132.631C1189.85 124.104 1159.26 126.334 1122.34 139.448C1083.66 153.168 1048.13 172.54 1013.76 191.277C996.528 200.671 978.709 210.385 960.552 219.375C931.893 233.577 907.781 244.411 884.666 253.472C856.163 264.644 829.494 272.965 803.136 278.909C797.725 280.13 792.257 281.264 786.884 282.281C758.893 287.578 731.405 290.258 705.109 290.26C703.648 290.26 702.195 290.251 700.743 290.234C670.341 289.889 642.042 285.895 616.631 278.367C604.365 274.713 592.354 270.074 580.932 264.58C570.195 259.416 559.645 253.333 549.573 246.502C531.453 234.211 514.513 219.386 497.792 201.183C497.074 200.4 496.358 199.615 495.647 198.827C485.945 188.087 476.766 176.86 467.89 166.002C462.765 159.735 457.468 153.253 452.132 146.944C435.703 127.506 421.786 113.164 407.002 100.443C405.013 98.732 402.965 97.0167 400.907 95.343C363.489 64.885 315.133 40.6972 261.072 25.3915C195.891 6.95882 129.895 2.25201 75.2421 12.1362C19.6771 22.2139 -36.0972 55.379 -35.1893 99.2681L-35.4029 99.2696C-35.8259 78.8267 -24.2032 59.3875 -1.7931 43.0543C8.33641 35.6717 20.2987 29.2004 33.7649 23.8161C46.8679 18.5777 60.804 14.599 75.1887 11.9902C104.029 6.77418 135.741 5.5636 169.445 8.39276C199.723 10.9345 230.577 16.6062 261.151 25.2515C315.247 40.5677 363.63 64.7703 401.072 95.2462C403.129 96.9214 405.182 98.6382 407.171 100.349C421.961 113.077 435.884 127.424 452.318 146.869C457.654 153.18 462.953 159.662 468.076 165.929C476.951 176.785 486.128 188.011 495.828 198.749C496.54 199.536 497.253 200.321 497.971 201.103C533.503 239.785 572.344 265.013 616.714 278.23C678.168 296.438 743.143 290.406 786.829 282.138C792.197 281.121 797.661 279.988 803.07 278.767C863.691 265.095 919.008 239.78 960.428 219.254C978.583 210.268 996.4 200.553 1013.63 191.16C1048 172.421 1083.55 153.043 1122.25 139.317C1138.76 133.449 1153.72 129.845 1167.95 128.303C1185.51 126.4 1201.66 127.811 1215.95 132.499C1228 136.452 1239.88 142.807 1252.26 151.926C1263.18 159.961 1273.03 169.01 1282.56 177.762C1288.24 182.975 1293.6 187.899 1299.01 192.451C1352.58 237.725 1407.43 284.534 1462.05 331.579L1461.88 331.672Z" fill="#A1A1A1"/>
<path d="M1459.62 330.271L1299.74 189.611C1294.52 185.017 1289.33 180.019 1283.84 174.728C1265.72 157.268 1245.19 137.479 1218.34 128.796C1192.38 120.401 1160.86 123.597 1124.65 138.295C1089.85 152.424 1058.1 171.214 1027.4 189.386C1007.39 201.232 986.697 213.479 965.436 224.258C901.534 256.656 845.687 275.792 789.684 284.48C766.452 288.083 743.533 289.897 721.307 289.897C714.569 289.897 707.9 289.73 701.302 289.397C670.183 287.824 641.452 282.538 615.91 273.688C592.238 265.483 570.582 253.901 549.712 238.279C533.046 225.803 517.069 210.931 499.436 191.474C490.129 181.206 481.116 170.537 472.401 160.219C452.676 136.871 432.28 112.728 407.029 91.4798C368.297 58.8894 317.457 33.3318 260.006 17.5689C194.412 -0.428951 128.236 -4.62503 73.6733 5.75498C20.8469 15.8044 -36.489 47.4939 -37.5442 93.3262L-37.7578 93.3232C-37.2857 72.8372 -25.2999 53.4009 -3.097 37.1154C16.9783 22.3904 44.2225 11.2018 73.6178 5.61054C102.426 0.130924 134.173 -1.3447 167.973 1.22685C198.323 3.53484 229.314 8.98766 260.085 17.4304C288.512 25.23 315.511 35.4968 340.333 47.9466C365.362 60.5006 387.857 75.1139 407.191 91.3815C432.453 112.637 452.855 136.786 472.585 160.14C481.3 170.456 490.312 181.124 499.617 191.391C525.345 219.78 561.826 254.774 616.006 273.551C678.142 295.083 744.723 291.298 789.637 284.331C845.612 275.649 901.434 256.521 965.31 224.134C986.562 213.36 1007.25 201.112 1027.26 189.27C1057.97 171.095 1089.72 152.301 1124.55 138.164C1160.81 123.44 1192.4 120.242 1218.43 128.659C1230.45 132.547 1242.22 138.957 1254.41 148.259C1265.14 156.448 1274.73 165.696 1284.01 174.639C1289.5 179.929 1294.69 184.925 1299.9 189.517L1459.79 330.177L1459.62 330.271Z" fill="#A1A1A1"/>
<path d="M1458.33 319.458C1417.61 280.293 1382.68 248.513 1348.4 219.446C1331.76 205.325 1314.76 191.427 1297.88 178.136C1292.77 174.115 1287.71 169.839 1282.36 165.311C1268.9 153.93 1254.98 142.162 1238.97 133.429C1230.37 128.731 1222.09 125.368 1213.67 123.146C1187.79 116.259 1157.43 120.813 1123.44 136.681C1105.84 144.881 1089.82 154.213 1076.47 162.26C1062.33 170.778 1048.39 180.173 1034.91 189.257C1015.53 202.316 995.484 215.818 973.939 227.415C960.829 234.492 947.541 240.816 934.44 246.213C908.229 257.008 880.097 265.903 850.823 272.652C832.737 276.775 814.562 279.891 796.809 281.913C781.508 283.65 766.179 284.652 751.245 284.892C728.895 285.252 707.119 283.877 686.523 280.803C664.623 277.533 643.899 272.314 624.925 265.288C608.007 259.024 592.027 251.137 576.072 241.174C546.342 222.623 522.629 201.174 505.292 184.559C496.775 176.359 488.459 167.997 480.416 159.91C457.259 136.62 435.385 114.623 408.012 95.0286C385.688 79.1526 360.217 65.4521 332.299 54.3052C310.846 45.7388 287.513 38.733 262.95 33.4812C257.099 32.2319 251.137 31.0675 245.235 30.0236C219.824 25.5372 191.217 22.6157 160.211 21.3396C128.951 20.0233 101.905 21.1624 77.5342 24.8254C63.7562 26.8803 50.4075 30.1041 37.8535 34.4059C-6.46687 49.5939 -34.9265 75.0905 -38.276 102.611L-38.543 102.594C-37.6501 95.2579 -35.029 88.0317 -30.7546 81.1137C-26.6939 74.5426 -21.1164 68.2053 -14.1783 62.2775C-1.06887 51.08 16.8831 41.3834 37.736 34.2376C50.3093 29.9283 63.6793 26.7001 77.4787 24.6423C101.875 20.9763 128.942 19.8357 160.228 21.1535C191.251 22.4296 219.873 25.3541 245.301 29.8435C251.21 30.8888 257.174 32.0532 263.029 33.304C287.612 38.5587 310.964 45.5706 332.434 54.1444C360.37 65.2987 385.863 79.0112 408.198 94.8976C435.588 114.504 457.466 136.507 480.632 159.803C488.673 167.89 496.989 176.251 505.503 184.449C522.831 201.056 546.534 222.495 576.247 241.034C592.185 250.986 608.148 258.866 625.047 265.123C662.18 278.871 704.635 285.46 751.237 284.705C766.158 284.466 781.476 283.464 796.764 281.729C814.505 279.707 832.666 276.593 850.738 272.473C879.994 265.729 908.11 256.84 934.303 246.05C947.395 240.658 960.676 234.338 973.774 227.266C995.307 215.676 1015.34 202.176 1034.72 189.122C1048.21 180.036 1062.15 170.638 1076.29 162.117C1089.65 154.066 1105.68 144.731 1123.29 136.525C1138.42 129.459 1153.08 124.578 1166.85 122.016C1183.77 118.868 1199.55 119.19 1213.76 122.972C1222.21 125.201 1230.52 128.573 1239.13 133.282C1255.17 142.028 1269.1 153.803 1282.57 165.192C1287.92 169.718 1292.98 173.995 1298.08 178.012C1314.96 191.305 1331.96 205.205 1348.61 219.328C1382.89 248.398 1417.83 280.182 1458.55 319.349L1458.33 319.458Z" fill="#A1A1A1"/>
<path d="M1457.04 308.641C1419.29 268.814 1383.86 235.487 1348.73 206.756C1331.6 192.722 1313.87 179.231 1296.03 166.659C1291.29 163.324 1286.62 159.857 1281.67 156.188C1266.86 145.201 1251.54 133.84 1234.38 125.979C1225.71 121.993 1217.41 119.217 1208.99 117.493C1176.76 110.888 1144.02 123.402 1122.22 135.062C1106.78 143.299 1092.68 152.613 1078.39 162.228C1065.89 170.644 1054.13 179.697 1041.67 189.281C1023.19 203.507 1004.08 218.217 982.446 230.568C969.61 237.938 956.214 244.309 942.63 249.506C917.328 259.187 889.62 266.706 857.924 272.492C840.186 275.729 822.02 278.036 803.932 279.344C788.669 280.436 773.434 280.826 758.648 280.5C736.65 280.02 715.148 277.864 694.735 274.093C673.297 270.13 652.841 264.341 633.939 256.885C617.377 250.355 601.386 242.251 585.051 232.114C555.385 213.729 529.971 193.347 511.147 177.644C504.179 171.831 497.322 165.982 490.69 160.323C464.277 137.792 439.329 116.507 409 98.5765C386.333 85.1753 360.886 73.8437 333.368 64.8977C312.547 58.1286 290.479 53.0569 265.905 49.3924C260.234 48.5482 254.464 47.7873 248.758 47.1306C223.697 44.2612 196.951 43.1757 164.591 42.053C141.264 41.2028 110.728 40.6429 81.3926 43.892C67.4993 45.4018 54.0694 48.024 41.4727 51.6826C-2.87762 64.5671 -32.9628 87.0753 -39.0081 111.894L-39.3242 111.857C-37.7221 105.276 -34.4752 98.8207 -29.6796 92.6695C-25.1083 86.8087 -19.1015 81.1891 -11.828 75.9626C1.9949 66.0338 20.3827 57.5657 41.3488 51.4756C53.969 47.8096 67.4245 45.183 81.3414 43.6701C110.705 40.4166 141.264 40.9779 164.605 41.8282C196.976 42.9509 223.731 44.0364 248.81 46.9072C254.519 47.5654 260.293 48.3263 265.971 49.1706C290.569 52.8395 312.658 57.9156 333.503 64.6922C361.048 73.6472 386.517 84.9876 409.207 98.4023C439.557 116.347 464.516 137.637 490.938 160.178C497.568 165.834 504.425 171.683 511.393 177.495C530.212 193.192 555.615 213.567 585.265 231.943C601.58 242.07 617.554 250.164 634.096 256.687C671.265 271.347 713.176 279.282 758.658 280.274C773.432 280.598 788.652 280.21 803.9 279.118C821.971 277.811 840.122 275.507 857.843 272.272C889.513 266.491 917.198 258.979 942.479 249.306C956.045 244.116 969.424 237.753 982.245 230.391C1003.86 218.05 1022.96 203.346 1041.44 189.127C1053.9 179.539 1065.66 170.485 1078.17 162.064C1092.46 152.444 1106.57 143.127 1122.03 134.88C1136.16 127.321 1150.1 121.883 1163.45 118.714C1179.65 114.872 1195 114.388 1209.09 117.274C1217.54 119.006 1225.87 121.79 1234.56 125.788C1251.75 133.664 1267.08 145.036 1281.91 156.032C1286.85 159.7 1291.53 163.165 1296.26 166.498C1314.1 179.075 1331.84 192.57 1348.98 206.608C1384.12 235.347 1419.56 268.68 1457.31 308.516L1457.04 308.641Z" fill="#A1A1A1"/>
<path d="M1455.75 297.824C1420.42 256.794 1385.53 222.855 1349.07 194.067C1331.44 180.12 1312.97 167.039 1294.18 155.184C1290.16 152.65 1286.02 149.961 1282.02 147.361C1265.51 136.619 1248.43 125.513 1229.79 118.531C1221.04 115.231 1212.71 113.042 1204.33 111.84C1172.16 107.226 1141.27 121.041 1121.01 133.442C1107.28 141.813 1094.73 151.301 1082.6 160.478L1080.32 162.196C1069.3 170.521 1058.97 179.652 1048.02 189.32C1030.59 204.715 1012.57 220.633 990.952 233.722C978.372 241.393 964.87 247.812 950.818 252.801C926.319 261.498 899.054 267.704 865.019 272.332C847.419 274.725 829.262 276.22 811.049 276.774C795.825 277.219 780.684 276.996 766.043 276.107C721.719 273.428 680.304 264.134 642.947 248.482C626.798 241.716 610.796 233.4 594.03 223.054C565.655 205.584 540.419 187.626 517.005 170.73C513.865 168.465 510.759 166.215 507.677 163.983C475.697 140.83 445.492 118.961 409.994 102.129C386.819 91.1399 361.397 82.1789 334.437 75.4932C314.643 70.5853 293.192 67.2529 268.862 65.3052C263.378 64.869 257.801 64.5101 252.283 64.2391C238.403 63.569 223.681 63.4603 208.093 63.3457C195.573 63.2534 182.629 63.1581 168.968 62.7694C142.585 61.9549 112.683 61.0332 85.2468 62.963C71.0906 63.9592 57.5796 65.9783 45.0876 68.9653C0.754379 79.5672 -30.9586 99.0898 -39.7445 121.188L-40.1055 121.118C-37.7899 115.292 -33.9192 109.608 -28.6024 104.225C-23.5184 99.0779 -17.0844 94.173 -9.47981 89.6479C5.06508 80.9937 23.8929 73.757 44.9637 68.7181C57.4835 65.7237 71.0223 63.7001 85.2062 62.7024C112.67 60.7712 142.587 61.6944 168.981 62.5089C182.633 62.896 195.578 62.9928 208.093 63.0851C223.687 63.1998 238.414 63.3085 252.307 63.98C257.829 64.2525 263.413 64.6114 268.9 65.0477C293.261 66.9968 314.737 70.3337 334.558 75.249C361.551 81.9422 387 90.9136 410.201 101.914C445.731 118.761 475.951 140.641 507.944 163.804C511.026 166.036 514.134 168.285 517.272 170.551C540.682 187.444 565.91 205.397 594.275 222.862C611.025 233.196 627.009 241.505 643.139 248.262C680.447 263.894 721.808 273.175 766.075 275.851C780.699 276.738 795.825 276.962 811.032 276.516C829.226 275.962 847.366 274.469 864.946 272.079C898.947 267.456 926.18 261.257 950.648 252.571C964.669 247.594 978.146 241.186 990.704 233.528C1012.3 220.456 1030.31 204.547 1047.72 189.161C1058.67 179.488 1069.02 170.353 1080.05 162.022L1082.32 160.304C1094.46 151.122 1107.02 141.628 1120.76 133.248C1141.08 120.807 1172.09 106.952 1204.4 111.587C1212.82 112.795 1221.18 114.991 1229.97 118.304C1248.65 125.301 1265.75 136.42 1282.28 147.173C1286.27 149.773 1290.41 152.463 1294.42 154.995C1313.23 166.855 1331.7 179.944 1349.34 193.899C1385.82 222.698 1420.73 256.65 1456.06 297.693L1455.75 297.824Z" fill="#A1A1A1"/>
<path d="M1454.46 287.007C1422.02 245.358 1386.68 209.819 1349.4 181.381C1331.28 167.522 1312.08 154.848 1292.33 143.714C1289.48 142.105 1286.56 140.436 1283.73 138.822C1265.07 128.159 1245.77 117.131 1225.21 111.086C1216.39 108.464 1208.04 106.863 1199.67 106.19C1167.6 103.611 1138.54 118.705 1119.81 131.822C1108.17 139.925 1097.68 148.937 1087.52 157.652C1085.77 159.161 1084.01 160.666 1082.25 162.166C1072.59 170.403 1063.57 179.605 1054.01 189.346C1037.75 205.907 1020.95 223.031 999.46 236.879C986.84 245.011 973.609 251.297 959.006 256.101C928.464 266.147 897.941 269.865 872.113 272.179C854.644 273.743 836.495 274.428 818.167 274.21C802.99 274.009 787.941 273.171 773.441 271.721C730.447 267.431 689.574 256.787 651.959 240.085C636.308 233.137 620.298 224.605 603.01 214.002C585.547 203.316 569.274 193.035 553.535 183.091C542.84 176.332 532.736 169.949 522.869 163.824C485.572 140.673 451.409 120.318 410.996 105.687C387.323 97.1174 361.927 90.524 335.511 86.0912C316.579 82.9136 296.341 81.3665 271.825 81.2191C266.536 81.1923 261.148 81.2354 255.814 81.3486C247.712 81.5317 239.33 81.9144 230.459 82.3209C213.434 83.0997 194.134 83.9827 173.345 83.4883C165.428 83.2992 157.352 83.0327 149.54 82.7736C129.448 82.108 108.672 81.4201 89.0982 82.035C74.7242 82.4877 61.1299 83.9053 48.6977 86.249C4.43922 94.595 -28.8993 111.134 -40.4857 130.489L-40.8809 130.375C-37.8476 125.306 -33.3531 120.395 -27.5236 115.778C-21.9249 111.344 -15.0636 107.155 -7.13432 103.33C8.1454 95.9589 27.4111 89.9537 48.5823 85.9616C61.0445 83.6119 74.6687 82.1899 89.0748 81.7372C108.669 81.1208 129.454 81.8102 149.557 82.4758C157.367 82.7349 165.443 83.0014 173.358 83.1905C194.127 83.6849 213.412 82.8034 230.429 82.0246C239.304 81.6181 247.689 81.2354 255.8 81.0523C261.14 80.9391 266.531 80.8959 271.827 80.9227C296.377 81.0687 316.645 82.6202 335.61 85.8023C362.057 90.2411 387.488 96.8419 411.19 105.423C429.445 112.032 447.944 120.404 467.744 131.018C485.47 140.52 502.712 150.916 523.151 163.602C533.018 169.728 543.122 176.112 553.819 182.87C569.556 192.813 585.829 203.094 603.288 213.778C620.558 224.371 636.552 232.894 652.184 239.835C689.747 256.515 730.562 267.143 773.496 271.427C787.979 272.876 803.009 273.713 818.169 273.914C836.476 274.131 854.605 273.448 872.053 271.885C897.849 269.575 928.332 265.861 958.82 255.833C973.382 251.043 986.579 244.772 999.166 236.662C1020.62 222.837 1037.41 205.727 1053.65 189.179C1063.22 179.432 1072.25 170.226 1081.92 161.979C1083.68 160.48 1085.43 158.975 1087.18 157.468C1097.34 148.746 1107.85 139.729 1119.5 131.615C1131.68 123.082 1144.19 116.516 1156.66 112.103C1171.43 106.875 1185.91 104.787 1199.71 105.898C1208.12 106.574 1216.51 108.182 1225.37 110.815C1245.98 116.877 1265.31 127.918 1283.99 138.594C1286.82 140.208 1289.74 141.878 1292.59 143.484C1312.35 154.628 1331.57 167.313 1349.7 181.183C1369.5 196.284 1388.88 213.488 1407.32 232.318C1423.61 248.961 1439.59 267.315 1454.82 286.867L1454.46 287.007Z" fill="#A1A1A1"/>
<path d="M1453.17 276.185C1423.15 233.342 1388.35 197.176 1349.74 168.692C1331.12 154.92 1311.18 142.657 1290.49 132.24C1289.5 131.744 1288.52 131.248 1287.53 130.751C1266.01 119.904 1243.75 108.689 1220.64 103.64C1211.69 101.683 1203.31 100.669 1195.03 100.538C1163.08 100.035 1135.83 116.39 1118.61 130.198C1108.47 138.276 1099.47 147.13 1090.77 155.692C1088.61 157.809 1086.39 159.998 1084.19 162.13C1075.83 170.251 1068.05 179.485 1059.81 189.262C1044.84 207.045 1029.35 225.433 1007.98 240.032C995.607 248.478 982.269 254.812 967.199 259.398C937.509 268.432 907.362 270.804 879.208 272.022C861.847 272.772 843.705 272.644 825.285 271.642C810.157 270.794 795.204 269.342 780.839 267.329C739.308 261.521 698.978 249.529 660.974 231.683C645.754 224.537 630.191 216.041 611.997 204.944C577.42 183.913 551.743 169.1 528.746 156.916C483.005 132.682 448.094 118.424 412.017 109.243C387.864 103.096 362.493 98.8719 336.605 96.686C318.645 95.1702 299.584 95.3057 274.805 97.1298C269.728 97.508 264.533 97.9532 259.363 98.455C254.48 98.936 249.52 99.4869 244.267 100.069C224.873 102.221 202.89 104.66 177.731 104.204C164.47 103.964 150.925 103.308 137.826 102.673C122.939 101.953 107.546 101.207 92.9523 101.105C78.3199 101.004 64.6422 101.82 52.3104 103.533C8.19933 109.654 -26.7691 123.212 -41.2285 139.798L-41.6387 139.624C-37.8834 135.314 -32.7652 131.176 -26.4273 127.324C-20.3094 123.605 -13.0252 120.134 -4.77551 117.005C11.2497 110.927 30.9576 106.153 52.2164 103.204C64.5824 101.488 78.2899 100.669 92.9566 100.77C107.563 100.872 122.965 101.618 137.858 102.34C150.952 102.974 164.491 103.631 177.742 103.871C202.856 104.325 224.815 101.889 244.188 99.74C249.443 99.1563 254.407 98.6069 259.293 98.1244C264.468 97.6226 269.668 97.1774 274.75 96.7977C299.567 94.9722 318.66 94.8352 336.659 96.3555C362.583 98.5443 387.99 102.775 412.177 108.93C448.304 118.124 483.251 132.396 529.032 156.651C552.038 168.84 577.723 183.657 612.309 204.694C630.49 215.781 646.036 224.269 661.239 231.407C699.192 249.228 739.462 261.204 780.931 267.003C795.277 269.013 810.213 270.462 825.319 271.31C843.718 272.311 861.836 272.439 879.175 271.69C907.287 270.473 937.383 268.107 967.004 259.094C982.019 254.526 995.31 248.212 1007.64 239.796C1028.97 225.229 1044.44 206.861 1059.4 189.097C1067.64 179.314 1075.42 170.073 1083.8 161.94C1085.99 159.809 1088.22 157.62 1090.37 155.503C1099.08 146.933 1108.09 138.074 1118.24 129.982C1129.48 120.971 1141.27 113.843 1153.27 108.795C1167.33 102.882 1181.39 99.9947 1195.03 100.208C1203.36 100.339 1211.79 101.359 1220.78 103.324C1243.97 108.391 1266.26 119.622 1287.81 130.484C1288.8 130.981 1289.78 131.479 1290.77 131.973C1311.49 142.402 1331.44 154.681 1350.08 168.468C1388.73 196.977 1423.56 233.17 1453.6 276.044L1453.17 276.185Z" fill="#A1A1A1"/>
<path d="M889.837 271.868C888.638 271.868 887.457 271.867 886.295 271.862C869.024 271.812 850.889 270.874 832.396 269.072C817.324 267.576 802.465 265.51 788.232 262.936C767.896 259.264 747.487 253.987 727.568 247.252C708.332 240.748 688.959 232.683 669.986 223.28C651.396 214.067 634.031 203.802 620.979 195.888C590.441 177.421 561.386 161.986 534.62 150.009C491.269 130.613 452.638 118.789 413.04 112.799C389.152 109.185 363.523 107.279 338.846 107.279C338.464 107.279 338.083 107.279 337.701 107.28C316.502 107.331 296.376 110.077 277.787 113.037C272.949 113.813 267.944 114.66 262.911 115.558C260.153 116.055 257.391 116.567 254.469 117.109C233.857 120.938 210.495 125.275 182.112 124.919C164.826 124.702 147.171 123.454 130.097 122.246C119.073 121.466 107.674 120.661 96.8014 120.174C81.8549 119.505 68.1004 119.72 55.9159 120.814C12.0399 124.751 -24.5584 135.329 -41.9871 149.111L-42.3887 148.866C-33.449 141.797 -20.002 135.677 -2.42171 130.674C14.3683 125.898 34.5183 122.36 55.8476 120.446C68.0641 119.35 81.8549 119.133 96.8356 119.804C107.719 120.291 119.124 121.098 130.153 121.879C147.216 123.086 164.861 124.334 182.123 124.55C210.433 124.906 233.755 120.574 254.332 116.753C257.257 116.21 260.019 115.698 262.779 115.2C267.816 114.302 272.825 113.454 277.667 112.678C296.288 109.713 316.449 106.963 337.699 106.911C362.769 106.85 388.857 108.762 413.153 112.438C433.59 115.531 453.402 120.083 473.719 126.355C493.286 132.396 513.301 140.031 534.906 149.7C561.693 161.685 590.77 177.132 621.328 195.611C634.369 203.521 651.72 213.778 670.292 222.981C708.791 242.061 748.517 255.383 788.364 262.58C802.578 265.151 817.418 267.214 832.469 268.709C850.938 270.507 869.048 271.445 886.295 271.495C913.283 271.572 944.62 270.938 975.183 262.354C990.653 258.009 1004.04 251.655 1016.1 242.931C1037.28 227.609 1051.33 207.943 1064.91 188.924C1071.9 179.141 1078.5 169.9 1085.67 161.901C1087.97 159.338 1090.29 156.698 1092.53 154.144C1100.11 145.517 1107.95 136.598 1116.97 128.353C1127.29 118.868 1138.36 111.174 1149.88 105.486C1163.23 98.8911 1176.84 95.2012 1190.34 94.5193C1198.67 94.0979 1207.12 94.5282 1216.18 95.8356C1240.41 99.3288 1264.42 109.478 1288.93 120.463C1310.31 130.04 1331.58 142.243 1350.45 155.753C1371.41 170.716 1391.11 188.27 1408.99 207.927C1424.92 225.439 1439.52 244.716 1452.36 265.223L1451.88 265.372C1424.28 221.332 1390.03 184.538 1350.07 156.013C1331.22 142.523 1309.99 130.338 1288.64 120.777C1264.17 109.812 1240.21 99.6817 1216.07 96.2004C1207.06 94.9005 1198.65 94.4731 1190.37 94.8915C1165.58 96.1468 1139.66 108.11 1117.4 128.579C1108.39 136.809 1100.56 145.721 1092.99 154.339C1090.74 156.895 1088.42 159.536 1086.12 162.099C1078.96 170.083 1072.37 179.316 1065.39 189.09C1058.72 198.422 1051.83 208.072 1043.92 217.349C1034.96 227.866 1025.98 236.318 1016.49 243.19C1004.37 251.953 990.927 258.335 975.384 262.7C961.677 266.551 946.944 269.096 930.344 270.484C916.286 271.652 902.166 271.868 889.837 271.868Z" fill="#A1A1A1"/>
<path d="M924.093 272.614C913.2 272.614 902.738 272.161 893.377 271.703C876.166 270.86 858.039 269.11 839.502 266.502C824.493 264.359 809.728 261.682 795.617 258.541C756.977 249.96 718.828 235.676 678.991 214.876C661.618 205.806 645.24 196.047 629.958 186.83C599.788 168.686 569.69 153.974 540.495 143.101C497.559 127.111 457.387 118.61 414.071 116.35C389.39 115.062 363.363 115.587 338.802 117.868C318.244 119.777 298.863 124.384 280.77 128.938C276.243 130.083 271.429 131.334 266.462 132.654C265.221 132.986 263.969 133.324 262.7 133.665C241.862 139.282 218.284 145.637 188.023 145.637C187.513 145.637 187.005 145.636 186.49 145.631C166.017 145.487 145.115 143.45 124.899 141.478C116.884 140.697 108.596 139.89 100.643 139.236C85.1091 137.961 71.6557 137.585 59.5118 138.088C15.3431 139.919 -21.9387 147.329 -42.7702 158.421L-43.127 158.094C-32.8287 152.612 -17.9377 147.851 -0.0690117 144.328C17.507 140.863 38.0972 138.564 59.4755 137.678C71.6536 137.174 85.1411 137.55 100.709 138.828C108.671 139.482 116.961 140.29 124.978 141.07C145.175 143.039 166.058 145.074 186.492 145.219C217.382 145.439 241.345 138.978 262.485 133.28C263.751 132.939 265.005 132.601 266.246 132.267C271.217 130.945 276.034 129.694 280.565 128.549C298.688 123.987 318.105 119.374 338.719 117.459C363.318 115.175 389.388 114.648 414.109 115.937C435.575 117.057 456.041 119.701 476.676 124.02C497.929 128.467 518.893 134.589 540.766 142.737C569.997 153.624 600.134 168.354 630.336 186.516C645.612 195.73 661.979 205.483 679.337 214.543C719.12 235.315 757.212 249.579 795.79 258.147C809.88 261.281 824.626 263.955 839.613 266.095C858.125 268.701 876.226 270.449 893.411 271.289C922.33 272.703 953.095 273.43 983.359 265.602C999.284 261.482 1012.76 255.088 1024.56 246.054C1045.57 229.962 1058.65 208.013 1070.19 188.646C1076 178.902 1081.48 169.698 1087.54 161.853C1089.72 159.022 1091.92 156.096 1094.04 153.267C1100.69 144.415 1107.56 135.262 1115.7 126.713C1125.11 116.755 1135.47 108.495 1146.48 102.164C1159.13 94.8927 1172.3 90.4018 1185.63 88.8189C1193.96 87.8287 1202.45 87.6709 1211.57 88.332C1237.04 90.1829 1262.92 99.3285 1287.09 108.937C1309.41 117.809 1331.45 129.596 1350.82 143.024C1372.36 157.917 1392.22 175.647 1409.82 195.718C1425.57 213.666 1439.46 233.405 1451.13 254.388L1450.58 254.536C1425.79 209.933 1391.14 171.473 1350.4 143.313C1331.07 129.91 1309.08 118.145 1286.8 109.292C1262.69 99.7052 1236.88 90.5819 1211.51 88.7385C1202.44 88.0804 1194.01 88.2382 1185.73 89.221C1161.12 92.1439 1136.42 105.538 1116.19 126.937C1108.07 135.467 1101.21 144.611 1094.57 153.455C1092.44 156.285 1090.24 159.211 1088.06 162.045C1082.02 169.873 1076.54 179.067 1070.74 188.801C1059.18 208.197 1046.08 230.183 1024.99 246.328C1013.13 255.411 999.579 261.841 983.564 265.985C969.667 269.579 954.675 271.661 937.73 272.345C933.148 272.538 928.585 272.614 924.093 272.614Z" fill="#A1A1A1"/>
<path d="M945.591 274.227C945.435 274.227 945.282 274.227 945.126 274.227C929.733 274.2 914.62 272.887 900.457 271.544C883.272 269.915 865.155 267.352 846.607 263.93C831.667 261.145 816.996 257.852 803.005 254.148C765.909 244.339 729.366 229.191 688 206.473C673.103 198.294 658.442 189.487 644.263 180.971C642.49 179.905 640.715 178.84 638.94 177.775C608.613 159.636 577.47 145.647 546.379 136.197C503.804 123.259 460.866 117.928 415.11 119.901C390.021 120.984 364.018 123.943 339.912 128.457C320.892 132.021 303.944 137.737 283.761 144.84C279.671 146.285 275.302 147.846 270.018 149.752L269.723 149.859C259.527 153.561 247.971 157.755 235.009 160.945C220.122 164.608 205.68 166.371 190.87 166.35C167.776 166.31 144.208 163.314 121.418 160.415C115.834 159.705 110.058 158.97 104.483 158.306C88.4938 156.405 74.9593 155.444 63.1059 155.371C19.4606 155.103 -19.4212 159.612 -43.568 167.739L-43.8457 167.337C-32.018 163.356 -16.0632 160.124 2.29251 157.992C20.6824 155.855 41.7147 154.795 63.1123 154.926C74.9999 154.999 88.5686 155.961 104.592 157.867C110.171 158.531 115.947 159.265 121.533 159.975C144.296 162.87 167.834 165.863 190.872 165.903C190.975 165.903 191.079 165.903 191.182 165.903C224.136 165.903 249.242 156.79 269.428 149.463L269.725 149.356C275.012 147.448 279.38 145.888 283.473 144.442C303.689 137.327 320.667 131.601 339.747 128.027C363.894 123.503 389.94 120.54 415.071 119.456C437.462 118.491 458.582 119.227 479.642 121.707C502.336 124.38 524.251 128.986 546.635 135.789C577.787 145.256 608.983 159.268 639.358 177.437C641.133 178.502 642.909 179.568 644.682 180.634C658.855 189.147 673.511 197.952 688.395 206.125C729.708 228.815 766.197 243.942 803.231 253.734C817.204 257.434 831.853 260.72 846.772 263.503C865.294 266.92 883.385 269.479 900.542 271.105C931.275 274.02 961.362 276.042 991.546 268.871C1007.93 264.979 1021.49 258.545 1033.02 249.2C1053.85 232.318 1065.23 208.927 1075.27 188.288C1079.97 178.626 1084.41 169.498 1089.41 161.828C1091.34 158.877 1093.27 155.824 1095.14 152.871C1100.99 143.639 1107.03 134.095 1114.44 125.095C1122.97 114.658 1132.61 105.831 1143.09 98.8599C1155.04 90.9144 1167.77 85.6254 1180.93 83.1417C1189.09 81.602 1197.42 80.8516 1206.37 80.8516C1206.57 80.8516 1206.76 80.8516 1206.96 80.8531C1234.78 80.9543 1263.42 89.7664 1285.26 97.4319C1308.52 105.599 1331.32 116.969 1351.19 130.314C1373.32 145.139 1393.33 163.043 1410.66 183.53C1426.21 201.915 1439.41 222.117 1449.9 243.577L1449.29 243.721C1433.69 211.791 1403.92 166.253 1350.74 130.637C1330.92 117.322 1308.18 105.979 1284.97 97.8309C1263.19 90.1863 1234.65 81.3995 1206.96 81.2998C1197.84 81.2625 1189.38 82.01 1181.1 83.5735C1156.71 88.1761 1133.24 103.001 1114.99 125.317C1107.6 134.296 1101.56 143.83 1095.73 153.052C1093.86 156.006 1091.92 159.06 1090 162.012C1085 169.663 1080.57 178.779 1075.87 188.431C1065.82 209.107 1054.42 232.543 1033.51 249.49C1021.9 258.898 1008.24 265.375 991.753 269.292C977.776 272.611 962.67 274.227 945.591 274.227Z" fill="#A1A1A1"/>
<path d="M962.687 276.324C959.372 276.324 955.984 276.249 952.515 276.1C937.331 275.45 922.575 273.498 907.536 271.383C890.103 268.932 872.497 265.653 853.712 261.359C838.849 257.931 824.274 254.027 810.392 249.752C775.173 238.924 740.205 222.984 697.01 198.069C686.283 191.882 675.559 185.393 665.188 179.117C659.542 175.701 653.707 172.168 647.924 168.718C617.237 150.456 585.054 137.192 552.268 129.291C508.95 118.852 464.429 116.94 416.156 123.447C390.653 126.885 364.674 132.277 341.029 139.038C322.034 144.47 305.488 152.099 287.969 160.175L286.758 160.734C284.022 161.999 281.256 163.283 278.455 164.581C276.842 165.33 275.219 166.084 273.58 166.843C263.366 171.603 252.332 176.569 239.68 180.392C224.99 184.829 210.46 187.012 195.255 187.065C169.942 187.152 144.123 183.051 119.155 179.081C115.592 178.514 111.905 177.929 108.327 177.373C91.5524 174.768 78.3277 173.268 66.7029 172.652C23.8051 170.378 -16.6787 171.98 -44.3715 177.049L-44.5488 176.581C-16.7834 171.499 23.7838 169.891 66.7563 172.169C78.4131 172.787 91.6721 174.291 108.479 176.901C112.059 177.458 115.746 178.043 119.311 178.611C143.973 182.531 169.466 186.583 194.443 186.583C194.712 186.583 194.982 186.583 195.253 186.582C227.56 186.468 250.557 176.989 273.198 166.441C274.836 165.682 276.46 164.928 278.073 164.179C280.873 162.879 283.637 161.597 286.376 160.33L287.587 159.772C305.135 151.682 321.71 144.04 340.766 138.59C364.453 131.815 390.478 126.414 416.026 122.97C464.42 116.447 509.061 118.365 552.497 128.833C585.363 136.754 617.621 150.048 648.377 168.35C654.159 171.801 659.997 175.333 665.643 178.751C676.01 185.026 686.731 191.513 697.452 197.696C740.596 222.582 775.515 238.499 810.671 249.31C824.535 253.577 839.088 257.477 853.93 260.899C872.687 265.187 890.268 268.462 907.675 270.908C934.099 274.623 966.985 279.248 999.734 272.125C1016.57 268.463 1030.23 261.989 1041.49 252.331C1062.12 234.641 1071.68 209.761 1080.12 187.811C1083.78 178.276 1087.25 169.269 1091.29 161.794C1092.86 158.881 1094.44 155.869 1095.97 152.955C1101.08 143.182 1106.38 133.078 1113.17 123.468C1120.84 112.546 1129.76 103.151 1139.7 95.5454C1150.95 86.9269 1163.24 80.8412 1176.23 77.4567C1184.56 75.2842 1193.1 73.9456 1202.34 73.3633C1214.72 72.5831 1227.89 73.4169 1242.6 75.9066C1255.06 78.0151 1268.41 81.2879 1283.42 85.9144C1307.63 93.3759 1331.19 104.331 1351.56 117.593C1374.28 132.348 1394.45 150.429 1411.5 171.332C1426.85 190.155 1439.36 210.82 1448.67 232.755L1448 232.892C1428.34 186.583 1393.92 145.761 1351.08 117.948C1330.77 104.721 1307.28 93.7973 1283.14 86.3581C1250.79 76.3905 1225.14 72.4133 1202.41 73.8458C1193.23 74.4235 1184.75 75.7532 1176.47 77.9093C1145.57 85.9605 1125.33 107.245 1113.8 123.681C1107.02 133.267 1101.73 143.36 1096.62 153.12C1095.09 156.036 1093.51 159.049 1091.94 161.963C1087.91 169.416 1084.45 178.413 1080.79 187.937C1072.33 209.934 1062.75 234.866 1042.03 252.636C1030.68 262.37 1016.91 268.896 999.939 272.588C988.436 275.089 976.168 276.324 962.687 276.324Z" fill="#A1A1A1"/>
<path d="M977.498 278.727C954.908 278.727 933.19 274.682 914.61 271.221C897.13 267.966 879.533 263.898 860.812 258.786C846.032 254.721 831.551 250.203 817.773 245.357C776.471 230.845 739.651 210.015 706.015 189.666C699.148 185.511 692.21 181.229 685.502 177.088C676.189 171.337 666.557 165.391 656.906 159.662C625.759 141.22 592.536 128.678 558.161 122.384C513.693 114.243 467.585 115.749 417.202 126.988C391.261 132.774 365.307 140.599 342.145 149.617C324.281 156.57 309.166 165.35 293.164 174.644C292.03 175.302 290.893 175.964 289.75 176.625L289.131 176.985C285.241 179.247 281.219 181.585 277.141 183.931C267.37 189.579 256.61 195.421 244.165 199.883C229.719 205.064 215.155 207.647 199.636 207.781C172.396 208.018 144.633 202.68 117.786 197.517C115.904 197.155 114.03 196.795 112.165 196.439C94.4613 193.053 81.5463 191.046 70.2931 189.929C28.472 185.781 -13.6182 184.476 -45.1859 186.351L-45.25 185.831C-13.631 183.952 28.5212 185.258 70.3978 189.412C81.683 190.532 94.6258 192.544 112.362 195.936C114.227 196.292 116.1 196.652 117.984 197.015C144.78 202.167 172.49 207.492 199.625 207.26C233.327 206.968 257.061 194.858 276.662 183.529C280.74 181.183 284.762 178.845 288.652 176.584L289.272 176.224C290.415 175.562 291.551 174.902 292.685 174.244C308.715 164.933 323.856 156.139 341.78 149.161C364.985 140.127 390.988 132.289 416.974 126.492C440.86 121.164 463.296 118.088 485.561 117.087C510.397 115.972 534.886 117.585 558.349 121.881C592.833 128.194 626.154 140.772 657.389 159.264C667.046 164.997 676.68 170.944 685.996 176.696C692.703 180.837 699.637 185.118 706.502 189.271C740.104 209.598 776.879 230.405 818.107 244.891C831.865 249.73 846.325 254.242 861.083 258.301C879.777 263.405 897.346 267.467 914.8 270.718C941.6 275.709 974.954 281.921 1007.91 275.384C1025.2 271.954 1038.95 265.439 1049.94 255.469C1070.36 236.947 1077.99 210.536 1084.73 187.233C1087.44 177.87 1090 169.026 1093.15 161.764C1094.32 159.078 1095.49 156.302 1096.62 153.618C1101.05 143.117 1105.63 132.258 1111.9 121.845C1118.72 110.429 1126.92 100.464 1136.28 92.2311C1146.85 82.9411 1158.7 76.0588 1171.51 71.7749C1179.83 68.9934 1188.4 67.0651 1197.72 65.8783C1210.27 64.2806 1224.2 64.3342 1239.11 66.0376C1252.17 67.5296 1266.46 70.3424 1281.57 74.4C1306.72 81.1557 1331.05 91.6936 1351.92 104.874C1375.23 119.561 1395.55 137.816 1412.32 159.136C1427.47 178.397 1439.28 199.526 1447.43 221.936L1446.7 222.064C1429.45 174.579 1395.61 133.097 1351.42 105.262C1330.61 92.1239 1306.37 81.6203 1281.3 74.8869C1248.8 66.1597 1221.51 63.3797 1197.85 66.392C1188.6 67.5699 1180.09 69.4847 1171.83 72.2454C1141.36 82.4378 1122.8 104.952 1112.59 122.046C1106.34 132.432 1101.76 143.276 1097.34 153.764C1096.21 156.448 1095.03 159.225 1093.87 161.915C1090.73 169.153 1088.17 177.984 1085.47 187.335C1082.22 198.546 1078.55 211.252 1073.22 223.164C1067.1 236.813 1059.69 247.483 1050.54 255.786C1045.25 260.586 1039.17 264.672 1032.46 267.93C1025.26 271.434 1017.07 274.111 1008.12 275.886C997.875 277.919 987.598 278.727 977.498 278.727Z" fill="#A1A1A1"/>
<path d="M990.85 281.364C983.382 281.364 975.557 280.857 967.293 279.846C951.015 277.856 935.434 274.243 921.686 271.058C904.358 267.042 886.265 262.047 867.914 256.211C853.228 251.515 838.841 246.384 825.157 240.958C785.88 225.402 752.042 204.718 715.022 181.259C711.733 179.175 708.392 177.048 705.162 174.991C692.441 166.892 679.289 158.518 665.889 150.605C634.226 131.947 599.964 120.129 564.056 115.477C518.761 109.609 469.703 114.672 418.25 130.527C391.848 138.663 365.917 148.919 343.264 160.19C326.207 168.676 312.166 178.68 297.3 189.273C295.79 190.35 294.274 191.43 292.748 192.514C288.952 195.215 284.864 198.114 280.705 201.016C271.983 207.122 261.354 214.081 248.654 219.371C234.439 225.294 219.838 228.28 204.022 228.496C175.069 228.893 145.597 222.211 117.095 215.748L116.009 215.503C102.054 212.34 87.2913 209.144 73.8893 207.204C33.0379 201.291 -9.53722 197.186 -45.9902 195.645L-45.9411 195.088C-9.44963 196.631 33.164 200.739 74.0516 206.658C87.4921 208.604 102.281 211.804 116.257 214.971L117.342 215.217C145.783 221.664 175.195 228.331 204.007 227.936C237.282 227.48 260.262 214.538 280.139 200.618C284.298 197.718 288.382 194.819 292.178 192.119C293.703 191.036 295.22 189.955 296.73 188.88C311.621 178.269 325.687 168.247 342.8 159.733C365.496 148.44 391.476 138.164 417.928 130.013C442.068 122.575 465.824 117.45 488.531 114.782C514.476 111.734 539.937 111.781 564.205 114.925C600.25 119.594 634.638 131.454 666.408 150.176C679.819 158.096 692.978 166.473 705.705 174.577C708.934 176.633 712.275 178.759 715.565 180.844C752.548 204.28 786.35 224.942 825.556 240.471C839.221 245.888 853.587 251.011 868.251 255.702C886.577 261.528 904.64 266.517 921.943 270.527C949.065 276.813 982.82 284.635 1016.11 278.642C1033.86 275.445 1047.7 268.892 1058.41 258.605C1078.6 239.226 1084.44 210.016 1089.14 186.544C1090.97 177.401 1092.69 168.767 1095.03 161.738C1095.77 159.523 1096.52 157.24 1097.24 155.032C1100.97 143.56 1104.84 131.697 1110.64 120.226C1119.6 102.374 1136.61 78.4927 1166.81 66.0996C1175.14 62.6778 1183.75 60.1584 1193.1 58.3983C1217.58 53.7272 1246.73 55.2386 1279.73 62.8877C1305.83 68.9377 1330.92 79.0586 1352.29 92.1576C1376.19 106.774 1396.68 125.205 1413.16 146.943C1420.73 156.914 1427.41 167.563 1433.03 178.596C1438.41 189.133 1442.84 200.076 1446.2 211.12L1445.42 211.237C1430.58 162.572 1397.32 120.431 1351.76 92.576C1330.47 79.5261 1305.48 69.4439 1279.48 63.4163C1246.63 55.8015 1217.64 54.2946 1193.31 58.9359C1184.02 60.6825 1175.49 63.1826 1167.21 66.579C1137.23 78.8858 1120.31 102.645 1111.4 120.409C1105.61 131.851 1101.75 143.697 1098.02 155.154C1097.3 157.362 1096.55 159.646 1095.81 161.863C1093.48 168.868 1091.75 177.491 1089.93 186.62C1087.57 198.431 1084.89 211.817 1080.32 224.452C1075.06 238.97 1068.11 250.249 1059.06 258.933C1053.9 263.887 1047.86 268.065 1041.12 271.35C1033.86 274.889 1025.51 277.525 1016.3 279.181C1008.23 280.637 999.792 281.364 990.85 281.364Z" fill="#A1A1A1"/>
<path d="M1003.15 284.148C994.203 284.148 984.763 283.34 974.681 281.718C958.344 279.093 942.626 274.736 928.758 270.892C911.3 266.052 893.217 260.247 875.013 253.634C860.423 248.31 846.133 242.566 832.539 236.558C795.131 220.037 763.046 198.744 729.077 176.203C727.396 175.088 725.715 173.971 724.03 172.854C708.233 162.383 691.9 151.555 674.873 141.549C642.658 122.654 607.359 111.558 569.955 108.568C522.973 104.811 472.285 113.39 419.296 134.062C392.791 144.402 366.186 157.435 344.38 170.76C327.915 180.822 314.709 192.143 300.728 204.13C299.073 205.549 297.413 206.972 295.74 208.399C292.399 211.253 288.424 214.638 284.263 218.1C276.556 224.528 266.055 232.697 253.139 238.842C239.15 245.499 224.518 248.893 208.405 249.213C195.161 249.444 180.545 248.019 163.721 244.854C149.277 242.138 135.304 238.589 119.843 234.568C105.73 230.853 90.8344 227.016 77.4708 224.482C37.8862 216.974 -3.92638 210.4 -46.8027 204.938L-46.6489 204.353C-3.74695 209.816 38.0891 216.396 77.695 223.907C91.095 226.449 106.012 230.292 120.142 234.01C146.058 240.751 178.311 249.143 208.381 248.617C242.76 247.932 264.854 233.361 283.607 217.715C287.766 214.256 291.739 210.873 295.078 208.02C296.751 206.594 298.41 205.17 300.064 203.753C314.068 191.747 327.297 180.406 343.816 170.312C365.666 156.96 392.323 143.901 418.88 133.542C472.029 112.808 522.892 104.207 570.053 107.977C588.136 109.423 605.898 112.781 622.841 117.957C641.022 123.509 658.713 131.295 675.424 141.095C692.47 151.111 708.814 161.945 724.619 172.424C726.305 173.542 727.988 174.657 729.669 175.773C763.606 198.294 795.662 219.566 832.998 236.056C846.573 242.055 860.842 247.792 875.411 253.107C893.589 259.709 911.644 265.507 929.077 270.339C956.474 277.933 990.573 287.384 1024.29 281.903C1042.55 278.934 1056.48 272.34 1066.87 261.747C1086.88 241.515 1090.44 210.607 1093.31 185.773C1094.33 176.891 1095.3 168.502 1096.9 161.718C1097.23 160.318 1097.57 158.911 1097.9 157.496C1100.89 144.719 1103.99 131.505 1109.37 118.61C1117.06 100.063 1132.44 74.9132 1162.09 60.428C1170.36 56.3868 1178.99 53.2777 1188.48 50.922C1201.66 47.6179 1216.35 46.0648 1232.14 46.3031C1246.55 46.5205 1261.94 48.2284 1277.88 51.3777C1304.92 56.7188 1330.78 66.4228 1352.65 79.4399C1377.15 93.9847 1397.79 112.595 1413.99 134.75C1421.43 144.915 1427.87 155.784 1433.14 167.053C1438.18 177.845 1442.16 189.034 1444.97 200.307L1444.12 200.408C1431.89 151.284 1398.35 107.358 1352.1 79.8926C1330.32 66.9321 1304.57 57.2683 1277.65 51.948C1244.45 45.3873 1213.72 45.2265 1188.76 51.4804C1179.35 53.8182 1170.79 56.9035 1162.58 60.9134C1133.14 75.2989 1117.84 100.319 1110.19 118.774C1104.82 131.635 1101.73 144.829 1098.74 157.59C1098.41 159.005 1098.08 160.413 1097.75 161.813C1096.15 168.572 1095.18 176.95 1094.16 185.819C1091.28 210.724 1087.71 241.722 1067.57 262.084C1062.57 267.19 1056.58 271.463 1049.78 274.782C1042.46 278.353 1033.95 280.944 1024.48 282.484C1017.65 283.592 1010.57 284.148 1003.15 284.148Z" fill="#A1A1A1"/>
<path d="M1014.71 287.048C1004.52 287.048 993.713 285.898 982.069 283.59C965.595 280.325 949.779 275.225 935.828 270.727C918.196 265.042 900.122 258.423 882.109 251.058C867.623 245.117 853.429 238.757 839.916 232.159C806.641 215.917 778.203 196.019 748.094 174.953C743.173 171.508 738.082 167.948 733.032 164.447C715.281 152.148 700.123 142.006 683.852 132.493C651.063 113.348 614.727 102.974 575.852 101.658C527.003 100.004 474.679 112.095 420.335 137.594C393.339 150.263 366.757 165.793 345.488 181.327C329.465 193.029 316.938 205.768 303.677 219.254C302.035 220.925 300.385 222.601 298.726 224.28C295.769 227.274 291.856 231.22 287.816 235.176C270.817 251.865 248.608 269.047 212.783 269.926C211.666 269.951 210.544 269.963 209.425 269.963C181.45 269.963 152.89 262.245 123.672 253.628L121.848 253.086C107.376 248.78 93.7044 244.713 81.05 241.753C33.3609 230.597 -12.7602 221.181 -47.6133 214.224L-47.3633 213.615C-12.5017 220.575 33.6322 229.993 81.3383 241.153C94.0269 244.121 107.713 248.193 122.205 252.504L124.027 253.046C154.315 261.979 183.894 269.947 212.751 269.294C248.178 268.425 270.202 251.375 287.075 234.811C291.112 230.858 295.022 226.915 297.978 223.922C299.638 222.243 301.285 220.567 302.927 218.897C316.21 205.39 328.755 192.63 344.83 180.891C366.142 165.324 392.777 149.763 419.827 137.069C444.933 125.287 470.047 116.242 494.472 110.18C522.496 103.225 549.892 100.145 575.895 101.025C614.971 102.348 651.49 112.772 684.433 132.006C700.728 141.534 715.901 151.686 733.669 163.996C738.721 167.497 743.811 171.059 748.735 174.503C778.814 195.549 807.224 215.427 840.435 231.637C853.929 238.227 868.102 244.576 882.566 250.509C900.554 257.865 918.6 264.473 936.206 270.149C963.843 279.061 998.239 290.151 1032.47 285.158C1051.19 282.429 1065.2 275.797 1075.32 264.884C1095.08 243.729 1096.27 211.082 1097.22 184.85C1097.53 176.291 1097.83 168.206 1098.77 161.691L1098.79 161.542C1100.91 146.954 1103.09 131.87 1108.1 116.988C1112.44 104.006 1118.48 92.3353 1126.06 82.2963C1134.6 70.9782 1145.14 61.7105 1157.37 54.7493C1165.56 50.0916 1174.22 46.3914 1183.85 43.4386C1209.86 35.4142 1241.73 34.1754 1276.03 39.859C1289.83 42.1461 1303.44 45.6111 1316.49 50.1556C1329.62 54.7269 1341.91 60.3004 1353.01 66.7181C1378.1 81.1929 1398.9 99.9785 1414.83 122.554C1429.14 142.845 1439.14 165.992 1443.73 189.49L1442.83 189.575C1433 139.281 1400.06 94.679 1352.43 67.205C1330.17 54.3368 1303.67 45.0929 1275.82 40.4784C1241.72 34.8276 1210.05 36.053 1184.22 44.0223C1174.66 46.9527 1166.07 50.6232 1157.95 55.2436C1135.11 68.2413 1118.18 89.6431 1108.99 117.135C1103.99 131.979 1101.81 147.042 1099.7 161.609L1099.68 161.758C1098.74 168.249 1098.44 176.322 1098.13 184.869C1097.17 211.182 1095.98 243.927 1076.08 265.231C1071.2 270.493 1065.26 274.859 1058.42 278.206C1051.04 281.816 1042.38 284.363 1032.66 285.782C1026.87 286.625 1020.9 287.048 1014.71 287.048Z" fill="#A1A1A1"/>
<path d="M213.447 290.694C200.938 290.694 187.316 288.995 171.942 285.525C156.667 282.078 141.56 277.319 127.509 272.691C124.964 271.849 122.439 271.007 119.932 270.172C107.448 266.013 95.6567 262.085 84.6364 259.025C40.6941 246.829 -1.19104 235.866 -41.6984 225.267L-48.4102 223.51L-48.0727 222.883L-41.3609 224.641C-0.851406 235.242 41.0402 246.205 84.991 258.404C96.0412 261.472 107.848 265.404 120.346 269.569C122.852 270.404 125.377 271.246 127.919 272.087C156.763 281.587 187.408 290.794 217.13 289.973C253.666 288.913 275.561 269.073 290.553 251.909C294.394 247.519 298.093 243.145 300.887 239.824C302.43 237.994 303.961 236.166 305.489 234.342C318.156 219.22 330.12 204.938 345.855 191.471C366.625 173.698 393.234 155.63 420.786 140.598C446.347 126.652 472.141 115.633 497.454 107.849C526.488 98.919 554.847 94.2851 581.743 94.0752C622.214 93.6553 659.804 103.361 693.452 122.919C712.105 133.774 728.828 145.517 742.73 155.572C750.294 161.044 757.858 166.653 765.175 172.078C791.071 191.282 817.849 211.138 847.881 227.221C861.296 234.407 875.378 241.37 889.73 247.914C907.492 255.995 925.53 263.413 943.345 269.962C971.191 280.198 1005.85 292.936 1040.66 288.416C1059.83 285.927 1073.93 279.257 1083.78 268.022C1103.28 245.908 1101.96 211.473 1100.9 183.804C1100.59 175.622 1100.29 167.892 1100.65 161.67C1101.45 147.641 1102.66 131.338 1106.84 115.37C1110.36 101.839 1115.68 89.5977 1122.65 78.9868C1130.53 66.9838 1140.63 56.9209 1152.67 49.0767C1160.64 43.8785 1169.58 39.4666 1179.23 35.9614C1193 30.9434 1208.45 27.7881 1225.15 26.585C1240.8 25.4578 1257.29 26.0504 1274.18 28.345C1288.42 30.2808 1302.46 33.4643 1315.9 37.8093C1329.43 42.1811 1342.04 47.6279 1353.38 53.998C1366.46 61.3329 1378.48 69.9946 1389.12 79.7433C1399.2 88.9797 1408.13 99.2808 1415.67 110.359C1429.77 131.085 1439.05 154.71 1442.5 178.676L1441.54 178.743C1434.13 127.277 1401.78 82.0006 1352.78 54.5206C1330.34 41.9205 1302.36 32.8583 1274 29.0032C1238.92 24.2368 1206.31 26.8485 1179.67 36.5555C1170.1 40.0324 1161.23 44.4101 1153.32 49.5666C1130.64 64.3467 1115.32 86.5258 1107.78 115.49C1103.61 131.415 1102.41 147.691 1101.61 161.696C1101.26 167.897 1101.55 175.614 1101.86 183.786C1102.39 197.436 1102.98 212.908 1101 227.866C1098.69 245.222 1093.33 258.471 1084.6 268.372C1079.85 273.789 1073.95 278.249 1067.07 281.626C1059.64 285.274 1050.81 287.78 1040.84 289.074C1035.81 289.727 1030.78 290.024 1025.79 290.024C995.866 290.024 966.872 279.365 942.898 270.553C925.057 263.994 906.992 256.565 889.207 248.472C874.833 241.919 860.732 234.946 847.298 227.75C817.204 211.634 790.398 191.757 764.476 172.535C757.162 167.112 749.6 161.504 742.04 156.035C728.158 145.992 711.458 134.266 692.839 123.431C659.372 103.977 622.003 94.3283 581.758 94.7422C518.557 95.2366 459.659 120.236 421.38 141.122C393.884 156.124 367.327 174.154 346.603 191.891C330.915 205.317 318.967 219.578 306.319 234.675C304.792 236.499 303.258 238.328 301.716 240.159C298.92 243.481 295.218 247.859 291.375 252.253C285.082 259.458 275.203 269.947 262.117 277.809C255.762 281.627 248.999 284.628 242.016 286.729C234.229 289.071 225.869 290.387 217.17 290.639C215.938 290.676 214.697 290.694 213.447 290.694Z" fill="#A1A1A1"/>
<path d="M217.463 311.423C204.939 311.423 191.344 309.593 176.052 305.858C160.219 301.993 144.565 296.558 131.343 291.75C127.28 290.269 123.225 288.768 119.303 287.317C108.341 283.259 97.9848 279.425 88.2206 276.295C53.156 265.053 18.3201 254.077 -15.3709 243.462C-26.5151 239.951 -38.0374 236.32 -49.2051 232.794L-48.7864 232.15C-37.6187 235.676 -26.0965 239.306 -14.9523 242.817C18.7387 253.432 53.579 264.41 88.6457 275.653C98.4355 278.792 108.804 282.629 119.78 286.693C123.7 288.145 127.754 289.644 131.813 291.124C159.236 301.092 191.045 311.643 221.504 310.65C258.901 309.402 279.906 287.738 294.03 269.005C297.651 264.206 301.152 259.387 303.796 255.725C305.155 253.846 306.505 251.969 307.853 250.095C319.969 233.247 331.412 217.334 346.882 202.052C367.002 182.176 393.591 161.606 421.745 144.129C460.954 119.895 521.553 90.3348 587.59 87.1289C629.586 85.0353 668.239 94.0201 702.471 113.836C717.851 122.743 733.06 133.018 751.789 147.153C761.255 154.296 770.647 161.699 779.73 168.857C803.362 187.48 827.795 206.738 855.328 222.812C868.666 230.601 882.651 238.176 896.895 245.326C914.142 253.976 932.173 262.204 950.484 269.783C978.61 281.355 1013.61 295.758 1048.85 291.681C1068.17 289.492 1082.77 282.591 1092.24 271.17C1111.47 248.056 1107.34 210.24 1104.33 182.629C1103.48 174.88 1102.68 167.562 1102.53 161.658C1102.18 148.536 1102.21 131.235 1105.58 113.762C1111.39 83.4823 1125.65 59.8127 1147.96 43.414C1155.78 37.6366 1164.74 32.6171 1174.61 28.494C1188.64 22.6213 1204.47 18.6709 1221.66 16.7545C1237.86 14.9498 1254.91 14.9781 1272.33 16.8394C1287.03 18.4446 1301.49 21.3541 1315.3 25.4847C1329.25 29.6569 1342.18 34.9728 1353.75 41.2847C1367.12 48.578 1379.33 57.2694 1390.05 67.1194C1400.21 76.4541 1409.11 86.9011 1416.5 98.173C1430.39 119.335 1438.95 143.436 1441.27 167.871L1440.26 167.918C1435.27 115.277 1403.51 69.3246 1353.12 41.8431C1330.28 29.3755 1301.53 20.7436 1272.18 17.5392C1235.99 13.6752 1202.43 17.6732 1175.13 29.1015C1165.35 33.1904 1156.46 38.1697 1148.7 43.901C1126.54 60.1909 1112.37 83.7265 1106.59 113.857C1103.23 131.283 1103.2 148.55 1103.55 161.646C1103.7 167.529 1104.5 174.839 1105.34 182.577C1106.9 196.849 1108.67 213.028 1107.66 228.822C1106.48 247.213 1101.73 261.181 1093.12 271.526C1088.49 277.105 1082.64 281.661 1075.72 285.068C1068.22 288.763 1059.24 291.222 1049.02 292.381C1033.17 294.214 1016.11 292.567 996.865 287.345C980.137 282.805 964.11 276.212 949.971 270.395C931.632 262.806 913.578 254.566 896.305 245.904C882.04 238.743 868.035 231.158 854.678 223.359C827.088 207.252 802.627 187.973 778.972 169.331C769.893 162.174 760.503 154.775 751.046 147.639C732.349 133.528 717.167 123.274 701.823 114.387C667.795 94.6842 629.387 85.753 587.658 87.8332C521.906 91.0272 461.507 120.497 422.416 144.657C394.317 162.098 367.784 182.626 347.707 202.46C332.28 217.699 320.853 233.59 308.757 250.413C307.409 252.287 306.059 254.165 304.7 256.044C302.053 259.709 298.55 264.532 294.925 269.335C280.677 288.235 259.461 310.093 221.549 311.357C220.201 311.4 218.836 311.423 217.463 311.423Z" fill="#A1A1A1"/>
<path d="M221.559 332.155C187.339 332.155 151.433 317.505 119.602 304.516C109.821 300.526 100.582 296.755 91.8026 293.567L-50 242.081L-49.5065 241.422L92.296 292.908C101.099 296.103 110.348 299.878 120.143 303.874C153.203 317.365 190.677 332.656 225.879 331.331C264.1 329.894 284.236 306.406 297.507 286.106C301.848 279.466 306.039 272.71 310.093 266.177C321.182 248.308 332.647 229.831 347.905 212.634C360.021 198.98 375.072 184.66 391.431 171.224C409.376 156.484 428.591 142.961 448.536 131.031C470.527 117.878 492.888 106.998 514.995 98.6938C539.447 89.5095 563.536 83.5132 586.598 80.8702C632.796 75.5767 674.814 83.61 711.48 104.75C741.952 122.316 767.851 144.038 792.897 165.045C814.698 183.33 837.241 202.236 862.767 218.398C892.252 237.065 924.164 254.291 957.618 269.597C985.804 282.493 1020.88 298.545 1057.04 294.937C1087.57 291.891 1105.23 277.65 1111.01 251.398C1115.92 229.069 1111.25 202.58 1107.49 181.298C1106.21 174.045 1105 167.194 1104.4 161.638C1101.13 131.012 1103.22 105.729 1110.79 84.3485C1115.51 71.0083 1122.49 59.117 1131.51 49.005C1141.59 37.7092 1154.53 28.2926 1169.98 21.0172C1183.34 14.7231 1198.4 10.1518 1214.74 7.42985C1230.29 4.83895 1246.67 3.97085 1263.41 4.84937C1296.34 6.57664 1328.55 14.9986 1354.1 28.5621C1367.77 35.8122 1380.17 44.5349 1390.97 54.4861C1401.21 63.9176 1410.08 74.512 1417.33 85.9775C1431 107.576 1438.84 132.155 1440.03 157.056L1438.96 157.082C1436.44 104.054 1404.48 56.2312 1353.46 29.1563C1299.27 0.403134 1222.36 -2.76104 1170.57 21.6352C1119.27 45.8021 1097.97 91.5793 1105.47 161.583C1106.06 167.121 1107.27 173.963 1108.55 181.207C1112.31 202.536 1117 229.08 1112.06 251.511C1109.37 263.729 1103.96 273.547 1095.99 280.696C1091.5 284.715 1086.09 288 1079.91 290.457C1073.34 293.071 1065.69 294.827 1057.19 295.676C1053.71 296.023 1050.18 296.197 1046.58 296.197C1033.48 296.197 1019.52 293.887 1004.23 289.209C987.009 283.938 970.385 276.332 957.028 270.221C923.529 254.893 891.573 237.644 862.045 218.951C836.461 202.755 813.895 183.826 792.07 165.521C767.056 144.541 741.19 122.846 710.795 105.324C674.374 84.3292 632.644 76.348 586.765 81.6058C493.958 92.2404 398.358 157.186 348.806 213.027C333.589 230.176 322.139 248.628 311.065 266.473C307.009 273.01 302.816 279.77 298.471 286.415C289.659 299.893 280.957 309.543 271.083 316.783C264.921 321.3 258.235 324.862 251.211 327.368C243.401 330.154 234.895 331.739 225.928 332.077C224.48 332.129 223.021 332.155 221.559 332.155Z" fill="#A1A1A1"/>
</g>
</svg>
