<svg width="416" height="435" viewBox="0 0 416 435" fill="none" xmlns="http://www.w3.org/2000/svg">
<g style="mix-blend-mode:multiply" opacity="0.2">
<path d="M160.97 434.579C156.163 434.579 150.42 433.243 142.774 430.216C122.48 422.008 101.671 397.357 79.6995 371.288C67.6009 356.972 55.1152 342.165 42.5649 330.03C24.2395 308.106 -6.82975 292.999 -36.8988 278.356C-58.8699 267.667 -79.615 257.55 -95.682 245.061L-95.7142 245.033C-107.781 235.326 -113.427 225.945 -112.975 216.374C-112.104 197.695 -88.0034 181.061 -60.0636 161.809L-57.3858 159.955C-36.673 145.612 -10.669 126.414 26.9818 97.7549L30.1759 95.4098C63.8584 70.6497 105.8 39.836 160.131 21.1569C268.954 -22.1186 364.194 11.3947 394.263 47.7167C425.623 90.1742 422.913 135.249 383.939 220.083C343.127 308.515 252.726 376.878 215.752 402.156C200.621 410.5 191.136 417.89 184.232 423.289C175.456 430.107 169.745 434.579 160.97 434.579ZM-92.8428 242.443C-77.1308 254.659 -56.5793 264.667 -34.834 275.275C-4.41003 290.082 27.0786 305.407 45.7912 327.821C58.3737 339.956 70.924 354.845 83.0549 369.215C104.736 394.903 125.223 419.172 144.516 426.998C163.583 434.497 168.068 431.006 181.392 420.644C188.426 415.163 198.072 407.637 213.3 399.238C249.822 374.233 339.578 306.388 380.036 218.746C418.461 135.14 421.268 90.8831 390.779 49.6255C361.581 14.3942 268.567 -18.1101 161.809 24.3473C108.026 42.8628 66.3749 73.4584 32.9182 98.0275L29.7565 100.373C-7.9267 129.059 -33.9629 148.284 -54.7403 162.655L-57.4181 164.509C-84.5835 183.215 -108.006 199.386 -108.813 216.456C-109.2 224.991 -103.974 233.472 -92.8428 242.443Z" fill="#DFDFDF"/>
<path d="M154.708 409.873C148.062 409.873 141.029 408.073 131.35 404.883L131.156 404.828C112.573 396.948 97.8609 377.941 82.3102 357.844C71.6957 344.101 60.694 329.921 47.4662 317.568C28.8182 297.526 5.36303 281.928 -17.2856 266.848C-32.5137 256.732 -46.903 247.16 -59.4533 236.58L-59.6791 236.362C-85.2314 206.939 -66.906 193.959 -33.6752 170.371C-30.0617 167.808 -26.2547 165.109 -22.2863 162.218C-14.4787 157.337 -6.15484 151.883 2.68521 146.102C41.9492 120.388 95.7638 85.1838 171.679 56.6061C264.467 26.5832 336.155 48.2892 366.095 83.1114C396.1 119.406 384.453 163.091 350.738 236.062C313.797 309.851 246.367 357.626 210.136 383.286L206.103 386.149C179.164 403.056 167.613 409.873 154.708 409.873ZM132.963 401.611C159.386 410.282 163.871 408.21 203.522 383.395L207.458 380.614C243.399 355.145 310.313 307.724 346.867 234.78C380.033 163.036 391.615 120.17 362.708 85.2111C333.736 51.5069 263.918 30.5917 173.292 59.9057C97.9255 88.2652 44.3689 123.333 5.23396 148.911C-3.60609 154.692 -11.9299 160.146 -19.673 165C-23.5446 167.808 -27.3516 170.508 -30.9651 173.098C-64.2282 196.713 -79.4563 207.512 -56.3883 234.18C-44.0316 244.57 -29.7713 254.032 -14.7045 264.067C8.16992 279.256 31.7864 294.99 50.6602 315.278C64.0171 327.74 75.1155 342.056 85.8268 355.908C101.023 375.542 115.412 394.112 132.963 401.611Z" fill="#DFDFDF"/>
<path d="M149.297 389.259C140.812 389.259 132.939 386.696 123.131 382.333C106.742 373.988 93.5785 356.727 79.6409 338.484C71.3816 327.631 62.7997 316.424 52.9917 306.144C39.2799 290.001 23.0194 276.203 7.33963 262.841C-5.53329 251.879 -17.6965 241.544 -27.2786 230.882L-27.4076 230.718C-46.8299 203.068 -26.7623 190.17 9.69482 166.746L10.1143 166.473L16.8572 162.574C55.2501 140.459 107.839 110.163 179.882 88.2116C264.927 65.2786 319.064 88.648 339.616 115.59C361.587 144.331 356.199 182.916 321.032 248.77C295.416 294.664 253.603 335.921 196.788 371.398C174.817 383.996 161.428 389.259 149.297 389.259ZM-23.8909 228.782C-14.4702 239.226 -2.43605 249.479 10.3078 260.305C26.1167 273.748 42.474 287.683 56.3148 303.962C66.2195 314.297 74.8338 325.614 83.1576 336.548C96.8048 354.464 109.71 371.371 125.196 379.251C147.522 389.232 158.653 389.041 194.368 368.507C250.57 333.385 291.931 292.591 317.225 247.27C351.715 182.671 357.199 145.067 336.099 117.471C314.773 89.5205 258.636 70.6505 181.205 91.5112C109.742 113.299 57.4117 143.431 19.2124 165.464L12.2113 169.527C-24.5039 193.115 -41.3129 203.913 -23.8909 228.782Z" fill="#DFDFDF"/>
<path d="M146.266 370.498C136.781 370.498 127.876 367.744 117.939 362.344L117.874 362.317C102.904 353.646 90.8381 337.339 78.062 320.105C72.1579 312.115 66.0279 303.88 59.3817 296.027C50.5094 284.519 40.6692 273.884 31.1516 263.631C19.4724 251.033 8.40625 239.117 1.17934 227.555C-11.4355 203.149 7.01895 190.387 38.8948 172.199C71.7385 155.02 122.488 130.533 184.691 116.08C244.087 105.745 288.578 114.035 310.097 139.395C333.327 166.718 327.552 210.048 294.256 258.287C259.38 315.06 204.242 348.355 188.176 357.191C171.076 366.135 158.203 370.498 146.266 370.498ZM120.197 359.372C138.781 369.434 153.364 371.234 185.917 354.191C201.726 345.492 256.154 312.633 290.578 256.569C323.035 209.53 328.907 167.591 306.677 141.467C286.158 117.307 243.184 109.536 185.627 119.543C124.069 133.859 73.6742 158.156 41.1209 175.199C8.30947 193.905 -5.98306 205.031 4.88956 226.055C11.8906 237.208 22.8278 248.988 34.4102 261.477C43.9923 271.812 53.8971 282.474 62.8016 294.063C69.4801 301.917 75.61 310.234 81.5464 318.251C94.129 335.13 105.969 351.11 120.197 359.372Z" fill="#DFDFDF"/>
<path d="M144.264 353.373C134.198 353.373 124.938 350.455 115.324 344.619L115.066 344.429C78.2537 312.933 34.7309 240.807 26.3748 226.682L26.2458 226.355C19.7287 206.121 34.4406 194.232 63.8321 179.371C91.5138 166.227 135.23 148.884 186.464 140.785C233.632 134.514 268.96 142.967 285.995 164.591C304.901 188.615 299.126 225.128 270.186 264.776C244.698 303.007 207.144 330.521 180.495 343.501C166.557 350.1 154.943 353.373 144.264 353.373ZM117.905 341.838C136.327 352.936 152.749 352.555 178.398 340.42C204.563 327.686 241.44 300.635 266.573 262.977C294.254 225.046 300.191 189.024 282.511 166.554C266.444 146.13 232.567 138.195 187.173 144.276C136.553 152.293 93.3205 169.472 65.9293 182.452C37.7959 196.659 24.5358 207.212 30.2141 225.291C54.2178 265.867 89.8039 317.732 117.905 341.838Z" fill="#DFDFDF"/>
<path d="M142.792 337.584C132.016 337.584 122.692 334.557 115.626 328.695C87.3637 305.544 57.9399 256.705 49.2612 227.337C47.8416 220.547 49.8742 213.92 55.2298 207.594C71.7485 188.097 120.691 171.272 186.185 162.601C223.126 159.574 250.679 167.945 263.842 186.188C278.748 206.858 273.392 236.935 249.163 268.676C217.642 308.843 179.926 334.476 148.276 337.312C146.405 337.503 144.566 337.584 142.792 337.584ZM200.575 165.518C196.122 165.518 191.509 165.709 186.734 166.118C122.466 174.626 74.5231 190.906 58.682 209.667C53.9716 215.229 52.1971 220.928 53.3909 226.628C61.9083 255.396 90.8159 303.444 118.594 326.186C125.918 332.24 136.049 334.885 147.857 333.821C178.281 331.094 214.867 306.034 245.678 266.767C268.649 236.663 274.134 207.24 260.293 188.042C249.679 173.344 228.74 165.518 200.575 165.518Z" fill="#DFDFDF"/>
<path d="M143.653 322.584C133.652 322.584 124.844 319.858 117.972 314.567C93.4523 295.779 70.7714 256.049 69.4809 229.571V229.516C69.3196 205.111 117.327 185.068 183.595 181.905C211.825 181.332 232.764 189.295 242.604 204.402C253.896 221.717 249.25 245.741 229.86 270.337C205.889 300.224 175.884 319.639 149.558 322.284C147.525 322.475 145.557 322.584 143.653 322.584ZM73.6751 229.462C74.9656 255.149 96.9689 293.707 120.811 311.95C128.07 317.54 137.814 319.885 149.041 318.767C174.174 316.231 203.082 297.388 226.376 268.347C244.862 244.896 249.444 222.181 238.926 206.065C229.86 192.185 210.309 184.823 183.756 185.395C120.908 188.422 73.546 207.374 73.6751 229.462Z" fill="#DFDFDF"/>
<path d="M144.374 308.378C135.63 308.378 127.823 306.115 121.532 301.67C99.4314 286.154 83.7193 254.741 87.1715 233.035C90.914 212.202 131.146 197.258 178.637 198.976C199.479 199.985 214.836 207.239 221.934 219.373C230.064 233.28 226.354 251.741 211.707 269.984C194.414 291.336 171.604 305.543 150.697 307.997C148.536 308.269 146.439 308.378 144.374 308.378ZM171.12 202.385C128.984 202.385 94.5597 215.556 91.3334 233.553C88.1071 253.814 103.464 284.382 124.209 298.971C131.049 303.77 139.986 305.679 150.117 304.506C169.894 302.188 191.607 288.527 208.254 267.993C222.031 250.841 225.644 233.689 218.191 220.928C211.803 209.993 197.672 203.448 178.443 202.494C175.991 202.439 173.539 202.385 171.12 202.385Z" fill="#DFDFDF"/>
<path d="M146.347 294.8C139.313 294.8 132.925 293.082 127.57 289.728C109.018 278.084 98.5975 254.66 104.34 237.508C110.18 220.547 140.507 210.348 173.318 214.275C187.869 216.102 198.548 222.21 203.388 231.482C208.872 241.98 206.162 255.287 195.967 267.995C184.256 282.502 168.544 292.1 152.864 294.309C150.67 294.636 148.476 294.8 146.347 294.8ZM108.373 238.49C103.147 254.06 113.084 276.23 130.054 286.892C136.087 290.682 143.733 292.046 152.186 290.846C166.543 288.801 181.642 279.529 192.547 266.031C201.903 254.36 204.452 242.308 199.581 232.927C195.354 224.801 185.804 219.429 172.738 217.793C142.443 214.139 113.568 223.437 108.373 238.49Z" fill="#DFDFDF"/>
<path d="M147.967 281.657C143.095 281.657 138.385 280.593 134.255 278.302C120.447 270.749 113.994 254.715 119.834 242.58C125.706 230.5 146.644 223.983 166.55 228.073C175.745 229.955 182.456 234.563 185.457 240.999C188.747 248.089 187.07 256.706 180.875 264.614C172.326 275.466 159.646 281.657 147.967 281.657ZM136.514 275.357C148.419 281.875 166.744 276.203 177.391 262.677C182.811 255.751 184.36 248.307 181.553 242.308C179.069 236.963 173.39 233.118 165.55 231.509C147.58 227.828 128.803 233.391 123.705 243.917C118.575 254.579 124.318 268.677 136.514 275.357Z" fill="#DFDFDF"/>
<path d="M149.181 268.758C146.536 268.758 143.955 268.24 141.6 267.149C133.534 263.413 130.275 254.824 134.373 247.979C138.406 241.216 149.472 237.972 158.989 240.753C163.571 242.089 166.926 244.761 168.378 248.306C169.927 252.042 169.185 256.405 166.313 260.25C162.216 265.677 155.602 268.758 149.181 268.758ZM151.763 243.289C145.923 243.289 140.406 245.661 138.051 249.588C134.986 254.742 137.438 261.232 143.568 264.04C149.665 266.876 158.28 264.313 162.732 258.341C164.958 255.369 165.539 252.233 164.377 249.452C163.345 246.943 160.925 245.034 157.57 244.052C155.666 243.534 153.698 243.289 151.763 243.289Z" fill="#DFDFDF"/>
</g>
</svg>
