<svg width="1440" height="337" viewBox="0 0 1440 337" fill="none" xmlns="http://www.w3.org/2000/svg">
<g opacity="0.3">
<path d="M387.184 336.017C379.34 336.017 371.706 335.743 364.369 335.197C348.982 334.05 334.767 331.696 322.117 328.2C308.521 324.443 296.596 319.323 286.671 312.985C266.723 300.244 256.744 284.986 247.092 270.23C245.195 267.332 243.235 264.336 241.245 261.429C227.663 241.615 210.447 224.26 188.615 208.37C145.064 176.674 83.8177 149.623 11.4929 130.143C-72.1498 107.615 -162.079 96.3935 -241.732 98.5451C-288.548 99.8104 -350.404 111.842 -378.05 132.389C-394.456 144.584 -395.779 158.116 -381.873 171.522L-382.149 171.579C-389.44 164.548 -392.617 157.5 -391.588 150.63C-390.645 144.327 -386.178 138.167 -378.311 132.319C-365.797 123.018 -345.161 114.774 -318.633 108.479C-294.119 102.662 -266.816 99.086 -241.75 98.4088C-200.065 97.2838 -155.732 99.7807 -109.981 105.832C-68.5086 111.318 -27.5854 119.458 11.6507 130.026C84.018 149.517 145.301 176.582 188.876 208.298C210.72 224.198 227.945 241.563 241.536 261.387C243.529 264.294 245.49 267.292 247.383 270.189C257.026 284.935 267 300.182 286.92 312.904C306.184 325.209 332.261 332.663 364.421 335.059C408.958 338.378 463.041 331.437 509.089 316.492C575.448 294.956 621.502 263.609 666.042 233.295C673.849 227.982 681.921 222.487 689.913 217.182C710.661 203.405 738.762 185.553 772.157 169.649C806.292 153.392 840.98 141.449 878.204 133.134C900.989 128.044 925.135 124.615 949.974 122.942C972.916 121.396 997.199 121.301 1022.15 122.655C1064.95 124.979 1111.06 131.545 1163.11 142.725C1265.61 164.741 1368 191.464 1467.43 222.153C1561.94 251.321 1654.63 284.327 1742.93 320.252L1742.72 320.351C1559.69 245.882 1364.64 186.161 1162.98 142.846C1049.05 118.375 958.604 115.326 878.341 133.254C796.686 151.492 739.645 184.405 690.165 217.256C682.176 222.56 674.104 228.054 666.297 233.368C621.745 263.692 575.676 295.049 509.271 316.6C487.812 323.565 463.672 328.997 439.461 332.309C426.672 334.058 413.958 335.202 401.67 335.709C396.772 335.916 391.939 336.017 387.184 336.017Z" fill="#F3F3F3"/>
<path d="M394.852 328.46C374.85 328.46 356.322 326.767 339.764 323.425C321.301 319.7 305.368 313.926 292.406 306.267C291.259 305.588 290.121 304.887 289.022 304.18C269.288 291.494 258.865 276.435 248.788 261.87C246.749 258.926 244.643 255.882 242.507 252.928C229.784 235.337 214.464 219.834 195.667 205.533C193.352 203.773 190.955 202.009 188.537 200.29C144.345 168.866 82.6011 142.158 9.97897 123.053C-74.2675 100.91 -164.452 90.1517 -243.962 92.7619C-290.438 94.3038 -352.009 106.532 -379.773 126.922C-396.398 139.131 -398.279 152.691 -385.219 166.136L-385.499 166.19C-392.344 159.143 -395.157 152.081 -393.855 145.203C-392.659 138.885 -388.011 132.711 -380.034 126.851C-367.393 117.567 -346.818 109.314 -320.538 102.986C-296.249 97.1366 -269.065 93.458 -243.989 92.627C-202.356 91.2605 -157.974 93.5187 -112.078 99.3381C-70.505 104.61 -29.3876 112.55 10.1307 122.937C82.7953 142.053 144.573 168.777 188.791 200.218C191.21 201.938 193.61 203.704 195.925 205.466C214.734 219.776 230.064 235.287 242.792 252.887C244.932 255.841 247.037 258.886 249.076 261.831C259.15 276.386 269.564 291.435 289.271 304.103C290.367 304.807 291.505 305.509 292.648 306.186C319.435 322.019 356.241 328.46 394.946 328.46C395.158 328.46 395.367 328.46 395.58 328.46C395.337 328.458 395.094 328.46 394.852 328.46ZM403.108 328.365C439.091 327.544 476.222 321.397 508.075 312.252C576.786 292.445 626.169 261.854 673.928 232.27C675.895 231.05 677.861 229.834 679.827 228.617C684.145 225.946 689.264 222.784 694.489 219.596C717.928 205.301 746.296 188.669 778.966 173.698C813.726 157.768 848.454 145.947 885.129 137.558C907.664 132.409 931.48 128.782 955.915 126.777C978.554 124.92 1002.48 124.395 1027.02 125.216C1069.41 126.637 1114.99 132.022 1166.37 141.681C1216.46 151.083 1257.63 159.933 1295.94 169.534C1350.22 183.147 1401.92 198.833 1445.34 212.381C1546.28 243.968 1645.32 279.835 1739.71 318.987L1739.5 319.086C1645.12 279.939 1546.09 244.074 1445.17 212.491C1401.76 198.945 1350.06 183.262 1295.8 169.652C1257.49 160.055 1216.33 151.207 1166.25 141.807C1054.33 120.766 965.045 119.454 885.268 137.68C802.469 156.616 743.504 189.934 694.734 219.677C689.506 222.865 684.391 226.025 680.073 228.698C678.107 229.913 676.141 231.131 674.174 232.351C626.4 261.944 576.999 292.546 508.239 312.368C491.19 317.262 473.048 321.15 454.314 323.922C436.876 326.5 419.687 327.99 403.108 328.365Z" fill="#F3F3F3"/>
<path d="M403.306 321.077C400.9 321.077 398.509 321.054 396.136 321.006C376.153 320.614 357.659 318.576 341.171 314.946C323.138 310.976 307.515 305.096 294.737 297.467C293.602 296.787 292.471 296.084 291.378 295.378C271.865 282.754 261.008 267.895 250.513 253.528C248.325 250.533 246.062 247.436 243.768 244.43C230.417 226.899 214.693 211.52 195.693 197.412C193.341 195.668 190.908 193.919 188.453 192.213C143.622 161.063 81.3796 134.698 8.46008 115.968C-76.3872 94.209 -166.827 83.9138 -246.197 86.9827C-290.886 88.7377 -352.278 100.269 -381.468 121.436C-398.332 133.666 -400.787 147.262 -388.568 160.754L-388.85 160.804C-395.252 153.736 -397.695 146.658 -396.117 139.767C-394.667 133.43 -389.824 127.24 -381.726 121.366C-368.951 112.103 -348.443 103.847 -322.415 97.4897C-298.353 91.6123 -271.293 87.8339 -246.224 86.8491C-204.64 85.2425 -160.209 87.2606 -114.17 92.848C-72.4942 97.9065 -31.1857 105.646 8.61179 115.852C81.5738 134.594 143.849 160.974 188.708 192.142C191.163 193.848 193.599 195.598 195.951 197.345C214.96 211.46 230.693 226.849 244.05 244.39C246.344 247.397 248.607 250.494 250.795 253.488C261.287 267.848 272.135 282.696 291.624 295.305C292.716 296.012 293.842 296.713 294.977 297.39C346.896 328.387 438.907 325.059 507.06 308.012C578.639 289.951 631.832 259.932 683.275 230.903L683.803 230.605C688.786 227.791 693.938 224.883 699.066 222.011C753.176 191.713 812.651 160.576 892.057 141.981C914.35 136.771 937.838 132.946 961.864 130.611C984.211 128.439 1007.77 127.485 1031.89 127.776C1073.94 128.284 1119 132.49 1169.63 140.635C1222.84 149.164 1262.88 157.004 1299.46 166.057C1351.58 178.982 1402.06 195.313 1446.61 209.723C1545.78 241.978 1643.31 278.313 1736.49 317.718L1736.28 317.815C1643.11 278.415 1545.59 242.083 1446.43 209.831C1401.89 195.424 1351.41 179.095 1299.31 166.175C1262.74 157.124 1222.71 149.287 1169.52 140.76C1059.78 123.105 971.655 123.53 892.197 142.098C812.842 160.682 753.391 191.805 699.302 222.092C694.174 224.963 689.022 227.873 684.04 230.686L683.512 230.984C657.875 245.45 631.368 260.409 602.743 273.77C570.574 288.785 539.324 300.023 507.206 308.127C473.604 316.531 437.002 321.077 403.306 321.077Z" fill="#F3F3F3"/>
<path d="M1733.07 316.544C1641.11 276.89 1545.09 240.092 1447.7 207.172C1443.57 205.788 1439.44 204.397 1435.29 203.002C1393.1 188.808 1349.48 174.132 1302.83 162.698C1257.57 151.636 1211.71 144.873 1172.81 139.716C1065.43 125.393 978.473 127.555 899.136 146.519C817.693 166.043 754.587 198.46 703.881 224.508C700.838 226.072 697.8 227.638 694.757 229.206C692.512 230.363 690.263 231.52 688.015 232.676C659.144 247.523 632.882 260.797 603.865 272.909C570.716 286.745 538.765 296.879 506.18 303.889C475.643 310.46 443.022 313.936 412.679 313.938C407.151 313.938 401.704 313.823 396.352 313.59C376.811 312.738 358.721 310.347 342.585 306.481C324.977 302.262 309.663 296.27 297.061 288.67C295.936 287.989 294.813 287.285 293.727 286.577C274.444 274.019 263.166 259.37 252.26 245.203C249.912 242.151 247.482 238.995 245.024 235.931C231.036 218.456 214.906 203.199 195.717 189.289C193.329 187.558 190.856 185.824 188.368 184.134C142.893 153.258 80.1568 127.235 6.9429 108.879C-78.5051 87.5044 -169.196 77.6745 -248.427 81.198C-302.592 83.6544 -357.979 97.9345 -383.121 115.923C-400.25 128.178 -403.287 141.817 -391.912 155.366L-392.197 155.414C-398.153 148.319 -400.229 141.22 -398.366 134.312C-396.651 127.951 -391.608 121.741 -383.379 115.851C-370.472 106.615 -350.03 98.3594 -324.263 91.9788C-300.432 86.0772 -273.512 82.2003 -248.458 81.0644C-206.921 79.2164 -162.445 80.9956 -116.264 86.351C-74.4878 91.1965 -32.982 98.7358 7.09464 108.76C80.354 127.127 143.124 153.165 188.626 184.06C191.117 185.752 193.59 187.486 195.978 189.217C215.179 203.136 231.315 218.4 245.312 235.884C247.77 238.949 250.2 242.104 252.549 245.157C263.448 259.316 274.72 273.956 293.979 286.498C295.065 287.205 296.185 287.908 297.307 288.588C351.508 321.279 443.632 317.195 506.05 303.766C580.52 287.744 637.506 258.441 687.787 232.587C690.036 231.43 692.281 230.273 694.529 229.117C697.57 227.549 700.61 225.983 703.653 224.419C732.597 209.551 761.18 195.103 792.603 181.788C828.738 166.476 863.541 154.901 898.997 146.4C921.056 141.127 944.21 137.103 967.82 134.441C989.885 131.952 1013.09 130.571 1036.78 130.334C1078.56 129.916 1123.09 132.943 1172.9 139.586C1211.81 144.746 1257.7 151.512 1302.98 162.581C1349.65 174.018 1393.28 188.699 1435.48 202.895C1439.62 204.29 1443.76 205.681 1447.88 207.065C1545.29 239.988 1641.31 276.79 1733.28 316.448L1733.07 316.544Z" fill="#F3F3F3"/>
<path d="M1729.85 315.272C1637.37 274.607 1542.87 237.34 1448.96 204.511C1443.34 202.547 1437.6 200.522 1432.04 198.565C1392.23 184.546 1351.06 170.05 1306.35 159.22C1261.7 148.443 1215.45 142.783 1176.09 138.668C1071.33 127.611 985.527 131.509 906.074 150.937C830.291 169.535 770.919 197.502 713.502 224.547L707.196 227.516C702.217 229.862 697.068 232.286 691.992 234.664C634.517 261.554 576.981 286.757 505.157 299.647C487.728 302.776 469.832 304.943 451.96 306.094C432.768 307.328 414.125 307.346 396.548 306.145C377.456 304.841 359.776 302.101 343.997 298.002C326.827 293.541 311.819 287.439 299.397 279.869C298.277 279.184 297.163 278.478 296.086 277.771C277.04 265.288 265.355 250.854 254.056 236.895C251.534 233.781 248.925 230.559 246.291 227.431C231.654 210.009 215.123 194.875 195.752 181.164C193.331 179.451 190.821 177.731 188.294 176.055C142.179 145.452 78.948 119.772 5.43372 101.789C-80.6181 80.8021 -171.564 71.4349 -250.659 75.4157C-304.329 78.1743 -359.464 92.5542 -384.734 110.386C-402.147 122.672 -405.786 136.364 -395.257 149.982L-395.545 150.027C-401.055 142.901 -402.757 135.775 -400.606 128.847C-398.622 122.459 -393.369 116.224 -384.995 110.316C-371.947 101.111 -351.578 92.8631 -326.084 86.4636C-302.49 80.5404 -275.716 76.5704 -250.695 75.2835C-209.207 73.1953 -164.686 74.7345 -118.358 79.8578C-76.4794 84.4901 -34.7825 91.8284 5.57632 101.672C79.1331 119.664 142.401 145.36 188.543 175.98C191.07 177.659 193.583 179.38 196.004 181.093C215.387 194.811 231.927 209.953 246.57 227.384C249.204 230.512 251.813 233.735 254.335 236.849C265.628 250.8 277.307 265.227 296.332 277.696C297.406 278.4 298.52 279.104 299.636 279.789C352.533 312.025 440.424 311.12 505.038 299.523C576.805 286.643 634.316 261.45 691.767 234.572C696.844 232.194 701.993 229.77 706.972 227.424L713.277 224.455C741.462 211.18 770.604 197.452 802.254 184.681C838.101 170.218 872.012 159.141 905.923 150.818C927.757 145.479 950.584 141.257 973.766 138.27C995.561 135.462 1018.4 133.652 1041.65 132.889C1083.25 131.526 1127.24 133.374 1176.15 138.536C1215.53 142.653 1261.81 148.315 1306.49 159.101C1351.22 169.936 1392.4 184.436 1432.22 198.458C1437.78 200.415 1443.53 202.439 1449.15 204.404C1543.06 237.237 1637.57 274.506 1730.06 315.175L1729.85 315.272Z" fill="#F3F3F3"/>
<path d="M1726.63 314.001C1634.95 272.884 1541.95 235.151 1450.23 201.852C1443.33 199.35 1436.27 196.747 1429.43 194.232C1391.77 180.364 1352.82 166.025 1309.86 155.745C1265.42 145.153 1218.96 140.64 1179.37 137.624C1077.51 129.745 992.872 135.381 913.007 155.359C843.31 172.867 786.087 197.68 730.745 221.675C724.922 224.2 718.899 226.81 713.031 229.34C706.14 232.31 700.875 234.567 695.963 236.655C669.653 247.832 638.327 260.703 605.454 271.408C570.617 282.752 537.474 290.602 504.127 295.41C486.592 297.938 468.772 299.533 451.158 300.148C432.245 300.809 413.933 300.323 396.735 298.703C378.102 296.948 360.834 293.86 345.405 289.526C328.674 284.826 313.979 278.616 301.726 271.07C300.622 270.386 299.514 269.679 298.44 268.969C279.646 256.57 267.569 242.358 255.888 228.615C253.178 225.428 250.377 222.132 247.552 218.931C232.257 201.558 215.322 186.548 195.779 173.041C193.321 171.343 190.775 169.639 188.211 167.976C141.456 137.647 77.7274 112.309 3.91577 94.7002C-82.7339 74.0989 -173.935 65.1972 -252.89 69.6325C-297.815 72.2117 -356.492 84.0933 -386.306 104.821C-404.033 117.145 -408.287 130.899 -398.604 144.595L-398.893 144.636C-403.957 137.474 -405.28 130.317 -402.828 123.361C-400.564 116.942 -395.094 110.68 -386.561 104.749C-373.374 95.5811 -353.081 87.347 -327.869 80.9341C-304.512 74.9933 -277.898 70.9329 -252.926 69.499C-211.487 67.1707 -166.917 68.4697 -120.45 73.361C-78.4707 77.7802 -36.5796 84.9189 4.05841 94.5815C77.9125 112.2 141.678 137.553 188.46 167.899C191.024 169.562 193.573 171.268 196.031 172.968C215.583 186.482 232.527 201.5 247.832 218.881C250.659 222.084 253.46 225.379 256.17 228.567C267.843 242.303 279.916 256.506 298.689 268.892C299.763 269.601 300.868 270.306 301.972 270.989C345.978 298.095 421.516 307.176 504.033 295.279C578.761 284.507 639.72 260.362 695.753 236.555C700.666 234.467 705.927 232.21 712.818 229.24C718.686 226.71 724.709 224.1 730.532 221.575C757.777 209.762 785.947 197.547 815.995 186.11C849.973 173.174 881.66 163.076 912.861 155.239C934.487 149.829 956.98 145.409 979.721 142.101C1001.26 138.968 1023.74 136.73 1046.53 135.447C1088.03 133.113 1131.5 133.781 1179.42 137.488C1219.03 140.507 1265.53 145.02 1310 155.622C1352.99 165.909 1391.95 180.252 1429.62 194.124C1436.46 196.64 1443.52 199.242 1450.42 201.744C1542.15 235.047 1635.15 272.783 1726.85 313.903L1726.63 314.001Z" fill="#F3F3F3"/>
<path d="M1723.41 312.731C1632.53 271.159 1541.04 232.958 1451.49 199.192C1443.87 196.32 1436.05 193.305 1428.48 190.39C1392.43 176.504 1355.16 162.146 1313.37 152.267C1268.9 141.802 1222.34 138.463 1182.65 136.577C1085.41 131.833 999.474 139.422 919.94 159.778C856.612 176.06 802.326 197.842 749.827 218.907C739.222 223.162 728.259 227.562 717.6 231.756C711.079 234.323 705.302 236.577 699.931 238.646C674.956 248.259 641.734 260.584 606.233 270.657C570.562 280.777 536.824 287.488 503.092 291.172C466.302 295.191 429.584 295.22 396.911 291.26C378.745 289.057 361.886 285.622 346.803 281.051C330.518 276.115 316.136 269.796 304.05 262.273C302.955 261.588 301.856 260.88 300.788 260.17C282.261 247.865 269.808 233.887 257.768 220.371C254.856 217.101 251.846 213.72 248.808 210.436C232.842 193.108 215.504 178.22 195.803 164.922C193.309 163.238 190.726 161.549 188.126 159.901C140.731 129.846 76.5074 104.85 2.39838 87.6171C-84.849 67.403 -176.305 58.9652 -255.123 63.8552C-308.538 67.2411 -361.872 81.4591 -387.833 99.2329C-405.899 111.602 -410.781 125.427 -401.951 139.215L-402.243 139.251C-406.858 132.046 -407.798 124.851 -405.04 117.866C-402.491 111.41 -396.787 105.116 -388.088 99.1587C-374.761 90.0344 -354.547 81.8193 -329.629 75.4009C-306.517 69.448 -280.071 65.2986 -255.165 63.7203C-213.775 61.1519 -169.156 62.2122 -122.547 66.8701C-80.4644 71.0762 -38.3792 78.0152 2.53796 87.4957C76.6894 104.739 140.949 129.749 188.375 159.823C190.975 161.471 193.557 163.161 196.055 164.846C215.765 178.152 233.112 193.048 249.087 210.383C252.125 213.668 255.135 217.049 258.048 220.319C270.082 233.829 282.528 247.8 301.037 260.093C302.105 260.803 303.201 261.508 304.296 262.194C347.546 289.124 421.834 299.908 503.019 291.041C577.031 282.957 641.303 261.032 699.731 238.545C705.099 236.476 710.879 234.223 717.396 231.656C728.053 227.462 739.019 223.063 749.62 218.809C802.131 197.739 856.427 175.952 919.785 159.664C941.219 154.177 963.385 149.56 985.665 145.937C1006.97 142.472 1029.09 139.806 1051.4 138.01C1092.89 134.671 1135.83 134.16 1182.67 136.445C1222.39 138.332 1269 141.672 1313.51 152.15C1355.33 162.035 1392.62 176.399 1428.68 190.29C1436.24 193.205 1444.07 196.219 1451.69 199.091C1541.24 232.859 1632.74 271.063 1723.63 312.638L1723.41 312.731Z" fill="#F3F3F3"/>
<path d="M1720.2 311.461C1630.12 269.43 1540.14 230.764 1452.76 196.534C1444.73 193.388 1436.46 190.058 1428.48 186.837C1393.75 172.833 1357.84 158.352 1316.89 148.792C1272.23 138.416 1225.63 136.267 1185.92 135.533C1092.36 133.677 1007.62 143.053 926.874 164.2C870.245 179.1 819.765 197.959 770.943 216.195C754.158 222.466 738.3 228.39 722.173 234.173C715.613 236.527 709.639 238.642 703.904 240.637C666.901 253.499 636.115 262.799 607.017 269.903C570.511 278.815 536.182 284.386 502.064 286.933C488.829 287.921 475.642 288.413 462.695 288.413C439.744 288.413 417.536 286.87 397.091 283.813C360.091 278.281 329.572 268.073 306.381 253.474C305.289 252.782 304.2 252.073 303.144 251.367C284.899 239.168 272.097 225.438 259.717 212.159C256.58 208.795 253.339 205.317 250.071 201.935C233.422 184.648 215.678 169.884 195.834 156.798C193.303 155.129 190.685 153.455 188.048 151.822C140.012 122.041 75.2914 97.3872 0.88504 80.5279C-86.9601 60.7023 -178.668 52.7273 -257.349 58.0718C-310.986 61.7909 -362.781 75.7391 -389.298 93.6074C-407.731 106.027 -413.259 119.935 -405.291 133.828L-405.586 133.862C-409.746 126.607 -410.298 119.368 -407.224 112.347C-404.378 105.848 -398.434 99.5185 -389.549 93.5332C-376.083 84.4588 -355.957 76.2706 -331.343 69.8523C-308.48 63.8899 -282.218 59.6595 -257.395 57.9383C-216.053 55.1297 -171.386 55.9499 -124.637 60.3758C-82.4511 64.3701 -40.1747 71.1095 1.02463 80.4065C75.4734 97.2766 140.231 121.944 188.297 151.742C190.933 153.377 193.552 155.051 196.086 156.721C215.942 169.814 233.695 184.586 250.351 201.88C253.618 205.262 256.862 208.741 259.996 212.105C272.37 225.378 285.166 239.102 303.396 251.29C304.452 251.995 305.538 252.703 306.63 253.394C349.935 280.659 421.15 292.835 502.013 286.798C578.989 281.052 647.169 260.185 703.716 240.529C709.448 238.534 715.422 236.42 721.982 234.066C738.106 228.283 753.963 222.361 770.749 216.09C819.576 197.849 870.07 178.988 926.719 164.082C947.993 158.511 969.827 153.695 991.619 149.767C1012.73 145.963 1034.48 142.867 1056.28 140.567C1097.85 136.182 1140.27 134.49 1185.94 135.397C1225.67 136.131 1272.32 138.282 1317.03 148.67C1358.01 158.237 1393.94 172.725 1428.68 186.734C1436.67 189.955 1444.93 193.286 1452.95 196.43C1540.34 230.663 1630.33 269.333 1720.41 311.367L1720.2 311.461Z" fill="#F3F3F3"/>
<path d="M1716.98 310.191C1626.45 267.1 1540.44 229.053 1454.02 193.875C1445.77 190.518 1437.66 187.091 1429.06 183.462C1395.46 169.276 1360.72 154.609 1320.4 145.316C1275.18 134.944 1226.54 134.081 1189.2 134.488C1099.9 135.335 1016.36 146.501 933.807 168.622C884.279 181.959 838.549 197.975 794.325 213.466C771.082 221.606 749.129 229.294 726.742 236.591C720.097 238.758 713.923 240.733 707.872 242.629C670.366 254.359 638.567 262.785 607.793 269.146C570.441 276.868 535.52 281.299 501.032 282.694C483.312 283.41 465.713 283.275 448.725 282.293C430.737 281.253 413.424 279.258 397.266 276.365C361.453 269.95 331.659 259.29 308.711 244.676C307.628 243.983 306.548 243.273 305.498 242.567C287.559 230.493 274.436 217.025 261.744 204.001C258.358 200.526 254.856 196.933 251.333 193.439C233.986 176.19 215.841 161.548 195.861 148.678C193.291 147.024 190.636 145.365 187.969 143.746C139.293 114.239 74.0774 89.9281 -0.626343 73.4424C-69.5771 58.2896 -140.682 50.3834 -205.886 50.3834C-224.319 50.3834 -242.266 51.0147 -259.577 52.2922C-312.567 56.2797 -364.038 70.2778 -390.709 87.9545C-409.533 100.432 -415.733 114.435 -408.635 128.446L-408.933 128.476C-412.638 121.165 -412.792 113.876 -409.394 106.814C-406.244 100.268 -400.042 93.8967 -390.964 87.879C-377.358 78.8612 -357.326 70.7068 -333.027 64.2952C-310.091 58.2424 -284.71 54.0458 -259.632 52.16C-218.338 49.1113 -173.622 49.6927 -126.731 53.8853C-84.445 57.6651 -41.9713 64.2034 -0.492828 73.3197C74.2533 89.8147 139.508 114.139 188.214 143.664C190.885 145.283 193.543 146.943 196.113 148.598C216.102 161.475 234.256 176.124 251.612 193.381C255.135 196.875 258.64 200.468 262.026 203.945C274.712 216.963 287.829 230.426 305.753 242.49C306.803 243.195 307.883 243.905 308.963 244.597C351.877 271.923 421.871 285.757 501.008 282.558C581.085 279.319 653.532 259.457 707.702 242.515C713.753 240.62 719.925 238.645 726.57 236.479C748.953 229.185 770.903 221.496 794.143 213.356C838.373 197.865 884.109 181.845 933.655 168.503C976.156 157.114 1017.86 148.814 1061.16 143.127C1102.92 137.642 1144.8 134.771 1189.2 134.351C1214.53 134.074 1235.2 134.554 1254.24 135.86C1278.83 137.546 1300.52 140.599 1320.55 145.193C1360.9 154.495 1395.66 169.17 1429.28 183.362C1437.87 186.991 1445.99 190.417 1454.23 193.773C1540.65 228.953 1626.67 267.003 1717.21 310.097L1716.98 310.191Z" fill="#F3F3F3"/>
<path d="M1713.76 308.919C1624.06 265.356 1539.51 226.856 1455.28 191.213C1446.95 187.687 1438.73 184.055 1430.04 180.209C1397.44 165.799 1363.74 150.897 1323.91 141.838C1278.32 131.514 1229.73 131.927 1192.49 133.439C1108.21 136.743 1025.86 149.697 940.741 173.039C898.802 184.595 858.87 197.821 820.253 210.611C789.726 220.722 760.894 230.272 731.316 239.002C724.631 240.976 718.077 242.865 711.842 244.613C674.263 255.141 640.482 262.915 608.571 268.381C570.36 274.926 534.847 278.22 500.002 278.449C482.272 278.565 464.743 277.853 447.912 276.33C430.268 274.733 413.288 272.236 397.443 268.907C362.859 261.64 333.787 250.526 311.039 235.872C309.971 235.18 308.897 234.469 307.85 233.758C290.249 221.832 276.84 208.649 263.872 195.9C260.203 192.293 256.407 188.561 252.593 184.934C234.536 167.717 215.988 153.2 195.889 140.549C193.283 138.91 190.591 137.266 187.888 135.662C138.572 106.429 72.8585 82.4605 -2.14258 66.3485C-91.1801 47.3013 -183.401 40.2543 -261.809 46.5054C-314.114 50.7479 -365.241 64.7824 -392.061 82.2581C-411.311 94.8021 -418.198 108.909 -411.984 123.057L-412.282 123.083C-415.522 115.708 -415.273 108.363 -411.538 101.253C-408.07 94.6524 -401.604 88.2354 -392.313 82.1813C-378.574 73.2282 -358.642 65.1143 -334.671 58.7162C-311.999 52.6647 -286.824 48.3966 -261.864 46.3718C-220.616 43.0844 -175.854 43.4244 -128.823 47.3849C-86.4346 50.9543 -43.7697 57.293 -2.01208 66.2258C73.0345 82.3458 138.784 106.329 188.127 135.58C190.834 137.184 193.528 138.829 196.135 140.47C216.246 153.127 234.8 167.651 252.866 184.875C256.684 188.502 260.476 192.233 264.148 195.842C277.11 208.585 290.513 221.763 308.102 233.681C309.149 234.391 310.223 235.102 311.288 235.792C354.654 263.727 421.672 278.83 499.995 278.312C563.548 277.893 630.812 267.148 711.678 244.496C717.911 242.748 724.462 240.86 731.146 238.886C760.715 230.158 789.547 220.61 820.068 210.499C858.692 197.707 898.629 184.479 940.58 172.92C983.497 161.151 1024.53 152.242 1066.03 145.682C1108.07 139.037 1149.43 134.986 1192.46 133.3C1229.74 131.785 1278.39 131.374 1324.05 141.713C1363.92 150.784 1397.64 165.692 1430.25 180.109C1438.95 183.955 1447.16 187.586 1455.49 191.111C1539.73 226.754 1624.28 265.258 1713.99 308.824L1713.76 308.919Z" fill="#F3F3F3"/>
<path d="M1710.55 307.649C1621.68 263.612 1538.6 224.655 1456.55 188.555C1448.22 184.889 1440 181.081 1431.29 177.049C1399.62 162.382 1366.87 147.216 1327.43 138.361C1281.41 128.075 1232.9 129.768 1195.77 132.392C1116.47 137.889 1037.64 152.21 947.677 177.459C913.936 186.972 880.962 197.408 849.075 207.499C810.346 219.756 773.765 231.334 735.888 241.418C729.064 243.236 722.309 244.981 715.813 246.603C677.56 256.145 642.736 263.02 609.35 267.617C590.65 270.192 572.189 272.058 554.481 273.163C535.593 274.34 516.917 274.692 498.972 274.209C462.564 273.229 428.465 268.936 397.625 261.452C364.317 253.369 335.971 241.803 313.375 227.073C312.313 226.375 311.248 225.663 310.207 224.956C292.982 213.205 279.334 200.335 266.138 187.89C262.141 184.122 258.012 180.226 253.858 176.436C235.073 159.247 216.121 144.852 195.918 132.427C193.276 130.802 190.545 129.172 187.808 127.584C137.852 98.6237 71.644 74.9981 -3.65448 59.2625C-93.2868 40.6051 -185.759 34.0221 -264.037 40.7251C-347.853 48.0135 -429.526 79.5049 -415.326 117.674L-415.626 117.695C-419.179 108.147 -417.098 98.741 -409.442 89.7354C-402.451 81.5108 -390.979 73.7705 -375.343 66.7317C-360.806 60.1865 -343.365 54.5357 -323.509 49.9358C-304.624 45.5611 -284.079 42.329 -264.098 40.5916C-222.899 37.064 -178.089 37.1652 -130.915 40.8937C-88.4229 44.2513 -45.5638 50.3904 -3.52707 59.1411C71.8138 74.8874 138.061 98.5266 188.048 127.504C190.788 129.093 193.518 130.722 196.164 132.349C216.375 144.78 235.337 159.182 254.131 176.378C258.285 180.168 262.414 184.064 266.411 187.833C279.604 200.274 293.246 213.139 310.462 224.883C311.5 225.59 312.562 226.302 313.624 226.999C357.053 255.308 422.885 272.025 498.99 274.076C563.42 275.809 634.294 266.786 715.664 246.487C722.158 244.865 728.909 243.121 735.733 241.303C773.601 231.222 810.176 219.645 848.899 207.39C880.789 197.297 913.766 186.86 947.513 177.346C1037.52 152.086 1116.38 137.76 1195.72 132.259C1220.67 130.495 1241.32 129.932 1260.73 130.486C1285.53 131.194 1307.39 133.73 1327.57 138.24C1367.05 147.104 1399.82 162.28 1431.51 176.955C1440.21 180.986 1448.43 184.794 1456.76 188.457C1538.82 224.561 1621.9 263.519 1710.77 307.558L1710.55 307.649Z" fill="#F3F3F3"/>
<path d="M1707.33 306.377C1619.31 261.86 1537.69 222.451 1457.81 185.894C1449.55 182.111 1441.38 178.15 1432.73 173.953C1401.92 159.005 1370.06 143.547 1330.95 134.883C1283.92 124.511 1233.15 127.896 1199.05 131.343C1106.49 140.587 1023.54 162.075 954.612 181.879C929.837 189.026 905.126 196.597 881.225 203.917C833.281 218.603 787.997 232.475 740.462 243.833C733.471 245.504 726.517 247.106 719.787 248.593C680.787 257.198 644.919 263.172 610.134 266.852C570.701 271.024 532.958 272.073 497.945 269.969C461.977 267.807 428.284 262.432 397.808 253.995C365.842 245.146 338.221 233.128 315.707 218.274C314.657 217.577 313.598 216.863 312.563 216.154C295.766 204.619 281.948 192.102 268.582 179.996C264.203 176.029 259.673 171.928 255.122 167.937C235.323 150.532 216.52 136.669 195.951 124.305C193.271 122.694 190.507 121.081 187.731 119.506C137.128 90.8208 70.4228 67.5378 -5.17297 52.1745C-95.4 33.9083 -188.127 27.7881 -266.272 34.943C-350.388 42.7467 -430.392 73.8105 -418.674 112.289L-418.974 112.307C-421.881 102.76 -419.366 93.3636 -411.501 84.3782C-404.292 76.1455 -392.752 68.3971 -377.199 61.3501C-362.695 54.778 -345.345 49.0854 -325.628 44.4275C-306.855 39.9921 -286.35 36.6669 -266.332 34.8094C-225.179 31.0418 -180.323 30.9042 -133.01 34.3993C-90.4147 37.5451 -47.3614 43.4846 -5.0455 52.0518C70.5958 67.4231 137.338 90.7196 187.964 119.423C190.741 120.998 193.508 122.613 196.19 124.224C216.772 136.594 235.581 150.465 255.389 167.876C259.94 171.867 264.47 175.97 268.849 179.937C282.212 192.038 296.027 204.551 312.812 216.081C313.847 216.79 314.903 217.503 315.953 218.2C359.719 247.073 424.364 265.411 497.982 269.835C564.007 273.804 636.514 266.815 719.65 248.472C726.377 246.986 733.332 245.386 740.316 243.714C787.839 232.359 833.117 218.49 881.052 203.805C904.953 196.485 929.667 188.913 954.445 181.765C1000.8 168.449 1039.36 158.611 1075.79 150.805C1118.67 141.616 1158.97 135.207 1198.98 131.211C1223.37 128.745 1244.62 127.628 1263.97 127.798C1288.87 128.017 1310.83 130.294 1331.08 134.762C1370.24 143.437 1402.12 158.904 1432.96 173.861C1441.6 178.057 1449.77 182.018 1458.03 185.798C1537.91 222.356 1619.53 261.769 1707.56 306.287L1707.33 306.377Z" fill="#F3F3F3"/>
<path d="M1704.11 305.104C1616.95 260.106 1536.8 220.241 1459.08 183.231C1450.93 179.35 1442.87 175.251 1434.33 170.91C1404.33 155.661 1373.31 139.893 1334.46 131.404C1286.93 121.057 1236.29 125.814 1202.33 130.294C1118.47 141.263 1043.67 162.147 961.55 186.298C946.74 190.669 931.76 195.182 917.271 199.547C861.55 216.333 803.935 233.69 745.037 246.247C737.882 247.774 730.721 249.232 723.758 250.581C684.494 258.178 646.529 263.393 610.916 266.082C570.573 269.128 532.219 269.007 496.913 265.727C461.448 262.431 428.165 255.974 397.986 246.534C367.447 236.981 340.545 224.512 318.03 209.475C316.99 208.777 315.94 208.062 314.911 207.352C298.62 196.087 284.714 183.977 271.266 172.267C266.421 168.048 261.411 163.685 256.377 159.44C235.805 142.053 216.61 128.309 195.971 116.184C193.261 114.592 190.458 112.993 187.642 111.43C136.408 83.0146 69.2113 60.0743 -6.68793 45.086C-97.5066 27.211 -190.486 21.5548 -268.503 29.1602C-349.949 37.1865 -431.431 67.1604 -422.022 106.903L-422.322 106.917C-424.583 97.3702 -421.633 87.9842 -413.559 79.019C-406.134 70.7769 -394.525 63.0218 -379.056 55.9667C-350.516 42.952 -310.245 33.1329 -268.57 29.0267C-227.464 25.0203 -182.56 24.6426 -135.104 27.9044C-92.406 30.8397 -49.1616 36.5782 -6.56656 44.9619C69.3751 59.9583 136.611 82.9135 187.878 111.343C190.697 112.906 193.501 114.506 196.214 116.099C216.862 128.23 236.066 141.98 256.644 159.374C261.678 163.62 266.691 167.983 271.536 172.202C284.981 183.91 298.884 196.017 315.166 207.277C316.192 207.986 317.242 208.7 318.282 209.398C363.326 239.483 425.116 258.915 496.97 265.593C563.506 271.777 639.763 266.685 723.63 250.457C730.591 249.108 737.746 247.651 744.897 246.125C803.774 233.573 861.383 216.219 917.092 199.435C931.581 195.07 946.561 190.558 961.374 186.186C997.321 175.614 1039.15 163.488 1080.66 153.364C1124.08 142.775 1163.85 135.187 1202.24 130.166C1226.4 126.979 1247.66 125.325 1267.21 125.112C1291.87 124.842 1314.54 126.919 1334.59 131.284C1351.99 135.087 1369.5 140.762 1388.13 148.635C1404.58 155.586 1419.82 163.332 1434.55 170.821C1443.09 175.161 1451.15 179.26 1459.3 183.14C1537.01 220.151 1617.17 260.017 1704.34 305.017L1704.11 305.104Z" fill="#F3F3F3"/>
<path d="M1700.89 303.836C1614.58 258.352 1535.9 218.033 1460.34 180.576C1452.34 176.61 1444.42 172.386 1436.03 167.916C1406.81 152.35 1376.6 136.254 1337.98 127.932C1301.88 120.18 1258.59 120.612 1205.61 129.252C1131.53 141.264 1065.32 161.357 995.217 182.631C986.488 185.281 977.464 188.019 968.482 190.724C964.966 191.785 961.446 192.85 957.929 193.913C891.133 214.105 822.064 234.986 749.609 248.667C742.284 250.051 734.923 251.366 727.728 252.575C687.603 259.31 648.567 263.597 611.707 265.316C570.432 267.239 531.463 265.952 495.889 261.49C460.977 257.11 428.103 249.569 398.182 239.077C369.181 228.907 343.001 215.99 320.369 200.68C319.337 199.98 318.296 199.264 317.274 198.553C301.602 187.641 287.741 176.02 274.333 164.782C268.904 160.231 263.288 155.524 257.647 150.943C236.28 133.568 216.697 119.943 196.009 108.064C193.26 106.485 190.423 104.902 187.571 103.354C135.688 75.2139 67.9933 52.6148 -8.20325 38.0016C-99.6106 20.5191 -192.848 15.3256 -270.734 23.3816C-350.684 31.7195 -432.051 61.9388 -425.367 101.523L-425.67 101.533C-427.281 91.9855 -423.901 82.6102 -415.618 73.668C-407.974 65.4164 -396.298 57.6518 -380.912 50.5914C-352.493 37.5497 -312.361 27.5849 -270.804 23.2507C-229.744 19.0042 -184.795 18.3864 -137.199 21.4161C-94.3977 24.1383 -50.9561 29.6771 -8.08185 37.8775C68.1572 52.5002 135.894 75.1114 187.798 103.267C190.651 104.814 193.494 106.4 196.243 107.979C216.94 119.864 236.535 133.494 257.908 150.876C263.552 155.457 269.165 160.164 274.597 164.716C287.999 175.951 301.86 187.57 317.526 198.478C318.548 199.188 319.586 199.903 320.617 200.604C366.638 231.732 427.272 252.739 495.968 261.356C563.781 269.863 641.719 266.864 727.619 252.445C734.807 251.237 742.165 249.923 749.487 248.54C821.918 234.864 890.975 213.988 957.756 193.798C961.276 192.734 964.793 191.671 968.309 190.609C977.291 187.904 986.315 185.166 995.044 182.518C1065.16 161.24 1131.4 141.141 1205.5 129.124C1229.44 125.22 1250.68 123.03 1270.46 122.427C1295.21 121.673 1317.97 123.485 1338.11 127.81C1355.41 131.537 1372.7 137.238 1390.98 145.238C1407.11 152.297 1421.93 160.193 1436.26 167.828C1444.65 172.297 1452.57 176.519 1460.57 180.484C1536.13 217.943 1614.82 258.263 1701.13 303.749L1700.89 303.836Z" fill="#F3F3F3"/>
<path d="M1697.68 302.564C1618.9 260.18 1539.47 218.241 1461.61 177.913C1453.68 173.831 1445.82 169.446 1437.51 164.804C1410.46 149.704 1379.79 132.59 1341.49 124.454C1304.98 116.715 1261.6 117.941 1208.88 128.202C1146.2 140.361 1090.73 158.24 1032 177.169C1013.61 183.096 994.594 189.227 975.411 195.141C941.928 205.486 905.708 216.433 867.74 226.403C827.078 237.081 789.929 245.152 754.17 251.08C746.657 252.325 739.096 253.497 731.689 254.561C690.715 260.447 650.617 263.796 612.509 264.516C570.324 265.312 530.739 262.868 494.849 257.246C428.575 246.735 370.651 224.742 322.688 191.879C321.666 191.178 320.634 190.46 319.617 189.749C304.74 179.319 291.123 168.316 277.954 157.674C271.755 152.665 265.346 147.485 258.899 142.444C236.718 125.073 216.741 111.568 196.029 99.941C193.24 98.3762 190.367 96.8074 187.481 95.2763C134.967 67.4068 66.7748 45.1517 -9.71915 30.9122C-101.718 13.8209 -195.207 9.09277 -272.966 17.5979C-353.402 26.4458 -432.73 56.2645 -428.715 96.1369L-429.019 96.1423C-429.981 86.5917 -426.164 77.2273 -417.677 68.308C-409.812 60.0456 -398.069 52.2729 -382.77 45.2071C-368.358 38.55 -351.275 32.7292 -331.998 27.9053C-313.283 23.2231 -293.448 19.7104 -273.042 17.4658C-232.028 12.9805 -187.03 12.1225 -139.295 14.9189C-96.39 17.432 -52.7572 22.7698 -9.60385 30.7867C66.9356 45.0344 135.167 67.303 187.712 95.1859C190.597 96.7183 193.477 98.2885 196.265 99.8533C216.986 111.487 236.973 124.998 259.163 142.374C265.61 147.416 272.019 152.596 278.218 157.606C291.387 168.247 305.001 179.249 319.872 189.675C320.886 190.387 321.92 191.104 322.94 191.805C370.866 224.643 428.739 246.617 494.95 257.117C563.151 267.801 644.982 266.873 731.595 254.432C738.996 253.367 746.557 252.196 754.064 250.953C834.014 237.702 907.164 216.061 975.235 195.029C994.418 189.115 1013.43 182.985 1031.82 177.058C1090.56 158.126 1146.05 140.242 1208.76 128.078C1261.56 117.801 1305.02 116.575 1341.62 124.331C1358.77 127.975 1375.81 133.687 1393.69 141.79C1409.47 148.935 1423.84 156.96 1437.74 164.719C1446.06 169.361 1453.91 173.745 1461.84 177.824C1539.71 218.153 1619.13 260.092 1697.91 302.478L1697.68 302.564Z" fill="#F3F3F3"/>
<path d="M1694.46 301.295C1616.89 258.676 1538.97 216.27 1462.87 175.255C1455.19 171.129 1447.57 166.666 1439.51 161.942C1413.12 146.49 1383.21 128.975 1345 120.977C1308.05 113.252 1264.6 115.273 1212.16 127.153C1157.22 139.582 1106.74 157.132 1057.93 174.106C1033.45 182.617 1008.14 191.417 982.346 199.561C941.638 212.427 907.387 222.242 874.553 230.451C834.067 240.572 796.184 248.11 758.744 253.495C751.058 254.601 743.291 255.629 735.659 256.55C695.898 261.348 656.853 263.776 619.502 263.778C617.426 263.778 615.363 263.77 613.3 263.755C570.116 263.442 529.918 259.824 493.822 253.004C476.399 249.693 459.338 245.491 443.113 240.514C427.863 235.836 412.877 230.325 398.57 224.136C372.831 213.002 348.769 199.572 325.017 183.081C323.997 182.371 322.981 181.66 321.97 180.946C308.189 171.216 295.15 161.045 282.543 151.209C275.264 145.531 267.739 139.659 260.159 133.943C236.823 116.334 217.054 103.341 196.054 91.8169C193.229 90.2669 190.319 88.7129 187.397 87.1967C134.246 59.6038 65.5594 37.6913 -11.2319 23.8254C-103.82 7.12664 -197.563 2.86259 -275.195 11.817C-354.123 20.9467 -433.347 50.992 -432.058 90.7525L-432.361 90.7539C-432.962 72.234 -416.452 54.6234 -384.62 39.8267C-370.231 33.1386 -353.24 27.276 -334.111 22.3982C-315.499 17.6526 -295.704 14.0481 -275.271 11.6848C-234.305 6.95937 -189.259 5.86266 -141.384 8.42568C-98.3761 10.7284 -54.5491 15.8665 -11.1196 23.6986C65.7202 37.5739 134.446 59.4999 187.631 87.109C190.553 88.6266 193.469 90.1819 196.294 91.7319C217.303 103.263 237.081 116.26 260.423 133.876C268.003 139.593 275.531 145.465 282.807 151.143C295.414 160.978 308.45 171.148 322.228 180.875C323.239 181.589 324.252 182.299 325.272 183.008C375.744 218.051 430.916 240.906 493.94 252.88C581.233 269.375 673.527 263.91 735.581 256.421C743.206 255.499 750.967 254.473 758.65 253.367C844.76 240.98 923.335 218.047 982.17 199.451C1007.96 191.311 1033.27 182.51 1057.74 174.001C1106.57 157.024 1157.06 139.469 1212.02 127.034C1235.49 121.718 1256.73 118.453 1276.95 117.056C1301.88 115.332 1324.82 116.611 1345.13 120.857C1362.24 124.439 1379.11 130.196 1396.71 138.457C1412.21 145.736 1426.21 153.934 1439.75 161.863C1447.81 166.585 1455.43 171.047 1463.11 175.17C1539.2 216.185 1617.12 258.591 1694.7 301.21L1694.46 301.295Z" fill="#F3F3F3"/>
<path d="M1691.25 300.023L1464.14 172.595C1456.72 168.434 1449.36 163.905 1441.56 159.112C1415.83 143.294 1386.66 125.367 1348.52 117.501C1311.64 109.896 1266.87 112.79 1215.44 126.106C1166 138.906 1120.91 155.929 1077.3 172.391C1048.88 183.122 1019.48 194.217 989.283 203.983C898.513 233.333 819.185 250.669 739.635 258.54C706.635 261.804 674.08 263.447 642.508 263.447C632.938 263.447 623.465 263.296 614.092 262.994C569.889 261.57 529.078 256.781 492.797 248.763C459.172 241.33 428.41 230.838 398.766 216.684C375.092 205.383 352.399 191.909 327.351 174.283C314.131 164.98 301.329 155.315 288.949 145.968C260.931 124.816 231.96 102.944 196.091 83.6947C141.074 54.1701 68.8585 31.0166 -12.7482 16.7366C-105.921 0.431712 -199.92 -3.36965 -277.424 6.03393C-352.462 15.138 -433.905 43.8465 -435.404 85.3674L-435.707 85.3647C-435.036 66.8058 -418.011 49.1979 -386.473 34.4443C-357.957 21.1045 -319.258 10.9684 -277.503 5.90308C-236.583 0.938921 -191.488 -0.397896 -143.477 1.93175C-100.366 4.02264 -56.3445 8.96252 -12.6359 16.6111C27.7442 23.6769 66.0943 32.978 101.352 44.2566C136.905 55.6297 168.859 68.8683 196.322 83.6057C232.205 102.862 261.186 124.739 289.21 145.896C301.59 155.242 314.392 164.906 327.609 174.207C364.154 199.926 415.973 231.628 492.934 248.638C581.195 268.146 675.77 264.717 739.568 258.405C819.078 250.539 898.37 233.21 989.104 203.871C1019.29 194.11 1048.68 183.014 1077.1 172.286C1120.72 155.821 1165.83 138.794 1215.29 125.987C1266.81 112.649 1311.68 109.751 1348.65 117.377C1365.72 120.899 1382.44 126.706 1399.75 135.133C1414.99 142.551 1428.62 150.929 1441.8 159.031C1449.6 163.824 1456.97 168.35 1464.38 172.51L1691.49 299.938L1691.25 300.023Z" fill="#F3F3F3"/>
<path d="M1689.42 290.228C1631.58 254.748 1581.97 225.957 1533.27 199.624C1509.63 186.832 1485.48 174.241 1461.51 162.2C1454.25 158.558 1447.07 154.683 1439.46 150.581C1420.35 140.271 1400.58 129.61 1377.83 121.699C1365.62 117.443 1353.86 114.395 1341.89 112.383C1305.13 106.144 1262.01 110.269 1213.72 124.645C1188.72 132.074 1165.97 140.527 1147 147.817C1126.93 155.535 1107.12 164.045 1087.97 172.275C1060.44 184.105 1031.97 196.338 1001.36 206.843C982.743 213.255 963.867 218.984 945.258 223.873C908.027 233.653 868.066 241.711 826.484 247.825C800.793 251.56 774.978 254.383 749.76 256.215C728.025 257.788 706.251 258.696 685.039 258.913C653.291 259.24 622.36 257.995 593.104 255.209C561.996 252.247 532.558 247.519 505.607 241.154C481.576 235.479 458.877 228.334 436.214 219.308C393.983 202.503 360.299 183.071 335.673 168.019C323.576 160.59 311.763 153.015 300.339 145.689C267.445 124.59 236.374 104.661 197.492 86.9105C165.781 72.5279 129.601 60.1161 89.9459 50.0178C59.4727 42.2573 26.3294 35.9104 -8.56165 31.1527C-16.8725 30.0209 -25.3411 28.966 -33.7248 28.0204C-69.8205 23.956 -110.455 21.3093 -154.498 20.1533C-198.901 18.9608 -237.318 19.9927 -271.936 23.3112C-291.507 25.1727 -310.468 28.0932 -328.301 31.9904C-391.256 45.7497 -431.681 68.8479 -436.439 93.7793L-436.818 93.7645C-435.55 87.1182 -431.827 80.5717 -425.755 74.3044C-419.987 68.3515 -412.065 62.6103 -402.209 57.2401C-383.588 47.096 -358.088 38.3116 -328.468 31.8379C-310.608 27.9341 -291.616 25.0095 -272.015 23.1453C-237.361 19.8241 -198.913 18.7908 -154.474 19.9847C-110.407 21.1407 -69.7507 23.7901 -33.6308 27.8572C-25.238 28.8041 -16.7663 29.859 -8.44937 30.9921C26.469 35.7526 59.6396 42.1048 90.1371 49.8721C129.819 59.9772 166.03 72.3997 197.757 86.7917C236.662 104.553 267.739 124.487 300.646 145.591C312.067 152.918 323.879 160.492 335.974 167.919C360.587 182.964 394.256 202.387 436.462 219.181C459.101 228.197 481.776 235.336 505.78 241.004C558.525 253.459 618.831 259.429 685.027 258.745C706.221 258.527 727.98 257.62 749.696 256.048C774.896 254.216 800.693 251.395 826.363 247.663C867.92 241.553 907.857 233.5 945.064 223.726C963.661 218.841 982.525 213.115 1001.13 206.709C1031.72 196.208 1060.18 183.979 1087.7 172.152C1106.86 163.921 1126.66 155.408 1146.75 147.688C1165.72 140.394 1188.49 131.937 1213.51 124.503C1235.01 118.102 1255.82 113.68 1275.39 111.359C1299.41 108.507 1321.83 108.799 1342.02 112.225C1354.03 114.244 1365.82 117.3 1378.06 121.565C1400.84 129.489 1420.62 140.156 1439.76 150.473C1447.36 154.574 1454.54 158.448 1461.79 162.088C1485.77 174.13 1509.92 186.722 1533.56 199.517C1582.27 225.853 1631.89 254.646 1689.72 290.129L1689.42 290.228Z" fill="#F3F3F3"/>
<path d="M1687.68 280.429C1646.87 246.308 1608.57 217.755 1570.59 193.14C1552.07 181.116 1532.9 169.558 1513.61 158.787C1508.49 155.929 1503.44 152.96 1498.1 149.816C1482.08 140.403 1465.52 130.669 1446.97 123.934C1437.6 120.519 1428.62 118.141 1419.52 116.664C1384.68 111.005 1349.28 121.726 1325.72 131.716C1309.02 138.774 1293.78 146.753 1278.33 154.99C1264.82 162.201 1252.1 169.957 1238.64 178.168C1218.66 190.356 1197.99 202.959 1174.61 213.541C1160.73 219.854 1146.25 225.313 1131.56 229.765C1104.21 238.06 1074.26 244.501 1039.99 249.459C1020.81 252.232 1001.18 254.208 981.621 255.33C965.121 256.265 948.651 256.599 932.666 256.32C908.884 255.909 885.639 254.061 863.571 250.83C840.395 247.435 818.281 242.475 797.846 236.088C779.942 230.493 762.654 223.55 744.995 214.865C712.923 199.114 685.449 181.652 665.1 168.198C657.567 163.218 650.154 158.207 642.984 153.359C614.429 134.055 587.459 115.82 554.671 100.457C530.167 88.9759 502.656 79.2677 472.908 71.6032C450.399 65.8038 426.541 61.4587 399.975 58.3192C393.844 57.5958 387.606 56.9439 381.438 56.3813C354.345 53.923 325.43 52.993 290.447 52.0311C265.229 51.3027 232.217 50.823 200.504 53.6067C185.484 54.9002 170.965 57.1468 157.347 60.2812C109.401 71.32 76.8771 90.6038 70.3418 111.867L70 111.836C71.732 106.197 75.2421 100.667 80.4265 95.3966C85.3684 90.3754 91.8622 85.5608 99.7254 81.0831C114.669 72.5766 134.548 65.3216 157.213 60.1039C170.857 56.9631 185.403 54.7127 200.448 53.4166C232.192 50.6291 265.229 51.1101 290.463 51.8385C325.458 52.8004 354.382 53.7304 381.494 56.19C387.666 56.7538 393.908 57.4057 400.047 58.1291C426.638 61.2724 450.519 65.6214 473.053 71.4272C502.832 79.0993 530.365 88.8152 554.895 100.308C587.706 115.682 614.688 133.922 643.251 153.234C650.42 158.08 657.832 163.091 665.365 168.07C685.71 181.519 713.173 198.975 745.226 214.718C762.864 223.394 780.133 230.329 798.017 235.918C838.199 248.478 883.507 255.276 932.677 256.126C948.648 256.404 965.102 256.071 981.586 255.136C1001.12 254.016 1020.74 252.042 1039.9 249.27C1074.14 244.318 1104.07 237.882 1131.4 229.594C1146.07 225.147 1160.53 219.696 1174.39 213.389C1197.75 202.816 1218.41 190.218 1238.38 178.036C1251.85 169.822 1264.57 162.064 1278.1 154.85C1293.55 146.608 1308.8 138.626 1325.51 131.561C1340.78 125.084 1355.85 120.425 1370.29 117.71C1387.8 114.419 1404.4 114.004 1419.63 116.477C1428.76 117.96 1437.76 120.346 1447.16 123.771C1465.74 130.518 1482.32 140.261 1498.35 149.682C1503.7 152.824 1508.75 155.793 1513.86 158.649C1533.15 169.424 1552.33 180.986 1570.86 193.013C1608.85 217.635 1647.15 246.193 1687.97 280.322L1687.68 280.429Z" fill="#F3F3F3"/>
<path d="M1685.75 270.63C1635.57 233.46 1586 202.713 1534.21 176.634C1509.17 163.998 1482.94 152.148 1456.24 141.408C1450.54 139.113 1444.67 136.676 1438.99 134.321C1415.53 124.59 1391.27 114.528 1364.79 108.203C1352.36 105.213 1340.53 103.23 1328.62 102.142C1282.93 97.9612 1239.04 110.477 1210.27 121.711C1190.77 129.295 1172.95 137.89 1155.71 146.204L1152.48 147.761C1136.82 155.303 1122.14 163.575 1106.59 172.333C1081.84 186.28 1056.24 200.701 1025.53 212.558C1007.66 219.508 988.481 225.323 968.522 229.842C933.722 237.721 894.992 243.344 846.647 247.536C821.648 249.704 795.857 251.058 769.986 251.56C748.361 251.964 726.854 251.761 706.057 250.956C643.096 248.529 584.268 240.109 531.205 225.93C508.266 219.8 485.536 212.266 461.72 202.894C421.416 187.067 385.569 170.798 352.31 155.492C347.85 153.44 343.438 151.402 339.06 149.379C293.634 128.405 250.729 108.592 200.306 93.3438C167.387 83.3885 131.276 75.2704 92.9805 69.2136C64.865 64.7675 34.3948 61.7485 -0.165466 59.9841C-7.95444 59.5888 -15.8769 59.2637 -23.7144 59.0182C-43.4311 58.4112 -64.3433 58.3127 -86.4843 58.2088C-104.268 58.1252 -122.656 58.0389 -142.06 57.6868C-179.536 56.9489 -222.01 56.1139 -260.982 57.8622C-281.09 58.7646 -300.282 60.5938 -318.026 63.2998C-381 72.9044 -426.046 90.5905 -438.526 110.61L-439.039 110.547C-435.75 105.269 -430.252 100.12 -422.7 95.2431C-415.478 90.5798 -406.339 86.1363 -395.537 82.0368C-374.876 74.1967 -348.132 67.6407 -318.202 63.0759C-300.419 60.3631 -281.187 58.5299 -261.04 57.6261C-222.028 55.8765 -179.533 56.7128 -142.042 57.4507C-122.65 57.8014 -104.262 57.8891 -86.4843 57.9728C-64.3342 58.0766 -43.416 58.1751 -23.6811 58.7835C-15.8375 59.0303 -7.90591 59.3554 -0.11087 59.7507C34.4919 61.5165 64.9984 64.5395 93.1534 68.9924C131.494 75.056 167.645 83.1834 200.6 93.1495C251.069 108.412 293.995 128.233 339.439 149.218C343.817 151.24 348.232 153.277 352.69 155.33C385.942 170.634 421.777 186.898 462.069 202.72C485.861 212.082 508.566 219.609 531.478 225.73C584.471 239.892 643.224 248.3 706.103 250.724C726.876 251.528 748.361 251.73 769.962 251.327C795.805 250.825 821.572 249.472 846.544 247.307C894.841 243.118 933.525 237.503 968.279 229.634C988.196 225.125 1007.34 219.32 1025.18 212.383C1055.85 200.54 1081.43 186.128 1106.17 172.189C1121.72 163.426 1136.42 155.15 1152.08 147.603L1155.31 146.046C1172.56 137.729 1190.4 129.128 1209.92 121.536C1238.78 110.265 1282.82 97.713 1328.73 101.912C1340.68 103.006 1352.56 104.996 1365.04 107.997C1391.58 114.336 1415.86 124.409 1439.34 134.151C1445.02 136.506 1450.89 138.943 1456.6 141.237C1483.3 151.982 1509.55 163.839 1534.6 176.481C1586.42 202.572 1636 233.329 1686.2 270.512L1685.75 270.63Z" fill="#F3F3F3"/>
<path d="M1683.92 260.83C1637.85 223.099 1587.64 190.903 1534.69 165.141C1508.95 152.585 1481.67 141.104 1453.62 131.016C1449.57 129.559 1445.42 128.047 1441.41 126.585C1414.9 116.925 1387.48 106.935 1358.29 101.458C1345.75 99.0823 1333.89 97.6322 1322.01 97.0224C1276.45 94.686 1235.17 108.36 1208.56 120.243C1192.04 127.584 1177.12 135.748 1162.7 143.644C1160.21 145.01 1157.71 146.374 1155.22 147.732C1141.5 155.195 1128.67 163.531 1115.1 172.356C1092.01 187.359 1068.14 202.872 1037.62 215.418C1019.69 222.784 1000.89 228.48 980.152 232.831C936.768 241.933 893.412 245.301 856.724 247.397C831.91 248.814 806.131 249.434 780.097 249.237C758.538 249.055 737.162 248.296 716.565 246.982C655.495 243.096 597.437 233.453 544.006 218.322C521.774 212.028 499.033 204.298 474.476 194.692C449.671 185.012 426.556 175.698 404.199 166.689C389.007 160.566 374.655 154.783 360.64 149.235C307.661 128.262 259.134 109.821 201.729 96.5665C168.103 88.8032 132.029 82.8301 94.5068 78.8142C67.614 75.9355 38.8674 74.534 4.04306 74.4004C-3.46979 74.3761 -11.1223 74.4153 -18.6988 74.5178C-30.2078 74.6837 -42.1143 75.0304 -54.7156 75.3986C-78.8987 76.1042 -106.313 76.9041 -135.843 76.4562C-147.088 76.2849 -158.56 76.0434 -169.657 75.8087C-198.197 75.2057 -227.708 74.5825 -255.511 75.1396C-275.929 75.5497 -295.239 76.8339 -312.899 78.9572C-375.766 86.5181 -423.121 101.501 -439.579 119.036L-440.141 118.932C-435.832 114.34 -429.448 109.891 -421.167 105.708C-413.215 101.691 -403.468 97.8966 -392.205 94.4311C-370.501 87.7537 -343.135 82.3134 -313.062 78.6968C-295.36 76.5682 -276.008 75.2799 -255.545 74.8699C-227.711 74.3114 -198.188 74.936 -169.632 75.5389C-158.539 75.7737 -147.067 76.0151 -135.825 76.1864C-106.322 76.6343 -78.929 75.8357 -54.7581 75.1302C-42.1507 74.7619 -30.2411 74.4153 -18.72 74.2493C-11.1344 74.1468 -3.47586 74.1077 4.04608 74.132C38.9189 74.2642 67.7081 75.6698 94.6464 78.5525C132.214 82.5738 168.337 88.5537 202.005 96.3277C227.936 102.314 254.213 109.9 282.337 119.515C307.516 128.123 332.008 137.541 361.04 149.034C375.055 154.584 389.407 160.367 404.603 166.49C426.956 175.497 450.072 184.811 474.871 194.49C499.403 204.086 522.12 211.808 544.325 218.095C597.683 233.206 655.658 242.835 716.644 246.716C737.217 248.029 758.566 248.787 780.1 248.969C806.104 249.166 831.856 248.547 856.64 247.13C893.281 245.038 936.58 241.674 979.888 232.589C1000.57 228.249 1019.32 222.569 1037.2 215.221C1067.67 202.697 1091.52 187.196 1114.59 172.205C1128.18 163.375 1141.01 155.034 1154.74 147.564C1157.24 146.205 1159.73 144.842 1162.22 143.476C1176.65 135.576 1191.58 127.406 1208.12 120.056C1225.43 112.325 1243.19 106.377 1260.9 102.379C1281.89 97.6429 1302.46 95.7517 1322.07 96.758C1334 97.3705 1345.92 98.8273 1358.51 101.212C1387.79 106.704 1415.24 116.706 1441.78 126.378C1445.79 127.841 1449.94 129.353 1453.99 130.808C1482.06 140.904 1509.36 152.396 1535.12 164.961C1563.24 178.641 1590.77 194.227 1616.96 211.286C1640.1 226.363 1662.81 242.99 1684.44 260.704L1683.92 260.83Z" fill="#F3F3F3"/>
<path d="M1682.09 251.026C1639.45 212.213 1590.01 179.449 1535.16 153.645C1508.72 141.169 1480.4 130.059 1451 120.621C1449.6 120.172 1448.21 119.723 1446.8 119.272C1416.23 109.447 1384.62 99.2862 1351.79 94.7119C1339.07 92.9394 1327.17 92.0208 1315.4 91.9021C1270.02 91.4461 1231.32 106.263 1206.85 118.772C1192.45 126.09 1179.67 134.111 1167.31 141.867C1164.25 143.786 1161.09 145.769 1157.97 147.7C1146.09 155.058 1135.04 163.422 1123.34 172.28C1102.07 188.39 1080.08 205.049 1049.71 218.274C1032.14 225.925 1013.19 231.663 991.787 235.818C949.614 244.002 906.792 246.151 866.8 247.255C842.14 247.935 816.37 247.819 790.206 246.911C768.717 246.142 747.477 244.827 727.072 243.003C668.08 237.742 610.792 226.877 556.81 210.71C535.191 204.236 513.083 196.539 487.24 186.487C438.125 167.434 401.653 154.015 368.986 142.976C304.013 121.022 254.424 108.106 203.178 99.7881C168.87 94.2196 132.832 90.3926 96.0592 88.4123C70.5471 87.0391 43.4723 87.1618 8.27478 88.8143C1.06232 89.1569 -6.31699 89.5603 -13.6599 90.0149C-20.5963 90.4506 -27.6418 90.9497 -35.1031 91.4771C-62.6512 93.4264 -93.8769 95.636 -129.615 95.2232C-148.451 95.006 -167.692 94.4111 -186.298 93.8365C-207.444 93.1836 -229.308 92.5077 -250.039 92.416C-270.823 92.3243 -290.252 93.0635 -307.769 94.6148C-370.426 100.16 -420.097 112.443 -440.636 127.469L-441.219 127.311C-435.885 123.407 -428.614 119.658 -419.612 116.168C-410.922 112.799 -400.575 109.654 -388.856 106.82C-366.093 101.314 -338.099 96.989 -307.902 94.3167C-290.337 92.7627 -270.866 92.0208 -250.033 92.1125C-229.284 92.2042 -207.407 92.88 -186.252 93.5343C-167.652 94.1089 -148.421 94.7038 -129.599 94.921C-93.9255 95.3324 -62.7332 93.1256 -35.2154 91.179C-27.7511 90.6502 -20.6995 90.1525 -13.7601 89.7154C-6.40805 89.2608 0.977356 88.8575 8.19589 88.5135C43.448 86.8596 70.5683 86.7355 96.1351 88.1128C132.959 90.0958 169.049 93.9282 203.406 99.5048C254.721 107.833 304.362 120.763 369.392 142.736C402.071 153.779 438.555 167.202 487.683 186.26C513.508 196.305 535.591 203.994 557.186 210.461C611.096 226.605 668.298 237.455 727.202 242.707C747.58 244.528 768.796 245.841 790.254 246.61C816.389 247.516 842.125 247.632 866.754 246.954C906.685 245.852 949.435 243.708 991.511 235.543C1012.84 231.404 1031.72 225.685 1049.23 218.061C1079.53 204.864 1101.5 188.223 1122.75 172.13C1134.45 163.267 1145.51 154.896 1157.41 147.528C1160.53 145.597 1163.69 143.614 1166.75 141.696C1179.12 133.933 1191.91 125.907 1206.33 118.576C1222.3 110.412 1239.05 103.955 1256.1 99.382C1276.07 94.0253 1296.03 91.4097 1315.42 91.6026C1327.25 91.7213 1339.21 92.6453 1351.99 94.426C1384.93 99.0165 1416.59 109.19 1447.2 119.031C1448.6 119.481 1450 119.932 1451.4 120.38C1480.83 129.828 1509.18 140.951 1535.66 153.441C1590.55 179.269 1640.03 212.058 1682.7 250.898L1682.09 251.026Z" fill="#F3F3F3"/>
<path d="M881.901 247.114C880.199 247.114 878.521 247.113 876.87 247.109C852.338 247.063 826.577 246.213 800.309 244.581C778.9 243.225 757.793 241.354 737.576 239.022C708.69 235.695 679.7 230.915 651.406 224.813C624.082 218.921 596.564 211.615 569.614 203.096C543.207 194.75 518.541 185.451 500.002 178.281C456.624 161.551 415.352 147.568 377.332 136.718C315.755 119.147 260.88 108.435 204.634 103.008C170.702 99.7338 134.297 98.0072 99.2447 98.0072C98.7015 98.0072 98.1614 98.0072 97.6183 98.0085C67.5063 98.0544 38.9174 100.542 12.5132 103.224C5.64056 103.926 -1.46875 104.694 -8.61749 105.507C-12.5347 105.958 -16.458 106.422 -20.6089 106.913C-49.8866 110.381 -83.0724 114.311 -123.389 113.988C-147.942 113.791 -173.02 112.661 -197.273 111.567C-212.933 110.86 -229.124 110.13 -244.568 109.689C-265.799 109.083 -285.337 109.278 -302.644 110.269C-364.968 113.836 -416.954 123.419 -441.711 135.905L-442.281 135.682C-429.583 129.279 -410.482 123.734 -385.51 119.202C-361.661 114.875 -333.038 111.669 -302.741 109.936C-285.388 108.943 -265.799 108.746 -244.52 109.355C-229.06 109.796 -212.86 110.527 -197.194 111.234C-172.957 112.328 -147.893 113.458 -123.374 113.654C-83.1604 113.976 -50.0322 110.052 -20.8031 106.591C-16.6492 106.098 -12.7259 105.634 -8.8056 105.184C-1.65079 104.37 5.46454 103.601 12.3432 102.898C38.7929 100.213 67.4304 97.7212 97.6153 97.674C133.225 97.6187 170.283 99.3507 204.795 102.681C233.824 105.483 261.966 109.607 290.825 115.289C318.619 120.761 347.05 127.679 377.739 136.438C415.789 147.295 457.091 161.289 500.496 178.03C519.021 185.196 543.668 194.489 570.048 202.825C624.734 220.111 681.163 232.18 737.764 238.699C757.954 241.029 779.033 242.897 800.413 244.252C826.647 245.881 852.371 246.731 876.87 246.776C915.205 246.846 959.718 246.271 1003.13 238.494C1025.11 234.558 1044.12 228.802 1061.25 220.898C1091.34 207.018 1111.29 189.202 1130.58 171.972C1140.51 163.109 1149.88 154.738 1160.07 147.491C1163.34 145.169 1166.63 142.778 1169.82 140.464C1180.59 132.648 1191.71 124.568 1204.54 117.099C1219.19 108.506 1234.92 101.536 1251.28 96.383C1270.24 90.4085 1289.58 87.0658 1308.75 86.448C1320.58 86.0662 1332.58 86.456 1345.46 87.6404C1379.87 90.8051 1413.98 99.9996 1448.8 109.951C1479.16 118.627 1509.38 129.682 1536.18 141.921C1565.96 155.477 1593.94 171.38 1619.34 189.187C1641.97 205.052 1662.69 222.516 1680.95 241.094L1680.25 241.229C1641.06 201.332 1592.41 167.999 1535.64 142.157C1508.87 129.936 1478.7 118.897 1448.39 110.235C1413.63 100.302 1379.58 91.1248 1345.3 87.9709C1332.5 86.7933 1320.56 86.4061 1308.8 86.7852C1273.58 87.9224 1236.77 98.7599 1205.14 117.304C1192.34 124.76 1181.22 132.833 1170.47 140.641C1167.28 142.956 1163.98 145.349 1160.72 147.67C1150.54 154.903 1141.18 163.268 1131.26 172.123C1121.8 180.577 1112.01 189.319 1100.77 197.723C1088.04 207.251 1075.29 214.908 1061.8 221.133C1044.59 229.072 1025.49 234.853 1003.42 238.809C983.946 242.297 963.019 244.602 939.44 245.86C919.471 246.919 899.415 247.114 881.901 247.114Z" fill="#F3F3F3"/>
<path d="M930.557 247.789C915.086 247.789 900.224 247.379 886.928 246.964C862.481 246.2 836.732 244.615 810.401 242.252C789.082 240.311 768.109 237.885 748.064 235.04C693.177 227.266 638.989 214.326 582.402 195.482C557.725 187.266 534.461 178.425 512.754 170.074C469.898 153.637 427.145 140.31 385.676 130.46C324.687 115.973 267.624 108.272 206.096 106.224C171.038 105.057 134.068 105.534 99.18 107.6C69.9782 109.33 42.4483 113.503 16.748 117.628C10.3185 118.666 3.47922 119.799 -3.57547 120.995C-5.33838 121.296 -7.11646 121.602 -8.91882 121.911C-38.5181 127 -72.0104 132.757 -114.994 132.757C-115.719 132.757 -116.441 132.756 -117.172 132.752C-146.253 132.621 -175.943 130.775 -204.659 128.989C-216.044 128.281 -227.817 127.55 -239.114 126.958C-261.179 125.803 -280.289 125.462 -297.538 125.918C-360.278 127.577 -413.235 134.289 -442.825 144.338L-443.332 144.042C-428.704 139.075 -407.552 134.763 -382.17 131.571C-357.204 128.432 -327.957 126.349 -297.59 125.547C-280.292 125.089 -261.133 125.431 -239.02 126.588C-227.711 127.18 -215.935 127.913 -204.547 128.62C-175.858 130.403 -146.195 132.247 -117.169 132.378C-73.2908 132.578 -39.2524 126.724 -9.22528 121.562C-7.42596 121.253 -5.64484 120.947 -3.88193 120.645C3.1788 119.447 10.0211 118.314 16.4568 117.276C42.1995 113.143 69.781 108.964 99.0617 107.229C134.004 105.16 171.035 104.682 206.15 105.851C236.641 106.865 265.713 109.261 295.024 113.173C325.212 117.202 354.99 122.748 386.061 130.129C427.582 139.993 470.389 153.337 513.291 169.79C534.989 178.137 558.238 186.973 582.894 195.181C639.404 213.999 693.511 226.921 748.31 234.683C768.324 237.522 789.27 239.945 810.558 241.883C836.853 244.244 862.566 245.828 886.976 246.589C928.054 247.87 971.754 248.528 1014.74 241.437C1037.36 237.704 1056.51 231.912 1073.26 223.728C1103.11 209.15 1121.69 189.265 1138.09 171.72C1146.33 162.893 1154.13 154.555 1162.72 147.447C1165.82 144.883 1168.94 142.232 1171.96 139.669C1181.41 131.649 1191.17 123.357 1202.73 115.613C1216.1 106.591 1230.81 99.1085 1246.45 93.3728C1264.41 86.7858 1283.12 82.7174 1302.06 81.2834C1313.9 80.3864 1325.95 80.2434 1338.9 80.8423C1375.08 82.5191 1411.84 90.8043 1446.18 99.5092C1477.89 107.546 1509.18 118.225 1536.7 130.389C1567.3 143.882 1595.51 159.944 1620.51 178.126C1642.88 194.387 1662.62 212.268 1679.19 231.278L1678.41 231.412C1643.19 191.005 1593.98 156.163 1536.11 130.651C1508.65 118.509 1477.41 107.851 1445.77 99.8302C1411.52 91.1456 1374.85 82.8806 1338.82 81.2106C1325.94 80.6143 1313.97 80.7573 1302.21 81.6476C1267.24 84.2956 1232.16 96.4295 1203.43 115.815C1191.89 123.544 1182.14 131.827 1172.71 139.839C1169.69 142.403 1166.57 145.054 1163.46 147.621C1154.88 154.713 1147.1 163.042 1138.86 171.86C1122.44 189.432 1103.83 209.349 1073.88 223.976C1057.03 232.205 1037.78 238.03 1015.03 241.784C995.294 245.04 973.999 246.926 949.928 247.545C943.42 247.72 936.939 247.789 930.557 247.789Z" fill="#F3F3F3"/>
<path d="M961.098 249.249C960.876 249.249 960.658 249.249 960.436 249.249C938.571 249.225 917.104 248.035 896.986 246.819C872.576 245.343 846.842 243.021 820.496 239.921C799.274 237.398 778.435 234.415 758.56 231.059C705.867 222.173 653.96 208.45 595.201 187.869C574.04 180.459 553.216 172.48 533.074 164.766C530.556 163.8 528.035 162.835 525.513 161.871C482.436 145.438 438.199 132.764 394.035 124.204C333.559 112.483 272.567 107.653 207.573 109.441C171.936 110.422 135 113.102 100.758 117.192C73.7408 120.42 49.6669 125.599 20.9991 132.033C15.1885 133.343 8.9834 134.757 1.47662 136.483L1.05786 136.581C-13.4247 139.934 -29.8401 143.734 -48.252 146.624C-69.3978 149.942 -89.9125 151.539 -110.949 151.52C-143.753 151.484 -177.23 148.77 -209.602 146.143C-217.534 145.5 -225.739 144.835 -233.658 144.233C-256.369 142.511 -275.595 141.64 -292.432 141.574C-354.428 141.332 -409.658 145.416 -443.957 152.779L-444.352 152.415C-427.551 148.807 -404.888 145.88 -378.814 143.949C-352.692 142.013 -322.817 141.052 -292.423 141.171C-275.537 141.237 -256.263 142.109 -233.503 143.835C-225.578 144.437 -217.373 145.102 -209.438 145.745C-177.105 148.368 -143.671 151.079 -110.946 151.116C-110.8 151.116 -110.652 151.116 -110.506 151.116C-63.6965 151.116 -28.0347 142.86 0.63916 136.222L1.06088 136.125C8.57071 134.397 14.7758 132.983 20.5895 131.673C49.3058 125.228 73.4222 120.04 100.524 116.802C134.824 112.704 171.82 110.02 207.519 109.038C239.324 108.163 269.324 108.83 299.239 111.077C331.475 113.499 362.603 117.671 394.399 123.834C438.648 132.411 482.961 145.105 526.108 161.565C528.629 162.529 531.151 163.495 533.669 164.461C553.802 172.173 574.62 180.149 595.762 187.554C654.445 208.109 706.277 221.813 758.882 230.684C778.729 234.036 799.538 237.013 820.729 239.534C847.039 242.63 872.737 244.948 897.108 246.421C940.762 249.062 983.5 250.894 1026.37 244.397C1049.64 240.871 1068.91 235.042 1085.29 226.576C1114.87 211.283 1131.03 190.092 1145.3 171.394C1151.97 162.641 1158.28 154.372 1165.39 147.423C1168.13 144.75 1170.87 141.984 1173.53 139.309C1181.83 130.946 1190.41 122.299 1200.94 114.146C1213.05 104.691 1226.75 96.6946 1241.63 90.3787C1258.6 83.1807 1276.69 78.3892 1295.39 76.1391C1306.98 74.7443 1318.81 74.0645 1331.52 74.0645C1331.8 74.0645 1332.08 74.0645 1332.36 74.0658C1371.88 74.1575 1412.55 82.1407 1443.58 89.0851C1476.62 96.4841 1509.01 106.785 1537.23 118.874C1568.67 132.304 1597.09 148.524 1621.71 167.084C1643.79 183.74 1662.55 202.041 1677.44 221.483L1676.58 221.613C1654.42 192.686 1612.13 151.433 1536.6 119.167C1508.44 107.104 1476.13 96.8281 1443.17 89.4466C1412.24 82.5211 1371.69 74.5609 1332.35 74.4705C1319.4 74.4368 1307.39 75.1139 1295.63 76.5303C1260.98 80.7 1227.64 94.1302 1201.73 114.347C1191.23 122.481 1182.65 131.119 1174.36 139.473C1171.7 142.149 1168.95 144.916 1166.22 147.591C1159.12 154.522 1152.82 162.78 1146.16 171.524C1131.87 190.256 1115.68 211.487 1085.98 226.839C1069.5 235.362 1050.09 241.23 1026.67 244.779C1006.81 247.786 985.356 249.249 961.098 249.249Z" fill="#F3F3F3"/>
<path d="M985.379 251.149C980.67 251.149 975.858 251.082 970.93 250.947C949.362 250.358 928.402 248.589 907.04 246.673C882.278 244.453 857.269 241.483 830.586 237.592C809.473 234.487 788.771 230.95 769.051 227.077C719.025 217.268 669.354 202.827 607.998 180.256C592.76 174.651 577.528 168.773 562.796 163.087C554.777 159.992 546.487 156.791 538.273 153.666C494.683 137.122 448.969 125.106 402.399 117.948C340.867 108.49 277.627 106.758 209.058 112.653C172.832 115.768 135.929 120.653 102.343 126.778C75.3624 131.699 51.8589 138.61 26.9749 145.927L25.2544 146.433C21.3675 147.579 17.4382 148.742 13.4603 149.918C11.1694 150.597 8.86334 151.279 6.53604 151.967C-7.97382 156.28 -23.6458 160.779 -41.6178 164.241C-62.4845 168.261 -83.1236 170.239 -104.721 170.287C-140.678 170.366 -177.353 166.651 -212.817 163.054C-217.878 162.54 -223.116 162.01 -228.198 161.507C-252.026 159.146 -270.811 157.788 -287.324 157.23C-348.258 155.17 -405.763 156.621 -445.1 161.213L-445.352 160.789C-405.912 156.185 -348.288 154.729 -287.248 156.793C-270.69 157.352 -251.856 158.715 -227.983 161.079C-222.897 161.584 -217.66 162.114 -212.596 162.628C-177.565 166.18 -141.354 169.85 -105.875 169.85C-105.492 169.85 -105.11 169.85 -104.725 169.849C-58.8342 169.747 -26.1673 161.159 5.99289 151.603C8.32019 150.915 10.6263 150.233 12.9171 149.554C16.8951 148.376 20.8214 147.215 24.7113 146.067L26.4318 145.561C51.3583 138.232 74.9012 131.309 101.97 126.372C135.617 120.234 172.583 115.342 208.873 112.222C277.615 106.312 341.025 108.049 402.724 117.532C449.409 124.709 495.229 136.752 538.917 153.332C547.13 156.459 555.423 159.659 563.443 162.755C578.168 168.439 593.397 174.317 608.626 179.918C669.909 202.463 719.51 216.883 769.448 226.677C789.141 230.543 809.813 234.076 830.895 237.175C857.539 241.061 882.511 244.027 907.238 246.243C944.771 249.609 991.484 253.799 1038 247.345C1061.92 244.028 1081.32 238.163 1097.31 229.414C1126.61 213.388 1140.2 190.848 1152.18 170.963C1157.39 162.325 1162.31 154.165 1168.05 147.393C1170.29 144.754 1172.53 142.025 1174.7 139.386C1181.97 130.532 1189.49 121.378 1199.14 112.672C1210.03 102.778 1222.7 94.267 1236.81 87.3765C1252.8 79.5688 1270.25 74.0556 1288.7 70.9894C1300.54 69.0213 1312.68 67.8086 1325.8 67.2811C1343.37 66.5743 1362.08 67.3297 1382.99 69.5851C1400.68 71.4953 1419.64 74.4603 1440.97 78.6515C1475.36 85.4111 1508.82 95.3354 1537.75 107.351C1570.03 120.717 1598.67 137.098 1622.89 156.034C1644.7 173.087 1662.46 191.807 1675.69 211.679L1674.75 211.803C1646.81 169.85 1597.92 132.869 1537.08 107.672C1508.23 95.6888 1474.86 85.7929 1440.56 79.0535C1394.62 70.0236 1358.18 66.4205 1325.89 67.7182C1312.85 68.2416 1300.8 69.4462 1289.05 71.3995C1245.16 78.6933 1216.41 97.9753 1200.02 112.865C1190.39 121.55 1182.88 130.693 1175.62 139.535C1173.45 142.177 1171.21 144.907 1168.97 147.547C1163.25 154.298 1158.34 162.449 1153.14 171.077C1141.13 191.005 1127.51 213.592 1098.08 229.69C1081.96 238.508 1062.4 244.421 1038.29 247.765C1021.95 250.031 1004.53 251.149 985.379 251.149Z" fill="#F3F3F3"/>
<path d="M1006.42 253.328C974.332 253.328 943.483 249.663 917.091 246.528C892.261 243.579 867.265 239.894 840.673 235.263C819.679 231.58 799.109 227.488 779.538 223.097C720.871 209.95 668.569 191.079 620.791 172.644C611.036 168.881 601.181 165.001 591.653 161.25C578.424 156.04 564.742 150.654 551.034 145.463C506.791 128.756 459.599 117.394 410.771 111.692C347.607 104.317 282.112 105.681 210.546 115.863C173.698 121.105 136.832 128.194 103.931 136.363C78.5554 142.663 57.085 150.616 34.3553 159.036C32.7441 159.632 31.1299 160.231 29.5065 160.83L28.6266 161.157C23.1012 163.206 17.3876 165.324 11.5952 167.45C-2.28354 172.566 -17.5671 177.858 -35.2448 181.901C-55.7655 186.594 -76.4532 188.934 -98.4972 189.056C-137.19 189.27 -176.627 184.434 -214.761 179.758C-217.434 179.43 -220.095 179.103 -222.744 178.781C-247.892 175.713 -266.238 173.895 -282.222 172.883C-341.627 169.125 -401.414 167.943 -446.255 169.642L-446.346 169.171C-401.432 167.469 -341.557 168.652 -282.073 172.415C-266.043 173.43 -247.659 175.252 -222.465 178.325C-219.816 178.647 -217.155 178.974 -214.479 179.303C-176.417 183.97 -137.057 188.794 -98.5123 188.584C-50.6407 188.319 -16.9269 177.348 10.9155 167.085C16.7079 164.959 22.4214 162.842 27.9469 160.794L28.8268 160.467C30.4501 159.867 32.0644 159.27 33.6756 158.673C56.4447 150.238 77.9516 142.271 103.412 135.95C136.373 127.766 173.31 120.665 210.221 115.414C244.151 110.587 276.02 107.8 307.646 106.894C342.925 105.883 377.71 107.344 411.038 111.236C460.021 116.955 507.352 128.35 551.719 145.103C565.437 150.296 579.122 155.684 592.354 160.895C601.882 164.647 611.731 168.525 621.483 172.287C669.212 190.702 721.45 209.552 780.012 222.675C799.555 227.059 820.094 231.146 841.058 234.823C867.611 239.448 892.568 243.127 917.361 246.072C955.429 250.594 1002.81 256.222 1049.62 250.3C1074.18 247.192 1093.71 241.29 1109.32 232.258C1138.32 215.478 1149.17 191.551 1158.74 170.44C1162.59 161.958 1166.22 153.947 1170.7 147.368C1172.36 144.934 1174.02 142.42 1175.63 139.988C1181.92 130.475 1188.43 120.637 1197.33 111.204C1207.01 100.861 1218.67 91.8339 1231.97 84.3755C1246.98 75.9594 1263.81 69.7245 1282 65.8435C1293.82 63.3237 1305.99 61.5768 1319.23 60.5017C1337.06 59.0542 1356.84 59.1028 1378.03 60.646C1396.58 61.9977 1416.87 64.5458 1438.34 68.2217C1474.07 74.342 1508.62 83.8885 1538.26 95.8295C1571.38 109.134 1600.25 125.672 1624.07 144.987C1645.59 162.436 1662.36 181.577 1673.93 201.879L1672.91 201.995C1648.39 158.977 1600.32 121.398 1537.55 96.1802C1508.01 84.2784 1473.57 74.7628 1437.96 68.6628C1391.8 60.7566 1353.02 58.2381 1319.42 60.967C1306.28 62.0341 1294.19 63.7688 1282.46 66.2698C1239.18 75.5034 1212.81 95.8996 1198.31 111.386C1189.43 120.795 1182.93 130.619 1176.65 140.12C1175.04 142.552 1173.37 145.068 1171.72 147.504C1167.25 154.061 1163.62 162.062 1159.78 170.533C1155.18 180.69 1149.96 192.2 1142.38 202.992C1133.7 215.356 1123.16 225.023 1110.17 232.545C1102.65 236.894 1094.02 240.595 1084.5 243.547C1074.26 246.721 1062.62 249.146 1049.91 250.754C1035.36 252.596 1020.77 253.328 1006.42 253.328Z" fill="#F3F3F3"/>
<path d="M1025.38 255.716C1014.78 255.716 1003.66 255.257 991.922 254.341C968.801 252.538 946.669 249.265 927.141 246.38C902.527 242.741 876.826 238.216 850.759 232.929C829.898 228.675 809.463 224.026 790.025 219.11C734.234 205.018 686.168 186.28 633.584 165.028C628.911 163.14 624.166 161.213 619.578 159.349C601.509 152.012 582.827 144.425 563.793 137.257C518.816 120.355 470.149 109.648 419.143 105.434C354.805 100.118 285.12 104.704 212.033 119.068C174.53 126.438 137.697 135.73 105.518 145.94C81.2896 153.628 61.3454 162.692 40.2299 172.288C38.0847 173.263 35.9303 174.241 33.7639 175.223C28.3719 177.671 22.5644 180.297 16.6566 182.926C4.2677 188.458 -10.8308 194.762 -28.8695 199.555C-49.0626 204.921 -69.8018 207.625 -92.2675 207.821C-133.394 208.181 -175.258 202.127 -215.744 196.273L-217.286 196.05C-237.108 193.185 -258.078 190.29 -277.115 188.532C-335.143 183.176 -395.619 179.457 -447.398 178.06L-447.329 177.556C-395.494 178.953 -334.964 182.675 -276.885 188.037C-257.793 189.8 -236.787 192.699 -216.934 195.568L-215.392 195.791C-174.994 201.632 -133.215 207.671 -92.2888 207.314C-45.024 206.901 -12.3813 195.176 15.8525 182.566C21.7603 179.938 27.5618 177.312 32.9537 174.866C35.1202 173.885 37.2745 172.906 39.4197 171.932C60.5716 162.319 80.5523 153.24 104.86 145.526C137.099 135.296 174.002 125.987 211.575 118.602C245.865 111.864 279.609 107.221 311.864 104.804C348.718 102.043 384.883 102.086 419.356 104.933C470.556 109.164 519.402 119.908 564.53 136.869C583.579 144.044 602.271 151.633 620.349 158.974C624.937 160.837 629.682 162.763 634.355 164.652C686.887 185.883 734.902 204.601 790.593 218.669C810.003 223.577 830.408 228.219 851.238 232.468C877.269 237.746 902.927 242.265 927.505 245.898C966.031 251.593 1013.98 258.679 1061.26 253.25C1086.48 250.354 1106.13 244.417 1121.35 235.098C1150.03 217.542 1158.33 191.079 1165 169.816C1167.59 161.533 1170.05 153.71 1173.37 147.343C1174.42 145.336 1175.48 143.268 1176.5 141.268C1181.81 130.875 1187.31 120.128 1195.54 109.736C1208.27 93.563 1232.43 71.9285 1275.32 60.7011C1287.17 57.6012 1299.39 55.3188 1312.68 53.7243C1347.45 49.4926 1388.85 50.8618 1435.73 57.7914C1472.8 63.2722 1508.44 72.4411 1538.79 84.3078C1572.75 97.5492 1601.84 114.247 1625.26 133.94C1636.01 142.973 1645.5 152.62 1653.49 162.615C1661.12 172.161 1667.41 182.075 1672.19 192.08L1671.08 192.185C1650 148.099 1602.75 109.922 1538.04 84.6869C1507.8 72.8647 1472.3 63.7309 1435.37 58.2703C1388.71 51.3717 1347.53 50.0066 1312.97 54.2113C1299.78 55.7936 1287.65 58.0585 1275.9 61.1355C1233.3 72.2846 1209.28 93.8086 1196.62 109.902C1188.4 120.267 1182.91 130.999 1177.61 141.378C1176.58 143.379 1175.53 145.448 1174.48 147.457C1171.17 153.802 1168.71 161.614 1166.12 169.884C1162.77 180.584 1158.96 192.711 1152.47 204.157C1145 217.31 1135.12 227.528 1122.27 235.395C1114.94 239.883 1106.37 243.668 1096.79 246.644C1086.47 249.85 1074.61 252.238 1061.54 253.738C1050.07 255.057 1038.09 255.716 1025.38 255.716Z" fill="#F3F3F3"/>
<path d="M1042.86 258.239C1030.15 258.239 1016.74 257.507 1002.42 256.038C979.21 253.66 956.884 249.712 937.186 246.229C912.387 241.845 886.702 236.586 860.844 230.595C840.119 225.773 819.82 220.568 800.51 215.125C747.374 200.159 701.799 180.868 653.548 160.448C651.16 159.438 648.772 158.426 646.378 157.414C623.94 147.928 600.74 138.119 576.554 129.054C530.794 111.937 480.653 101.884 427.523 99.1756C360.787 95.7722 288.787 103.544 213.519 122.271C175.869 131.638 138.078 143.446 107.104 155.518C83.7157 164.632 64.9578 174.889 45.0985 185.748C42.7469 187.033 40.3893 188.323 38.0135 189.615C33.2679 192.201 27.6212 195.267 21.7104 198.404C10.7628 204.227 -4.15372 211.627 -22.4989 217.195C-42.3703 223.226 -63.1551 226.3 -86.0426 226.59C-104.855 226.799 -125.616 225.508 -149.513 222.642C-170.031 220.181 -189.878 216.965 -211.84 213.323C-231.888 209.957 -253.046 206.481 -272.028 204.185C-328.256 197.384 -387.649 191.428 -448.553 186.48L-448.334 185.95C-387.394 190.899 -327.968 196.86 -271.709 203.664C-252.676 205.967 -231.487 209.449 -211.416 212.817C-174.604 218.924 -128.789 226.527 -86.0759 226.05C-37.2424 225.43 -5.85895 212.229 20.7789 198.056C26.6866 194.922 32.3303 191.857 37.0729 189.272C39.4487 187.98 41.8063 186.691 44.1549 185.406C64.0475 174.53 82.8388 164.256 106.303 155.111C137.34 143.015 175.205 131.185 212.927 121.8C288.423 103.016 360.672 95.2245 427.662 98.6401C453.347 99.9499 478.577 102.992 502.645 107.681C528.47 112.711 553.6 119.765 577.337 128.642C601.55 137.717 624.765 147.532 647.216 157.024C649.61 158.037 652.001 159.048 654.389 160.058C702.594 180.461 748.13 199.732 801.162 214.671C820.445 220.106 840.714 225.303 861.408 230.118C887.229 236.099 912.875 241.352 937.638 245.729C976.555 252.609 1024.99 261.171 1072.88 256.205C1098.83 253.515 1118.61 247.542 1133.37 237.946C1161.79 219.616 1166.85 191.616 1170.92 169.118C1172.38 161.071 1173.75 153.471 1176.03 147.325C1176.5 146.057 1176.97 144.783 1177.44 143.501C1181.69 131.926 1186.09 119.955 1193.74 108.273C1204.66 91.4704 1226.51 68.6865 1268.63 55.5638C1280.38 51.9028 1292.64 49.0862 1306.11 46.9521C1324.83 43.9588 1345.7 42.5518 1368.12 42.7676C1388.6 42.9646 1410.46 44.5118 1433.1 47.3649C1471.51 52.2036 1508.24 60.9947 1539.31 72.7873C1574.1 85.9639 1603.42 102.823 1626.44 122.894C1637.01 132.104 1646.15 141.95 1653.63 152.159C1660.79 161.936 1666.45 172.072 1670.44 182.285L1669.24 182.377C1651.87 137.873 1604.22 98.0789 1538.52 73.1974C1507.58 61.4561 1471.01 52.7014 1432.77 47.8815C1385.61 41.938 1341.95 41.7923 1306.51 47.458C1293.14 49.5758 1280.98 52.3709 1269.32 56.0036C1227.5 69.0359 1205.77 91.7024 1194.9 108.421C1187.28 120.072 1182.88 132.025 1178.63 143.586C1178.16 144.867 1177.69 146.144 1177.22 147.412C1174.95 153.535 1173.58 161.125 1172.13 169.16C1168.05 191.722 1162.97 219.803 1134.36 238.25C1127.25 242.876 1118.75 246.747 1109.09 249.754C1098.7 252.989 1086.61 255.336 1073.16 256.731C1063.45 257.735 1053.4 258.239 1042.86 258.239Z" fill="#F3F3F3"/>
<path d="M1059.28 260.866C1044.8 260.866 1029.45 259.824 1012.91 257.733C989.511 254.775 967.046 250.155 947.229 246.08C922.184 240.929 896.511 234.933 870.923 228.261C850.348 222.879 830.185 217.118 810.99 211.14C763.725 196.426 723.33 178.4 680.562 159.315C673.571 156.195 666.34 152.969 659.167 149.798C633.953 138.655 612.422 129.468 589.309 120.849C542.733 103.506 491.12 94.1075 435.9 92.915C366.512 91.4163 292.188 102.37 214.996 125.471C176.649 136.948 138.89 151.017 108.678 165.09C85.9182 175.691 68.1252 187.231 49.2885 199.449C46.9551 200.962 44.6126 202.481 42.255 204.002C38.0556 206.714 32.4968 210.289 26.759 213.873C2.6123 228.992 -28.935 244.558 -79.8227 245.354C-81.4096 245.377 -83.0026 245.388 -84.5926 245.388C-124.329 245.388 -164.898 238.396 -206.4 230.59L-208.992 230.099C-229.549 226.197 -248.968 222.513 -266.943 219.832C-334.683 209.725 -400.196 201.194 -449.703 194.892L-449.348 194.34C-399.829 200.645 -334.298 209.178 -266.533 219.288C-248.51 221.976 -229.069 225.666 -208.485 229.571L-205.897 230.062C-162.874 238.155 -120.858 245.373 -79.8682 244.782C-29.5449 243.994 1.73846 228.549 25.7061 213.543C31.4409 209.961 36.9936 206.389 41.193 203.678C43.5507 202.156 45.8901 200.639 48.2234 199.125C67.0905 186.889 84.9108 175.33 107.744 164.694C138.017 150.592 175.851 136.494 214.274 124.995C249.936 114.322 285.609 106.127 320.303 100.635C360.11 94.3341 399.024 91.5445 435.961 92.3417C491.466 93.5396 543.34 102.984 590.135 120.408C613.28 129.04 634.833 138.237 660.072 149.389C667.248 152.56 674.478 155.787 681.472 158.907C724.198 177.974 764.554 195.982 811.728 210.667C830.895 216.637 851.027 222.389 871.572 227.763C897.124 234.427 922.757 240.414 947.766 245.556C987.023 253.63 1035.88 263.677 1084.51 259.154C1111.09 256.681 1131 250.673 1145.38 240.786C1173.44 221.622 1175.13 192.046 1176.48 168.281C1176.93 160.527 1177.34 153.203 1178.68 147.301L1178.71 147.166C1181.71 133.95 1184.82 120.285 1191.93 106.803C1198.1 95.0423 1206.68 84.4692 1217.44 75.3745C1229.58 65.1211 1244.54 56.7252 1261.93 50.4188C1273.55 46.1993 1285.85 42.8471 1299.53 40.1721C1336.48 32.9026 1381.75 31.7803 1430.47 36.9293C1450.07 39.0013 1469.41 42.1403 1487.95 46.2573C1506.59 50.3986 1524.05 55.4477 1539.82 61.2617C1575.46 74.375 1605 91.3934 1627.62 111.845C1647.96 130.227 1662.16 151.197 1668.68 172.485L1667.4 172.561C1653.44 126.999 1606.64 86.5925 1539 61.7029C1507.37 50.0452 1469.73 41.6708 1430.17 37.4904C1381.74 32.3711 1336.74 33.4813 1300.05 40.7009C1286.48 43.3557 1274.28 46.6809 1262.74 50.8667C1230.3 62.6417 1206.25 82.0303 1193.19 106.936C1186.1 120.384 1183 134.03 1180 147.227L1179.97 147.362C1178.63 153.242 1178.22 160.556 1177.77 168.299C1176.41 192.136 1174.72 221.801 1146.46 241.101C1139.53 245.868 1131.08 249.823 1121.37 252.855C1110.89 256.125 1098.58 258.433 1084.77 259.719C1076.55 260.482 1068.07 260.866 1059.28 260.866Z" fill="#F3F3F3"/>
<path d="M-78.8801 264.167C-96.6488 264.167 -115.998 262.628 -137.836 259.485C-159.534 256.362 -180.992 252.051 -200.952 247.859C-204.566 247.095 -208.152 246.333 -211.714 245.576C-229.447 241.809 -246.196 238.25 -261.85 235.478C-324.267 224.429 -383.763 214.498 -441.302 204.896L-450.836 203.304L-450.357 202.736L-440.823 204.328C-383.281 213.932 -323.776 223.863 -261.346 234.915C-245.65 237.694 -228.879 241.257 -211.126 245.03C-207.566 245.787 -203.98 246.549 -200.369 247.311C-159.397 255.917 -115.868 264.258 -73.649 263.515C-21.7509 262.554 9.3504 244.581 30.6449 229.031C36.1005 225.054 41.3558 221.091 45.3247 218.083C47.5154 216.425 49.691 214.769 51.8605 213.116C69.8537 199.418 86.8486 186.478 109.199 174.278C138.701 158.177 176.499 141.809 215.635 128.191C251.943 115.557 288.582 105.575 324.538 98.5223C365.78 90.4326 406.063 86.2346 444.267 86.0444C501.755 85.664 555.149 94.4565 602.944 112.175C629.44 122.009 653.195 132.647 672.942 141.756C683.686 146.714 694.431 151.795 704.823 156.71C741.607 174.107 779.645 192.095 822.304 206.665C841.359 213.176 861.361 219.483 881.748 225.412C906.978 232.733 932.599 239.453 957.905 245.386C997.46 254.659 1046.69 266.199 1096.14 262.104C1123.36 259.849 1143.4 253.806 1157.39 243.628C1185.08 223.595 1183.22 192.399 1181.71 167.333C1181.27 159.92 1180.85 152.918 1181.35 147.28C1182.49 134.572 1184.2 119.802 1190.14 105.336C1195.15 93.0779 1202.7 81.9881 1212.6 72.3754C1223.8 61.5015 1238.14 52.3852 1255.24 45.2789C1266.56 40.5697 1279.26 36.5727 1292.96 33.3973C1312.52 28.8513 1334.47 25.9929 1358.2 24.9029C1380.42 23.8818 1403.85 24.4186 1427.84 26.4974C1448.07 28.251 1468.01 31.1351 1487.1 35.0714C1506.32 39.0319 1524.23 43.9664 1540.34 49.7372C1558.92 56.3822 1576 64.2291 1591.11 73.0607C1605.42 81.4283 1618.11 90.7604 1628.82 100.797C1648.85 119.573 1662.03 140.975 1666.93 162.687L1665.57 162.747C1655.04 116.123 1609.08 75.1057 1539.49 50.2107C1507.61 38.7958 1467.87 30.5861 1427.58 27.0936C1377.76 22.7756 1331.43 25.1417 1293.6 33.9355C1280 37.0854 1267.41 41.0513 1256.17 45.7227C1223.96 59.1125 1202.19 79.2052 1191.48 105.445C1185.56 119.872 1183.85 134.616 1182.71 147.305C1182.21 152.922 1182.63 159.913 1183.08 167.316C1183.82 179.682 1184.66 193.699 1181.84 207.25C1178.57 222.973 1170.96 234.976 1158.56 243.945C1151.81 248.853 1143.43 252.893 1133.65 255.952C1123.09 259.257 1110.56 261.528 1096.39 262.7C1089.25 263.292 1082.11 263.56 1075.01 263.56C1032.51 263.56 991.325 253.905 957.271 245.921C931.929 239.979 906.268 233.249 881.005 225.918C860.587 219.981 840.558 213.664 821.475 207.144C778.729 192.545 740.652 174.537 703.831 157.124C693.441 152.211 682.7 147.131 671.962 142.176C652.242 133.077 628.52 122.454 602.074 112.639C554.536 95.015 501.454 86.2737 444.289 86.6487C354.514 87.0966 270.853 109.744 216.479 128.666C177.422 142.257 139.7 158.59 110.261 174.659C87.9774 186.822 71.0067 199.741 53.0408 213.418C50.8713 215.071 48.6927 216.727 46.502 218.387C42.5301 221.396 37.2717 225.362 31.8131 229.343C22.8741 235.87 8.84061 245.372 -9.74731 252.495C-18.7743 255.954 -28.3808 258.672 -38.2998 260.575C-49.3597 262.697 -61.2358 263.89 -73.5913 264.118C-75.3421 264.151 -77.105 264.167 -78.8801 264.167Z" fill="#F3F3F3"/>
<path d="M-73.1758 282.949C-90.9657 282.949 -110.276 281.292 -131.998 277.908C-154.488 274.406 -176.723 269.483 -195.505 265.127C-201.277 263.786 -207.036 262.426 -212.607 261.111C-228.178 257.435 -242.889 253.962 -256.758 251.126C-306.566 240.941 -356.049 230.998 -403.905 221.382C-419.735 218.201 -436.102 214.912 -451.965 211.718L-451.37 211.134C-435.507 214.328 -419.14 217.617 -403.31 220.798C-355.454 230.414 -305.965 240.359 -256.154 250.545C-242.248 253.388 -227.52 256.865 -211.93 260.546C-206.362 261.861 -200.603 263.22 -194.838 264.56C-155.884 273.59 -110.701 283.149 -67.435 282.249C-14.3141 281.119 15.5219 261.493 35.5845 244.522C40.7276 240.174 45.7008 235.809 49.4572 232.492C51.387 230.789 53.3047 229.088 55.2193 227.391C72.4296 212.128 88.6842 197.712 110.658 183.867C139.238 165.861 177.006 147.225 216.997 131.393C272.691 109.438 358.771 82.659 452.572 79.7546C512.226 77.858 567.131 85.9976 615.755 103.95C637.602 112.019 659.206 121.327 685.81 134.132C699.255 140.603 712.597 147.31 725.498 153.795C759.067 170.666 793.773 188.112 832.881 202.674C851.827 209.731 871.693 216.593 891.925 223.071C916.424 230.907 942.036 238.361 968.046 245.227C1008 255.71 1057.72 268.758 1107.77 265.065C1135.21 263.082 1155.95 256.83 1169.41 246.483C1196.72 225.543 1190.86 191.285 1186.58 166.271C1185.38 159.251 1184.24 152.621 1184.02 147.273C1183.52 135.386 1183.56 119.712 1188.35 103.882C1196.61 76.451 1216.86 55.008 1248.55 40.152C1259.65 34.918 1272.39 30.3707 1286.4 26.6354C1306.33 21.3151 1328.82 17.7364 1353.24 16.0002C1376.25 14.3653 1400.46 14.3909 1425.21 16.0771C1446.1 17.5313 1466.63 20.1672 1486.25 23.9092C1506.06 27.689 1524.44 32.5047 1540.86 38.223C1559.86 44.8302 1577.21 52.704 1592.43 61.6274C1606.86 70.084 1619.5 79.5483 1630 89.7599C1649.73 108.931 1661.89 130.765 1665.18 152.902L1663.75 152.944C1656.66 105.255 1611.54 63.6252 1539.98 38.7288C1507.53 27.434 1466.69 19.6141 1425 16.7111C1373.59 13.2106 1325.93 16.8326 1287.15 27.1858C1273.25 30.89 1260.62 35.4009 1249.6 40.5931C1218.12 55.3507 1198 76.6723 1189.78 103.968C1185.01 119.755 1184.97 135.398 1185.46 147.262C1185.69 152.592 1186.82 159.214 1188.02 166.224C1190.23 179.154 1192.74 193.81 1191.3 208.119C1189.63 224.78 1182.88 237.434 1170.66 246.805C1164.08 251.86 1155.77 255.988 1145.94 259.074C1135.29 262.421 1122.53 264.649 1108.01 265.699C1085.5 267.359 1061.26 265.868 1033.93 261.137C1010.17 257.024 987.401 251.051 967.317 245.782C941.268 238.906 915.623 231.441 891.088 223.594C870.825 217.107 850.932 210.235 831.959 203.169C792.768 188.578 758.023 171.113 724.421 154.224C711.526 147.741 698.187 141.038 684.754 134.572C658.195 121.789 636.631 112.499 614.836 104.449C566.5 86.5993 511.944 78.5082 452.669 80.3927C359.271 83.2862 273.477 109.983 217.95 131.872C178.037 147.672 140.349 166.269 111.83 184.237C89.9161 198.042 73.6859 212.438 56.5028 227.679C54.5881 229.377 52.6705 231.078 50.7407 232.78C46.9812 236.1 42.005 240.469 36.8559 244.821C16.6173 261.943 -13.519 281.745 -67.3712 282.89C-69.2859 282.929 -71.2248 282.949 -73.1758 282.949Z" fill="#F3F3F3"/>
<path d="M-67.3563 301.732C-115.965 301.732 -166.968 288.459 -212.182 276.692C-226.076 273.077 -239.199 269.661 -251.67 266.773L-453.094 220.13L-452.393 219.533L-250.969 266.176C-238.465 269.071 -225.326 272.49 -211.414 276.111C-164.453 288.332 -111.223 302.185 -61.221 300.984C-6.92883 299.683 21.6722 278.404 40.5241 260.014C46.6898 253.999 52.643 247.879 58.402 241.959C74.1529 225.772 90.4378 209.033 112.112 193.453C129.322 181.084 150.701 168.111 173.938 155.939C199.429 142.586 226.722 130.334 255.053 119.527C286.291 107.611 318.054 97.7544 349.455 90.2313C384.188 81.9109 418.406 76.4787 451.164 74.0843C516.786 69.2887 576.47 76.5664 628.553 95.7175C671.837 111.631 708.625 131.31 744.201 150.341C775.169 166.906 807.19 184.034 843.449 198.675C885.331 215.586 930.66 231.192 978.18 245.058C1018.22 256.741 1068.05 271.283 1119.4 268.014C1162.77 265.254 1187.85 252.353 1196.06 228.571C1203.05 208.342 1196.4 184.345 1191.06 165.065C1189.24 158.494 1187.53 152.287 1186.68 147.254C1182.03 119.509 1185 96.6051 1195.75 77.2355C1202.46 65.1502 1212.37 54.3774 1225.19 45.2166C1239.51 34.9834 1257.89 26.4526 1279.83 19.8616C1298.81 14.1596 1320.2 10.0183 1343.41 7.55239C1365.5 5.2052 1388.76 4.41876 1412.54 5.21464C1459.31 6.77943 1505.07 14.4091 1541.37 26.6968C1560.78 33.2649 1578.4 41.167 1593.74 50.1821C1608.28 58.7264 1620.88 68.3242 1631.18 78.7112C1650.59 98.2778 1661.74 120.545 1663.42 143.104L1661.9 143.127C1658.32 95.0876 1612.92 51.7631 1540.45 27.235C1463.49 1.18666 1354.23 -1.67987 1280.67 20.4214C1207.8 42.315 1177.55 83.786 1188.19 147.204C1189.03 152.221 1190.75 158.42 1192.57 164.982C1197.92 184.305 1204.58 208.353 1197.56 228.673C1193.73 239.742 1186.05 248.637 1174.72 255.113C1168.35 258.754 1160.67 261.73 1151.89 263.955C1142.55 266.324 1131.69 267.915 1119.61 268.683C1114.68 268.998 1109.65 269.156 1104.55 269.156C1085.94 269.156 1066.12 267.063 1044.4 262.825C1019.93 258.05 996.316 251.159 977.342 245.623C929.759 231.737 884.366 216.111 842.424 199.176C806.082 184.503 774.028 167.355 743.027 150.772C707.496 131.766 670.754 112.111 627.579 96.2382C575.845 77.2179 516.571 69.9875 451.401 74.7507C319.574 84.3849 183.778 143.221 113.392 193.81C91.7759 209.346 75.5123 226.062 59.7826 242.228C54.0205 248.15 48.0643 254.274 41.8926 260.294C29.3762 272.504 17.0146 281.246 2.99023 287.805C-5.76364 291.898 -15.2609 295.124 -25.2376 297.395C-36.3309 299.919 -48.4133 301.354 -61.1512 301.66C-63.2084 301.707 -65.2808 301.732 -67.3563 301.732Z" fill="#F3F3F3"/>
</g>
</svg>
