<svg width="182" height="42" viewBox="0 0 182 42" fill="none" xmlns="http://www.w3.org/2000/svg">
<g clip-path="url(#clip0_41_1644)">
<path d="M18.1901 1.02724L18.5988 1.83913C18.6378 1.92717 18.647 2.02538 18.6249 2.11902C18.6028 2.21265 18.5506 2.29664 18.4762 2.35835C16.6747 3.85563 6.21005 13.3015 10.4561 27.5501C10.4581 27.5569 10.4579 27.5641 10.4557 27.5708C10.4534 27.5775 10.4491 27.5833 10.4434 27.5875C10.4377 27.5917 10.4308 27.5941 10.4237 27.5944C10.4166 27.5946 10.4096 27.5927 10.4036 27.5889C9.54285 27.0193 1.91812 21.8263 0.410194 15.4974C0.25423 14.8401 0.807193 13.6215 0.994016 13.2395C1.01109 13.2043 1.03801 13.1746 1.07157 13.1541C1.10512 13.1336 1.14392 13.1231 1.18334 13.1237L3.59203 13.1609C3.6454 13.1609 3.66792 13.1568 3.70629 13.0741C3.8022 12.8658 4.91897 10.7798 5.28428 10.1441C5.31798 10.0857 5.33508 10.0193 5.33376 9.95204C5.33244 9.88478 5.31274 9.81913 5.27677 9.76209C5.03741 9.38095 4.52614 8.41528 4.29845 7.98122C4.25852 7.91199 4.23751 7.83361 4.23751 7.75386C4.23751 7.6741 4.25852 7.59573 4.29845 7.5265C4.63207 7.04449 6.5078 5.21567 7.0933 4.65016C7.19588 4.55012 7.44025 4.47157 7.56703 4.53937C8.0124 4.77748 9.09747 5.34465 9.61874 5.61417C9.78555 5.69685 9.96654 5.58606 10.0866 5.49843C10.4753 5.21484 12.3177 4.03587 12.9082 3.75063C12.9545 3.72786 12.9933 3.69239 13.0199 3.64843C13.0465 3.60446 13.0598 3.55385 13.0583 3.5026L13.0007 1.625C12.9966 1.47918 13.0402 1.33595 13.125 1.21673C13.2098 1.09751 13.3312 1.0087 13.4711 0.963583C14.0116 0.791614 16.1801 0.269094 17.1968 0.0251967C17.4895 -0.0450789 17.6446 0.0251967 17.8265 0.317874L18.1901 1.02724Z" fill="#016498"/>
<path d="M18.4769 2.38672C18.4769 2.38672 14.1874 5.56814 11.5544 10.9587C9.41928 15.3265 8.55856 21.1999 10.4593 27.5768C10.4616 27.5836 10.4616 27.5909 10.4594 27.5978C10.4572 27.6046 10.4528 27.6105 10.447 27.6148C10.4412 27.619 10.4341 27.6213 10.4269 27.6213C10.4197 27.6213 10.4126 27.619 10.4068 27.6148C9.54522 27.046 4.97639 19.3752 9.1624 6.3916C9.1624 6.3916 11.7037 4.5479 13.7079 3.66325C15.858 2.71743 18.4769 2.38672 18.4769 2.38672Z" fill="url(#paint0_linear_41_1644)"/>
<path d="M23.6761 40.9606L23.2791 40.1421C23.2416 40.0536 23.234 39.9555 23.2575 39.8623C23.2809 39.7692 23.3342 39.6861 23.4092 39.6254C25.2341 38.1546 35.8363 28.865 31.8087 14.5552C31.8065 14.5484 31.8065 14.5411 31.8087 14.5343C31.8109 14.5274 31.8152 14.5215 31.8211 14.5173C31.8269 14.513 31.8339 14.5108 31.8411 14.5107C31.8484 14.5107 31.8554 14.513 31.8613 14.5172C32.7137 15.0959 40.2616 20.4055 41.672 26.7534C41.8188 27.4148 41.2475 28.6236 41.0556 29.0022C41.0382 29.0373 41.0109 29.0667 40.977 29.0868C40.9431 29.1069 40.9041 29.1168 40.8647 29.1155L38.4576 29.0419C38.4034 29.0419 38.3809 29.0419 38.3417 29.1246C38.2425 29.3321 37.0907 31.4007 36.7195 32.0315C36.6849 32.0893 36.6667 32.1553 36.6667 32.2225C36.6667 32.2897 36.6849 32.3557 36.7195 32.4135C36.9539 32.7979 37.4501 33.771 37.6711 34.2084C37.7094 34.2786 37.7286 34.3574 37.7267 34.4372C37.7248 34.517 37.7019 34.5948 37.6603 34.6631C37.3267 35.141 35.4168 36.9409 34.8246 37.4981C34.7203 37.5965 34.4751 37.6709 34.35 37.6015C33.908 37.3534 32.8313 36.7747 32.3142 36.4936C32.1524 36.406 31.9664 36.5159 31.8446 36.6019C31.4518 36.8797 29.5927 38.0314 28.9972 38.3084C28.95 38.3304 28.9104 38.3656 28.8831 38.4097C28.8559 38.4537 28.8422 38.5047 28.8437 38.5564L28.8729 40.4356C28.8752 40.5817 28.8295 40.7246 28.7429 40.8428C28.6563 40.961 28.5334 41.0482 28.3925 41.0913C27.8487 41.2566 25.6769 41.7477 24.6552 41.9768C24.3617 42.0421 24.2074 41.9718 24.0305 41.6742L23.6761 40.9606Z" fill="#016498"/>
<path d="M23.4102 39.5971C23.4102 39.5971 27.7471 36.4793 30.4636 31.1285C32.6646 26.7921 33.6137 20.9327 31.8089 14.5269C31.8066 14.5201 31.8066 14.5128 31.8088 14.5059C31.811 14.4991 31.8153 14.4932 31.8212 14.4889C31.827 14.4847 31.8341 14.4824 31.8413 14.4824C31.8485 14.4824 31.8556 14.4847 31.8614 14.4889C32.7146 15.0676 37.1675 22.8087 32.7863 35.7286C32.7863 35.7286 30.2184 37.5343 28.1992 38.3875C26.034 39.3044 23.4102 39.5971 23.4102 39.5971Z" fill="url(#paint1_linear_41_1644)"/>
<path d="M41.2584 18.1143L40.436 18.5195C40.347 18.5573 40.2481 18.5656 40.1539 18.5433C40.0597 18.521 39.9752 18.4691 39.9131 18.3954C38.4119 16.6005 28.9414 6.17575 14.5452 10.3063C14.5384 10.3086 14.531 10.3087 14.5242 10.3066C14.5173 10.3045 14.5113 10.3004 14.5069 10.2947C14.5026 10.289 14.5002 10.2821 14.5 10.275C14.4998 10.2679 14.5019 10.2609 14.506 10.255C15.0856 9.40429 20.3659 1.8724 26.7579 0.416457C27.4251 0.265158 28.6487 0.819922 29.0332 1.00595C29.0685 1.02325 29.098 1.05018 29.1184 1.08357C29.1388 1.11696 29.1492 1.15543 29.1483 1.19445L29.0974 3.58134C29.0974 3.63508 29.1016 3.6574 29.1808 3.69543C29.391 3.79134 31.4886 4.90996 32.1283 5.27539C32.1869 5.30918 32.2538 5.32655 32.3216 5.32568C32.3895 5.32481 32.4558 5.30571 32.5136 5.27043C32.8989 5.0348 33.8764 4.53378 34.3151 4.30973C34.3858 4.27143 34.4653 4.25198 34.5459 4.25329C34.6264 4.25459 34.7052 4.2766 34.7746 4.31717C35.2592 4.64788 37.0932 6.51969 37.6604 7.10256C37.7605 7.20591 37.8389 7.44815 37.7696 7.57299C37.5269 8.01366 36.949 9.08599 36.6712 9.60106C36.5878 9.76642 36.6971 9.94583 36.7847 10.0657C37.0691 10.4518 38.2484 12.2848 38.5361 12.8718C38.5588 12.9181 38.5944 12.9569 38.6388 12.9836C38.6832 13.0103 38.7344 13.0237 38.7863 13.0222L40.6813 12.9751C40.8288 12.9712 40.9736 13.0149 41.0939 13.0996C41.2142 13.1843 41.3036 13.3054 41.3485 13.4447C41.5211 13.9821 42.0366 16.1301 42.2768 17.1412C42.346 17.4322 42.2768 17.5852 41.9773 17.7638L41.2584 18.1143Z" fill="#666666"/>
<path d="M39.8861 18.3913C39.8861 18.3913 36.6976 14.1219 31.2764 11.4804C26.8819 9.33984 20.9619 8.45437 14.5174 10.303C14.5105 10.305 14.5033 10.3048 14.4965 10.3026C14.4898 10.3003 14.4839 10.2961 14.4796 10.2904C14.4754 10.2848 14.4729 10.278 14.4727 10.2709C14.4724 10.2638 14.4743 10.2569 14.4782 10.2509C15.062 9.40102 22.8185 4.9133 35.8945 9.13397C35.8945 9.13397 37.741 11.6631 38.6209 13.6548C39.5667 15.7911 39.8861 18.3913 39.8861 18.3913Z" fill="url(#paint2_linear_41_1644)"/>
<path d="M1.02979 23.8936L1.84547 23.4802C1.93397 23.4409 2.03291 23.4312 2.12748 23.4523C2.22205 23.4735 2.30716 23.5244 2.37008 23.5976C3.89552 25.3718 13.5086 35.6684 27.8473 31.3428C27.854 31.3407 27.8613 31.3408 27.868 31.343C27.8748 31.3451 27.8807 31.3492 27.885 31.3548C27.8894 31.3603 27.8919 31.367 27.8923 31.374C27.8927 31.3811 27.891 31.388 27.8873 31.394C27.3193 32.2522 22.1425 39.8552 15.7713 41.398C15.1099 41.5584 13.8756 41.0201 13.4886 40.8391C13.453 40.8223 13.423 40.7958 13.4022 40.7627C13.3813 40.7296 13.3705 40.6912 13.371 40.6522L13.3893 38.2645C13.3893 38.2116 13.3843 38.1893 13.3001 38.1521C13.0891 38.0586 10.9765 36.9681 10.3317 36.6118C10.2725 36.5789 10.2054 36.5626 10.1376 36.5645C10.0698 36.5664 10.0037 36.5864 9.94642 36.6225C9.56444 36.8623 8.59446 37.3774 8.15826 37.6064C8.08826 37.646 8.00907 37.6668 7.92848 37.6668C7.8479 37.6668 7.7687 37.646 7.69871 37.6064C7.20996 37.2839 5.35007 35.4361 4.77459 34.8599C4.67367 34.759 4.59194 34.5176 4.65949 34.3911C4.89553 33.9479 5.45933 32.8673 5.72956 32.3481C5.81296 32.1828 5.69953 32.0042 5.61029 31.886C5.32005 31.5032 4.11571 29.6867 3.82296 29.103C3.79989 29.0574 3.764 29.0193 3.71962 28.9933C3.67524 28.9673 3.62424 28.9546 3.57275 28.9567L1.67866 29.0286C1.53145 29.0342 1.38638 28.9924 1.26519 28.9093C1.14399 28.8263 1.05321 28.7066 1.00643 28.5681C0.826282 28.0382 0.281659 25.8976 0.0272795 24.8898C-0.0461153 24.5996 0.0214413 24.4458 0.317523 24.2631L1.02979 23.8936Z" fill="#666666"/>
<path d="M2.39844 23.6016C2.39844 23.6016 5.64282 27.828 11.1016 30.396C15.5219 32.477 21.4569 33.2822 27.8756 31.3468C27.8824 31.3447 27.8896 31.3448 27.8964 31.3469C27.9031 31.3491 27.9091 31.3532 27.9134 31.3588C27.9177 31.3643 27.9203 31.371 27.9207 31.378C27.9211 31.385 27.9193 31.392 27.9157 31.398C27.3477 32.2562 19.6471 36.8481 6.51605 32.8035C6.51605 32.8035 4.63531 30.3001 3.72872 28.3199C2.75207 26.1943 2.39844 23.6016 2.39844 23.6016Z" fill="url(#paint3_linear_41_1644)"/>
<path d="M72.3515 12.3075V26.9413H68.9528V17.894C68.9534 17.3716 68.9946 16.85 69.0762 16.3338C68.8352 16.882 68.5238 17.3969 68.1496 17.8659L62.1554 25.182H61.414L55.4206 17.8369C54.8643 17.1565 54.6483 16.7621 54.4623 16.3338L54.5549 17.894V26.9405H51.5273V12.3066H54.5549L62.0612 21.1531L69.414 12.3066L72.3515 12.3075Z" fill="#016498"/>
<path d="M96.4808 12.3075V14.8027H83.8752V18.0643H91.2281V20.5595H83.8752V24.275H96.6359V26.9405H80.168V12.3066L96.4808 12.3075Z" fill="#666666"/>
<path d="M106.861 14.973V24.275H116.87V21.0985L120.577 21.8071V23.4796C120.577 24.1038 120.577 25.4639 119.712 26.2303C118.939 26.9107 117.642 26.9397 116.626 26.9397H107.109C106.089 26.9397 104.791 26.9107 104.023 26.2303C103.158 25.4647 103.158 24.1038 103.158 23.4796V15.7659C103.158 15.1425 103.158 13.7816 104.023 13.0152C104.795 12.3348 106.093 12.3066 107.109 12.3066H116.624C117.645 12.3066 118.941 12.3348 119.71 13.0152C120.575 13.7808 120.575 15.1425 120.575 15.7659V17.2127L116.868 17.7509V14.973H106.861Z" fill="#666666"/>
<path d="M131.949 24.275H143.906V26.9405H128.242V12.3066H131.949V24.275Z" fill="#666666"/>
<path d="M153.051 26.9405H149.344V12.3066H153.051V26.9405Z" fill="#666666"/>
<path d="M182 12.3075V26.9413H178.602V17.894C178.602 17.3716 178.644 16.85 178.725 16.3338C178.484 16.8818 178.172 17.3967 177.799 17.8659L171.804 25.182H171.06L165.067 17.8369C164.511 17.1565 164.294 16.7621 164.109 16.3338L164.201 17.894V26.9405H161.174V12.3066H164.201L171.708 21.1531L179.06 12.3066L182 12.3075Z" fill="#666666"/>
</g>
<defs>
<linearGradient id="paint0_linear_41_1644" x1="10.8663" y1="2.90593" x2="16.8972" y2="27.1982" gradientUnits="userSpaceOnUse">
<stop stop-color="#016498"/>
<stop offset="0.27" stop-color="#066B9E"/>
<stop offset="0.64" stop-color="#167DAF"/>
<stop offset="0.75" stop-color="#1B84B5"/>
<stop offset="1" stop-color="#104B77"/>
</linearGradient>
<linearGradient id="paint1_linear_41_1644" x1="31.0098" y1="39.1874" x2="25.3417" y2="14.8094" gradientUnits="userSpaceOnUse">
<stop stop-color="#016498"/>
<stop offset="0.27" stop-color="#066B9E"/>
<stop offset="0.64" stop-color="#167DAF"/>
<stop offset="0.75" stop-color="#1B84B5"/>
<stop offset="1" stop-color="#104B77"/>
</linearGradient>
<linearGradient id="paint2_linear_41_1644" x1="39.4145" y1="10.8371" x2="14.9247" y2="16.8822" gradientUnits="userSpaceOnUse">
<stop stop-color="#666666"/>
<stop offset="0.19" stop-color="#6D6D6D"/>
<stop offset="0.46" stop-color="#7F7F7F"/>
<stop offset="0.75" stop-color="#9B9B9B"/>
<stop offset="0.81" stop-color="#939393"/>
<stop offset="0.9" stop-color="#7E7E7E"/>
<stop offset="0.98" stop-color="#666666"/>
</linearGradient>
<linearGradient id="paint3_linear_41_1644" x1="2.98746" y1="31.1486" x2="27.3898" y2="24.7685" gradientUnits="userSpaceOnUse">
<stop stop-color="#666666"/>
<stop offset="0.19" stop-color="#6D6D6D"/>
<stop offset="0.46" stop-color="#7F7F7F"/>
<stop offset="0.75" stop-color="#9B9B9B"/>
<stop offset="0.81" stop-color="#939393"/>
<stop offset="0.9" stop-color="#7E7E7E"/>
<stop offset="0.98" stop-color="#666666"/>
</linearGradient>
<clipPath id="clip0_41_1644">
<rect width="182" height="42" fill="white"/>
</clipPath>
</defs>
</svg>
