<svg width="182" height="42" viewBox="0 0 182 42" fill="none" xmlns="http://www.w3.org/2000/svg">
<g clip-path="url(#clip0_513_470)">
<path d="M18.1906 1.02773L18.5993 1.83962C18.6383 1.92765 18.6475 2.02587 18.6253 2.11951C18.6032 2.21314 18.5511 2.29713 18.4767 2.35883C16.6751 3.85612 6.21054 13.302 10.4566 27.5506C10.4586 27.5574 10.4584 27.5646 10.4561 27.5713C10.4539 27.5779 10.4496 27.5838 10.4439 27.588C10.4382 27.5922 10.4313 27.5946 10.4242 27.5949C10.4171 27.5951 10.4101 27.5932 10.4041 27.5894C9.54334 27.0198 1.91861 21.8268 0.410682 15.4979C0.254718 14.8406 0.807681 13.6219 0.994505 13.24C1.01158 13.2047 1.03849 13.1751 1.07205 13.1546C1.10561 13.1341 1.14441 13.1235 1.18383 13.1242L3.59252 13.1614C3.64589 13.1614 3.66841 13.1573 3.70678 13.0746C3.80269 12.8663 4.91946 10.7803 5.28477 10.1445C5.31847 10.0862 5.33557 10.0198 5.33425 9.95253C5.33293 9.88527 5.31323 9.81962 5.27726 9.76258C5.03789 9.38143 4.52663 8.41576 4.29894 7.98171C4.259 7.91247 4.238 7.8341 4.238 7.75435C4.238 7.67459 4.259 7.59622 4.29894 7.52698C4.63255 7.04498 6.50829 5.21616 7.09378 4.65065C7.19637 4.55061 7.44074 4.47206 7.56751 4.53986C8.01289 4.77797 9.09796 5.34513 9.61923 5.61466C9.78604 5.69734 9.96702 5.58655 10.0871 5.49891C10.4758 5.21533 12.3182 4.03635 12.9087 3.75112C12.955 3.72835 12.9938 3.69288 13.0204 3.64892C13.047 3.60495 13.0603 3.55434 13.0588 3.50309L13.0012 1.62549C12.9971 1.47967 13.0407 1.33644 13.1254 1.21722C13.2102 1.098 13.3317 1.00919 13.4716 0.964071C14.0121 0.792102 16.1806 0.269583 17.1972 0.0256849C17.49 -0.0445907 17.6451 0.0256849 17.8269 0.318362L18.1906 1.02773Z" fill="#016498"/>
<path d="M18.4774 2.38696C18.4774 2.38696 14.1879 5.56838 11.5549 10.9589C9.41977 15.3268 8.55905 21.2002 10.4598 27.577C10.4621 27.5838 10.4621 27.5912 10.4599 27.598C10.4577 27.6048 10.4533 27.6108 10.4475 27.615C10.4417 27.6192 10.4346 27.6215 10.4274 27.6215C10.4202 27.6215 10.4131 27.6193 10.4073 27.6151C9.54571 27.0463 4.97688 19.3755 9.16289 6.39184C9.16289 6.39184 11.7042 4.54814 13.7084 3.6635C15.8585 2.71767 18.4774 2.38696 18.4774 2.38696Z" fill="url(#paint0_linear_513_470)"/>
<path d="M23.6766 40.9609L23.2796 40.1424C23.2421 40.0539 23.2345 39.9557 23.258 39.8626C23.2814 39.7695 23.3346 39.6863 23.4097 39.6257C25.2345 38.1548 35.8368 28.8652 31.8092 14.5555C31.807 14.5487 31.8069 14.5413 31.8092 14.5345C31.8114 14.5277 31.8157 14.5217 31.8215 14.5175C31.8274 14.5133 31.8344 14.511 31.8416 14.511C31.8489 14.511 31.8559 14.5132 31.8618 14.5174C32.7141 15.0962 40.2621 20.4057 41.6725 26.7536C41.8193 27.4151 41.248 28.6238 41.0561 29.0025C41.0387 29.0376 41.0114 29.0669 40.9775 29.087C40.9436 29.1071 40.9046 29.1171 40.8651 29.1157L38.4581 29.0422C38.4039 29.0422 38.3814 29.0422 38.3422 29.1248C38.2429 29.3323 37.0911 31.4009 36.72 32.0318C36.6854 32.0896 36.6672 32.1555 36.6672 32.2227C36.6672 32.2899 36.6854 32.3559 36.72 32.4137C36.9544 32.7982 37.4506 33.7713 37.6716 34.2087C37.7099 34.2788 37.7291 34.3577 37.7272 34.4374C37.7253 34.5172 37.7024 34.5951 37.6608 34.6634C37.3272 35.1412 35.4172 36.9411 34.8251 37.4984C34.7208 37.5968 34.4756 37.6712 34.3505 37.6017C33.9085 37.3537 32.8317 36.7749 32.3146 36.4938C32.1528 36.4062 31.9669 36.5162 31.8451 36.6022C31.4523 36.8799 29.5932 38.0316 28.9977 38.3086C28.9505 38.3306 28.9109 38.3659 28.8836 38.4099C28.8564 38.454 28.8427 38.505 28.8442 38.5566L28.8734 40.4359C28.8756 40.582 28.83 40.7248 28.7434 40.843C28.6568 40.9613 28.5339 41.0484 28.393 41.0915C27.8492 41.2569 25.6774 41.748 24.6557 41.977C24.3621 42.0423 24.2078 41.972 24.031 41.6744L23.6766 40.9609Z" fill="#016498"/>
<path d="M23.4106 39.5973C23.4106 39.5973 27.7476 36.4796 30.4641 31.1287C32.6651 26.7923 33.6142 20.933 31.8093 14.5271C31.8071 14.5203 31.8071 14.513 31.8093 14.5062C31.8115 14.4994 31.8158 14.4934 31.8217 14.4892C31.8275 14.485 31.8345 14.4827 31.8418 14.4827C31.849 14.4827 31.856 14.4849 31.8619 14.4891C32.7151 15.0678 37.168 22.8089 32.7868 35.7289C32.7868 35.7289 30.2188 37.5345 28.1997 38.3878C26.0345 39.3047 23.4106 39.5973 23.4106 39.5973Z" fill="url(#paint1_linear_513_470)"/>
<path d="M41.2599 18.1146L40.4375 18.5197C40.3485 18.5575 40.2495 18.5659 40.1553 18.5435C40.0611 18.5212 39.9767 18.4693 39.9146 18.3957C38.4133 16.6008 28.9429 6.17599 14.5467 10.3065C14.5399 10.3088 14.5325 10.3089 14.5256 10.3069C14.5188 10.3048 14.5127 10.3006 14.5084 10.2949C14.5041 10.2893 14.5016 10.2824 14.5015 10.2753C14.5013 10.2681 14.5034 10.2612 14.5075 10.2553C15.0871 9.40454 20.3674 1.87265 26.7594 0.416702C27.4266 0.265402 28.6501 0.820166 29.0346 1.00619C29.0699 1.02349 29.0995 1.05042 29.1199 1.08381C29.1403 1.11721 29.1506 1.15567 29.1497 1.19469L29.0988 3.58158C29.0988 3.63532 29.103 3.65765 29.1823 3.69568C29.3924 3.79158 31.49 4.91021 32.1297 5.27564C32.1884 5.30942 32.2552 5.3268 32.3231 5.32592C32.3909 5.32505 32.4573 5.30596 32.515 5.27068C32.9004 5.03505 33.8779 4.53402 34.3166 4.30997C34.3873 4.27167 34.4668 4.25223 34.5473 4.25353C34.6279 4.25483 34.7067 4.27685 34.7761 4.31741C35.2607 4.64812 37.0947 6.51993 37.6619 7.1028C37.7619 7.20615 37.8403 7.44839 37.7711 7.57324C37.5284 8.01391 36.9504 9.08623 36.6727 9.60131C36.5893 9.76666 36.6985 9.94607 36.7861 10.066C37.0705 10.4521 38.2498 12.285 38.5376 12.872C38.5602 12.9183 38.5959 12.9572 38.6403 12.9839C38.6847 13.0106 38.7359 13.024 38.7878 13.0225L40.6827 12.9754C40.8302 12.9715 40.975 13.0151 41.0954 13.0998C41.2157 13.1845 41.305 13.3056 41.3499 13.445C41.5226 13.9824 42.038 16.1303 42.2782 17.1415C42.3474 17.4325 42.2782 17.5854 41.9788 17.764L41.2599 18.1146Z" fill="#666666"/>
<path d="M39.8861 18.3916C39.8861 18.3916 36.6976 14.1221 31.2764 11.4806C26.8819 9.34008 20.9619 8.45461 14.5174 10.3033C14.5105 10.3052 14.5033 10.3051 14.4965 10.3028C14.4898 10.3006 14.4839 10.2963 14.4796 10.2907C14.4754 10.285 14.4729 10.2782 14.4727 10.2711C14.4724 10.2641 14.4743 10.2571 14.4782 10.2512C15.062 9.40126 22.8185 4.91355 35.8945 9.13422C35.8945 9.13422 37.741 11.6633 38.6209 13.655C39.5667 15.7914 39.8861 18.3916 39.8861 18.3916Z" fill="url(#paint2_linear_513_470)"/>
<path d="M1.03027 23.8938L1.84596 23.4804C1.93446 23.4412 2.0334 23.4314 2.12797 23.4526C2.22254 23.4737 2.30765 23.5247 2.37056 23.5978C3.89601 25.3721 13.5091 35.6687 27.8477 31.343C27.8545 31.341 27.8618 31.3411 27.8685 31.3432C27.8753 31.3453 27.8812 31.3495 27.8855 31.355C27.8899 31.3606 27.8924 31.3673 27.8928 31.3743C27.8932 31.3813 27.8915 31.3883 27.8878 31.3943C27.3198 32.2525 22.143 39.8555 15.7718 41.3982C15.1104 41.5586 13.876 41.0204 13.489 40.8393C13.4535 40.8226 13.4235 40.7961 13.4027 40.7629C13.3818 40.7298 13.371 40.6915 13.3715 40.6525L13.3898 38.2647C13.3898 38.2118 13.3848 38.1895 13.3006 38.1523C13.0895 38.0589 10.9769 36.9684 10.3322 36.612C10.273 36.5792 10.2059 36.5629 10.1381 36.5648C10.0702 36.5666 10.0042 36.5867 9.94691 36.6228C9.56493 36.8625 8.59495 37.3776 8.15875 37.6066C8.08875 37.6462 8.00956 37.667 7.92897 37.667C7.84839 37.667 7.76919 37.6462 7.6992 37.6066C7.21045 37.2842 5.35056 35.4364 4.77508 34.8601C4.67416 34.7592 4.59243 34.5178 4.65998 34.3913C4.89601 33.9482 5.45982 32.8676 5.73005 32.3484C5.81345 32.183 5.70002 32.0044 5.61078 31.8862C5.32054 31.5034 4.11619 29.687 3.82345 29.1033C3.80037 29.0576 3.76449 29.0195 3.72011 28.9935C3.67573 28.9676 3.62473 28.9549 3.57324 28.9569L1.67915 29.0289C1.53194 29.0345 1.38687 28.9926 1.26568 28.9096C1.14448 28.8266 1.0537 28.7068 1.00692 28.5684C0.826771 28.0384 0.282148 25.8979 0.0277678 24.8901C-0.0456271 24.5999 0.0219295 24.4461 0.318011 24.2634L1.03027 23.8938Z" fill="#666666"/>
<path d="M2.39893 23.6018C2.39893 23.6018 5.64331 27.8283 11.1021 30.3962C15.5224 32.4772 21.4574 33.2825 27.8761 31.347C27.8829 31.345 27.8901 31.345 27.8969 31.3472C27.9036 31.3493 27.9096 31.3535 27.9139 31.359C27.9182 31.3646 27.9208 31.3713 27.9212 31.3783C27.9216 31.3853 27.9198 31.3923 27.9161 31.3983C27.3482 32.2565 19.6475 36.8483 6.51654 32.8038C6.51654 32.8038 4.6358 30.3003 3.72921 28.3202C2.75256 26.1946 2.39893 23.6018 2.39893 23.6018Z" fill="url(#paint3_linear_513_470)"/>
<path d="M72.3515 12.3082V26.9421H68.9528V17.8947C68.9534 17.3723 68.9946 16.8507 69.0762 16.3346C68.8352 16.8827 68.5238 17.3976 68.1496 17.8666L62.1554 25.1827H61.414L55.4206 17.8376C54.8643 17.1572 54.6483 16.7628 54.4623 16.3346L54.5549 17.8947V26.9412H51.5273V12.3074H54.5549L62.0612 21.1538L69.414 12.3074L72.3515 12.3082Z" fill="#016498"/>
<path d="M96.4813 12.3082V14.8034H83.8757V18.065H91.2286V20.5602H83.8757V24.2757H96.6364V26.9412H80.1685V12.3074L96.4813 12.3082Z" fill="#666666"/>
<path d="M106.861 14.9737V24.2757H116.87V21.0993L120.577 21.8078V23.4804C120.577 24.1046 120.577 25.4646 119.712 26.231C118.939 26.9115 117.642 26.9404 116.626 26.9404H107.109C106.089 26.9404 104.791 26.9115 104.023 26.231C103.158 25.4654 103.158 24.1046 103.158 23.4804V15.7666C103.158 15.1432 103.158 13.7823 104.023 13.0159C104.795 12.3355 106.093 12.3074 107.109 12.3074H116.624C117.645 12.3074 118.941 12.3355 119.71 13.0159C120.575 13.7815 120.575 15.1432 120.575 15.7666V17.2134L116.868 17.7517V14.9737H106.861Z" fill="#666666"/>
<path d="M131.949 24.2757H143.906V26.9412H128.242V12.3074H131.949V24.2757Z" fill="#666666"/>
<path d="M153.051 26.9412H149.344V12.3074H153.051V26.9412Z" fill="#666666"/>
<path d="M182 12.3082V26.9421H178.602V17.8947C178.602 17.3723 178.643 16.8507 178.725 16.3346C178.484 16.8825 178.172 17.3974 177.798 17.8666L171.804 25.1827H171.06L165.067 17.8376C164.511 17.1572 164.294 16.7628 164.109 16.3346L164.201 17.8947V26.9412H161.174V12.3074H164.201L171.707 21.1538L179.06 12.3074L182 12.3082Z" fill="#666666"/>
<path d="M53.51 29.9174H52V29H56V29.9174H54.4763V35H53.51V29.9174Z" fill="#6C6C6C"/>
<path d="M60.7048 32.3378H58.2058V34.0983H61V35H57V29H60.8532V29.9017H58.2089V31.4437H60.7079L60.7048 32.3378Z" fill="#6C6C6C"/>
<path d="M65.96 34.7356C65.5329 34.9263 65.0799 35.0154 64.6254 34.9978C62.9936 34.9978 62 33.8395 62 32.0678C62 30.1554 63.1817 29 64.754 29C65.3728 29 65.8095 29.1481 66 29.2563L65.7962 30.1036C65.4772 29.9479 65.1363 29.8704 64.7928 29.8755C63.7446 29.8755 62.99 30.6161 62.99 32.0145C62.99 33.2958 63.6512 34.1076 64.7807 34.1076C65.1299 34.1121 65.477 34.0408 65.8059 33.8972L65.96 34.7356Z" fill="#6C6C6C"/>
<path d="M67 34.9939V29H68.0533L69.3624 31.5725C69.6845 32.2161 69.9716 32.8874 70.2217 33.5817H70.2395C70.1775 32.7562 70.15 31.927 70.1574 31.0977V29.0061H71V35H70.0479L68.7316 32.3573C68.3988 31.6916 68.0968 31.0013 67.8271 30.2901H67.8033C67.8402 31.0687 67.8521 31.8595 67.8521 32.8443V34.9893H67V34.9939Z" fill="#6C6C6C"/>
<path d="M77 31.9445C77 33.8893 75.9197 35 74.4542 35C72.9486 35 72 33.7474 72 32.0421C72 30.2674 73.0326 29 74.5332 29C76.0853 29.0044 77 30.2837 77 31.9445ZM73.0263 32.0259C73.0263 33.209 73.5747 34.1526 74.5031 34.1526C75.4316 34.1526 75.9737 33.1987 75.9737 31.9845C75.9737 30.8886 75.4718 29.8533 74.5056 29.8533C73.5395 29.8533 73.0263 30.8324 73.0263 32.0259Z" fill="#6C6C6C"/>
<path d="M78 29H79.237V34.0826H82V35H78V29Z" fill="#6C6C6C"/>
<path d="M88 31.9445C88 33.8893 86.9197 35 85.4542 35C83.9486 35 83 33.7474 83 32.0421C83 30.2674 84.0326 29 85.5332 29C87.0841 29.0044 88 30.2837 88 31.9445ZM84.0263 32.0259C84.0263 33.209 84.5747 34.1526 85.5031 34.1526C86.4316 34.1526 86.9737 33.1987 86.9737 31.9845C86.9737 30.8886 86.4718 29.8533 85.5056 29.8533C84.5395 29.8533 84.0263 30.8324 84.0263 32.0259Z" fill="#6C6C6C"/>
<path d="M94 34.6735C93.3905 34.8842 92.7554 34.9943 92.1157 35C91.1287 35 90.375 34.7499 89.8215 34.2167C89.2997 33.7164 88.9932 32.9436 89.0001 32.057C89.0001 30.1923 90.3253 29.0016 92.2621 29.0016C92.7912 28.9864 93.3182 29.0804 93.815 29.2787L93.5748 30.1384C93.1515 29.9578 92.6987 29.8727 92.2441 29.8882C91.0017 29.8882 90.1183 30.6371 90.1183 31.997C90.1183 33.336 90.9382 34.1238 92.1502 34.1238C92.4237 34.1379 92.6973 34.0983 92.9578 34.007V32.5392H91.9266V31.696H93.9972V34.669L94 34.6735Z" fill="#6C6C6C"/>
<path d="M96 29V35H95V29H96Z" fill="#6C6C6C"/>
<path d="M98.5597 33.3036L98.0738 35H97L98.8268 29H100.15L102 35H100.883L100.366 33.3036H98.5597ZM100.196 32.4753L99.7477 30.9974C99.6389 30.6261 99.545 30.218 99.4577 29.8696H99.4389C99.3557 30.2211 99.2698 30.6337 99.1705 30.9944L98.7315 32.4768H100.197L100.196 32.4753Z" fill="#6C6C6C"/>
<path d="M112.708 32.3378H110.208V34.0983H113V35H109V29H112.856V29.9017H110.211V31.4437H112.711L112.708 32.3378Z" fill="#6C6C6C"/>
<path d="M118.892 32.5517C118.857 31.7769 118.82 30.8446 118.824 30.027H118.802C118.616 30.7621 118.381 31.5721 118.138 32.3316L117.313 34.9297H116.516L115.77 32.3683C115.55 31.6042 115.348 30.7835 115.201 30.0285H115.194C115.171 30.8141 115.136 31.7723 115.094 32.5884L114.969 35H114L114.374 29H115.725L116.458 31.4101C116.66 32.1192 116.84 32.8314 116.975 33.4992H117.001C117.152 32.8436 117.344 32.1116 117.563 31.4055L118.344 29H119.678L120 35H118.998L118.892 32.5517Z" fill="#6C6C6C"/>
<path d="M130.96 34.7356C130.533 34.9265 130.08 35.0155 129.625 34.9978C127.994 34.9978 127 33.8394 127 32.0678C127 30.1554 128.182 29 129.754 29C130.373 29 130.81 29.1481 131 29.2563L130.796 30.1036C130.478 29.9483 130.139 29.8708 129.796 29.8754C128.748 29.8754 127.994 30.6161 127.994 32.0145C127.994 33.2958 128.655 34.1075 129.784 34.1075C130.134 34.112 130.481 34.0408 130.81 33.8972L130.96 34.7356Z" fill="#6C6C6C"/>
<path d="M132 29H133.231V34.0826H136V35H132V29Z" fill="#6C6C6C"/>
<path d="M138 29V35H137V29H138Z" fill="#6C6C6C"/>
<path d="M143.883 32.5532C143.848 31.7784 143.811 30.8462 143.815 30.0285H143.793C143.607 30.7636 143.372 31.5736 143.129 32.3332L142.304 34.9312H141.508L140.762 32.3698C140.542 31.6057 140.34 30.785 140.193 30.0301H140.174C140.15 30.8156 140.116 31.7738 140.073 32.5899L139.958 35H139L139.374 29H140.725L141.457 31.4101C141.659 32.1192 141.839 32.8314 141.975 33.4992H142C142.151 32.8436 142.344 32.1116 142.563 31.4055L143.343 29H144.67L145 35H143.998L143.883 32.5532Z" fill="#6C6C6C"/>
<path d="M147.56 33.3036L147.074 35H146L147.827 29H149.15L151 35H149.883L149.366 33.3036H147.56ZM149.196 32.4753L148.748 30.9974C148.639 30.6261 148.545 30.218 148.458 29.8696H148.439C148.357 30.2211 148.268 30.6337 148.17 30.9944L147.732 32.4768H149.197L149.196 32.4753Z" fill="#6C6C6C"/>
<path d="M152.887 29.9174H151V29H156V29.9174H154.095V35H152.887V29.9174Z" fill="#6C6C6C"/>
<path d="M158 29V35H157V29H158Z" fill="#6C6C6C"/>
<path d="M159 34.3897L161.709 29.9391V29.91H159.239V29H162.961V29.6332L160.29 34.0517V34.0823H163V35H159.004V34.3882L159 34.3897Z" fill="#6C6C6C"/>
<path d="M164.561 33.3036L164.075 35H163L164.828 29H166.153L168 34.9954H166.885L166.369 33.3036H164.561ZM166.199 32.4753L165.75 30.9974C165.641 30.6261 165.547 30.218 165.46 29.8696H165.448C165.366 30.2211 165.278 30.6337 165.179 30.9944L164.74 32.4768H166.207L166.199 32.4753Z" fill="#6C6C6C"/>
<path d="M171.96 34.9281C171.533 35.1252 171.08 35.2172 170.625 35.1991C168.994 35.1991 168 34.0018 168 32.1707C168 30.1942 169.182 29 170.754 29C171.373 29 171.81 29.1531 172 29.2649L171.796 30.1406C171.477 29.9796 171.136 29.8994 170.793 29.9048C169.745 29.9048 168.99 30.6703 168.99 32.1156C168.99 33.4399 169.651 34.2789 170.781 34.2789C171.13 34.2836 171.477 34.21 171.806 34.0615L171.96 34.9281ZM170.738 35.0628L170.528 35.5221C170.818 35.5941 171.076 35.8283 171.076 36.2203C171.076 36.7959 170.639 36.9995 170.226 36.9995C170.017 37.0057 169.809 36.9501 169.62 36.8373L169.752 36.355C169.886 36.4345 170.032 36.4763 170.18 36.4775C170.34 36.4775 170.474 36.4055 170.474 36.234C170.474 36.0273 170.269 35.9278 169.876 35.8743L170.215 35.0598L170.738 35.0628Z" fill="#6C6C6C"/>
<path d="M173.56 33.3989L173.074 35H172L173.827 29.3371H175.15L177 35H175.883L175.369 33.3989H173.56ZM173.413 28.9938C173.396 28.3721 173.642 28.0202 174.03 28.0202C174.214 28.0261 174.393 28.0838 174.55 28.1875C174.667 28.2714 174.799 28.3256 174.938 28.3462C175.072 28.3462 175.14 28.2741 175.166 28H175.66C175.675 28.652 175.456 28.9419 175.038 28.9419C174.849 28.9372 174.665 28.8832 174.501 28.7847C174.387 28.7028 174.259 28.6496 174.123 28.6289C174.004 28.6289 173.933 28.7587 173.913 28.9938H173.413ZM175.196 32.6171L174.748 31.2223C174.639 30.8718 174.545 30.4867 174.458 30.1578H174.439C174.357 30.4896 174.27 30.879 174.17 31.2195L173.732 32.6186H175.197L175.196 32.6171Z" fill="#6C6C6C"/>
<path d="M182 31.9445C182 33.8893 180.92 35 179.454 35C177.949 35 177 33.7474 177 32.0421C177 30.2674 178.033 29 179.533 29C181.084 29.0044 182 30.2837 182 31.9445ZM178.026 32.0259C178.026 33.209 178.575 34.1526 179.503 34.1526C180.432 34.1526 180.972 33.1987 180.972 31.9845C180.972 30.8886 180.471 29.8533 179.504 29.8533C178.538 29.8533 178.026 30.8324 178.026 32.0259Z" fill="#6C6C6C"/>
</g>
<defs>
<linearGradient id="paint0_linear_513_470" x1="10.8668" y1="2.90618" x2="16.8977" y2="27.1984" gradientUnits="userSpaceOnUse">
<stop stop-color="#016498"/>
<stop offset="0.27" stop-color="#066B9E"/>
<stop offset="0.64" stop-color="#167DAF"/>
<stop offset="0.75" stop-color="#1B84B5"/>
<stop offset="1" stop-color="#104B77"/>
</linearGradient>
<linearGradient id="paint1_linear_513_470" x1="31.0102" y1="39.1876" x2="25.3422" y2="14.8097" gradientUnits="userSpaceOnUse">
<stop stop-color="#016498"/>
<stop offset="0.27" stop-color="#066B9E"/>
<stop offset="0.64" stop-color="#167DAF"/>
<stop offset="0.75" stop-color="#1B84B5"/>
<stop offset="1" stop-color="#104B77"/>
</linearGradient>
<linearGradient id="paint2_linear_513_470" x1="39.4145" y1="10.8374" x2="14.9247" y2="16.8825" gradientUnits="userSpaceOnUse">
<stop stop-color="#666666"/>
<stop offset="0.19" stop-color="#6D6D6D"/>
<stop offset="0.46" stop-color="#7F7F7F"/>
<stop offset="0.75" stop-color="#9B9B9B"/>
<stop offset="0.81" stop-color="#939393"/>
<stop offset="0.9" stop-color="#7E7E7E"/>
<stop offset="0.98" stop-color="#666666"/>
</linearGradient>
<linearGradient id="paint3_linear_513_470" x1="2.98795" y1="31.1489" x2="27.3903" y2="24.7688" gradientUnits="userSpaceOnUse">
<stop stop-color="#666666"/>
<stop offset="0.19" stop-color="#6D6D6D"/>
<stop offset="0.46" stop-color="#7F7F7F"/>
<stop offset="0.75" stop-color="#9B9B9B"/>
<stop offset="0.81" stop-color="#939393"/>
<stop offset="0.9" stop-color="#7E7E7E"/>
<stop offset="0.98" stop-color="#666666"/>
</linearGradient>
<clipPath id="clip0_513_470">
<rect width="182" height="42" fill="white"/>
</clipPath>
</defs>
</svg>
