<svg width="236" height="55" viewBox="0 0 236 55" fill="none" xmlns="http://www.w3.org/2000/svg">
<path d="M23.5869 1.34618L24.1168 2.40937C24.1674 2.52465 24.1793 2.65327 24.1506 2.77588C24.1219 2.8985 24.0543 3.00848 23.9578 3.08929C21.6218 5.05002 8.0523 17.4196 13.5582 36.0785C13.5607 36.0873 13.5605 36.0968 13.5576 36.1056C13.5546 36.1143 13.5491 36.122 13.5417 36.1275C13.5343 36.133 13.5254 36.1362 13.5162 36.1365C13.5069 36.1368 13.4978 36.1343 13.49 36.1293C12.3739 35.3834 2.48694 28.5831 0.531599 20.2952C0.32936 19.4345 1.04639 17.8386 1.28864 17.3384C1.31078 17.2923 1.34568 17.2535 1.3892 17.2266C1.43272 17.1997 1.48302 17.1859 1.53414 17.1868L4.65749 17.2355C4.72671 17.2355 4.75591 17.2301 4.80566 17.1219C4.93003 16.849 6.37815 14.1174 6.85184 13.2849C6.89554 13.2084 6.91772 13.1215 6.916 13.0334C6.91429 12.9453 6.88875 12.8594 6.84211 12.7847C6.53172 12.2855 5.86876 11.021 5.57352 10.4526C5.52173 10.3619 5.49449 10.2593 5.49449 10.1548C5.49449 10.0504 5.52173 9.94777 5.57352 9.8571C6.00611 9.2259 8.43839 6.83102 9.1976 6.09047C9.33062 5.95946 9.6475 5.85661 9.81189 5.94539C10.3894 6.2572 11.7964 6.99992 12.4724 7.35287C12.6887 7.46114 12.9233 7.31606 13.0791 7.2013C13.583 6.82994 15.9721 5.28604 16.7378 4.91252C16.7979 4.8827 16.8481 4.83625 16.8827 4.77868C16.9172 4.7211 16.9344 4.65482 16.9324 4.58771L16.8578 2.12895C16.8524 1.938 16.9089 1.75044 17.0189 1.59431C17.1288 1.43819 17.2863 1.32189 17.4678 1.26281C18.1686 1.03761 20.9805 0.353362 22.2988 0.0339722C22.6784 -0.0580554 22.8796 0.0339722 23.1153 0.41724L23.5869 1.34618Z" fill="#016498"/>
<path d="M23.9581 3.12598C23.9581 3.12598 18.396 7.29212 14.9817 14.3512C12.2131 20.071 11.097 27.7623 13.5617 36.113C13.5646 36.1219 13.5647 36.1315 13.5618 36.1404C13.5589 36.1494 13.5533 36.1572 13.5457 36.1627C13.5382 36.1682 13.529 36.1712 13.5197 36.1712C13.5103 36.1712 13.5012 36.1683 13.4936 36.1628C12.3764 35.4179 6.45198 25.3728 11.88 8.37046C11.88 8.37046 15.1753 5.95609 17.7741 4.79763C20.5622 3.55905 23.9581 3.12598 23.9581 3.12598Z" fill="url(#paint0_linear_41_1588)"/>
<path d="M30.7007 53.6397L30.1859 52.5679C30.1374 52.452 30.1275 52.3234 30.1579 52.2015C30.1884 52.0795 30.2574 51.9707 30.3546 51.8912C32.721 49.9651 46.4689 37.8001 41.2464 19.0612C41.2434 19.0523 41.2434 19.0426 41.2463 19.0337C41.2491 19.0248 41.2548 19.017 41.2623 19.0115C41.2699 19.0059 41.279 19.0029 41.2884 19.0029C41.2978 19.0029 41.3069 19.0059 41.3145 19.0114C42.4198 19.7692 52.2073 26.7222 54.0361 35.035C54.2264 35.9011 53.4856 37.484 53.2369 37.9799C53.2142 38.0258 53.1788 38.0643 53.1349 38.0906C53.0909 38.1169 53.0404 38.1299 52.9892 38.1282L49.868 38.0318C49.7977 38.0318 49.7685 38.0318 49.7177 38.1401C49.589 38.4119 48.0954 41.1207 47.6142 41.9468C47.5694 42.0225 47.5457 42.1089 47.5457 42.1969C47.5457 42.2849 47.5694 42.3713 47.6142 42.447C47.9181 42.9504 48.5616 44.2248 48.8482 44.7975C48.8978 44.8894 48.9227 44.9927 48.9202 45.0971C48.9177 45.2015 48.888 45.3035 48.8341 45.393C48.4015 46.0188 45.9249 48.3757 45.157 49.1055C45.0218 49.2343 44.7039 49.3317 44.5417 49.2408C43.9685 48.916 42.5723 48.1581 41.9017 47.79C41.6919 47.6752 41.4508 47.8192 41.2929 47.9318C40.7835 48.2956 38.3728 49.8038 37.6006 50.1665C37.5395 50.1953 37.4881 50.2415 37.4527 50.2992C37.4174 50.3569 37.3996 50.4236 37.4016 50.4913L37.4395 52.9522C37.4424 53.1435 37.3832 53.3306 37.2709 53.4854C37.1586 53.6402 36.9992 53.7544 36.8166 53.8108C36.1114 54.0273 33.2952 54.6704 31.9704 54.9703C31.5897 55.0559 31.3896 54.9638 31.1604 54.5741L30.7007 53.6397Z" fill="#016498"/>
<path d="M30.3555 51.8541C30.3555 51.8541 35.9792 47.7713 39.5016 40.7642C42.3557 35.0856 43.5864 27.4126 41.2461 19.0241C41.2432 19.0151 41.2431 19.0055 41.246 18.9966C41.2489 18.9877 41.2545 18.9799 41.2621 18.9744C41.2696 18.9688 41.2788 18.9658 41.2881 18.9658C41.2975 18.9658 41.3066 18.9688 41.3142 18.9743C42.4206 19.7321 48.1947 29.8692 42.5136 46.7882C42.5136 46.7882 39.1837 49.1528 36.5654 50.2701C33.7578 51.4708 30.3555 51.8541 30.3555 51.8541Z" fill="url(#paint1_linear_41_1588)"/>
<path d="M53.5004 23.7213L52.4341 24.2518C52.3186 24.3014 52.1903 24.3123 52.0682 24.2831C51.946 24.2538 51.8366 24.1859 51.756 24.0894C49.8093 21.739 37.529 8.08748 18.8613 13.4965C18.8525 13.4995 18.843 13.4997 18.8341 13.4969C18.8252 13.4942 18.8174 13.4887 18.8117 13.4813C18.8061 13.4739 18.803 13.4649 18.8027 13.4556C18.8025 13.4462 18.8052 13.4371 18.8105 13.4294C19.5621 12.3153 26.4091 2.45214 34.6976 0.545547C35.5628 0.347417 37.1494 1.07389 37.6479 1.3175C37.6937 1.34015 37.7321 1.37542 37.7585 1.41915C37.7849 1.46287 37.7983 1.51325 37.7972 1.56435L37.7312 4.69004C37.7312 4.76041 37.7366 4.78964 37.8394 4.83945C38.1119 4.96504 40.8318 6.4299 41.6614 6.90844C41.7374 6.95268 41.8241 6.97543 41.9121 6.97429C42.0001 6.97315 42.0861 6.94814 42.161 6.90195C42.6606 6.59338 43.9282 5.93728 44.497 5.64387C44.5887 5.59372 44.6918 5.56826 44.7963 5.56996C44.9007 5.57167 45.0029 5.6005 45.0929 5.65362C45.7213 6.08669 48.0995 8.53787 48.8349 9.30116C48.9647 9.43649 49.0663 9.75372 48.9766 9.9172C48.6618 10.4943 47.9124 11.8985 47.5522 12.573C47.4441 12.7895 47.5858 13.0245 47.6993 13.1815C48.0681 13.6871 49.5973 16.0874 49.9705 16.8561C49.9998 16.9167 50.0461 16.9676 50.1036 17.0026C50.1612 17.0375 50.2276 17.0551 50.2949 17.0531L52.7521 16.9914C52.9433 16.9863 53.1311 17.0435 53.2871 17.1544C53.4431 17.2653 53.559 17.4239 53.6172 17.6064C53.8411 18.3101 54.5095 21.1229 54.8209 22.447C54.9107 22.8281 54.8209 23.0284 54.4327 23.2623L53.5004 23.7213Z" fill="#666666"/>
<path d="M51.7194 24.0848C51.7194 24.0848 47.5848 18.4938 40.5551 15.0347C34.8567 12.2316 27.1803 11.0721 18.8236 13.4929C18.8147 13.4955 18.8053 13.4953 18.7966 13.4923C18.7878 13.4894 18.7802 13.4838 18.7746 13.4764C18.7691 13.469 18.766 13.4601 18.7657 13.4509C18.7653 13.4416 18.7678 13.4325 18.7728 13.4247C19.5298 12.3117 29.5877 6.43497 46.5434 11.962C46.5434 11.962 48.9378 15.2739 50.0788 17.8821C51.3052 20.6798 51.7194 24.0848 51.7194 24.0848Z" fill="url(#paint2_linear_41_1588)"/>
<path d="M1.33533 31.2894L2.39303 30.748C2.50779 30.6966 2.63608 30.6839 2.75871 30.7116C2.88134 30.7393 2.99171 30.806 3.07329 30.9018C5.05133 33.2252 17.5166 46.7089 36.1096 41.0443C36.1184 41.0416 36.1278 41.0417 36.1366 41.0445C36.1453 41.0473 36.153 41.0527 36.1586 41.06C36.1642 41.0673 36.1675 41.0761 36.168 41.0852C36.1686 41.0944 36.1663 41.1036 36.1615 41.1114C35.425 42.2352 28.7122 52.1915 20.4507 54.2118C19.5931 54.4218 17.9925 53.717 17.4907 53.4799C17.4445 53.458 17.4057 53.4233 17.3786 53.3799C17.3516 53.3366 17.3376 53.2863 17.3382 53.2352L17.362 50.1085C17.362 50.0392 17.3555 50.0099 17.2462 49.9612C16.9726 49.8389 14.2332 48.4108 13.3972 47.9442C13.3204 47.9012 13.2334 47.8798 13.1454 47.8823C13.0575 47.8848 12.9718 47.911 12.8976 47.9583C12.4022 48.2722 11.1445 48.9467 10.5788 49.2466C10.4881 49.2985 10.3854 49.3257 10.2809 49.3257C10.1764 49.3257 10.0737 49.2985 9.98294 49.2466C9.34918 48.8244 6.93746 46.4046 6.19123 45.65C6.06037 45.5179 5.95438 45.2018 6.04198 45.0361C6.34804 44.4558 7.07913 43.0407 7.42954 42.3608C7.53768 42.1443 7.3906 41.9104 7.27488 41.7556C6.89852 41.2543 5.33685 38.8757 4.95724 38.1113C4.92732 38.0515 4.88079 38.0016 4.82324 37.9676C4.76569 37.9336 4.69956 37.917 4.6328 37.9197L2.17673 38.0139C1.98584 38.0212 1.79773 37.9664 1.64057 37.8577C1.48342 37.7489 1.3657 37.5922 1.30505 37.4108C1.07144 36.7168 0.365229 33.9138 0.0353734 32.594C-0.0597979 32.214 0.027803 32.0126 0.411733 31.7733L1.33533 31.2894Z" fill="#666666"/>
<path d="M3.10938 30.9072C3.10938 30.9072 7.31638 36.4419 14.3947 39.8047C20.1267 42.5298 27.8226 43.5843 36.1457 41.0497C36.1545 41.0471 36.1639 41.0472 36.1726 41.05C36.1814 41.0528 36.1891 41.0582 36.1947 41.0655C36.2003 41.0727 36.2036 41.0815 36.2041 41.0907C36.2047 41.0999 36.2024 41.109 36.1976 41.1169C35.4611 42.2407 25.4757 48.2539 8.4487 42.9574C8.4487 42.9574 6.00994 39.6791 4.83436 37.0861C3.56793 34.3025 3.10938 30.9072 3.10938 30.9072Z" fill="url(#paint3_linear_41_1588)"/>
<path d="M93.8172 16.1183V35.2817H89.4101V23.4339C89.4108 22.7498 89.4643 22.0668 89.5701 21.3909C89.2576 22.1087 88.8538 22.783 88.3686 23.3971L80.5959 32.9777H79.6345L71.8629 23.3592C71.1415 22.4682 70.8614 21.9517 70.6202 21.3909L70.7403 23.4339V35.2806H66.8145V16.1172H70.7403L80.4737 27.7018L90.0081 16.1172L93.8172 16.1183Z" fill="#D9D9D9"/>
<path d="M125.106 16.1183V19.3858H108.76V23.657H118.295V26.9245H108.76V31.79H125.307V35.2806H103.953V16.1172L125.106 16.1183Z" fill="#D9D9D9"/>
<path d="M138.567 19.6088V31.79H151.545V27.6304L156.353 28.5582V30.7485C156.353 31.5659 156.353 33.3469 155.231 34.3506C154.229 35.2416 152.547 35.2795 151.23 35.2795H138.889C137.566 35.2795 135.883 35.2416 134.887 34.3506C133.766 33.348 133.766 31.5659 133.766 30.7485V20.6471C133.766 19.8308 133.766 18.0487 134.887 17.045C135.889 16.154 137.571 16.1172 138.889 16.1172H151.227C152.55 16.1172 154.232 16.154 155.229 17.045C156.35 18.0476 156.35 19.8308 156.35 20.6471V22.5418L151.543 23.2466V19.6088H138.567Z" fill="#D9D9D9"/>
<path d="M171.098 31.79H186.603V35.2806H166.291V16.1172H171.098V31.79Z" fill="#D9D9D9"/>
<path d="M198.462 35.2806H193.654V16.1172H198.462V35.2806Z" fill="#D9D9D9"/>
<path d="M236 16.1183V35.2817H231.593V23.4339C231.594 22.7498 231.647 22.0668 231.753 21.3909C231.44 22.1085 231.036 22.7827 230.552 23.3971L222.779 32.9777H221.814L214.043 23.3592C213.321 22.4682 213.04 21.9517 212.8 21.3909L212.92 23.4339V35.2806H208.994V16.1172H212.92L222.653 27.7018L232.188 16.1172L236 16.1183Z" fill="#D9D9D9"/>
<defs>
<linearGradient id="paint0_linear_41_1588" x1="14.0895" y1="3.8059" x2="22.0559" y2="35.5805" gradientUnits="userSpaceOnUse">
<stop stop-color="#016498"/>
<stop offset="0.27" stop-color="#066B9E"/>
<stop offset="0.64" stop-color="#167DAF"/>
<stop offset="0.75" stop-color="#1B84B5"/>
<stop offset="1" stop-color="#104B77"/>
</linearGradient>
<linearGradient id="paint1_linear_41_1588" x1="40.2099" y1="51.3175" x2="32.7217" y2="19.4265" gradientUnits="userSpaceOnUse">
<stop stop-color="#016498"/>
<stop offset="0.27" stop-color="#066B9E"/>
<stop offset="0.64" stop-color="#167DAF"/>
<stop offset="0.75" stop-color="#1B84B5"/>
<stop offset="1" stop-color="#104B77"/>
</linearGradient>
<linearGradient id="paint2_linear_41_1588" x1="51.1078" y1="14.1924" x2="19.3163" y2="21.963" gradientUnits="userSpaceOnUse">
<stop stop-color="#666666"/>
<stop offset="0.19" stop-color="#6D6D6D"/>
<stop offset="0.46" stop-color="#7F7F7F"/>
<stop offset="0.75" stop-color="#9B9B9B"/>
<stop offset="0.81" stop-color="#939393"/>
<stop offset="0.9" stop-color="#7E7E7E"/>
<stop offset="0.98" stop-color="#666666"/>
</linearGradient>
<linearGradient id="paint3_linear_41_1588" x1="3.87317" y1="40.7903" x2="35.5552" y2="32.588" gradientUnits="userSpaceOnUse">
<stop stop-color="#666666"/>
<stop offset="0.19" stop-color="#6D6D6D"/>
<stop offset="0.46" stop-color="#7F7F7F"/>
<stop offset="0.75" stop-color="#9B9B9B"/>
<stop offset="0.81" stop-color="#939393"/>
<stop offset="0.9" stop-color="#7E7E7E"/>
<stop offset="0.98" stop-color="#666666"/>
</linearGradient>
</defs>
</svg>
