<svg width="236" height="55" viewBox="0 0 236 55" fill="none" xmlns="http://www.w3.org/2000/svg">
<path d="M23.5869 1.34496L24.1168 2.40815C24.1674 2.52343 24.1793 2.65205 24.1506 2.77466C24.1219 2.89728 24.0543 3.00726 23.9578 3.08807C21.6218 5.0488 8.0523 17.4184 13.5582 36.0772C13.5607 36.0861 13.5605 36.0956 13.5576 36.1043C13.5546 36.1131 13.5491 36.1207 13.5417 36.1263C13.5343 36.1318 13.5254 36.1349 13.5162 36.1353C13.5069 36.1356 13.4978 36.1331 13.49 36.1281C12.3739 35.3822 2.48694 28.5819 0.531599 20.294C0.32936 19.4332 1.04639 17.8374 1.28864 17.3372C1.31078 17.291 1.34568 17.2522 1.3892 17.2254C1.43272 17.1985 1.48302 17.1847 1.53414 17.1856L4.65749 17.2343C4.72671 17.2343 4.75591 17.2289 4.80566 17.1206C4.93003 16.8478 6.37815 14.1162 6.85184 13.2836C6.89554 13.2072 6.91772 13.1203 6.916 13.0322C6.91429 12.9441 6.88875 12.8581 6.84211 12.7834C6.53172 12.2843 5.86876 11.0198 5.57352 10.4514C5.52173 10.3607 5.49449 10.2581 5.49449 10.1536C5.49449 10.0492 5.52173 9.94655 5.57352 9.85588C6.00611 9.22468 8.43839 6.8298 9.1976 6.08925C9.33062 5.95824 9.6475 5.85539 9.81189 5.94417C10.3894 6.25598 11.7964 6.9987 12.4724 7.35165C12.6887 7.45992 12.9233 7.31484 13.0791 7.20007C13.583 6.82872 15.9721 5.28482 16.7378 4.91129C16.7979 4.88148 16.8481 4.83503 16.8827 4.77746C16.9172 4.71988 16.9344 4.6536 16.9324 4.58649L16.8578 2.12773C16.8524 1.93678 16.9089 1.74922 17.0189 1.59309C17.1288 1.43697 17.2863 1.32067 17.4678 1.26159C18.1686 1.03639 20.9805 0.352141 22.2988 0.0327515C22.6784 -0.0592761 22.8796 0.0327515 23.1153 0.416019L23.5869 1.34496Z" fill="#016498"/>
<path d="M23.9591 3.125C23.9591 3.125 18.397 7.29114 14.9827 14.3502C12.2141 20.07 11.098 27.7613 13.5627 36.112C13.5656 36.1209 13.5656 36.1305 13.5628 36.1395C13.5599 36.1484 13.5543 36.1562 13.5467 36.1617C13.5391 36.1672 13.53 36.1702 13.5207 36.1703C13.5113 36.1703 13.5021 36.1673 13.4946 36.1618C12.3774 35.4169 6.45296 25.3719 11.881 8.36949C11.881 8.36949 15.1763 5.95512 17.7751 4.79665C20.5632 3.55807 23.9591 3.125 23.9591 3.125Z" fill="url(#paint0_linear_487_202)"/>
<path d="M30.701 53.6382L30.1862 52.5664C30.1376 52.4505 30.1278 52.322 30.1582 52.2C30.1886 52.078 30.2576 51.9692 30.3549 51.8897C32.7212 49.9636 46.4691 37.7987 41.2466 19.0597C41.2437 19.0508 41.2436 19.0412 41.2465 19.0323C41.2494 19.0233 41.255 19.0155 41.2626 19.01C41.2701 19.0045 41.2793 19.0015 41.2886 19.0015C41.298 19.0014 41.3071 19.0044 41.3147 19.0099C42.42 19.7678 52.2075 26.7207 54.0363 35.0335C54.2267 35.8997 53.4858 37.4825 53.2371 37.9784C53.2145 38.0244 53.179 38.0628 53.1351 38.0891C53.0912 38.1154 53.0406 38.1285 52.9894 38.1267L49.8683 38.0304C49.798 38.0304 49.7688 38.0304 49.7179 38.1386C49.5892 38.4104 48.0957 41.1193 47.6144 41.9453C47.5696 42.021 47.5459 42.1074 47.5459 42.1954C47.5459 42.2834 47.5696 42.3698 47.6144 42.4455C47.9183 42.949 48.5618 44.2233 48.8484 44.796C48.8981 44.8879 48.9229 44.9912 48.9204 45.0956C48.918 45.2001 48.8883 45.3021 48.8343 45.3915C48.4018 46.0173 45.9251 48.3743 45.1573 49.104C45.0221 49.2328 44.7041 49.3303 44.5419 49.2393C43.9687 48.9145 42.5725 48.1567 41.902 47.7885C41.6922 47.6738 41.451 47.8178 41.2931 47.9304C40.7837 48.2942 38.3731 49.8023 37.6009 50.165C37.5397 50.1939 37.4883 50.24 37.453 50.2977C37.4176 50.3554 37.3999 50.4222 37.4019 50.4898L37.4397 52.9507C37.4426 53.142 37.3835 53.3291 37.2712 53.4839C37.1588 53.6387 36.9994 53.7529 36.8168 53.8093C36.1117 54.0258 33.2955 54.669 31.9706 54.9689C31.59 55.0544 31.3899 54.9624 31.1606 54.5726L30.701 53.6382Z" fill="#016498"/>
<path d="M30.356 51.8531C30.356 51.8531 35.9797 47.7703 39.5021 40.7632C42.3562 35.0846 43.5869 27.4117 41.2466 19.0231C41.2437 19.0142 41.2436 19.0046 41.2465 18.9956C41.2494 18.9867 41.255 18.9789 41.2626 18.9734C41.2701 18.9679 41.2793 18.9649 41.2886 18.9648C41.298 18.9648 41.3071 18.9678 41.3147 18.9733C42.4211 19.7312 48.1952 29.8683 42.5141 46.7873C42.5141 46.7873 39.1842 49.1518 36.5659 50.2691C33.7583 51.4698 30.356 51.8531 30.356 51.8531Z" fill="url(#paint1_linear_487_202)"/>
<path d="M53.5009 23.7208L52.4346 24.2514C52.3191 24.3009 52.1908 24.3118 52.0687 24.2826C51.9465 24.2533 51.837 24.1854 51.7565 24.089C49.8098 21.7385 37.5295 8.08699 18.8618 13.496C18.853 13.499 18.8435 13.4992 18.8346 13.4964C18.8257 13.4937 18.8179 13.4883 18.8122 13.4808C18.8066 13.4734 18.8035 13.4644 18.8032 13.4551C18.803 13.4458 18.8057 13.4366 18.811 13.4289C19.5626 12.3148 26.4096 2.45165 34.6981 0.545059C35.5633 0.346929 37.1499 1.07341 37.6484 1.31701C37.6942 1.33967 37.7325 1.37493 37.759 1.41866C37.7854 1.46238 37.7988 1.51276 37.7977 1.56386L37.7317 4.68955C37.7317 4.75992 37.7371 4.78915 37.8398 4.83896C38.1124 4.96455 40.8323 6.42941 41.6618 6.90795C41.7379 6.95219 41.8246 6.97495 41.9126 6.9738C42.0005 6.97266 42.0866 6.94766 42.1615 6.90146C42.6611 6.59289 43.9286 5.93679 44.4975 5.64339C44.5892 5.59324 44.6923 5.56777 44.7967 5.56948C44.9012 5.57118 45.0034 5.60001 45.0934 5.65313C45.7218 6.0862 48.1 8.53738 48.8354 9.30067C48.9652 9.436 49.0668 9.75323 48.977 9.91671C48.6623 10.4938 47.9129 11.898 47.5527 12.5725C47.4446 12.7891 47.5863 13.024 47.6998 13.181C48.0686 13.6866 49.5978 16.0869 49.9709 16.8556C50.0003 16.9162 50.0465 16.9671 50.1041 17.0021C50.1617 17.037 50.2281 17.0546 50.2954 17.0526L52.7525 16.9909C52.9438 16.9858 53.1316 17.043 53.2876 17.1539C53.4436 17.2648 53.5595 17.4234 53.6177 17.6059C53.8416 18.3096 54.51 21.1224 54.8214 22.4465C54.9112 22.8276 54.8214 23.0279 54.4332 23.2618L53.5009 23.7208Z" fill="#666666"/>
<path d="M51.7199 24.0836C51.7199 24.0836 47.5853 18.4926 40.5556 15.0335C34.8572 12.2304 27.1808 11.0709 18.8241 13.4917C18.8152 13.4943 18.8058 13.4941 18.797 13.4911C18.7883 13.4882 18.7807 13.4826 18.7751 13.4752C18.7696 13.4678 18.7665 13.4589 18.7661 13.4497C18.7658 13.4404 18.7683 13.4313 18.7733 13.4235C19.5303 12.3105 29.5882 6.43375 46.5438 11.9608C46.5438 11.9608 48.9383 15.2727 50.0792 17.8809C51.3057 20.6785 51.7199 24.0836 51.7199 24.0836Z" fill="url(#paint2_linear_487_202)"/>
<path d="M1.33533 31.2886L2.39303 30.7473C2.50779 30.6959 2.63608 30.6831 2.75871 30.7108C2.88134 30.7385 2.99171 30.8053 3.07329 30.901C5.05133 33.2245 17.5166 46.7081 36.1096 41.0436C36.1184 41.0409 36.1278 41.041 36.1366 41.0438C36.1453 41.0466 36.153 41.052 36.1586 41.0593C36.1642 41.0665 36.1675 41.0753 36.168 41.0845C36.1686 41.0937 36.1663 41.1028 36.1615 41.1107C35.425 42.2345 28.7122 52.1908 20.4507 54.2111C19.5931 54.4211 17.9925 53.7163 17.4907 53.4792C17.4445 53.4573 17.4057 53.4226 17.3786 53.3792C17.3516 53.3358 17.3376 53.2856 17.3382 53.2345L17.362 50.1077C17.362 50.0384 17.3555 50.0092 17.2462 49.9605C16.9726 49.8381 14.2332 48.4101 13.3972 47.9435C13.3204 47.9005 13.2334 47.8791 13.1454 47.8815C13.0575 47.884 12.9718 47.9103 12.8976 47.9575C12.4022 48.2715 11.1445 48.946 10.5788 49.2459C10.4881 49.2977 10.3854 49.325 10.2809 49.325C10.1764 49.325 10.0737 49.2977 9.98294 49.2459C9.34918 48.8237 6.93746 46.4039 6.19123 45.6493C6.06037 45.5172 5.95438 45.201 6.04198 45.0354C6.34804 44.4551 7.07913 43.04 7.42954 42.3601C7.53769 42.1436 7.3906 41.9097 7.27488 41.7549C6.89852 41.2536 5.33685 38.875 4.95724 38.1106C4.92732 38.0508 4.88079 38.0009 4.82324 37.9669C4.76569 37.9329 4.69956 37.9162 4.6328 37.9189L2.17673 38.0131C1.98584 38.0205 1.79773 37.9657 1.64057 37.8569C1.48342 37.7482 1.3657 37.5914 1.30505 37.4101C1.07144 36.7161 0.365229 33.913 0.0353734 32.5933C-0.0597979 32.2132 0.027803 32.0119 0.411733 31.7726L1.33533 31.2886Z" fill="#666666"/>
<path d="M3.10986 30.9065C3.10986 30.9065 7.31687 36.4411 14.3952 39.8039C20.1271 42.529 27.823 43.5836 36.1462 41.049C36.155 41.0464 36.1644 41.0465 36.1731 41.0493C36.1819 41.0521 36.1896 41.0575 36.1952 41.0647C36.2008 41.072 36.2041 41.0808 36.2046 41.09C36.2052 41.0992 36.2029 41.1083 36.1981 41.1161C35.4616 42.24 25.4762 48.2531 8.44919 42.9567C8.44919 42.9567 6.01043 39.6783 4.83484 37.0853C3.56842 34.3018 3.10986 30.9065 3.10986 30.9065Z" fill="url(#paint3_linear_487_202)"/>
<path d="M93.8179 16.117V35.2804H89.4108V23.4327C89.4116 22.7486 89.4651 22.0656 89.5709 21.3897C89.2584 22.1075 88.8545 22.7818 88.3693 23.3959L80.5966 32.9765H79.6352L71.8636 23.358C71.1422 22.467 70.8621 21.9505 70.621 21.3897L70.741 23.4327V35.2793H66.8152V16.116H70.741L80.4744 27.7006L90.0089 16.116L93.8179 16.117Z" fill="#D9D9D9"/>
<path d="M125.107 16.117V19.3846H108.761V23.6557H118.295V26.9232H108.761V31.7888H125.308V35.2793H103.954V16.116L125.107 16.117Z" fill="#D9D9D9"/>
<path d="M138.567 19.6076V31.7888H151.545V27.6292L156.352 28.557V30.7473C156.352 31.5647 156.352 33.3457 155.231 34.3493C154.228 35.2404 152.546 35.2783 151.229 35.2783H138.888C137.566 35.2783 135.883 35.2404 134.887 34.3493C133.765 33.3468 133.765 31.5647 133.765 30.7473V20.6459C133.765 19.8295 133.765 18.0475 134.887 17.0438C135.888 16.1528 137.571 16.116 138.888 16.116H151.227C152.55 16.116 154.231 16.1528 155.228 17.0438C156.35 18.0464 156.35 19.8295 156.35 20.6459V22.5406L151.543 23.2454V19.6076H138.567Z" fill="#D9D9D9"/>
<path d="M171.098 31.7888H186.603V35.2793H166.291V16.116H171.098V31.7888Z" fill="#D9D9D9"/>
<path d="M198.461 35.2793H193.654V16.116H198.461V35.2793Z" fill="#D9D9D9"/>
<path d="M236 16.117V35.2804H231.593V23.4327C231.593 22.7486 231.647 22.0656 231.753 21.3897C231.44 22.1072 231.036 22.7815 230.551 23.3959L222.778 32.9765H221.814L214.042 23.358C213.321 22.467 213.04 21.9505 212.799 21.3897L212.919 23.4327V35.2793H208.994V16.116H212.919L222.653 27.7006L232.187 16.116L236 16.117Z" fill="#D9D9D9"/>
<path d="M73.0952 42.6466H71V41.6067H76.5502V42.6466H74.436V48.4077H73.0952V42.6466Z" fill="#D9D9D9"/>
<path d="M81.5052 45.3869H78.737V47.3835H81.8322V48.4061H77.4014V41.6016H81.6695V42.6242H78.7405V44.3729H81.5086L81.5052 45.3869Z" fill="#D9D9D9"/>
<path d="M88.2735 48.2051C87.6645 48.4282 87.0185 48.5323 86.3704 48.5118C84.0434 48.5118 82.6265 47.1565 82.6265 45.0836C82.6265 42.846 84.3116 41.4941 86.5538 41.4941C87.4362 41.4941 88.059 41.6675 88.3306 41.794L88.04 42.7854C87.5851 42.6032 87.099 42.5125 86.6092 42.5185C85.1144 42.5185 84.0382 43.3851 84.0382 45.0212C84.0382 46.5204 84.9811 47.4702 86.5919 47.4702C87.0899 47.4754 87.5849 47.3921 88.0538 47.2241L88.2735 48.2051Z" fill="#D9D9D9"/>
<path d="M89.4067 48.4061V41.6016H90.9379L92.841 44.522C93.3092 45.2526 93.7266 46.0147 94.0901 46.8029H94.1161C94.0259 45.8657 93.986 44.9244 93.9967 43.983V41.6085H95.2216V48.413H93.8375L91.924 45.4129C91.4402 44.6571 91.0011 43.8735 90.6092 43.0661H90.5746C90.6282 43.95 90.6455 44.8478 90.6455 45.9657V48.4009H89.4067V48.4061Z" fill="#D9D9D9"/>
<path d="M103.277 44.9361C103.277 47.2153 101.787 48.5169 99.7664 48.5169C97.6903 48.5169 96.3823 47.0489 96.3823 45.0505C96.3823 42.9707 97.8062 41.4854 99.8754 41.4854C102.016 41.4906 103.277 42.9898 103.277 44.9361ZM97.7975 45.0315C97.7975 46.418 98.5536 47.5238 99.8339 47.5238C101.114 47.5238 101.862 46.4059 101.862 44.9829C101.862 43.6986 101.17 42.4854 99.8373 42.4854C98.5052 42.4854 97.7975 43.6328 97.7975 45.0315Z" fill="#D9D9D9"/>
<path d="M104.427 41.6016H105.775V47.3627H108.785V48.4026H104.427V41.6016Z" fill="#D9D9D9"/>
<path d="M115.882 44.9361C115.882 47.2153 114.393 48.5169 112.372 48.5169C110.296 48.5169 108.988 47.0489 108.988 45.0505C108.988 42.9707 110.412 41.4854 112.481 41.4854C114.619 41.4906 115.882 42.9898 115.882 44.9361ZM110.403 45.0315C110.403 46.418 111.159 47.5238 112.439 47.5238C113.72 47.5238 114.467 46.4059 114.467 44.9829C114.467 43.6986 113.775 42.4854 112.443 42.4854C111.111 42.4854 110.403 43.6328 110.403 45.0315Z" fill="#D9D9D9"/>
<path d="M122.917 48.0957C122.153 48.3396 121.357 48.4669 120.555 48.4736C119.318 48.4736 118.374 48.1841 117.68 47.5671C117.026 46.9882 116.642 46.0939 116.651 45.0678C116.651 42.91 118.311 41.5321 120.739 41.5321C121.402 41.5146 122.062 41.6234 122.685 41.8528L122.384 42.8476C121.854 42.6387 121.286 42.5402 120.716 42.5582C119.159 42.5582 118.052 43.4248 118.052 44.9985C118.052 46.548 119.08 47.4596 120.599 47.4596C120.941 47.4759 121.284 47.4301 121.611 47.3244V45.6259H120.318V44.6501H122.914V48.0905L122.917 48.0957Z" fill="#D9D9D9"/>
<path d="M125.621 41.6016V48.4061H124.287V41.6016H125.621Z" fill="#D9D9D9"/>
<path d="M128.625 46.4874L127.998 48.4112H126.614L128.969 41.6067H130.675L133.059 48.4112H131.619L130.953 46.4874H128.625ZM130.734 45.548L130.156 43.872C130.016 43.4508 129.895 42.988 129.782 42.5929H129.758C129.651 42.9915 129.54 43.4595 129.412 43.8685L128.846 45.5497H130.735L130.734 45.548Z" fill="#D9D9D9"/>
<path d="M144.941 45.3869H142.173V47.3835H145.265V48.4061H140.835V41.6016H145.105V42.6242H142.176V44.3729H144.944L144.941 45.3869Z" fill="#D9D9D9"/>
<path d="M152.636 45.6295C152.591 44.7508 152.543 43.6935 152.548 42.7663H152.519C152.277 43.5999 151.97 44.5185 151.654 45.3799L150.578 48.3264H149.54L148.567 45.4215C148.28 44.5549 148.017 43.6242 147.825 42.768H147.816C147.785 43.6589 147.74 44.7456 147.685 45.6711L147.522 48.4061H146.259L146.747 41.6016H148.508L149.463 44.3348C149.726 45.139 149.962 45.9467 150.138 46.7041H150.171C150.368 45.9605 150.619 45.1303 150.905 44.3296L151.922 41.6016H153.661L154.081 48.4061H152.775L152.636 45.6295Z" fill="#D9D9D9"/>
<path d="M167.469 48.2051C166.86 48.4284 166.214 48.5325 165.566 48.5118C163.239 48.5118 161.822 47.1565 161.822 45.0836C161.822 42.846 163.507 41.4941 165.749 41.4941C166.631 41.4941 167.254 41.6675 167.526 41.794L167.235 42.7854C166.782 42.6037 166.298 42.513 165.81 42.5185C164.315 42.5185 163.239 43.3851 163.239 45.0212C163.239 46.5204 164.182 47.4702 165.792 47.4702C166.29 47.4754 166.785 47.3921 167.254 47.2241L167.469 48.2051Z" fill="#D9D9D9"/>
<path d="M168.602 41.6016H169.943V47.3627H172.96V48.4026H168.602V41.6016Z" fill="#D9D9D9"/>
<path d="M175.31 41.6016V48.4061H173.969V41.6016H175.31Z" fill="#D9D9D9"/>
<path d="M183.038 45.6295C182.993 44.7508 182.945 43.6936 182.95 42.7663H182.921C182.678 43.6 182.372 44.5186 182.055 45.38L180.979 48.3264H179.941L178.969 45.4215C178.682 44.5549 178.419 43.6242 178.227 42.768H178.203C178.171 43.6589 178.126 44.7456 178.071 45.6711L177.921 48.4044H176.671L177.159 41.5999H178.921L179.876 44.3331C180.139 45.1373 180.374 45.945 180.55 46.7024H180.583C180.78 45.9588 181.031 45.1286 181.317 44.3279L182.334 41.5999H184.064L184.495 48.4044H183.189L183.038 45.6295Z" fill="#D9D9D9"/>
<path d="M187.249 46.4874L186.623 48.4112H185.239L187.593 41.6067H189.299L191.683 48.4112H190.244L189.578 46.4874H187.249ZM189.358 45.548L188.78 43.872C188.64 43.4508 188.519 42.988 188.407 42.5929H188.382C188.277 42.9915 188.163 43.4595 188.036 43.8685L187.471 45.5497H189.36L189.358 45.548Z" fill="#D9D9D9"/>
<path d="M193.228 42.6466H191.133V41.6067H196.683V42.6466H194.569V48.4077H193.228V42.6466Z" fill="#D9D9D9"/>
<path d="M198.874 41.6016V48.4061H197.533V41.6016H198.874Z" fill="#D9D9D9"/>
<path d="M199.926 47.7179L203.678 42.6743V42.6414H200.256V41.6101H205.414V42.3277L201.713 47.3349V47.3695H205.467V48.4094H199.931V47.7162L199.926 47.7179Z" fill="#D9D9D9"/>
<path d="M208.093 46.4874L207.467 48.4112H206.083L208.438 41.6067H210.144L212.522 48.406H211.086L210.422 46.4874H208.093ZM210.202 45.548L209.625 43.872C209.484 43.4508 209.363 42.988 209.251 42.5929H209.235C209.13 42.9915 209.017 43.4595 208.889 43.8685L208.323 45.5497H210.213L210.202 45.548Z" fill="#D9D9D9"/>
<path d="M218.578 48.2051C217.969 48.4282 217.323 48.5323 216.675 48.5118C214.348 48.5118 212.931 47.1565 212.931 45.0836C212.931 42.846 214.616 41.4941 216.858 41.4941C217.74 41.4941 218.363 41.6675 218.635 41.794L218.344 42.7854C217.889 42.6031 217.403 42.5124 216.913 42.5185C215.419 42.5185 214.342 43.3851 214.342 45.0212C214.342 46.5204 215.285 47.4702 216.896 47.4702C217.394 47.4754 217.889 47.3921 218.358 47.2241L218.578 48.2051ZM216.836 48.3576L216.536 48.8775C216.95 48.959 217.316 49.2242 217.316 49.6679C217.316 50.3196 216.694 50.5501 216.105 50.5501C215.807 50.557 215.511 50.4941 215.24 50.3664L215.429 49.8204C215.62 49.9104 215.828 49.9577 216.04 49.9591C216.268 49.9591 216.458 49.8776 216.458 49.6835C216.458 49.4495 216.166 49.3368 215.605 49.2762L216.09 48.3541L216.836 48.3576Z" fill="#D9D9D9"/>
<path d="M221.263 46.4873L220.637 48.4112H219.252L221.607 41.6067H223.313L225.697 48.4112H224.258L223.595 46.4873H221.263ZM221.074 41.1942C221.052 40.4472 221.368 40.0243 221.868 40.0243C222.106 40.0313 222.337 40.1006 222.54 40.2253C222.69 40.3261 222.861 40.3913 223.04 40.416C223.213 40.416 223.299 40.3293 223.334 40H223.97C223.989 40.7834 223.707 41.1318 223.168 41.1318C222.925 41.1261 222.688 41.0613 222.476 40.9429C222.33 40.8445 222.164 40.7805 221.989 40.7557C221.835 40.7557 221.744 40.9117 221.718 41.1942H221.074ZM223.372 45.548L222.794 43.872C222.654 43.4508 222.533 42.988 222.42 42.5929H222.396C222.291 42.9915 222.178 43.4595 222.05 43.8685L221.484 45.5497H223.374L223.372 45.548Z" fill="#D9D9D9"/>
<path d="M233 44.9361C233 47.2153 231.51 48.5169 229.49 48.5169C227.413 48.5169 226.105 47.0489 226.105 45.0505C226.105 42.9707 227.529 41.4854 229.599 41.4854C231.737 41.4906 233 42.9898 233 44.9361ZM227.521 45.0315C227.521 46.418 228.277 47.5238 229.557 47.5238C230.837 47.5238 231.583 46.4059 231.583 44.9829C231.583 43.6986 230.891 42.4854 229.559 42.4854C228.227 42.4854 227.521 43.6328 227.521 45.0315Z" fill="#D9D9D9"/>
<defs>
<linearGradient id="paint0_linear_487_202" x1="14.0905" y1="3.80492" x2="22.0569" y2="35.5796" gradientUnits="userSpaceOnUse">
<stop stop-color="#016498"/>
<stop offset="0.27" stop-color="#066B9E"/>
<stop offset="0.64" stop-color="#167DAF"/>
<stop offset="0.75" stop-color="#1B84B5"/>
<stop offset="1" stop-color="#104B77"/>
</linearGradient>
<linearGradient id="paint1_linear_487_202" x1="40.2104" y1="51.3165" x2="32.7222" y2="19.4256" gradientUnits="userSpaceOnUse">
<stop stop-color="#016498"/>
<stop offset="0.27" stop-color="#066B9E"/>
<stop offset="0.64" stop-color="#167DAF"/>
<stop offset="0.75" stop-color="#1B84B5"/>
<stop offset="1" stop-color="#104B77"/>
</linearGradient>
<linearGradient id="paint2_linear_487_202" x1="51.1083" y1="14.1912" x2="19.3168" y2="21.9618" gradientUnits="userSpaceOnUse">
<stop stop-color="#666666"/>
<stop offset="0.19" stop-color="#6D6D6D"/>
<stop offset="0.46" stop-color="#7F7F7F"/>
<stop offset="0.75" stop-color="#9B9B9B"/>
<stop offset="0.81" stop-color="#939393"/>
<stop offset="0.9" stop-color="#7E7E7E"/>
<stop offset="0.98" stop-color="#666666"/>
</linearGradient>
<linearGradient id="paint3_linear_487_202" x1="3.87365" y1="40.7896" x2="35.5557" y2="32.5872" gradientUnits="userSpaceOnUse">
<stop stop-color="#666666"/>
<stop offset="0.19" stop-color="#6D6D6D"/>
<stop offset="0.46" stop-color="#7F7F7F"/>
<stop offset="0.75" stop-color="#9B9B9B"/>
<stop offset="0.81" stop-color="#939393"/>
<stop offset="0.9" stop-color="#7E7E7E"/>
<stop offset="0.98" stop-color="#666666"/>
</linearGradient>
</defs>
</svg>
